G04 #@! TF.GenerationSoftware,KiCad,Pcbnew,5.1.5+dfsg1-2build2*
G04 #@! TF.CreationDate,2022-05-18T15:48:19-07:00*
G04 #@! TF.ProjectId,v3.0-Dev-Kit,76332e30-2d44-4657-962d-4b69742e6b69,rev?*
G04 #@! TF.SameCoordinates,Original*
G04 #@! TF.FileFunction,Paste,Bot*
G04 #@! TF.FilePolarity,Positive*
%FSLAX46Y46*%
G04 Gerber Fmt 4.6, Leading zero omitted, Abs format (unit mm)*
G04 Created by KiCad (PCBNEW 5.1.5+dfsg1-2build2) date 2022-05-18 15:48:19*
%MOMM*%
%LPD*%
G04 APERTURE LIST*
%ADD10C,0.100000*%
%ADD11C,0.150000*%
G04 APERTURE END LIST*
D10*
G36*
X20116000Y-6300200D02*
G01*
X20116000Y-6706600D01*
X19455600Y-6706600D01*
X19455600Y-7341600D01*
X20751000Y-7341600D01*
X20751000Y-6300200D01*
X20116000Y-6300200D01*
G37*
X20116000Y-6300200D02*
X20116000Y-6706600D01*
X19455600Y-6706600D01*
X19455600Y-7341600D01*
X20751000Y-7341600D01*
X20751000Y-6300200D01*
X20116000Y-6300200D01*
G36*
X19455600Y-2058400D02*
G01*
X19455600Y-2693400D01*
X20090600Y-2693400D01*
X20090600Y-3099800D01*
X20751000Y-3099800D01*
X20751000Y-2058400D01*
X19455600Y-2058400D01*
G37*
X19455600Y-2058400D02*
X19455600Y-2693400D01*
X20090600Y-2693400D01*
X20090600Y-3099800D01*
X20751000Y-3099800D01*
X20751000Y-2058400D01*
X19455600Y-2058400D01*
G36*
X17550600Y-6097000D02*
G01*
X17550600Y-6706600D01*
X18744400Y-6706600D01*
X18744400Y-6097000D01*
X17550600Y-6097000D01*
G37*
X17550600Y-6097000D02*
X17550600Y-6706600D01*
X18744400Y-6706600D01*
X18744400Y-6097000D01*
X17550600Y-6097000D01*
G36*
X17550600Y-2718800D02*
G01*
X17550600Y-3303000D01*
X18744400Y-3303000D01*
X18744400Y-2718800D01*
X17550600Y-2718800D01*
G37*
X17550600Y-2718800D02*
X17550600Y-3303000D01*
X18744400Y-3303000D01*
X18744400Y-2718800D01*
X17550600Y-2718800D01*
D11*
G36*
X6456505Y-25868204D02*
G01*
X6480773Y-25871804D01*
X6504572Y-25877765D01*
X6527671Y-25886030D01*
X6549850Y-25896520D01*
X6570893Y-25909132D01*
X6590599Y-25923747D01*
X6608777Y-25940223D01*
X6625253Y-25958401D01*
X6639868Y-25978107D01*
X6652480Y-25999150D01*
X6662970Y-26021329D01*
X6671235Y-26044428D01*
X6677196Y-26068227D01*
X6680796Y-26092495D01*
X6682000Y-26116999D01*
X6682000Y-27417001D01*
X6680796Y-27441505D01*
X6677196Y-27465773D01*
X6671235Y-27489572D01*
X6662970Y-27512671D01*
X6652480Y-27534850D01*
X6639868Y-27555893D01*
X6625253Y-27575599D01*
X6608777Y-27593777D01*
X6590599Y-27610253D01*
X6570893Y-27624868D01*
X6549850Y-27637480D01*
X6527671Y-27647970D01*
X6504572Y-27656235D01*
X6480773Y-27662196D01*
X6456505Y-27665796D01*
X6432001Y-27667000D01*
X5731999Y-27667000D01*
X5707495Y-27665796D01*
X5683227Y-27662196D01*
X5659428Y-27656235D01*
X5636329Y-27647970D01*
X5614150Y-27637480D01*
X5593107Y-27624868D01*
X5573401Y-27610253D01*
X5555223Y-27593777D01*
X5538747Y-27575599D01*
X5524132Y-27555893D01*
X5511520Y-27534850D01*
X5501030Y-27512671D01*
X5492765Y-27489572D01*
X5486804Y-27465773D01*
X5483204Y-27441505D01*
X5482000Y-27417001D01*
X5482000Y-26116999D01*
X5483204Y-26092495D01*
X5486804Y-26068227D01*
X5492765Y-26044428D01*
X5501030Y-26021329D01*
X5511520Y-25999150D01*
X5524132Y-25978107D01*
X5538747Y-25958401D01*
X5555223Y-25940223D01*
X5573401Y-25923747D01*
X5593107Y-25909132D01*
X5614150Y-25896520D01*
X5636329Y-25886030D01*
X5659428Y-25877765D01*
X5683227Y-25871804D01*
X5707495Y-25868204D01*
X5731999Y-25867000D01*
X6432001Y-25867000D01*
X6456505Y-25868204D01*
G37*
G36*
X11056505Y-25868204D02*
G01*
X11080773Y-25871804D01*
X11104572Y-25877765D01*
X11127671Y-25886030D01*
X11149850Y-25896520D01*
X11170893Y-25909132D01*
X11190599Y-25923747D01*
X11208777Y-25940223D01*
X11225253Y-25958401D01*
X11239868Y-25978107D01*
X11252480Y-25999150D01*
X11262970Y-26021329D01*
X11271235Y-26044428D01*
X11277196Y-26068227D01*
X11280796Y-26092495D01*
X11282000Y-26116999D01*
X11282000Y-27417001D01*
X11280796Y-27441505D01*
X11277196Y-27465773D01*
X11271235Y-27489572D01*
X11262970Y-27512671D01*
X11252480Y-27534850D01*
X11239868Y-27555893D01*
X11225253Y-27575599D01*
X11208777Y-27593777D01*
X11190599Y-27610253D01*
X11170893Y-27624868D01*
X11149850Y-27637480D01*
X11127671Y-27647970D01*
X11104572Y-27656235D01*
X11080773Y-27662196D01*
X11056505Y-27665796D01*
X11032001Y-27667000D01*
X10331999Y-27667000D01*
X10307495Y-27665796D01*
X10283227Y-27662196D01*
X10259428Y-27656235D01*
X10236329Y-27647970D01*
X10214150Y-27637480D01*
X10193107Y-27624868D01*
X10173401Y-27610253D01*
X10155223Y-27593777D01*
X10138747Y-27575599D01*
X10124132Y-27555893D01*
X10111520Y-27534850D01*
X10101030Y-27512671D01*
X10092765Y-27489572D01*
X10086804Y-27465773D01*
X10083204Y-27441505D01*
X10082000Y-27417001D01*
X10082000Y-26116999D01*
X10083204Y-26092495D01*
X10086804Y-26068227D01*
X10092765Y-26044428D01*
X10101030Y-26021329D01*
X10111520Y-25999150D01*
X10124132Y-25978107D01*
X10138747Y-25958401D01*
X10155223Y-25940223D01*
X10173401Y-25923747D01*
X10193107Y-25909132D01*
X10214150Y-25896520D01*
X10236329Y-25886030D01*
X10259428Y-25877765D01*
X10283227Y-25871804D01*
X10307495Y-25868204D01*
X10331999Y-25867000D01*
X11032001Y-25867000D01*
X11056505Y-25868204D01*
G37*
G36*
X7546703Y-22117722D02*
G01*
X7561264Y-22119882D01*
X7575543Y-22123459D01*
X7589403Y-22128418D01*
X7602710Y-22134712D01*
X7615336Y-22142280D01*
X7627159Y-22151048D01*
X7638066Y-22160934D01*
X7647952Y-22171841D01*
X7656720Y-22183664D01*
X7664288Y-22196290D01*
X7670582Y-22209597D01*
X7675541Y-22223457D01*
X7679118Y-22237736D01*
X7681278Y-22252297D01*
X7682000Y-22267000D01*
X7682000Y-23517000D01*
X7681278Y-23531703D01*
X7679118Y-23546264D01*
X7675541Y-23560543D01*
X7670582Y-23574403D01*
X7664288Y-23587710D01*
X7656720Y-23600336D01*
X7647952Y-23612159D01*
X7638066Y-23623066D01*
X7627159Y-23632952D01*
X7615336Y-23641720D01*
X7602710Y-23649288D01*
X7589403Y-23655582D01*
X7575543Y-23660541D01*
X7561264Y-23664118D01*
X7546703Y-23666278D01*
X7532000Y-23667000D01*
X7232000Y-23667000D01*
X7217297Y-23666278D01*
X7202736Y-23664118D01*
X7188457Y-23660541D01*
X7174597Y-23655582D01*
X7161290Y-23649288D01*
X7148664Y-23641720D01*
X7136841Y-23632952D01*
X7125934Y-23623066D01*
X7116048Y-23612159D01*
X7107280Y-23600336D01*
X7099712Y-23587710D01*
X7093418Y-23574403D01*
X7088459Y-23560543D01*
X7084882Y-23546264D01*
X7082722Y-23531703D01*
X7082000Y-23517000D01*
X7082000Y-22267000D01*
X7082722Y-22252297D01*
X7084882Y-22237736D01*
X7088459Y-22223457D01*
X7093418Y-22209597D01*
X7099712Y-22196290D01*
X7107280Y-22183664D01*
X7116048Y-22171841D01*
X7125934Y-22160934D01*
X7136841Y-22151048D01*
X7148664Y-22142280D01*
X7161290Y-22134712D01*
X7174597Y-22128418D01*
X7188457Y-22123459D01*
X7202736Y-22119882D01*
X7217297Y-22117722D01*
X7232000Y-22117000D01*
X7532000Y-22117000D01*
X7546703Y-22117722D01*
G37*
G36*
X8546703Y-22117722D02*
G01*
X8561264Y-22119882D01*
X8575543Y-22123459D01*
X8589403Y-22128418D01*
X8602710Y-22134712D01*
X8615336Y-22142280D01*
X8627159Y-22151048D01*
X8638066Y-22160934D01*
X8647952Y-22171841D01*
X8656720Y-22183664D01*
X8664288Y-22196290D01*
X8670582Y-22209597D01*
X8675541Y-22223457D01*
X8679118Y-22237736D01*
X8681278Y-22252297D01*
X8682000Y-22267000D01*
X8682000Y-23517000D01*
X8681278Y-23531703D01*
X8679118Y-23546264D01*
X8675541Y-23560543D01*
X8670582Y-23574403D01*
X8664288Y-23587710D01*
X8656720Y-23600336D01*
X8647952Y-23612159D01*
X8638066Y-23623066D01*
X8627159Y-23632952D01*
X8615336Y-23641720D01*
X8602710Y-23649288D01*
X8589403Y-23655582D01*
X8575543Y-23660541D01*
X8561264Y-23664118D01*
X8546703Y-23666278D01*
X8532000Y-23667000D01*
X8232000Y-23667000D01*
X8217297Y-23666278D01*
X8202736Y-23664118D01*
X8188457Y-23660541D01*
X8174597Y-23655582D01*
X8161290Y-23649288D01*
X8148664Y-23641720D01*
X8136841Y-23632952D01*
X8125934Y-23623066D01*
X8116048Y-23612159D01*
X8107280Y-23600336D01*
X8099712Y-23587710D01*
X8093418Y-23574403D01*
X8088459Y-23560543D01*
X8084882Y-23546264D01*
X8082722Y-23531703D01*
X8082000Y-23517000D01*
X8082000Y-22267000D01*
X8082722Y-22252297D01*
X8084882Y-22237736D01*
X8088459Y-22223457D01*
X8093418Y-22209597D01*
X8099712Y-22196290D01*
X8107280Y-22183664D01*
X8116048Y-22171841D01*
X8125934Y-22160934D01*
X8136841Y-22151048D01*
X8148664Y-22142280D01*
X8161290Y-22134712D01*
X8174597Y-22128418D01*
X8188457Y-22123459D01*
X8202736Y-22119882D01*
X8217297Y-22117722D01*
X8232000Y-22117000D01*
X8532000Y-22117000D01*
X8546703Y-22117722D01*
G37*
G36*
X9546703Y-22117722D02*
G01*
X9561264Y-22119882D01*
X9575543Y-22123459D01*
X9589403Y-22128418D01*
X9602710Y-22134712D01*
X9615336Y-22142280D01*
X9627159Y-22151048D01*
X9638066Y-22160934D01*
X9647952Y-22171841D01*
X9656720Y-22183664D01*
X9664288Y-22196290D01*
X9670582Y-22209597D01*
X9675541Y-22223457D01*
X9679118Y-22237736D01*
X9681278Y-22252297D01*
X9682000Y-22267000D01*
X9682000Y-23517000D01*
X9681278Y-23531703D01*
X9679118Y-23546264D01*
X9675541Y-23560543D01*
X9670582Y-23574403D01*
X9664288Y-23587710D01*
X9656720Y-23600336D01*
X9647952Y-23612159D01*
X9638066Y-23623066D01*
X9627159Y-23632952D01*
X9615336Y-23641720D01*
X9602710Y-23649288D01*
X9589403Y-23655582D01*
X9575543Y-23660541D01*
X9561264Y-23664118D01*
X9546703Y-23666278D01*
X9532000Y-23667000D01*
X9232000Y-23667000D01*
X9217297Y-23666278D01*
X9202736Y-23664118D01*
X9188457Y-23660541D01*
X9174597Y-23655582D01*
X9161290Y-23649288D01*
X9148664Y-23641720D01*
X9136841Y-23632952D01*
X9125934Y-23623066D01*
X9116048Y-23612159D01*
X9107280Y-23600336D01*
X9099712Y-23587710D01*
X9093418Y-23574403D01*
X9088459Y-23560543D01*
X9084882Y-23546264D01*
X9082722Y-23531703D01*
X9082000Y-23517000D01*
X9082000Y-22267000D01*
X9082722Y-22252297D01*
X9084882Y-22237736D01*
X9088459Y-22223457D01*
X9093418Y-22209597D01*
X9099712Y-22196290D01*
X9107280Y-22183664D01*
X9116048Y-22171841D01*
X9125934Y-22160934D01*
X9136841Y-22151048D01*
X9148664Y-22142280D01*
X9161290Y-22134712D01*
X9174597Y-22128418D01*
X9188457Y-22123459D01*
X9202736Y-22119882D01*
X9217297Y-22117722D01*
X9232000Y-22117000D01*
X9532000Y-22117000D01*
X9546703Y-22117722D01*
G37*
G36*
X-10299495Y-25868204D02*
G01*
X-10275227Y-25871804D01*
X-10251428Y-25877765D01*
X-10228329Y-25886030D01*
X-10206150Y-25896520D01*
X-10185107Y-25909132D01*
X-10165401Y-25923747D01*
X-10147223Y-25940223D01*
X-10130747Y-25958401D01*
X-10116132Y-25978107D01*
X-10103520Y-25999150D01*
X-10093030Y-26021329D01*
X-10084765Y-26044428D01*
X-10078804Y-26068227D01*
X-10075204Y-26092495D01*
X-10074000Y-26116999D01*
X-10074000Y-27417001D01*
X-10075204Y-27441505D01*
X-10078804Y-27465773D01*
X-10084765Y-27489572D01*
X-10093030Y-27512671D01*
X-10103520Y-27534850D01*
X-10116132Y-27555893D01*
X-10130747Y-27575599D01*
X-10147223Y-27593777D01*
X-10165401Y-27610253D01*
X-10185107Y-27624868D01*
X-10206150Y-27637480D01*
X-10228329Y-27647970D01*
X-10251428Y-27656235D01*
X-10275227Y-27662196D01*
X-10299495Y-27665796D01*
X-10323999Y-27667000D01*
X-11024001Y-27667000D01*
X-11048505Y-27665796D01*
X-11072773Y-27662196D01*
X-11096572Y-27656235D01*
X-11119671Y-27647970D01*
X-11141850Y-27637480D01*
X-11162893Y-27624868D01*
X-11182599Y-27610253D01*
X-11200777Y-27593777D01*
X-11217253Y-27575599D01*
X-11231868Y-27555893D01*
X-11244480Y-27534850D01*
X-11254970Y-27512671D01*
X-11263235Y-27489572D01*
X-11269196Y-27465773D01*
X-11272796Y-27441505D01*
X-11274000Y-27417001D01*
X-11274000Y-26116999D01*
X-11272796Y-26092495D01*
X-11269196Y-26068227D01*
X-11263235Y-26044428D01*
X-11254970Y-26021329D01*
X-11244480Y-25999150D01*
X-11231868Y-25978107D01*
X-11217253Y-25958401D01*
X-11200777Y-25940223D01*
X-11182599Y-25923747D01*
X-11162893Y-25909132D01*
X-11141850Y-25896520D01*
X-11119671Y-25886030D01*
X-11096572Y-25877765D01*
X-11072773Y-25871804D01*
X-11048505Y-25868204D01*
X-11024001Y-25867000D01*
X-10323999Y-25867000D01*
X-10299495Y-25868204D01*
G37*
G36*
X-4699495Y-25868204D02*
G01*
X-4675227Y-25871804D01*
X-4651428Y-25877765D01*
X-4628329Y-25886030D01*
X-4606150Y-25896520D01*
X-4585107Y-25909132D01*
X-4565401Y-25923747D01*
X-4547223Y-25940223D01*
X-4530747Y-25958401D01*
X-4516132Y-25978107D01*
X-4503520Y-25999150D01*
X-4493030Y-26021329D01*
X-4484765Y-26044428D01*
X-4478804Y-26068227D01*
X-4475204Y-26092495D01*
X-4474000Y-26116999D01*
X-4474000Y-27417001D01*
X-4475204Y-27441505D01*
X-4478804Y-27465773D01*
X-4484765Y-27489572D01*
X-4493030Y-27512671D01*
X-4503520Y-27534850D01*
X-4516132Y-27555893D01*
X-4530747Y-27575599D01*
X-4547223Y-27593777D01*
X-4565401Y-27610253D01*
X-4585107Y-27624868D01*
X-4606150Y-27637480D01*
X-4628329Y-27647970D01*
X-4651428Y-27656235D01*
X-4675227Y-27662196D01*
X-4699495Y-27665796D01*
X-4723999Y-27667000D01*
X-5424001Y-27667000D01*
X-5448505Y-27665796D01*
X-5472773Y-27662196D01*
X-5496572Y-27656235D01*
X-5519671Y-27647970D01*
X-5541850Y-27637480D01*
X-5562893Y-27624868D01*
X-5582599Y-27610253D01*
X-5600777Y-27593777D01*
X-5617253Y-27575599D01*
X-5631868Y-27555893D01*
X-5644480Y-27534850D01*
X-5654970Y-27512671D01*
X-5663235Y-27489572D01*
X-5669196Y-27465773D01*
X-5672796Y-27441505D01*
X-5674000Y-27417001D01*
X-5674000Y-26116999D01*
X-5672796Y-26092495D01*
X-5669196Y-26068227D01*
X-5663235Y-26044428D01*
X-5654970Y-26021329D01*
X-5644480Y-25999150D01*
X-5631868Y-25978107D01*
X-5617253Y-25958401D01*
X-5600777Y-25940223D01*
X-5582599Y-25923747D01*
X-5562893Y-25909132D01*
X-5541850Y-25896520D01*
X-5519671Y-25886030D01*
X-5496572Y-25877765D01*
X-5472773Y-25871804D01*
X-5448505Y-25868204D01*
X-5424001Y-25867000D01*
X-4723999Y-25867000D01*
X-4699495Y-25868204D01*
G37*
G36*
X-9209297Y-22117722D02*
G01*
X-9194736Y-22119882D01*
X-9180457Y-22123459D01*
X-9166597Y-22128418D01*
X-9153290Y-22134712D01*
X-9140664Y-22142280D01*
X-9128841Y-22151048D01*
X-9117934Y-22160934D01*
X-9108048Y-22171841D01*
X-9099280Y-22183664D01*
X-9091712Y-22196290D01*
X-9085418Y-22209597D01*
X-9080459Y-22223457D01*
X-9076882Y-22237736D01*
X-9074722Y-22252297D01*
X-9074000Y-22267000D01*
X-9074000Y-23517000D01*
X-9074722Y-23531703D01*
X-9076882Y-23546264D01*
X-9080459Y-23560543D01*
X-9085418Y-23574403D01*
X-9091712Y-23587710D01*
X-9099280Y-23600336D01*
X-9108048Y-23612159D01*
X-9117934Y-23623066D01*
X-9128841Y-23632952D01*
X-9140664Y-23641720D01*
X-9153290Y-23649288D01*
X-9166597Y-23655582D01*
X-9180457Y-23660541D01*
X-9194736Y-23664118D01*
X-9209297Y-23666278D01*
X-9224000Y-23667000D01*
X-9524000Y-23667000D01*
X-9538703Y-23666278D01*
X-9553264Y-23664118D01*
X-9567543Y-23660541D01*
X-9581403Y-23655582D01*
X-9594710Y-23649288D01*
X-9607336Y-23641720D01*
X-9619159Y-23632952D01*
X-9630066Y-23623066D01*
X-9639952Y-23612159D01*
X-9648720Y-23600336D01*
X-9656288Y-23587710D01*
X-9662582Y-23574403D01*
X-9667541Y-23560543D01*
X-9671118Y-23546264D01*
X-9673278Y-23531703D01*
X-9674000Y-23517000D01*
X-9674000Y-22267000D01*
X-9673278Y-22252297D01*
X-9671118Y-22237736D01*
X-9667541Y-22223457D01*
X-9662582Y-22209597D01*
X-9656288Y-22196290D01*
X-9648720Y-22183664D01*
X-9639952Y-22171841D01*
X-9630066Y-22160934D01*
X-9619159Y-22151048D01*
X-9607336Y-22142280D01*
X-9594710Y-22134712D01*
X-9581403Y-22128418D01*
X-9567543Y-22123459D01*
X-9553264Y-22119882D01*
X-9538703Y-22117722D01*
X-9524000Y-22117000D01*
X-9224000Y-22117000D01*
X-9209297Y-22117722D01*
G37*
G36*
X-8209297Y-22117722D02*
G01*
X-8194736Y-22119882D01*
X-8180457Y-22123459D01*
X-8166597Y-22128418D01*
X-8153290Y-22134712D01*
X-8140664Y-22142280D01*
X-8128841Y-22151048D01*
X-8117934Y-22160934D01*
X-8108048Y-22171841D01*
X-8099280Y-22183664D01*
X-8091712Y-22196290D01*
X-8085418Y-22209597D01*
X-8080459Y-22223457D01*
X-8076882Y-22237736D01*
X-8074722Y-22252297D01*
X-8074000Y-22267000D01*
X-8074000Y-23517000D01*
X-8074722Y-23531703D01*
X-8076882Y-23546264D01*
X-8080459Y-23560543D01*
X-8085418Y-23574403D01*
X-8091712Y-23587710D01*
X-8099280Y-23600336D01*
X-8108048Y-23612159D01*
X-8117934Y-23623066D01*
X-8128841Y-23632952D01*
X-8140664Y-23641720D01*
X-8153290Y-23649288D01*
X-8166597Y-23655582D01*
X-8180457Y-23660541D01*
X-8194736Y-23664118D01*
X-8209297Y-23666278D01*
X-8224000Y-23667000D01*
X-8524000Y-23667000D01*
X-8538703Y-23666278D01*
X-8553264Y-23664118D01*
X-8567543Y-23660541D01*
X-8581403Y-23655582D01*
X-8594710Y-23649288D01*
X-8607336Y-23641720D01*
X-8619159Y-23632952D01*
X-8630066Y-23623066D01*
X-8639952Y-23612159D01*
X-8648720Y-23600336D01*
X-8656288Y-23587710D01*
X-8662582Y-23574403D01*
X-8667541Y-23560543D01*
X-8671118Y-23546264D01*
X-8673278Y-23531703D01*
X-8674000Y-23517000D01*
X-8674000Y-22267000D01*
X-8673278Y-22252297D01*
X-8671118Y-22237736D01*
X-8667541Y-22223457D01*
X-8662582Y-22209597D01*
X-8656288Y-22196290D01*
X-8648720Y-22183664D01*
X-8639952Y-22171841D01*
X-8630066Y-22160934D01*
X-8619159Y-22151048D01*
X-8607336Y-22142280D01*
X-8594710Y-22134712D01*
X-8581403Y-22128418D01*
X-8567543Y-22123459D01*
X-8553264Y-22119882D01*
X-8538703Y-22117722D01*
X-8524000Y-22117000D01*
X-8224000Y-22117000D01*
X-8209297Y-22117722D01*
G37*
G36*
X-7209297Y-22117722D02*
G01*
X-7194736Y-22119882D01*
X-7180457Y-22123459D01*
X-7166597Y-22128418D01*
X-7153290Y-22134712D01*
X-7140664Y-22142280D01*
X-7128841Y-22151048D01*
X-7117934Y-22160934D01*
X-7108048Y-22171841D01*
X-7099280Y-22183664D01*
X-7091712Y-22196290D01*
X-7085418Y-22209597D01*
X-7080459Y-22223457D01*
X-7076882Y-22237736D01*
X-7074722Y-22252297D01*
X-7074000Y-22267000D01*
X-7074000Y-23517000D01*
X-7074722Y-23531703D01*
X-7076882Y-23546264D01*
X-7080459Y-23560543D01*
X-7085418Y-23574403D01*
X-7091712Y-23587710D01*
X-7099280Y-23600336D01*
X-7108048Y-23612159D01*
X-7117934Y-23623066D01*
X-7128841Y-23632952D01*
X-7140664Y-23641720D01*
X-7153290Y-23649288D01*
X-7166597Y-23655582D01*
X-7180457Y-23660541D01*
X-7194736Y-23664118D01*
X-7209297Y-23666278D01*
X-7224000Y-23667000D01*
X-7524000Y-23667000D01*
X-7538703Y-23666278D01*
X-7553264Y-23664118D01*
X-7567543Y-23660541D01*
X-7581403Y-23655582D01*
X-7594710Y-23649288D01*
X-7607336Y-23641720D01*
X-7619159Y-23632952D01*
X-7630066Y-23623066D01*
X-7639952Y-23612159D01*
X-7648720Y-23600336D01*
X-7656288Y-23587710D01*
X-7662582Y-23574403D01*
X-7667541Y-23560543D01*
X-7671118Y-23546264D01*
X-7673278Y-23531703D01*
X-7674000Y-23517000D01*
X-7674000Y-22267000D01*
X-7673278Y-22252297D01*
X-7671118Y-22237736D01*
X-7667541Y-22223457D01*
X-7662582Y-22209597D01*
X-7656288Y-22196290D01*
X-7648720Y-22183664D01*
X-7639952Y-22171841D01*
X-7630066Y-22160934D01*
X-7619159Y-22151048D01*
X-7607336Y-22142280D01*
X-7594710Y-22134712D01*
X-7581403Y-22128418D01*
X-7567543Y-22123459D01*
X-7553264Y-22119882D01*
X-7538703Y-22117722D01*
X-7524000Y-22117000D01*
X-7224000Y-22117000D01*
X-7209297Y-22117722D01*
G37*
G36*
X-6209297Y-22117722D02*
G01*
X-6194736Y-22119882D01*
X-6180457Y-22123459D01*
X-6166597Y-22128418D01*
X-6153290Y-22134712D01*
X-6140664Y-22142280D01*
X-6128841Y-22151048D01*
X-6117934Y-22160934D01*
X-6108048Y-22171841D01*
X-6099280Y-22183664D01*
X-6091712Y-22196290D01*
X-6085418Y-22209597D01*
X-6080459Y-22223457D01*
X-6076882Y-22237736D01*
X-6074722Y-22252297D01*
X-6074000Y-22267000D01*
X-6074000Y-23517000D01*
X-6074722Y-23531703D01*
X-6076882Y-23546264D01*
X-6080459Y-23560543D01*
X-6085418Y-23574403D01*
X-6091712Y-23587710D01*
X-6099280Y-23600336D01*
X-6108048Y-23612159D01*
X-6117934Y-23623066D01*
X-6128841Y-23632952D01*
X-6140664Y-23641720D01*
X-6153290Y-23649288D01*
X-6166597Y-23655582D01*
X-6180457Y-23660541D01*
X-6194736Y-23664118D01*
X-6209297Y-23666278D01*
X-6224000Y-23667000D01*
X-6524000Y-23667000D01*
X-6538703Y-23666278D01*
X-6553264Y-23664118D01*
X-6567543Y-23660541D01*
X-6581403Y-23655582D01*
X-6594710Y-23649288D01*
X-6607336Y-23641720D01*
X-6619159Y-23632952D01*
X-6630066Y-23623066D01*
X-6639952Y-23612159D01*
X-6648720Y-23600336D01*
X-6656288Y-23587710D01*
X-6662582Y-23574403D01*
X-6667541Y-23560543D01*
X-6671118Y-23546264D01*
X-6673278Y-23531703D01*
X-6674000Y-23517000D01*
X-6674000Y-22267000D01*
X-6673278Y-22252297D01*
X-6671118Y-22237736D01*
X-6667541Y-22223457D01*
X-6662582Y-22209597D01*
X-6656288Y-22196290D01*
X-6648720Y-22183664D01*
X-6639952Y-22171841D01*
X-6630066Y-22160934D01*
X-6619159Y-22151048D01*
X-6607336Y-22142280D01*
X-6594710Y-22134712D01*
X-6581403Y-22128418D01*
X-6567543Y-22123459D01*
X-6553264Y-22119882D01*
X-6538703Y-22117722D01*
X-6524000Y-22117000D01*
X-6224000Y-22117000D01*
X-6209297Y-22117722D01*
G37*
M02*
