G04 #@! TF.GenerationSoftware,KiCad,Pcbnew,5.1.5+dfsg1-2build2*
G04 #@! TF.CreationDate,2022-05-18T15:48:19-07:00*
G04 #@! TF.ProjectId,v3.0-Dev-Kit,76332e30-2d44-4657-962d-4b69742e6b69,rev?*
G04 #@! TF.SameCoordinates,Original*
G04 #@! TF.FileFunction,Soldermask,Bot*
G04 #@! TF.FilePolarity,Negative*
%FSLAX46Y46*%
G04 Gerber Fmt 4.6, Leading zero omitted, Abs format (unit mm)*
G04 Created by KiCad (PCBNEW 5.1.5+dfsg1-2build2) date 2022-05-18 15:48:19*
%MOMM*%
%LPD*%
G04 APERTURE LIST*
%ADD10C,0.200000*%
%ADD11C,0.100000*%
%ADD12C,0.010000*%
%ADD13C,0.150000*%
G04 APERTURE END LIST*
D10*
X20750000Y-7350000D02*
X19450000Y-7350000D01*
X19450000Y-7350000D02*
X19450000Y-6700000D01*
X19450000Y-6700000D02*
X20100000Y-6700000D01*
X20100000Y-6700000D02*
X20100000Y-6300000D01*
X20100000Y-6300000D02*
X20750000Y-6300000D01*
X20750000Y-6300000D02*
X20750000Y-7350000D01*
X20750000Y-3100000D02*
X20100000Y-3100000D01*
X20100000Y-3100000D02*
X20100000Y-2700000D01*
X20100000Y-2700000D02*
X19450000Y-2700000D01*
X19450000Y-2700000D02*
X19450000Y-2050000D01*
X19450000Y-2050000D02*
X20750000Y-2050000D01*
X20750000Y-2050000D02*
X20750000Y-3100000D01*
X18750000Y-6700000D02*
X18750000Y-6100000D01*
X18750000Y-6100000D02*
X17550000Y-6100000D01*
X17550000Y-6100000D02*
X17550000Y-6700000D01*
X17550000Y-6700000D02*
X18750000Y-6700000D01*
X18750000Y-3300000D02*
X18750000Y-2700000D01*
X18750000Y-2700000D02*
X17550000Y-2700000D01*
X17550000Y-2700000D02*
X17550000Y-3300000D01*
X17550000Y-3300000D02*
X18750000Y-3300000D01*
D11*
G36*
X19455600Y-2058400D02*
G01*
X19455600Y-2693400D01*
X20090600Y-2693400D01*
X20090600Y-3099800D01*
X20751000Y-3099800D01*
X20751000Y-2058400D01*
X19455600Y-2058400D01*
G37*
X19455600Y-2058400D02*
X19455600Y-2693400D01*
X20090600Y-2693400D01*
X20090600Y-3099800D01*
X20751000Y-3099800D01*
X20751000Y-2058400D01*
X19455600Y-2058400D01*
G36*
X20116000Y-6300200D02*
G01*
X20116000Y-6706600D01*
X19455600Y-6706600D01*
X19455600Y-7341600D01*
X20751000Y-7341600D01*
X20751000Y-6300200D01*
X20116000Y-6300200D01*
G37*
X20116000Y-6300200D02*
X20116000Y-6706600D01*
X19455600Y-6706600D01*
X19455600Y-7341600D01*
X20751000Y-7341600D01*
X20751000Y-6300200D01*
X20116000Y-6300200D01*
G36*
X17550600Y-6097000D02*
G01*
X17550600Y-6706600D01*
X18744400Y-6706600D01*
X18744400Y-6097000D01*
X17550600Y-6097000D01*
G37*
X17550600Y-6097000D02*
X17550600Y-6706600D01*
X18744400Y-6706600D01*
X18744400Y-6097000D01*
X17550600Y-6097000D01*
G36*
X17550600Y-2718800D02*
G01*
X17550600Y-3303000D01*
X18744400Y-3303000D01*
X18744400Y-2718800D01*
X17550600Y-2718800D01*
G37*
X17550600Y-2718800D02*
X17550600Y-3303000D01*
X18744400Y-3303000D01*
X18744400Y-2718800D01*
X17550600Y-2718800D01*
D10*
X20750000Y-7350000D02*
X19450000Y-7350000D01*
X19450000Y-7350000D02*
X19450000Y-6700000D01*
X19450000Y-6700000D02*
X20100000Y-6700000D01*
X20100000Y-6700000D02*
X20100000Y-6300000D01*
X20100000Y-6300000D02*
X20750000Y-6300000D01*
X20750000Y-6300000D02*
X20750000Y-7350000D01*
X20750000Y-3100000D02*
X20100000Y-3100000D01*
X20100000Y-3100000D02*
X20100000Y-2700000D01*
X20100000Y-2700000D02*
X19450000Y-2700000D01*
X19450000Y-2700000D02*
X19450000Y-2050000D01*
X19450000Y-2050000D02*
X20750000Y-2050000D01*
X20750000Y-2050000D02*
X20750000Y-3100000D01*
X18750000Y-6700000D02*
X18750000Y-6100000D01*
X18750000Y-6100000D02*
X17550000Y-6100000D01*
X17550000Y-6100000D02*
X17550000Y-6700000D01*
X17550000Y-6700000D02*
X18750000Y-6700000D01*
X18750000Y-3300000D02*
X18750000Y-2700000D01*
X18750000Y-2700000D02*
X17550000Y-2700000D01*
X17550000Y-2700000D02*
X17550000Y-3300000D01*
X17550000Y-3300000D02*
X18750000Y-3300000D01*
X19775001Y-5550000D02*
G75*
G03X19775001Y-5550000I-325001J0D01*
G01*
X19775000Y-3850000D02*
G75*
G03X19775000Y-3850000I-325000J0D01*
G01*
D12*
G36*
X2063245Y-20257301D02*
G01*
X2167540Y-20332862D01*
X2230483Y-20420200D01*
X2271738Y-20544422D01*
X2272389Y-20665292D01*
X2238189Y-20775372D01*
X2174888Y-20867227D01*
X2088241Y-20933420D01*
X1984000Y-20966514D01*
X1867915Y-20959075D01*
X1824459Y-20945091D01*
X1727200Y-20906886D01*
X1727200Y-21055200D01*
X2133600Y-21055200D01*
X2133600Y-21258400D01*
X1866900Y-21258400D01*
X1743835Y-21257235D01*
X1660717Y-21252598D01*
X1606724Y-21242777D01*
X1571032Y-21226059D01*
X1550046Y-21208246D01*
X1515392Y-21165699D01*
X1492157Y-21113447D01*
X1478796Y-21041931D01*
X1473763Y-20941596D01*
X1475512Y-20802884D01*
X1476983Y-20756552D01*
X1487549Y-20593708D01*
X1488166Y-20590182D01*
X1736089Y-20590182D01*
X1747262Y-20662220D01*
X1788869Y-20719618D01*
X1858046Y-20749000D01*
X1879600Y-20750400D01*
X1955231Y-20729960D01*
X1996114Y-20687085D01*
X2024321Y-20603723D01*
X2005687Y-20522511D01*
X1943104Y-20455967D01*
X1942696Y-20455700D01*
X1893060Y-20428994D01*
X1853817Y-20433652D01*
X1816503Y-20455700D01*
X1758215Y-20516882D01*
X1736089Y-20590182D01*
X1488166Y-20590182D01*
X1508833Y-20472188D01*
X1544466Y-20383013D01*
X1598077Y-20317202D01*
X1673298Y-20265778D01*
X1676003Y-20264322D01*
X1806327Y-20219897D01*
X1939124Y-20218601D01*
X2063245Y-20257301D01*
G37*
X2063245Y-20257301D02*
X2167540Y-20332862D01*
X2230483Y-20420200D01*
X2271738Y-20544422D01*
X2272389Y-20665292D01*
X2238189Y-20775372D01*
X2174888Y-20867227D01*
X2088241Y-20933420D01*
X1984000Y-20966514D01*
X1867915Y-20959075D01*
X1824459Y-20945091D01*
X1727200Y-20906886D01*
X1727200Y-21055200D01*
X2133600Y-21055200D01*
X2133600Y-21258400D01*
X1866900Y-21258400D01*
X1743835Y-21257235D01*
X1660717Y-21252598D01*
X1606724Y-21242777D01*
X1571032Y-21226059D01*
X1550046Y-21208246D01*
X1515392Y-21165699D01*
X1492157Y-21113447D01*
X1478796Y-21041931D01*
X1473763Y-20941596D01*
X1475512Y-20802884D01*
X1476983Y-20756552D01*
X1487549Y-20593708D01*
X1488166Y-20590182D01*
X1736089Y-20590182D01*
X1747262Y-20662220D01*
X1788869Y-20719618D01*
X1858046Y-20749000D01*
X1879600Y-20750400D01*
X1955231Y-20729960D01*
X1996114Y-20687085D01*
X2024321Y-20603723D01*
X2005687Y-20522511D01*
X1943104Y-20455967D01*
X1942696Y-20455700D01*
X1893060Y-20428994D01*
X1853817Y-20433652D01*
X1816503Y-20455700D01*
X1758215Y-20516882D01*
X1736089Y-20590182D01*
X1488166Y-20590182D01*
X1508833Y-20472188D01*
X1544466Y-20383013D01*
X1598077Y-20317202D01*
X1673298Y-20265778D01*
X1676003Y-20264322D01*
X1806327Y-20219897D01*
X1939124Y-20218601D01*
X2063245Y-20257301D01*
G36*
X2926924Y-20239032D02*
G01*
X3040480Y-20301616D01*
X3121815Y-20400365D01*
X3165690Y-20530793D01*
X3167534Y-20543270D01*
X3164577Y-20675745D01*
X3123460Y-20791123D01*
X3051680Y-20882878D01*
X2956736Y-20944484D01*
X2846125Y-20969417D01*
X2727346Y-20951151D01*
X2707578Y-20943572D01*
X2612944Y-20904031D01*
X2620922Y-20973265D01*
X2627156Y-21008119D01*
X2643237Y-21029239D01*
X2680126Y-21040727D01*
X2748784Y-21046685D01*
X2825750Y-21049918D01*
X3022600Y-21057336D01*
X3022600Y-21258400D01*
X2760327Y-21258400D01*
X2640803Y-21257552D01*
X2560761Y-21253571D01*
X2508890Y-21244302D01*
X2473881Y-21227591D01*
X2444425Y-21201281D01*
X2440862Y-21197520D01*
X2418236Y-21170803D01*
X2402805Y-21141085D01*
X2393486Y-21099117D01*
X2389195Y-21035654D01*
X2388849Y-20941448D01*
X2391364Y-20807253D01*
X2391984Y-20780388D01*
X2395760Y-20638428D01*
X2396810Y-20615724D01*
X2632164Y-20615724D01*
X2650441Y-20688075D01*
X2665876Y-20710946D01*
X2721198Y-20742969D01*
X2795075Y-20747488D01*
X2863385Y-20724556D01*
X2881085Y-20710485D01*
X2918452Y-20641668D01*
X2917517Y-20562554D01*
X2882974Y-20489900D01*
X2819517Y-20440466D01*
X2803890Y-20434876D01*
X2737476Y-20437315D01*
X2682303Y-20477099D01*
X2644992Y-20540984D01*
X2632164Y-20615724D01*
X2396810Y-20615724D01*
X2400414Y-20537836D01*
X2407541Y-20469188D01*
X2418738Y-20423057D01*
X2435599Y-20390017D01*
X2459723Y-20360642D01*
X2463800Y-20356254D01*
X2570573Y-20268470D01*
X2691172Y-20224799D01*
X2786388Y-20217094D01*
X2926924Y-20239032D01*
G37*
X2926924Y-20239032D02*
X3040480Y-20301616D01*
X3121815Y-20400365D01*
X3165690Y-20530793D01*
X3167534Y-20543270D01*
X3164577Y-20675745D01*
X3123460Y-20791123D01*
X3051680Y-20882878D01*
X2956736Y-20944484D01*
X2846125Y-20969417D01*
X2727346Y-20951151D01*
X2707578Y-20943572D01*
X2612944Y-20904031D01*
X2620922Y-20973265D01*
X2627156Y-21008119D01*
X2643237Y-21029239D01*
X2680126Y-21040727D01*
X2748784Y-21046685D01*
X2825750Y-21049918D01*
X3022600Y-21057336D01*
X3022600Y-21258400D01*
X2760327Y-21258400D01*
X2640803Y-21257552D01*
X2560761Y-21253571D01*
X2508890Y-21244302D01*
X2473881Y-21227591D01*
X2444425Y-21201281D01*
X2440862Y-21197520D01*
X2418236Y-21170803D01*
X2402805Y-21141085D01*
X2393486Y-21099117D01*
X2389195Y-21035654D01*
X2388849Y-20941448D01*
X2391364Y-20807253D01*
X2391984Y-20780388D01*
X2395760Y-20638428D01*
X2396810Y-20615724D01*
X2632164Y-20615724D01*
X2650441Y-20688075D01*
X2665876Y-20710946D01*
X2721198Y-20742969D01*
X2795075Y-20747488D01*
X2863385Y-20724556D01*
X2881085Y-20710485D01*
X2918452Y-20641668D01*
X2917517Y-20562554D01*
X2882974Y-20489900D01*
X2819517Y-20440466D01*
X2803890Y-20434876D01*
X2737476Y-20437315D01*
X2682303Y-20477099D01*
X2644992Y-20540984D01*
X2632164Y-20615724D01*
X2396810Y-20615724D01*
X2400414Y-20537836D01*
X2407541Y-20469188D01*
X2418738Y-20423057D01*
X2435599Y-20390017D01*
X2459723Y-20360642D01*
X2463800Y-20356254D01*
X2570573Y-20268470D01*
X2691172Y-20224799D01*
X2786388Y-20217094D01*
X2926924Y-20239032D01*
G36*
X-3568545Y-19914571D02*
G01*
X-3533171Y-19920496D01*
X-3530600Y-19922881D01*
X-3522673Y-19948851D01*
X-3500392Y-20016167D01*
X-3466012Y-20118168D01*
X-3421788Y-20248192D01*
X-3369973Y-20399576D01*
X-3328638Y-20519781D01*
X-3126676Y-21106000D01*
X-3345915Y-21106000D01*
X-3540056Y-20540850D01*
X-3594967Y-20379677D01*
X-3643838Y-20233693D01*
X-3684355Y-20110020D01*
X-3714205Y-20015779D01*
X-3731072Y-19958092D01*
X-3733999Y-19943950D01*
X-3710136Y-19921532D01*
X-3643276Y-19912320D01*
X-3632200Y-19912200D01*
X-3568545Y-19914571D01*
G37*
X-3568545Y-19914571D02*
X-3533171Y-19920496D01*
X-3530600Y-19922881D01*
X-3522673Y-19948851D01*
X-3500392Y-20016167D01*
X-3466012Y-20118168D01*
X-3421788Y-20248192D01*
X-3369973Y-20399576D01*
X-3328638Y-20519781D01*
X-3126676Y-21106000D01*
X-3345915Y-21106000D01*
X-3540056Y-20540850D01*
X-3594967Y-20379677D01*
X-3643838Y-20233693D01*
X-3684355Y-20110020D01*
X-3714205Y-20015779D01*
X-3731072Y-19958092D01*
X-3733999Y-19943950D01*
X-3710136Y-19921532D01*
X-3643276Y-19912320D01*
X-3632200Y-19912200D01*
X-3568545Y-19914571D01*
G36*
X-6005690Y-20471575D02*
G01*
X-5974904Y-20574213D01*
X-5947117Y-20653173D01*
X-5925839Y-20699250D01*
X-5916096Y-20706525D01*
X-5901785Y-20674687D01*
X-5878842Y-20605702D01*
X-5851141Y-20511658D01*
X-5836526Y-20458300D01*
X-5775451Y-20229700D01*
X-5643626Y-20222022D01*
X-5569715Y-20221069D01*
X-5521881Y-20226884D01*
X-5511800Y-20233700D01*
X-5519329Y-20263719D01*
X-5539966Y-20332509D01*
X-5570786Y-20430634D01*
X-5608865Y-20548660D01*
X-5619750Y-20581922D01*
X-5665693Y-20718418D01*
X-5701684Y-20814809D01*
X-5731976Y-20879765D01*
X-5760818Y-20921957D01*
X-5792462Y-20950053D01*
X-5803900Y-20957500D01*
X-5882853Y-20995255D01*
X-5952349Y-20997790D01*
X-6007982Y-20980231D01*
X-6063308Y-20947302D01*
X-6087130Y-20924691D01*
X-6103256Y-20891003D01*
X-6130968Y-20820224D01*
X-6166374Y-20723646D01*
X-6205578Y-20612563D01*
X-6244687Y-20498268D01*
X-6279807Y-20392052D01*
X-6307044Y-20305209D01*
X-6322504Y-20249031D01*
X-6324600Y-20236012D01*
X-6301779Y-20225050D01*
X-6243570Y-20218180D01*
X-6200695Y-20217000D01*
X-6076789Y-20217000D01*
X-6005690Y-20471575D01*
G37*
X-6005690Y-20471575D02*
X-5974904Y-20574213D01*
X-5947117Y-20653173D01*
X-5925839Y-20699250D01*
X-5916096Y-20706525D01*
X-5901785Y-20674687D01*
X-5878842Y-20605702D01*
X-5851141Y-20511658D01*
X-5836526Y-20458300D01*
X-5775451Y-20229700D01*
X-5643626Y-20222022D01*
X-5569715Y-20221069D01*
X-5521881Y-20226884D01*
X-5511800Y-20233700D01*
X-5519329Y-20263719D01*
X-5539966Y-20332509D01*
X-5570786Y-20430634D01*
X-5608865Y-20548660D01*
X-5619750Y-20581922D01*
X-5665693Y-20718418D01*
X-5701684Y-20814809D01*
X-5731976Y-20879765D01*
X-5760818Y-20921957D01*
X-5792462Y-20950053D01*
X-5803900Y-20957500D01*
X-5882853Y-20995255D01*
X-5952349Y-20997790D01*
X-6007982Y-20980231D01*
X-6063308Y-20947302D01*
X-6087130Y-20924691D01*
X-6103256Y-20891003D01*
X-6130968Y-20820224D01*
X-6166374Y-20723646D01*
X-6205578Y-20612563D01*
X-6244687Y-20498268D01*
X-6279807Y-20392052D01*
X-6307044Y-20305209D01*
X-6322504Y-20249031D01*
X-6324600Y-20236012D01*
X-6301779Y-20225050D01*
X-6243570Y-20218180D01*
X-6200695Y-20217000D01*
X-6076789Y-20217000D01*
X-6005690Y-20471575D01*
G36*
X-1231486Y-20248281D02*
G01*
X-1129710Y-20307826D01*
X-1050544Y-20396856D01*
X-1003248Y-20514062D01*
X-997777Y-20545427D01*
X-1002511Y-20684410D01*
X-1051613Y-20807180D01*
X-1139403Y-20905143D01*
X-1260199Y-20969702D01*
X-1282700Y-20976491D01*
X-1359184Y-20995781D01*
X-1412274Y-21000595D01*
X-1466483Y-20989946D01*
X-1536700Y-20966248D01*
X-1657923Y-20899427D01*
X-1743426Y-20802536D01*
X-1789403Y-20684756D01*
X-1791047Y-20604350D01*
X-1549012Y-20604350D01*
X-1529187Y-20685547D01*
X-1477668Y-20743200D01*
X-1407900Y-20770562D01*
X-1333328Y-20760888D01*
X-1291051Y-20733763D01*
X-1253372Y-20669158D01*
X-1246443Y-20585969D01*
X-1269905Y-20505776D01*
X-1295400Y-20471000D01*
X-1348806Y-20429040D01*
X-1399698Y-20425518D01*
X-1455820Y-20449402D01*
X-1519278Y-20495369D01*
X-1545699Y-20556522D01*
X-1549012Y-20604350D01*
X-1791047Y-20604350D01*
X-1792052Y-20555270D01*
X-1755336Y-20438550D01*
X-1679442Y-20331075D01*
X-1579848Y-20259617D01*
X-1465817Y-20222870D01*
X-1346608Y-20219527D01*
X-1231486Y-20248281D01*
G37*
X-1231486Y-20248281D02*
X-1129710Y-20307826D01*
X-1050544Y-20396856D01*
X-1003248Y-20514062D01*
X-997777Y-20545427D01*
X-1002511Y-20684410D01*
X-1051613Y-20807180D01*
X-1139403Y-20905143D01*
X-1260199Y-20969702D01*
X-1282700Y-20976491D01*
X-1359184Y-20995781D01*
X-1412274Y-21000595D01*
X-1466483Y-20989946D01*
X-1536700Y-20966248D01*
X-1657923Y-20899427D01*
X-1743426Y-20802536D01*
X-1789403Y-20684756D01*
X-1791047Y-20604350D01*
X-1549012Y-20604350D01*
X-1529187Y-20685547D01*
X-1477668Y-20743200D01*
X-1407900Y-20770562D01*
X-1333328Y-20760888D01*
X-1291051Y-20733763D01*
X-1253372Y-20669158D01*
X-1246443Y-20585969D01*
X-1269905Y-20505776D01*
X-1295400Y-20471000D01*
X-1348806Y-20429040D01*
X-1399698Y-20425518D01*
X-1455820Y-20449402D01*
X-1519278Y-20495369D01*
X-1545699Y-20556522D01*
X-1549012Y-20604350D01*
X-1791047Y-20604350D01*
X-1792052Y-20555270D01*
X-1755336Y-20438550D01*
X-1679442Y-20331075D01*
X-1579848Y-20259617D01*
X-1465817Y-20222870D01*
X-1346608Y-20219527D01*
X-1231486Y-20248281D01*
G36*
X-130127Y-20713136D02*
G01*
X-76200Y-20750400D01*
X-32752Y-20812605D01*
X-35818Y-20872665D01*
X-85981Y-20940281D01*
X-87746Y-20942054D01*
X-137362Y-20986652D01*
X-175487Y-20999804D01*
X-223923Y-20988429D01*
X-228600Y-20986772D01*
X-292857Y-20941328D01*
X-324869Y-20872935D01*
X-320787Y-20798699D01*
X-283750Y-20741636D01*
X-209090Y-20703655D01*
X-130127Y-20713136D01*
G37*
X-130127Y-20713136D02*
X-76200Y-20750400D01*
X-32752Y-20812605D01*
X-35818Y-20872665D01*
X-85981Y-20940281D01*
X-87746Y-20942054D01*
X-137362Y-20986652D01*
X-175487Y-20999804D01*
X-223923Y-20988429D01*
X-228600Y-20986772D01*
X-292857Y-20941328D01*
X-324869Y-20872935D01*
X-320787Y-20798699D01*
X-283750Y-20741636D01*
X-209090Y-20703655D01*
X-130127Y-20713136D01*
G36*
X3517900Y-20229700D02*
G01*
X3525268Y-20469625D01*
X3532103Y-20601447D01*
X3545022Y-20690266D01*
X3567016Y-20743784D01*
X3601071Y-20769703D01*
X3644073Y-20775800D01*
X3704143Y-20764692D01*
X3745404Y-20727077D01*
X3770633Y-20656512D01*
X3782607Y-20546556D01*
X3784600Y-20449949D01*
X3784600Y-20217000D01*
X4013200Y-20217000D01*
X4013200Y-20484961D01*
X4009068Y-20642037D01*
X3994777Y-20757463D01*
X3967479Y-20839857D01*
X3924330Y-20897839D01*
X3863036Y-20939743D01*
X3754143Y-20977963D01*
X3633779Y-20992764D01*
X3527487Y-20981180D01*
X3521520Y-20979394D01*
X3425113Y-20935908D01*
X3355676Y-20870854D01*
X3309950Y-20777470D01*
X3284681Y-20648994D01*
X3276611Y-20478665D01*
X3276600Y-20470869D01*
X3276600Y-20214216D01*
X3517900Y-20229700D01*
G37*
X3517900Y-20229700D02*
X3525268Y-20469625D01*
X3532103Y-20601447D01*
X3545022Y-20690266D01*
X3567016Y-20743784D01*
X3601071Y-20769703D01*
X3644073Y-20775800D01*
X3704143Y-20764692D01*
X3745404Y-20727077D01*
X3770633Y-20656512D01*
X3782607Y-20546556D01*
X3784600Y-20449949D01*
X3784600Y-20217000D01*
X4013200Y-20217000D01*
X4013200Y-20484961D01*
X4009068Y-20642037D01*
X3994777Y-20757463D01*
X3967479Y-20839857D01*
X3924330Y-20897839D01*
X3863036Y-20939743D01*
X3754143Y-20977963D01*
X3633779Y-20992764D01*
X3527487Y-20981180D01*
X3521520Y-20979394D01*
X3425113Y-20935908D01*
X3355676Y-20870854D01*
X3309950Y-20777470D01*
X3284681Y-20648994D01*
X3276611Y-20478665D01*
X3276600Y-20470869D01*
X3276600Y-20214216D01*
X3517900Y-20229700D01*
G36*
X4984833Y-19970058D02*
G01*
X5067186Y-20003361D01*
X5116752Y-20043141D01*
X5153390Y-20093396D01*
X5178913Y-20161826D01*
X5195132Y-20256128D01*
X5203860Y-20384001D01*
X5206910Y-20553144D01*
X5207000Y-20597184D01*
X5207000Y-20979000D01*
X4954323Y-20979000D01*
X4947311Y-20591650D01*
X4940300Y-20204300D01*
X4813300Y-20204300D01*
X4800600Y-20513522D01*
X4794402Y-20645661D01*
X4787237Y-20737378D01*
X4777048Y-20799039D01*
X4761780Y-20841010D01*
X4739375Y-20873659D01*
X4726286Y-20888211D01*
X4657078Y-20939658D01*
X4565666Y-20981484D01*
X4477978Y-21002581D01*
X4457700Y-21003264D01*
X4418511Y-20993232D01*
X4358028Y-20970060D01*
X4353945Y-20968296D01*
X4281233Y-20922710D01*
X4220595Y-20864264D01*
X4200076Y-20834962D01*
X4185396Y-20801765D01*
X4175586Y-20756111D01*
X4169676Y-20689435D01*
X4166696Y-20593176D01*
X4165677Y-20458770D01*
X4165600Y-20378674D01*
X4165600Y-19963000D01*
X4419600Y-19963000D01*
X4419600Y-20353982D01*
X4420530Y-20509848D01*
X4423702Y-20621530D01*
X4429686Y-20695615D01*
X4439052Y-20738693D01*
X4452371Y-20757351D01*
X4454604Y-20758397D01*
X4493489Y-20761538D01*
X4520499Y-20732763D01*
X4537228Y-20666990D01*
X4545273Y-20559135D01*
X4546600Y-20465104D01*
X4554681Y-20285355D01*
X4580849Y-20149644D01*
X4627985Y-20053536D01*
X4698971Y-19992596D01*
X4796690Y-19962391D01*
X4876800Y-19957138D01*
X4984833Y-19970058D01*
G37*
X4984833Y-19970058D02*
X5067186Y-20003361D01*
X5116752Y-20043141D01*
X5153390Y-20093396D01*
X5178913Y-20161826D01*
X5195132Y-20256128D01*
X5203860Y-20384001D01*
X5206910Y-20553144D01*
X5207000Y-20597184D01*
X5207000Y-20979000D01*
X4954323Y-20979000D01*
X4947311Y-20591650D01*
X4940300Y-20204300D01*
X4813300Y-20204300D01*
X4800600Y-20513522D01*
X4794402Y-20645661D01*
X4787237Y-20737378D01*
X4777048Y-20799039D01*
X4761780Y-20841010D01*
X4739375Y-20873659D01*
X4726286Y-20888211D01*
X4657078Y-20939658D01*
X4565666Y-20981484D01*
X4477978Y-21002581D01*
X4457700Y-21003264D01*
X4418511Y-20993232D01*
X4358028Y-20970060D01*
X4353945Y-20968296D01*
X4281233Y-20922710D01*
X4220595Y-20864264D01*
X4200076Y-20834962D01*
X4185396Y-20801765D01*
X4175586Y-20756111D01*
X4169676Y-20689435D01*
X4166696Y-20593176D01*
X4165677Y-20458770D01*
X4165600Y-20378674D01*
X4165600Y-19963000D01*
X4419600Y-19963000D01*
X4419600Y-20353982D01*
X4420530Y-20509848D01*
X4423702Y-20621530D01*
X4429686Y-20695615D01*
X4439052Y-20738693D01*
X4452371Y-20757351D01*
X4454604Y-20758397D01*
X4493489Y-20761538D01*
X4520499Y-20732763D01*
X4537228Y-20666990D01*
X4545273Y-20559135D01*
X4546600Y-20465104D01*
X4554681Y-20285355D01*
X4580849Y-20149644D01*
X4627985Y-20053536D01*
X4698971Y-19992596D01*
X4796690Y-19962391D01*
X4876800Y-19957138D01*
X4984833Y-19970058D01*
G36*
X7137788Y-20312250D02*
G01*
X7139228Y-20441831D01*
X7142905Y-20553884D01*
X7148304Y-20638235D01*
X7154913Y-20684711D01*
X7156838Y-20689447D01*
X7217343Y-20740759D01*
X7292889Y-20754168D01*
X7365829Y-20730503D01*
X7415139Y-20677302D01*
X7425633Y-20632744D01*
X7434152Y-20548259D01*
X7439928Y-20434703D01*
X7442192Y-20302936D01*
X7442200Y-20294869D01*
X7442200Y-19963000D01*
X7696200Y-19963000D01*
X7696200Y-20307054D01*
X7696626Y-20445854D01*
X7698876Y-20543348D01*
X7704406Y-20609030D01*
X7714672Y-20652392D01*
X7731131Y-20682929D01*
X7755239Y-20710133D01*
X7758545Y-20713454D01*
X7812953Y-20761090D01*
X7855705Y-20770840D01*
X7906940Y-20743818D01*
X7934074Y-20723156D01*
X7960587Y-20700856D01*
X7978970Y-20676816D01*
X7990712Y-20641996D01*
X7997301Y-20587358D01*
X8000226Y-20503864D01*
X8000975Y-20382474D01*
X8001000Y-20316756D01*
X8001000Y-19963000D01*
X8255000Y-19963000D01*
X8255000Y-20334191D01*
X8252169Y-20513960D01*
X8242058Y-20651182D01*
X8222233Y-20753877D01*
X8190262Y-20830067D01*
X8143715Y-20887772D01*
X8080159Y-20935013D01*
X8071201Y-20940402D01*
X7973390Y-20975325D01*
X7853285Y-20986495D01*
X7733630Y-20973662D01*
X7651750Y-20945024D01*
X7590571Y-20918021D01*
X7544527Y-20918183D01*
X7498472Y-20938070D01*
X7371704Y-20981110D01*
X7236359Y-20990497D01*
X7169786Y-20980512D01*
X7074959Y-20950058D01*
X7003013Y-20907258D01*
X6951007Y-20845475D01*
X6916003Y-20758070D01*
X6895059Y-20638403D01*
X6885237Y-20479836D01*
X6883400Y-20333811D01*
X6883400Y-19963000D01*
X7137400Y-19963000D01*
X7137788Y-20312250D01*
G37*
X7137788Y-20312250D02*
X7139228Y-20441831D01*
X7142905Y-20553884D01*
X7148304Y-20638235D01*
X7154913Y-20684711D01*
X7156838Y-20689447D01*
X7217343Y-20740759D01*
X7292889Y-20754168D01*
X7365829Y-20730503D01*
X7415139Y-20677302D01*
X7425633Y-20632744D01*
X7434152Y-20548259D01*
X7439928Y-20434703D01*
X7442192Y-20302936D01*
X7442200Y-20294869D01*
X7442200Y-19963000D01*
X7696200Y-19963000D01*
X7696200Y-20307054D01*
X7696626Y-20445854D01*
X7698876Y-20543348D01*
X7704406Y-20609030D01*
X7714672Y-20652392D01*
X7731131Y-20682929D01*
X7755239Y-20710133D01*
X7758545Y-20713454D01*
X7812953Y-20761090D01*
X7855705Y-20770840D01*
X7906940Y-20743818D01*
X7934074Y-20723156D01*
X7960587Y-20700856D01*
X7978970Y-20676816D01*
X7990712Y-20641996D01*
X7997301Y-20587358D01*
X8000226Y-20503864D01*
X8000975Y-20382474D01*
X8001000Y-20316756D01*
X8001000Y-19963000D01*
X8255000Y-19963000D01*
X8255000Y-20334191D01*
X8252169Y-20513960D01*
X8242058Y-20651182D01*
X8222233Y-20753877D01*
X8190262Y-20830067D01*
X8143715Y-20887772D01*
X8080159Y-20935013D01*
X8071201Y-20940402D01*
X7973390Y-20975325D01*
X7853285Y-20986495D01*
X7733630Y-20973662D01*
X7651750Y-20945024D01*
X7590571Y-20918021D01*
X7544527Y-20918183D01*
X7498472Y-20938070D01*
X7371704Y-20981110D01*
X7236359Y-20990497D01*
X7169786Y-20980512D01*
X7074959Y-20950058D01*
X7003013Y-20907258D01*
X6951007Y-20845475D01*
X6916003Y-20758070D01*
X6895059Y-20638403D01*
X6885237Y-20479836D01*
X6883400Y-20333811D01*
X6883400Y-19963000D01*
X7137400Y-19963000D01*
X7137788Y-20312250D01*
G36*
X-7841816Y-20066808D02*
G01*
X-7808526Y-20079562D01*
X-7798447Y-20112052D01*
X-7797800Y-20140800D01*
X-7790966Y-20195258D01*
X-7761914Y-20215180D01*
X-7734300Y-20217000D01*
X-7693389Y-20222545D01*
X-7675205Y-20248702D01*
X-7670823Y-20309752D01*
X-7670800Y-20318600D01*
X-7674266Y-20384059D01*
X-7690615Y-20413153D01*
X-7728771Y-20420163D01*
X-7734300Y-20420200D01*
X-7764985Y-20422166D01*
X-7783743Y-20434754D01*
X-7793509Y-20467993D01*
X-7797216Y-20531916D01*
X-7797800Y-20636552D01*
X-7797800Y-20637254D01*
X-7799173Y-20745573D01*
X-7805271Y-20816444D01*
X-7819067Y-20863188D01*
X-7843534Y-20899126D01*
X-7860146Y-20916654D01*
X-7905173Y-20953062D01*
X-7958465Y-20971992D01*
X-8037955Y-20978625D01*
X-8076046Y-20979000D01*
X-8229600Y-20979000D01*
X-8229600Y-20878933D01*
X-8226543Y-20814221D01*
X-8207978Y-20784322D01*
X-8159818Y-20773271D01*
X-8134350Y-20770983D01*
X-8039100Y-20763100D01*
X-8031590Y-20591650D01*
X-8024079Y-20420200D01*
X-8229600Y-20420200D01*
X-8229600Y-20318600D01*
X-8227156Y-20253567D01*
X-8210048Y-20224670D01*
X-8163609Y-20217244D01*
X-8128000Y-20217000D01*
X-8062854Y-20213990D01*
X-8033893Y-20197684D01*
X-8026561Y-20157162D01*
X-8026400Y-20140800D01*
X-8023087Y-20093943D01*
X-8003956Y-20071750D01*
X-7955221Y-20065030D01*
X-7912100Y-20064600D01*
X-7841816Y-20066808D01*
G37*
X-7841816Y-20066808D02*
X-7808526Y-20079562D01*
X-7798447Y-20112052D01*
X-7797800Y-20140800D01*
X-7790966Y-20195258D01*
X-7761914Y-20215180D01*
X-7734300Y-20217000D01*
X-7693389Y-20222545D01*
X-7675205Y-20248702D01*
X-7670823Y-20309752D01*
X-7670800Y-20318600D01*
X-7674266Y-20384059D01*
X-7690615Y-20413153D01*
X-7728771Y-20420163D01*
X-7734300Y-20420200D01*
X-7764985Y-20422166D01*
X-7783743Y-20434754D01*
X-7793509Y-20467993D01*
X-7797216Y-20531916D01*
X-7797800Y-20636552D01*
X-7797800Y-20637254D01*
X-7799173Y-20745573D01*
X-7805271Y-20816444D01*
X-7819067Y-20863188D01*
X-7843534Y-20899126D01*
X-7860146Y-20916654D01*
X-7905173Y-20953062D01*
X-7958465Y-20971992D01*
X-8037955Y-20978625D01*
X-8076046Y-20979000D01*
X-8229600Y-20979000D01*
X-8229600Y-20878933D01*
X-8226543Y-20814221D01*
X-8207978Y-20784322D01*
X-8159818Y-20773271D01*
X-8134350Y-20770983D01*
X-8039100Y-20763100D01*
X-8031590Y-20591650D01*
X-8024079Y-20420200D01*
X-8229600Y-20420200D01*
X-8229600Y-20318600D01*
X-8227156Y-20253567D01*
X-8210048Y-20224670D01*
X-8163609Y-20217244D01*
X-8128000Y-20217000D01*
X-8062854Y-20213990D01*
X-8033893Y-20197684D01*
X-8026561Y-20157162D01*
X-8026400Y-20140800D01*
X-8023087Y-20093943D01*
X-8003956Y-20071750D01*
X-7955221Y-20065030D01*
X-7912100Y-20064600D01*
X-7841816Y-20066808D01*
G36*
X-7366000Y-20979000D02*
G01*
X-7594600Y-20979000D01*
X-7594600Y-20217000D01*
X-7366000Y-20217000D01*
X-7366000Y-20979000D01*
G37*
X-7366000Y-20979000D02*
X-7594600Y-20979000D01*
X-7594600Y-20217000D01*
X-7366000Y-20217000D01*
X-7366000Y-20979000D01*
G36*
X-6959600Y-20115400D02*
G01*
X-6949242Y-20235064D01*
X-6915096Y-20313447D01*
X-6852556Y-20356306D01*
X-6757015Y-20369399D01*
X-6756400Y-20369400D01*
X-6654800Y-20369400D01*
X-6654800Y-19963000D01*
X-6400800Y-19963000D01*
X-6400800Y-20979000D01*
X-6654800Y-20979000D01*
X-6654800Y-20598000D01*
X-6725549Y-20598000D01*
X-6765541Y-20603578D01*
X-6798431Y-20626825D01*
X-6833202Y-20677505D01*
X-6878039Y-20763762D01*
X-6937074Y-20869091D01*
X-6996068Y-20934128D01*
X-7067846Y-20967723D01*
X-7165231Y-20978730D01*
X-7189854Y-20979000D01*
X-7289800Y-20979000D01*
X-7289800Y-20864700D01*
X-7287210Y-20794202D01*
X-7274305Y-20760801D01*
X-7243387Y-20750861D01*
X-7225259Y-20750400D01*
X-7179215Y-20740226D01*
X-7143485Y-20701853D01*
X-7113956Y-20642450D01*
X-7086716Y-20574873D01*
X-7080635Y-20534709D01*
X-7095462Y-20503302D01*
X-7111824Y-20483700D01*
X-7165472Y-20411031D01*
X-7196948Y-20333079D01*
X-7211208Y-20233229D01*
X-7213600Y-20142469D01*
X-7213600Y-19963000D01*
X-6959600Y-19963000D01*
X-6959600Y-20115400D01*
G37*
X-6959600Y-20115400D02*
X-6949242Y-20235064D01*
X-6915096Y-20313447D01*
X-6852556Y-20356306D01*
X-6757015Y-20369399D01*
X-6756400Y-20369400D01*
X-6654800Y-20369400D01*
X-6654800Y-19963000D01*
X-6400800Y-19963000D01*
X-6400800Y-20979000D01*
X-6654800Y-20979000D01*
X-6654800Y-20598000D01*
X-6725549Y-20598000D01*
X-6765541Y-20603578D01*
X-6798431Y-20626825D01*
X-6833202Y-20677505D01*
X-6878039Y-20763762D01*
X-6937074Y-20869091D01*
X-6996068Y-20934128D01*
X-7067846Y-20967723D01*
X-7165231Y-20978730D01*
X-7189854Y-20979000D01*
X-7289800Y-20979000D01*
X-7289800Y-20864700D01*
X-7287210Y-20794202D01*
X-7274305Y-20760801D01*
X-7243387Y-20750861D01*
X-7225259Y-20750400D01*
X-7179215Y-20740226D01*
X-7143485Y-20701853D01*
X-7113956Y-20642450D01*
X-7086716Y-20574873D01*
X-7080635Y-20534709D01*
X-7095462Y-20503302D01*
X-7111824Y-20483700D01*
X-7165472Y-20411031D01*
X-7196948Y-20333079D01*
X-7211208Y-20233229D01*
X-7213600Y-20142469D01*
X-7213600Y-19963000D01*
X-6959600Y-19963000D01*
X-6959600Y-20115400D01*
G36*
X-4992947Y-20238767D02*
G01*
X-4883510Y-20301389D01*
X-4805884Y-20401885D01*
X-4763469Y-20537088D01*
X-4760032Y-20563037D01*
X-4766461Y-20699150D01*
X-4816014Y-20811223D01*
X-4905797Y-20896738D01*
X-5032920Y-20953176D01*
X-5194489Y-20978018D01*
X-5237782Y-20979000D01*
X-5410200Y-20979000D01*
X-5410200Y-20775800D01*
X-5260614Y-20775800D01*
X-5156593Y-20769733D01*
X-5086272Y-20749004D01*
X-5051064Y-20725845D01*
X-4991100Y-20675890D01*
X-5486400Y-20674200D01*
X-5486400Y-20584484D01*
X-5474960Y-20510914D01*
X-5257800Y-20510914D01*
X-5234930Y-20517107D01*
X-5176419Y-20521050D01*
X-5129907Y-20521800D01*
X-5055448Y-20520262D01*
X-5021782Y-20512291D01*
X-5018918Y-20492848D01*
X-5029200Y-20471000D01*
X-5076018Y-20430209D01*
X-5141853Y-20422816D01*
X-5206455Y-20449990D01*
X-5217886Y-20460114D01*
X-5249562Y-20496071D01*
X-5257800Y-20510914D01*
X-5474960Y-20510914D01*
X-5464979Y-20446728D01*
X-5404237Y-20336537D01*
X-5309455Y-20259367D01*
X-5185915Y-20220673D01*
X-5130800Y-20217189D01*
X-4992947Y-20238767D01*
G37*
X-4992947Y-20238767D02*
X-4883510Y-20301389D01*
X-4805884Y-20401885D01*
X-4763469Y-20537088D01*
X-4760032Y-20563037D01*
X-4766461Y-20699150D01*
X-4816014Y-20811223D01*
X-4905797Y-20896738D01*
X-5032920Y-20953176D01*
X-5194489Y-20978018D01*
X-5237782Y-20979000D01*
X-5410200Y-20979000D01*
X-5410200Y-20775800D01*
X-5260614Y-20775800D01*
X-5156593Y-20769733D01*
X-5086272Y-20749004D01*
X-5051064Y-20725845D01*
X-4991100Y-20675890D01*
X-5486400Y-20674200D01*
X-5486400Y-20584484D01*
X-5474960Y-20510914D01*
X-5257800Y-20510914D01*
X-5234930Y-20517107D01*
X-5176419Y-20521050D01*
X-5129907Y-20521800D01*
X-5055448Y-20520262D01*
X-5021782Y-20512291D01*
X-5018918Y-20492848D01*
X-5029200Y-20471000D01*
X-5076018Y-20430209D01*
X-5141853Y-20422816D01*
X-5206455Y-20449990D01*
X-5217886Y-20460114D01*
X-5249562Y-20496071D01*
X-5257800Y-20510914D01*
X-5474960Y-20510914D01*
X-5464979Y-20446728D01*
X-5404237Y-20336537D01*
X-5309455Y-20259367D01*
X-5185915Y-20220673D01*
X-5130800Y-20217189D01*
X-4992947Y-20238767D01*
G36*
X-3784600Y-20979000D02*
G01*
X-4032250Y-20976709D01*
X-4149781Y-20973229D01*
X-4257262Y-20965824D01*
X-4338328Y-20955798D01*
X-4363431Y-20950328D01*
X-4430413Y-20917968D01*
X-4507165Y-20862643D01*
X-4544248Y-20828952D01*
X-4631955Y-20709501D01*
X-4678964Y-20574930D01*
X-4684446Y-20483984D01*
X-4419600Y-20483984D01*
X-4412490Y-20569595D01*
X-4384508Y-20631407D01*
X-4345354Y-20676153D01*
X-4283752Y-20726045D01*
X-4216776Y-20747202D01*
X-4154854Y-20750400D01*
X-4038600Y-20750400D01*
X-4038600Y-20191600D01*
X-4128762Y-20191600D01*
X-4231004Y-20207237D01*
X-4323131Y-20248292D01*
X-4386626Y-20305979D01*
X-4393448Y-20317193D01*
X-4409474Y-20372040D01*
X-4418711Y-20451867D01*
X-4419600Y-20483984D01*
X-4684446Y-20483984D01*
X-4687424Y-20434600D01*
X-4659484Y-20297869D01*
X-4597293Y-20174097D01*
X-4503002Y-20072643D01*
X-4378758Y-20002865D01*
X-4352544Y-19994140D01*
X-4278880Y-19979859D01*
X-4173497Y-19969027D01*
X-4055446Y-19963408D01*
X-4016604Y-19963000D01*
X-3784600Y-19963000D01*
X-3784600Y-20979000D01*
G37*
X-3784600Y-20979000D02*
X-4032250Y-20976709D01*
X-4149781Y-20973229D01*
X-4257262Y-20965824D01*
X-4338328Y-20955798D01*
X-4363431Y-20950328D01*
X-4430413Y-20917968D01*
X-4507165Y-20862643D01*
X-4544248Y-20828952D01*
X-4631955Y-20709501D01*
X-4678964Y-20574930D01*
X-4684446Y-20483984D01*
X-4419600Y-20483984D01*
X-4412490Y-20569595D01*
X-4384508Y-20631407D01*
X-4345354Y-20676153D01*
X-4283752Y-20726045D01*
X-4216776Y-20747202D01*
X-4154854Y-20750400D01*
X-4038600Y-20750400D01*
X-4038600Y-20191600D01*
X-4128762Y-20191600D01*
X-4231004Y-20207237D01*
X-4323131Y-20248292D01*
X-4386626Y-20305979D01*
X-4393448Y-20317193D01*
X-4409474Y-20372040D01*
X-4418711Y-20451867D01*
X-4419600Y-20483984D01*
X-4684446Y-20483984D01*
X-4687424Y-20434600D01*
X-4659484Y-20297869D01*
X-4597293Y-20174097D01*
X-4503002Y-20072643D01*
X-4378758Y-20002865D01*
X-4352544Y-19994140D01*
X-4278880Y-19979859D01*
X-4173497Y-19969027D01*
X-4055446Y-19963408D01*
X-4016604Y-19963000D01*
X-3784600Y-19963000D01*
X-3784600Y-20979000D01*
G36*
X-2622107Y-20238190D02*
G01*
X-2582367Y-20254831D01*
X-2526514Y-20277786D01*
X-2479302Y-20273405D01*
X-2432162Y-20251873D01*
X-2338060Y-20223679D01*
X-2216600Y-20222783D01*
X-2123010Y-20236633D01*
X-2056455Y-20265731D01*
X-1998504Y-20314905D01*
X-1963762Y-20351235D01*
X-1940449Y-20384993D01*
X-1925908Y-20427263D01*
X-1917480Y-20489127D01*
X-1912505Y-20581669D01*
X-1909165Y-20687321D01*
X-1900629Y-20979000D01*
X-2159000Y-20979000D01*
X-2159000Y-20724455D01*
X-2159594Y-20608532D01*
X-2162917Y-20533050D01*
X-2171288Y-20487652D01*
X-2187023Y-20461982D01*
X-2212438Y-20445682D01*
X-2222397Y-20441025D01*
X-2278140Y-20425855D01*
X-2324241Y-20447466D01*
X-2336697Y-20458206D01*
X-2361125Y-20486801D01*
X-2376331Y-20526466D01*
X-2384388Y-20588731D01*
X-2387366Y-20685123D01*
X-2387600Y-20741636D01*
X-2387600Y-20979000D01*
X-2641600Y-20979000D01*
X-2641600Y-20724455D01*
X-2642194Y-20608532D01*
X-2645517Y-20533050D01*
X-2653888Y-20487652D01*
X-2669623Y-20461982D01*
X-2695038Y-20445682D01*
X-2704997Y-20441025D01*
X-2760740Y-20425855D01*
X-2806841Y-20447466D01*
X-2819297Y-20458206D01*
X-2843725Y-20486801D01*
X-2858931Y-20526466D01*
X-2866988Y-20588731D01*
X-2869966Y-20685123D01*
X-2870200Y-20741636D01*
X-2870200Y-20979000D01*
X-3124200Y-20979000D01*
X-3124200Y-20736884D01*
X-3118463Y-20574202D01*
X-3099342Y-20452682D01*
X-3063972Y-20363789D01*
X-3009487Y-20298986D01*
X-2966979Y-20268451D01*
X-2861661Y-20228834D01*
X-2738705Y-20218464D01*
X-2622107Y-20238190D01*
G37*
X-2622107Y-20238190D02*
X-2582367Y-20254831D01*
X-2526514Y-20277786D01*
X-2479302Y-20273405D01*
X-2432162Y-20251873D01*
X-2338060Y-20223679D01*
X-2216600Y-20222783D01*
X-2123010Y-20236633D01*
X-2056455Y-20265731D01*
X-1998504Y-20314905D01*
X-1963762Y-20351235D01*
X-1940449Y-20384993D01*
X-1925908Y-20427263D01*
X-1917480Y-20489127D01*
X-1912505Y-20581669D01*
X-1909165Y-20687321D01*
X-1900629Y-20979000D01*
X-2159000Y-20979000D01*
X-2159000Y-20724455D01*
X-2159594Y-20608532D01*
X-2162917Y-20533050D01*
X-2171288Y-20487652D01*
X-2187023Y-20461982D01*
X-2212438Y-20445682D01*
X-2222397Y-20441025D01*
X-2278140Y-20425855D01*
X-2324241Y-20447466D01*
X-2336697Y-20458206D01*
X-2361125Y-20486801D01*
X-2376331Y-20526466D01*
X-2384388Y-20588731D01*
X-2387366Y-20685123D01*
X-2387600Y-20741636D01*
X-2387600Y-20979000D01*
X-2641600Y-20979000D01*
X-2641600Y-20724455D01*
X-2642194Y-20608532D01*
X-2645517Y-20533050D01*
X-2653888Y-20487652D01*
X-2669623Y-20461982D01*
X-2695038Y-20445682D01*
X-2704997Y-20441025D01*
X-2760740Y-20425855D01*
X-2806841Y-20447466D01*
X-2819297Y-20458206D01*
X-2843725Y-20486801D01*
X-2858931Y-20526466D01*
X-2866988Y-20588731D01*
X-2869966Y-20685123D01*
X-2870200Y-20741636D01*
X-2870200Y-20979000D01*
X-3124200Y-20979000D01*
X-3124200Y-20736884D01*
X-3118463Y-20574202D01*
X-3099342Y-20452682D01*
X-3063972Y-20363789D01*
X-3009487Y-20298986D01*
X-2966979Y-20268451D01*
X-2861661Y-20228834D01*
X-2738705Y-20218464D01*
X-2622107Y-20238190D01*
G36*
X-774133Y-20235852D02*
G01*
X-747777Y-20240532D01*
X-606247Y-20287264D01*
X-499871Y-20364996D01*
X-432261Y-20467596D01*
X-407027Y-20588934D01*
X-427783Y-20722881D01*
X-441627Y-20760139D01*
X-511068Y-20863289D01*
X-618145Y-20934340D01*
X-759555Y-20971275D01*
X-792089Y-20974421D01*
X-939800Y-20985105D01*
X-939800Y-20880452D01*
X-937201Y-20814108D01*
X-921759Y-20784128D01*
X-882005Y-20776096D01*
X-856552Y-20775800D01*
X-755877Y-20757880D01*
X-688922Y-20707013D01*
X-660919Y-20627532D01*
X-660400Y-20613196D01*
X-680670Y-20524728D01*
X-741131Y-20467147D01*
X-838200Y-20441235D01*
X-898857Y-20430174D01*
X-925789Y-20401569D01*
X-935301Y-20347120D01*
X-935595Y-20277323D01*
X-914346Y-20238646D01*
X-863282Y-20226390D01*
X-774133Y-20235852D01*
G37*
X-774133Y-20235852D02*
X-747777Y-20240532D01*
X-606247Y-20287264D01*
X-499871Y-20364996D01*
X-432261Y-20467596D01*
X-407027Y-20588934D01*
X-427783Y-20722881D01*
X-441627Y-20760139D01*
X-511068Y-20863289D01*
X-618145Y-20934340D01*
X-759555Y-20971275D01*
X-792089Y-20974421D01*
X-939800Y-20985105D01*
X-939800Y-20880452D01*
X-937201Y-20814108D01*
X-921759Y-20784128D01*
X-882005Y-20776096D01*
X-856552Y-20775800D01*
X-755877Y-20757880D01*
X-688922Y-20707013D01*
X-660919Y-20627532D01*
X-660400Y-20613196D01*
X-680670Y-20524728D01*
X-741131Y-20467147D01*
X-838200Y-20441235D01*
X-898857Y-20430174D01*
X-925789Y-20401569D01*
X-935301Y-20347120D01*
X-935595Y-20277323D01*
X-914346Y-20238646D01*
X-863282Y-20226390D01*
X-774133Y-20235852D01*
G36*
X438584Y-20066808D02*
G01*
X471874Y-20079562D01*
X481953Y-20112052D01*
X482600Y-20140800D01*
X489434Y-20195258D01*
X518486Y-20215180D01*
X546100Y-20217000D01*
X587011Y-20222545D01*
X605195Y-20248702D01*
X609577Y-20309752D01*
X609600Y-20318600D01*
X606134Y-20384059D01*
X589785Y-20413153D01*
X551629Y-20420163D01*
X546100Y-20420200D01*
X515415Y-20422166D01*
X496657Y-20434754D01*
X486891Y-20467993D01*
X483184Y-20531916D01*
X482600Y-20636552D01*
X482600Y-20637254D01*
X481227Y-20745573D01*
X475129Y-20816444D01*
X461333Y-20863188D01*
X436866Y-20899126D01*
X420254Y-20916654D01*
X375227Y-20953062D01*
X321935Y-20971992D01*
X242445Y-20978625D01*
X204354Y-20979000D01*
X50800Y-20979000D01*
X50800Y-20878933D01*
X53857Y-20814221D01*
X72422Y-20784322D01*
X120582Y-20773271D01*
X146050Y-20770983D01*
X241300Y-20763100D01*
X248810Y-20591650D01*
X256321Y-20420200D01*
X50800Y-20420200D01*
X50800Y-20318600D01*
X53244Y-20253567D01*
X70352Y-20224670D01*
X116791Y-20217244D01*
X152400Y-20217000D01*
X217546Y-20213990D01*
X246507Y-20197684D01*
X253839Y-20157162D01*
X254000Y-20140800D01*
X257313Y-20093943D01*
X276444Y-20071750D01*
X325179Y-20065030D01*
X368300Y-20064600D01*
X438584Y-20066808D01*
G37*
X438584Y-20066808D02*
X471874Y-20079562D01*
X481953Y-20112052D01*
X482600Y-20140800D01*
X489434Y-20195258D01*
X518486Y-20215180D01*
X546100Y-20217000D01*
X587011Y-20222545D01*
X605195Y-20248702D01*
X609577Y-20309752D01*
X609600Y-20318600D01*
X606134Y-20384059D01*
X589785Y-20413153D01*
X551629Y-20420163D01*
X546100Y-20420200D01*
X515415Y-20422166D01*
X496657Y-20434754D01*
X486891Y-20467993D01*
X483184Y-20531916D01*
X482600Y-20636552D01*
X482600Y-20637254D01*
X481227Y-20745573D01*
X475129Y-20816444D01*
X461333Y-20863188D01*
X436866Y-20899126D01*
X420254Y-20916654D01*
X375227Y-20953062D01*
X321935Y-20971992D01*
X242445Y-20978625D01*
X204354Y-20979000D01*
X50800Y-20979000D01*
X50800Y-20878933D01*
X53857Y-20814221D01*
X72422Y-20784322D01*
X120582Y-20773271D01*
X146050Y-20770983D01*
X241300Y-20763100D01*
X248810Y-20591650D01*
X256321Y-20420200D01*
X50800Y-20420200D01*
X50800Y-20318600D01*
X53244Y-20253567D01*
X70352Y-20224670D01*
X116791Y-20217244D01*
X152400Y-20217000D01*
X217546Y-20213990D01*
X246507Y-20197684D01*
X253839Y-20157162D01*
X254000Y-20140800D01*
X257313Y-20093943D01*
X276444Y-20071750D01*
X325179Y-20065030D01*
X368300Y-20064600D01*
X438584Y-20066808D01*
G36*
X1120756Y-20234506D02*
G01*
X1192233Y-20263412D01*
X1290135Y-20341486D01*
X1348090Y-20449847D01*
X1366640Y-20589648D01*
X1365177Y-20629775D01*
X1339123Y-20761449D01*
X1278740Y-20860458D01*
X1181635Y-20928532D01*
X1045416Y-20967402D01*
X882650Y-20978858D01*
X736600Y-20979000D01*
X736600Y-20775800D01*
X887185Y-20775800D01*
X990355Y-20769992D01*
X1055860Y-20750748D01*
X1082341Y-20731350D01*
X1100553Y-20710177D01*
X1098484Y-20696590D01*
X1068395Y-20688378D01*
X1002550Y-20683328D01*
X900844Y-20679480D01*
X779367Y-20672043D01*
X695772Y-20659454D01*
X656255Y-20642674D01*
X655307Y-20641380D01*
X645409Y-20589417D01*
X654410Y-20510929D01*
X657087Y-20501480D01*
X889000Y-20501480D01*
X911711Y-20513600D01*
X969171Y-20520869D01*
X1003300Y-20521800D01*
X1071478Y-20517762D01*
X1112364Y-20507547D01*
X1117600Y-20501480D01*
X1095812Y-20459312D01*
X1044529Y-20427835D01*
X1003300Y-20420200D01*
X944002Y-20435693D01*
X899737Y-20472161D01*
X889000Y-20501480D01*
X657087Y-20501480D01*
X678764Y-20424967D01*
X707012Y-20363460D01*
X779065Y-20285867D01*
X881248Y-20236612D01*
X999749Y-20218542D01*
X1120756Y-20234506D01*
G37*
X1120756Y-20234506D02*
X1192233Y-20263412D01*
X1290135Y-20341486D01*
X1348090Y-20449847D01*
X1366640Y-20589648D01*
X1365177Y-20629775D01*
X1339123Y-20761449D01*
X1278740Y-20860458D01*
X1181635Y-20928532D01*
X1045416Y-20967402D01*
X882650Y-20978858D01*
X736600Y-20979000D01*
X736600Y-20775800D01*
X887185Y-20775800D01*
X990355Y-20769992D01*
X1055860Y-20750748D01*
X1082341Y-20731350D01*
X1100553Y-20710177D01*
X1098484Y-20696590D01*
X1068395Y-20688378D01*
X1002550Y-20683328D01*
X900844Y-20679480D01*
X779367Y-20672043D01*
X695772Y-20659454D01*
X656255Y-20642674D01*
X655307Y-20641380D01*
X645409Y-20589417D01*
X654410Y-20510929D01*
X657087Y-20501480D01*
X889000Y-20501480D01*
X911711Y-20513600D01*
X969171Y-20520869D01*
X1003300Y-20521800D01*
X1071478Y-20517762D01*
X1112364Y-20507547D01*
X1117600Y-20501480D01*
X1095812Y-20459312D01*
X1044529Y-20427835D01*
X1003300Y-20420200D01*
X944002Y-20435693D01*
X899737Y-20472161D01*
X889000Y-20501480D01*
X657087Y-20501480D01*
X678764Y-20424967D01*
X707012Y-20363460D01*
X779065Y-20285867D01*
X881248Y-20236612D01*
X999749Y-20218542D01*
X1120756Y-20234506D01*
G36*
X5562600Y-20979000D02*
G01*
X5334000Y-20979000D01*
X5334000Y-20217000D01*
X5562600Y-20217000D01*
X5562600Y-20979000D01*
G37*
X5562600Y-20979000D02*
X5334000Y-20979000D01*
X5334000Y-20217000D01*
X5562600Y-20217000D01*
X5562600Y-20979000D01*
G36*
X5899150Y-19963094D02*
G01*
X6022612Y-19965486D01*
X6108807Y-19973944D01*
X6171114Y-19990569D01*
X6215416Y-20012771D01*
X6272112Y-20052679D01*
X6313797Y-20098631D01*
X6342702Y-20158762D01*
X6361055Y-20241209D01*
X6371085Y-20354107D01*
X6375020Y-20505592D01*
X6375400Y-20596738D01*
X6375400Y-20979000D01*
X6096000Y-20979000D01*
X6096000Y-20623400D01*
X5715000Y-20623400D01*
X5715000Y-20394800D01*
X6099066Y-20394800D01*
X6083300Y-20204300D01*
X5873750Y-20196922D01*
X5664200Y-20189545D01*
X5664200Y-19963000D01*
X5899150Y-19963094D01*
G37*
X5899150Y-19963094D02*
X6022612Y-19965486D01*
X6108807Y-19973944D01*
X6171114Y-19990569D01*
X6215416Y-20012771D01*
X6272112Y-20052679D01*
X6313797Y-20098631D01*
X6342702Y-20158762D01*
X6361055Y-20241209D01*
X6371085Y-20354107D01*
X6375020Y-20505592D01*
X6375400Y-20596738D01*
X6375400Y-20979000D01*
X6096000Y-20979000D01*
X6096000Y-20623400D01*
X5715000Y-20623400D01*
X5715000Y-20394800D01*
X6099066Y-20394800D01*
X6083300Y-20204300D01*
X5873750Y-20196922D01*
X5664200Y-20189545D01*
X5664200Y-19963000D01*
X5899150Y-19963094D01*
G36*
X6731000Y-20979000D02*
G01*
X6502400Y-20979000D01*
X6502400Y-20217000D01*
X6731000Y-20217000D01*
X6731000Y-20979000D01*
G37*
X6731000Y-20979000D02*
X6502400Y-20979000D01*
X6502400Y-20217000D01*
X6731000Y-20217000D01*
X6731000Y-20979000D01*
G36*
X-7427405Y-19899754D02*
G01*
X-7382637Y-19933250D01*
X-7345788Y-20004146D01*
X-7350083Y-20075919D01*
X-7389498Y-20134202D01*
X-7458011Y-20164625D01*
X-7480300Y-20166200D01*
X-7545260Y-20149676D01*
X-7580086Y-20126285D01*
X-7615662Y-20058959D01*
X-7610029Y-19983590D01*
X-7573550Y-19928836D01*
X-7500935Y-19890915D01*
X-7427405Y-19899754D01*
G37*
X-7427405Y-19899754D02*
X-7382637Y-19933250D01*
X-7345788Y-20004146D01*
X-7350083Y-20075919D01*
X-7389498Y-20134202D01*
X-7458011Y-20164625D01*
X-7480300Y-20166200D01*
X-7545260Y-20149676D01*
X-7580086Y-20126285D01*
X-7615662Y-20058959D01*
X-7610029Y-19983590D01*
X-7573550Y-19928836D01*
X-7500935Y-19890915D01*
X-7427405Y-19899754D01*
G36*
X5544050Y-19931175D02*
G01*
X5545963Y-19933250D01*
X5580196Y-19999061D01*
X5585147Y-20073743D01*
X5559469Y-20133694D01*
X5557520Y-20135720D01*
X5499118Y-20162798D01*
X5425377Y-20160066D01*
X5360659Y-20129404D01*
X5350636Y-20119749D01*
X5313096Y-20056059D01*
X5321146Y-19989931D01*
X5348140Y-19943251D01*
X5407278Y-19896479D01*
X5478335Y-19892163D01*
X5544050Y-19931175D01*
G37*
X5544050Y-19931175D02*
X5545963Y-19933250D01*
X5580196Y-19999061D01*
X5585147Y-20073743D01*
X5559469Y-20133694D01*
X5557520Y-20135720D01*
X5499118Y-20162798D01*
X5425377Y-20160066D01*
X5360659Y-20129404D01*
X5350636Y-20119749D01*
X5313096Y-20056059D01*
X5321146Y-19989931D01*
X5348140Y-19943251D01*
X5407278Y-19896479D01*
X5478335Y-19892163D01*
X5544050Y-19931175D01*
G36*
X6665200Y-19899862D02*
G01*
X6723879Y-19940956D01*
X6754748Y-20010301D01*
X6756400Y-20033035D01*
X6735458Y-20103357D01*
X6683033Y-20148902D01*
X6614722Y-20163973D01*
X6546124Y-20142873D01*
X6519036Y-20119749D01*
X6481115Y-20047134D01*
X6489954Y-19973604D01*
X6523450Y-19928836D01*
X6593470Y-19893622D01*
X6665200Y-19899862D01*
G37*
X6665200Y-19899862D02*
X6723879Y-19940956D01*
X6754748Y-20010301D01*
X6756400Y-20033035D01*
X6735458Y-20103357D01*
X6683033Y-20148902D01*
X6614722Y-20163973D01*
X6546124Y-20142873D01*
X6519036Y-20119749D01*
X6481115Y-20047134D01*
X6489954Y-19973604D01*
X6523450Y-19928836D01*
X6593470Y-19893622D01*
X6665200Y-19899862D01*
G36*
X-9662638Y19260610D02*
G01*
X-9554126Y19252833D01*
X-9461391Y19237380D01*
X-9366957Y19211775D01*
X-9309818Y19193097D01*
X-9037520Y19075515D01*
X-8797476Y18919636D01*
X-8591827Y18728078D01*
X-8422713Y18503456D01*
X-8292275Y18248388D01*
X-8202654Y17965490D01*
X-8172055Y17802555D01*
X-8160788Y17560438D01*
X-8194000Y17301270D01*
X-8260702Y17060278D01*
X-8371486Y16812785D01*
X-8521718Y16590201D01*
X-8705624Y16395824D01*
X-8917433Y16232951D01*
X-9151373Y16104881D01*
X-9401670Y16014910D01*
X-9662554Y15966337D01*
X-9928250Y15962460D01*
X-10131092Y15991704D01*
X-10419392Y16078412D01*
X-10679298Y16206127D01*
X-10908279Y16372608D01*
X-11103801Y16575614D01*
X-11263335Y16812905D01*
X-11384348Y17082242D01*
X-11393615Y17109018D01*
X-11443277Y17312788D01*
X-11466861Y17540552D01*
X-11465706Y17629000D01*
X-11313550Y17629000D01*
X-11308136Y17447148D01*
X-11285281Y17291126D01*
X-11240186Y17139994D01*
X-11168053Y16972812D01*
X-11158768Y16953582D01*
X-11018318Y16721410D01*
X-10840486Y16521741D01*
X-10629410Y16357816D01*
X-10389231Y16232870D01*
X-10134600Y16152483D01*
X-9976664Y16121752D01*
X-9843189Y16109746D01*
X-9711512Y16116218D01*
X-9558968Y16140920D01*
X-9534067Y16145940D01*
X-9265205Y16225607D01*
X-9022978Y16347128D01*
X-8810571Y16507294D01*
X-8631172Y16702893D01*
X-8487967Y16930717D01*
X-8384142Y17187555D01*
X-8343967Y17344911D01*
X-8319553Y17477708D01*
X-8308824Y17585617D01*
X-8311865Y17688987D01*
X-8328763Y17808172D01*
X-8346317Y17899334D01*
X-8424714Y18161965D01*
X-8546599Y18402712D01*
X-8707732Y18617085D01*
X-8903873Y18800592D01*
X-9130781Y18948743D01*
X-9384216Y19057049D01*
X-9461500Y19080209D01*
X-9545733Y19095700D01*
X-9660451Y19107083D01*
X-9785391Y19112570D01*
X-9829800Y19112750D01*
X-10093392Y19091670D01*
X-10330500Y19031052D01*
X-10548543Y18927747D01*
X-10754943Y18778606D01*
X-10871453Y18670653D01*
X-11048429Y18467592D01*
X-11177754Y18257162D01*
X-11262579Y18031943D01*
X-11306051Y17784515D01*
X-11313550Y17629000D01*
X-11465706Y17629000D01*
X-11463832Y17772394D01*
X-11433650Y17988394D01*
X-11418953Y18048100D01*
X-11319931Y18313594D01*
X-11177641Y18558220D01*
X-10997136Y18775816D01*
X-10783465Y18960221D01*
X-10559454Y19096511D01*
X-10392814Y19172002D01*
X-10238086Y19222200D01*
X-10077313Y19251070D01*
X-9892539Y19262575D01*
X-9804400Y19263187D01*
X-9662638Y19260610D01*
G37*
X-9662638Y19260610D02*
X-9554126Y19252833D01*
X-9461391Y19237380D01*
X-9366957Y19211775D01*
X-9309818Y19193097D01*
X-9037520Y19075515D01*
X-8797476Y18919636D01*
X-8591827Y18728078D01*
X-8422713Y18503456D01*
X-8292275Y18248388D01*
X-8202654Y17965490D01*
X-8172055Y17802555D01*
X-8160788Y17560438D01*
X-8194000Y17301270D01*
X-8260702Y17060278D01*
X-8371486Y16812785D01*
X-8521718Y16590201D01*
X-8705624Y16395824D01*
X-8917433Y16232951D01*
X-9151373Y16104881D01*
X-9401670Y16014910D01*
X-9662554Y15966337D01*
X-9928250Y15962460D01*
X-10131092Y15991704D01*
X-10419392Y16078412D01*
X-10679298Y16206127D01*
X-10908279Y16372608D01*
X-11103801Y16575614D01*
X-11263335Y16812905D01*
X-11384348Y17082242D01*
X-11393615Y17109018D01*
X-11443277Y17312788D01*
X-11466861Y17540552D01*
X-11465706Y17629000D01*
X-11313550Y17629000D01*
X-11308136Y17447148D01*
X-11285281Y17291126D01*
X-11240186Y17139994D01*
X-11168053Y16972812D01*
X-11158768Y16953582D01*
X-11018318Y16721410D01*
X-10840486Y16521741D01*
X-10629410Y16357816D01*
X-10389231Y16232870D01*
X-10134600Y16152483D01*
X-9976664Y16121752D01*
X-9843189Y16109746D01*
X-9711512Y16116218D01*
X-9558968Y16140920D01*
X-9534067Y16145940D01*
X-9265205Y16225607D01*
X-9022978Y16347128D01*
X-8810571Y16507294D01*
X-8631172Y16702893D01*
X-8487967Y16930717D01*
X-8384142Y17187555D01*
X-8343967Y17344911D01*
X-8319553Y17477708D01*
X-8308824Y17585617D01*
X-8311865Y17688987D01*
X-8328763Y17808172D01*
X-8346317Y17899334D01*
X-8424714Y18161965D01*
X-8546599Y18402712D01*
X-8707732Y18617085D01*
X-8903873Y18800592D01*
X-9130781Y18948743D01*
X-9384216Y19057049D01*
X-9461500Y19080209D01*
X-9545733Y19095700D01*
X-9660451Y19107083D01*
X-9785391Y19112570D01*
X-9829800Y19112750D01*
X-10093392Y19091670D01*
X-10330500Y19031052D01*
X-10548543Y18927747D01*
X-10754943Y18778606D01*
X-10871453Y18670653D01*
X-11048429Y18467592D01*
X-11177754Y18257162D01*
X-11262579Y18031943D01*
X-11306051Y17784515D01*
X-11313550Y17629000D01*
X-11465706Y17629000D01*
X-11463832Y17772394D01*
X-11433650Y17988394D01*
X-11418953Y18048100D01*
X-11319931Y18313594D01*
X-11177641Y18558220D01*
X-10997136Y18775816D01*
X-10783465Y18960221D01*
X-10559454Y19096511D01*
X-10392814Y19172002D01*
X-10238086Y19222200D01*
X-10077313Y19251070D01*
X-9892539Y19262575D01*
X-9804400Y19263187D01*
X-9662638Y19260610D01*
G36*
X-16731455Y16602798D02*
G01*
X-16692880Y16582520D01*
X-16668271Y16530037D01*
X-16664294Y16460717D01*
X-16681566Y16402591D01*
X-16688744Y16393617D01*
X-16702096Y16349808D01*
X-16688744Y16297983D01*
X-16669537Y16239929D01*
X-16662400Y16204947D01*
X-16683671Y16188906D01*
X-16732333Y16181841D01*
X-16785662Y16184414D01*
X-16820936Y16197288D01*
X-16823327Y16200250D01*
X-16836459Y16233609D01*
X-16857959Y16299122D01*
X-16874582Y16353744D01*
X-16898920Y16474698D01*
X-16889369Y16558021D01*
X-16845965Y16603605D01*
X-16795109Y16613000D01*
X-16731455Y16602798D01*
G37*
X-16731455Y16602798D02*
X-16692880Y16582520D01*
X-16668271Y16530037D01*
X-16664294Y16460717D01*
X-16681566Y16402591D01*
X-16688744Y16393617D01*
X-16702096Y16349808D01*
X-16688744Y16297983D01*
X-16669537Y16239929D01*
X-16662400Y16204947D01*
X-16683671Y16188906D01*
X-16732333Y16181841D01*
X-16785662Y16184414D01*
X-16820936Y16197288D01*
X-16823327Y16200250D01*
X-16836459Y16233609D01*
X-16857959Y16299122D01*
X-16874582Y16353744D01*
X-16898920Y16474698D01*
X-16889369Y16558021D01*
X-16845965Y16603605D01*
X-16795109Y16613000D01*
X-16731455Y16602798D01*
G36*
X-15567023Y17028322D02*
G01*
X-15471163Y16976760D01*
X-15399513Y16894624D01*
X-15355391Y16790431D01*
X-15346825Y16674170D01*
X-15371381Y16561152D01*
X-15426626Y16466687D01*
X-15474157Y16424846D01*
X-15554240Y16388005D01*
X-15642929Y16369440D01*
X-15716204Y16373864D01*
X-15722600Y16376078D01*
X-15772513Y16404677D01*
X-15805150Y16429752D01*
X-15838637Y16454750D01*
X-15849008Y16443062D01*
X-15849600Y16426437D01*
X-15864574Y16396380D01*
X-15916088Y16384916D01*
X-15938500Y16384400D01*
X-16027400Y16384400D01*
X-16027400Y16590112D01*
X-16016719Y16755259D01*
X-15819879Y16755259D01*
X-15819328Y16675212D01*
X-15793587Y16602204D01*
X-15747422Y16551358D01*
X-15698915Y16536800D01*
X-15647626Y16550759D01*
X-15601252Y16576341D01*
X-15554546Y16636002D01*
X-15544800Y16698486D01*
X-15561846Y16793991D01*
X-15610741Y16853671D01*
X-15684500Y16873350D01*
X-15750950Y16857522D01*
X-15790470Y16827221D01*
X-15819879Y16755259D01*
X-16016719Y16755259D01*
X-16016425Y16759793D01*
X-15981833Y16886658D01*
X-15921124Y16974093D01*
X-15831801Y17025484D01*
X-15711364Y17044216D01*
X-15692112Y17044426D01*
X-15567023Y17028322D01*
G37*
X-15567023Y17028322D02*
X-15471163Y16976760D01*
X-15399513Y16894624D01*
X-15355391Y16790431D01*
X-15346825Y16674170D01*
X-15371381Y16561152D01*
X-15426626Y16466687D01*
X-15474157Y16424846D01*
X-15554240Y16388005D01*
X-15642929Y16369440D01*
X-15716204Y16373864D01*
X-15722600Y16376078D01*
X-15772513Y16404677D01*
X-15805150Y16429752D01*
X-15838637Y16454750D01*
X-15849008Y16443062D01*
X-15849600Y16426437D01*
X-15864574Y16396380D01*
X-15916088Y16384916D01*
X-15938500Y16384400D01*
X-16027400Y16384400D01*
X-16027400Y16590112D01*
X-16016719Y16755259D01*
X-15819879Y16755259D01*
X-15819328Y16675212D01*
X-15793587Y16602204D01*
X-15747422Y16551358D01*
X-15698915Y16536800D01*
X-15647626Y16550759D01*
X-15601252Y16576341D01*
X-15554546Y16636002D01*
X-15544800Y16698486D01*
X-15561846Y16793991D01*
X-15610741Y16853671D01*
X-15684500Y16873350D01*
X-15750950Y16857522D01*
X-15790470Y16827221D01*
X-15819879Y16755259D01*
X-16016719Y16755259D01*
X-16016425Y16759793D01*
X-15981833Y16886658D01*
X-15921124Y16974093D01*
X-15831801Y17025484D01*
X-15711364Y17044216D01*
X-15692112Y17044426D01*
X-15567023Y17028322D01*
G36*
X-13368722Y17024888D02*
G01*
X-13263416Y16967185D01*
X-13193737Y16874743D01*
X-13162391Y16750613D01*
X-13163511Y16657866D01*
X-13196092Y16539678D01*
X-13263045Y16447396D01*
X-13355310Y16388045D01*
X-13463827Y16368651D01*
X-13525500Y16377141D01*
X-13583860Y16400253D01*
X-13608050Y16415644D01*
X-13635374Y16427176D01*
X-13639800Y16412911D01*
X-13662636Y16394429D01*
X-13721344Y16384902D01*
X-13741400Y16384400D01*
X-13843000Y16384400D01*
X-13843000Y16588862D01*
X-13833654Y16715397D01*
X-13639800Y16715397D01*
X-13621912Y16627842D01*
X-13575553Y16567602D01*
X-13511684Y16541105D01*
X-13441265Y16554774D01*
X-13406851Y16578837D01*
X-13373636Y16635697D01*
X-13360807Y16713329D01*
X-13369062Y16789529D01*
X-13398579Y16841665D01*
X-13471344Y16875064D01*
X-13544009Y16866186D01*
X-13603505Y16821874D01*
X-13636761Y16748967D01*
X-13639800Y16715397D01*
X-13833654Y16715397D01*
X-13830354Y16760062D01*
X-13791346Y16889078D01*
X-13724374Y16978084D01*
X-13627836Y17029254D01*
X-13506944Y17044800D01*
X-13368722Y17024888D01*
G37*
X-13368722Y17024888D02*
X-13263416Y16967185D01*
X-13193737Y16874743D01*
X-13162391Y16750613D01*
X-13163511Y16657866D01*
X-13196092Y16539678D01*
X-13263045Y16447396D01*
X-13355310Y16388045D01*
X-13463827Y16368651D01*
X-13525500Y16377141D01*
X-13583860Y16400253D01*
X-13608050Y16415644D01*
X-13635374Y16427176D01*
X-13639800Y16412911D01*
X-13662636Y16394429D01*
X-13721344Y16384902D01*
X-13741400Y16384400D01*
X-13843000Y16384400D01*
X-13843000Y16588862D01*
X-13833654Y16715397D01*
X-13639800Y16715397D01*
X-13621912Y16627842D01*
X-13575553Y16567602D01*
X-13511684Y16541105D01*
X-13441265Y16554774D01*
X-13406851Y16578837D01*
X-13373636Y16635697D01*
X-13360807Y16713329D01*
X-13369062Y16789529D01*
X-13398579Y16841665D01*
X-13471344Y16875064D01*
X-13544009Y16866186D01*
X-13603505Y16821874D01*
X-13636761Y16748967D01*
X-13639800Y16715397D01*
X-13833654Y16715397D01*
X-13830354Y16760062D01*
X-13791346Y16889078D01*
X-13724374Y16978084D01*
X-13627836Y17029254D01*
X-13506944Y17044800D01*
X-13368722Y17024888D01*
G36*
X-18899897Y17268649D02*
G01*
X-18740486Y17237047D01*
X-18615345Y17169582D01*
X-18527074Y17069137D01*
X-18478270Y16938597D01*
X-18470625Y16792086D01*
X-18503246Y16643913D01*
X-18575176Y16526065D01*
X-18682728Y16441815D01*
X-18822213Y16394437D01*
X-18929350Y16384958D01*
X-19050000Y16384400D01*
X-19050000Y16473300D01*
X-19046167Y16532600D01*
X-19024342Y16557137D01*
X-18969042Y16562180D01*
X-18959839Y16562200D01*
X-18857597Y16577838D01*
X-18765470Y16618893D01*
X-18701975Y16676580D01*
X-18695153Y16687794D01*
X-18677254Y16746380D01*
X-18669055Y16822822D01*
X-18669000Y16828900D01*
X-18676129Y16905350D01*
X-18693459Y16966648D01*
X-18695153Y16970007D01*
X-18751693Y17029712D01*
X-18840124Y17074331D01*
X-18941929Y17095079D01*
X-18959839Y17095600D01*
X-19019572Y17099222D01*
X-19044593Y17120325D01*
X-19049960Y17174264D01*
X-19050000Y17187553D01*
X-19050000Y17279506D01*
X-18899897Y17268649D01*
G37*
X-18899897Y17268649D02*
X-18740486Y17237047D01*
X-18615345Y17169582D01*
X-18527074Y17069137D01*
X-18478270Y16938597D01*
X-18470625Y16792086D01*
X-18503246Y16643913D01*
X-18575176Y16526065D01*
X-18682728Y16441815D01*
X-18822213Y16394437D01*
X-18929350Y16384958D01*
X-19050000Y16384400D01*
X-19050000Y16473300D01*
X-19046167Y16532600D01*
X-19024342Y16557137D01*
X-18969042Y16562180D01*
X-18959839Y16562200D01*
X-18857597Y16577838D01*
X-18765470Y16618893D01*
X-18701975Y16676580D01*
X-18695153Y16687794D01*
X-18677254Y16746380D01*
X-18669055Y16822822D01*
X-18669000Y16828900D01*
X-18676129Y16905350D01*
X-18693459Y16966648D01*
X-18695153Y16970007D01*
X-18751693Y17029712D01*
X-18840124Y17074331D01*
X-18941929Y17095079D01*
X-18959839Y17095600D01*
X-19019572Y17099222D01*
X-19044593Y17120325D01*
X-19049960Y17174264D01*
X-19050000Y17187553D01*
X-19050000Y17279506D01*
X-18899897Y17268649D01*
G36*
X-17911477Y16902954D02*
G01*
X-17919700Y16532507D01*
X-18002651Y16458454D01*
X-18055050Y16417112D01*
X-18106695Y16394752D01*
X-18176373Y16385756D01*
X-18250301Y16384400D01*
X-18415000Y16384400D01*
X-18415000Y16559665D01*
X-18268950Y16567283D01*
X-18122900Y16574900D01*
X-18115834Y16924150D01*
X-18108767Y17273400D01*
X-17903253Y17273400D01*
X-17911477Y16902954D01*
G37*
X-17911477Y16902954D02*
X-17919700Y16532507D01*
X-18002651Y16458454D01*
X-18055050Y16417112D01*
X-18106695Y16394752D01*
X-18176373Y16385756D01*
X-18250301Y16384400D01*
X-18415000Y16384400D01*
X-18415000Y16559665D01*
X-18268950Y16567283D01*
X-18122900Y16574900D01*
X-18115834Y16924150D01*
X-18108767Y17273400D01*
X-17903253Y17273400D01*
X-17911477Y16902954D01*
G36*
X-17327277Y16902954D02*
G01*
X-17335500Y16532507D01*
X-17418451Y16458454D01*
X-17470850Y16417112D01*
X-17522495Y16394752D01*
X-17592173Y16385756D01*
X-17666101Y16384400D01*
X-17830800Y16384400D01*
X-17830800Y16562200D01*
X-17708880Y16562200D01*
X-17630402Y16568210D01*
X-17571515Y16583426D01*
X-17556480Y16592681D01*
X-17541441Y16633941D01*
X-17531511Y16723167D01*
X-17526601Y16861402D01*
X-17526000Y16948281D01*
X-17526000Y17273400D01*
X-17319053Y17273400D01*
X-17327277Y16902954D01*
G37*
X-17327277Y16902954D02*
X-17335500Y16532507D01*
X-17418451Y16458454D01*
X-17470850Y16417112D01*
X-17522495Y16394752D01*
X-17592173Y16385756D01*
X-17666101Y16384400D01*
X-17830800Y16384400D01*
X-17830800Y16562200D01*
X-17708880Y16562200D01*
X-17630402Y16568210D01*
X-17571515Y16583426D01*
X-17556480Y16592681D01*
X-17541441Y16633941D01*
X-17531511Y16723167D01*
X-17526601Y16861402D01*
X-17526000Y16948281D01*
X-17526000Y17273400D01*
X-17319053Y17273400D01*
X-17327277Y16902954D01*
G36*
X-16241654Y17194191D02*
G01*
X-16212693Y17177885D01*
X-16205361Y17137363D01*
X-16205200Y17121000D01*
X-16197217Y17065224D01*
X-16167514Y17045587D01*
X-16154400Y17044800D01*
X-16119388Y17034856D01*
X-16105261Y16996034D01*
X-16103600Y16955900D01*
X-16109283Y16894629D01*
X-16131467Y16869906D01*
X-16154400Y16867000D01*
X-16180619Y16862402D01*
X-16195879Y16841514D01*
X-16203088Y16793695D01*
X-16205149Y16708304D01*
X-16205200Y16680928D01*
X-16212794Y16552017D01*
X-16239550Y16465068D01*
X-16291431Y16412988D01*
X-16374401Y16388684D01*
X-16454488Y16384400D01*
X-16586200Y16384400D01*
X-16586200Y16473300D01*
X-16582269Y16532884D01*
X-16560085Y16557320D01*
X-16504067Y16562189D01*
X-16497300Y16562200D01*
X-16408400Y16562200D01*
X-16408400Y16867000D01*
X-16497300Y16867000D01*
X-16556884Y16870932D01*
X-16581320Y16893116D01*
X-16586189Y16949134D01*
X-16586200Y16955900D01*
X-16582269Y17015484D01*
X-16560085Y17039920D01*
X-16504067Y17044789D01*
X-16497300Y17044800D01*
X-16437572Y17049048D01*
X-16413074Y17070594D01*
X-16408400Y17121000D01*
X-16404388Y17169861D01*
X-16382647Y17191581D01*
X-16328617Y17197080D01*
X-16306800Y17197200D01*
X-16241654Y17194191D01*
G37*
X-16241654Y17194191D02*
X-16212693Y17177885D01*
X-16205361Y17137363D01*
X-16205200Y17121000D01*
X-16197217Y17065224D01*
X-16167514Y17045587D01*
X-16154400Y17044800D01*
X-16119388Y17034856D01*
X-16105261Y16996034D01*
X-16103600Y16955900D01*
X-16109283Y16894629D01*
X-16131467Y16869906D01*
X-16154400Y16867000D01*
X-16180619Y16862402D01*
X-16195879Y16841514D01*
X-16203088Y16793695D01*
X-16205149Y16708304D01*
X-16205200Y16680928D01*
X-16212794Y16552017D01*
X-16239550Y16465068D01*
X-16291431Y16412988D01*
X-16374401Y16388684D01*
X-16454488Y16384400D01*
X-16586200Y16384400D01*
X-16586200Y16473300D01*
X-16582269Y16532884D01*
X-16560085Y16557320D01*
X-16504067Y16562189D01*
X-16497300Y16562200D01*
X-16408400Y16562200D01*
X-16408400Y16867000D01*
X-16497300Y16867000D01*
X-16556884Y16870932D01*
X-16581320Y16893116D01*
X-16586189Y16949134D01*
X-16586200Y16955900D01*
X-16582269Y17015484D01*
X-16560085Y17039920D01*
X-16504067Y17044789D01*
X-16497300Y17044800D01*
X-16437572Y17049048D01*
X-16413074Y17070594D01*
X-16408400Y17121000D01*
X-16404388Y17169861D01*
X-16382647Y17191581D01*
X-16328617Y17197080D01*
X-16306800Y17197200D01*
X-16241654Y17194191D01*
G36*
X-15115297Y17268649D02*
G01*
X-14955886Y17237047D01*
X-14830745Y17169582D01*
X-14742474Y17069137D01*
X-14693670Y16938597D01*
X-14686025Y16792086D01*
X-14718646Y16643913D01*
X-14790576Y16526065D01*
X-14898128Y16441815D01*
X-15037613Y16394437D01*
X-15144750Y16384958D01*
X-15265400Y16384400D01*
X-15265400Y16473300D01*
X-15261567Y16532600D01*
X-15239742Y16557137D01*
X-15184442Y16562180D01*
X-15175239Y16562200D01*
X-15072997Y16577838D01*
X-14980870Y16618893D01*
X-14917375Y16676580D01*
X-14910553Y16687794D01*
X-14892654Y16746380D01*
X-14884455Y16822822D01*
X-14884400Y16828900D01*
X-14891529Y16905350D01*
X-14908859Y16966648D01*
X-14910553Y16970007D01*
X-14967093Y17029712D01*
X-15055524Y17074331D01*
X-15157329Y17095079D01*
X-15175239Y17095600D01*
X-15234972Y17099222D01*
X-15259993Y17120325D01*
X-15265360Y17174264D01*
X-15265400Y17187553D01*
X-15265400Y17279506D01*
X-15115297Y17268649D01*
G37*
X-15115297Y17268649D02*
X-14955886Y17237047D01*
X-14830745Y17169582D01*
X-14742474Y17069137D01*
X-14693670Y16938597D01*
X-14686025Y16792086D01*
X-14718646Y16643913D01*
X-14790576Y16526065D01*
X-14898128Y16441815D01*
X-15037613Y16394437D01*
X-15144750Y16384958D01*
X-15265400Y16384400D01*
X-15265400Y16473300D01*
X-15261567Y16532600D01*
X-15239742Y16557137D01*
X-15184442Y16562180D01*
X-15175239Y16562200D01*
X-15072997Y16577838D01*
X-14980870Y16618893D01*
X-14917375Y16676580D01*
X-14910553Y16687794D01*
X-14892654Y16746380D01*
X-14884455Y16822822D01*
X-14884400Y16828900D01*
X-14891529Y16905350D01*
X-14908859Y16966648D01*
X-14910553Y16970007D01*
X-14967093Y17029712D01*
X-15055524Y17074331D01*
X-15157329Y17095079D01*
X-15175239Y17095600D01*
X-15234972Y17099222D01*
X-15259993Y17120325D01*
X-15265360Y17174264D01*
X-15265400Y17187553D01*
X-15265400Y17279506D01*
X-15115297Y17268649D01*
G36*
X-13970000Y16384400D02*
G01*
X-14173200Y16384400D01*
X-14173200Y16511400D01*
X-14175491Y16587002D01*
X-14186267Y16624724D01*
X-14211382Y16637421D01*
X-14231049Y16638400D01*
X-14319583Y16616881D01*
X-14379621Y16558411D01*
X-14401800Y16472123D01*
X-14401800Y16471860D01*
X-14404964Y16415858D01*
X-14424214Y16390970D01*
X-14474192Y16384592D01*
X-14503400Y16384400D01*
X-14568447Y16387065D01*
X-14597354Y16403725D01*
X-14604770Y16447381D01*
X-14605000Y16474562D01*
X-14590377Y16572657D01*
X-14552357Y16663218D01*
X-14499713Y16726941D01*
X-14486231Y16735899D01*
X-14465172Y16753703D01*
X-14465105Y16780755D01*
X-14489028Y16828815D01*
X-14524331Y16885435D01*
X-14567658Y16955605D01*
X-14596940Y17008102D01*
X-14605000Y17027974D01*
X-14582487Y17038629D01*
X-14526420Y17044440D01*
X-14506048Y17044800D01*
X-14447635Y17040915D01*
X-14405996Y17022256D01*
X-14366203Y16978318D01*
X-14325600Y16917800D01*
X-14268607Y16835724D01*
X-14227299Y16795204D01*
X-14199399Y16798142D01*
X-14182627Y16846434D01*
X-14174705Y16941981D01*
X-14173200Y17044800D01*
X-14173200Y17298800D01*
X-13970000Y17298800D01*
X-13970000Y16384400D01*
G37*
X-13970000Y16384400D02*
X-14173200Y16384400D01*
X-14173200Y16511400D01*
X-14175491Y16587002D01*
X-14186267Y16624724D01*
X-14211382Y16637421D01*
X-14231049Y16638400D01*
X-14319583Y16616881D01*
X-14379621Y16558411D01*
X-14401800Y16472123D01*
X-14401800Y16471860D01*
X-14404964Y16415858D01*
X-14424214Y16390970D01*
X-14474192Y16384592D01*
X-14503400Y16384400D01*
X-14568447Y16387065D01*
X-14597354Y16403725D01*
X-14604770Y16447381D01*
X-14605000Y16474562D01*
X-14590377Y16572657D01*
X-14552357Y16663218D01*
X-14499713Y16726941D01*
X-14486231Y16735899D01*
X-14465172Y16753703D01*
X-14465105Y16780755D01*
X-14489028Y16828815D01*
X-14524331Y16885435D01*
X-14567658Y16955605D01*
X-14596940Y17008102D01*
X-14605000Y17027974D01*
X-14582487Y17038629D01*
X-14526420Y17044440D01*
X-14506048Y17044800D01*
X-14447635Y17040915D01*
X-14405996Y17022256D01*
X-14366203Y16978318D01*
X-14325600Y16917800D01*
X-14268607Y16835724D01*
X-14227299Y16795204D01*
X-14199399Y16798142D01*
X-14182627Y16846434D01*
X-14174705Y16941981D01*
X-14173200Y17044800D01*
X-14173200Y17298800D01*
X-13970000Y17298800D01*
X-13970000Y16384400D01*
G36*
X-12852400Y16917800D02*
G01*
X-12496800Y16917800D01*
X-12496800Y17273400D01*
X-12293600Y17273400D01*
X-12293600Y16384400D01*
X-12496800Y16384400D01*
X-12496800Y16740000D01*
X-12852400Y16740000D01*
X-12852400Y16384400D01*
X-13055600Y16384400D01*
X-13055600Y17273400D01*
X-12852400Y17273400D01*
X-12852400Y16917800D01*
G37*
X-12852400Y16917800D02*
X-12496800Y16917800D01*
X-12496800Y17273400D01*
X-12293600Y17273400D01*
X-12293600Y16384400D01*
X-12496800Y16384400D01*
X-12496800Y16740000D01*
X-12852400Y16740000D01*
X-12852400Y16384400D01*
X-13055600Y16384400D01*
X-13055600Y17273400D01*
X-12852400Y17273400D01*
X-12852400Y16917800D01*
G36*
X-13709296Y18806435D02*
G01*
X-13657271Y18788330D01*
X-13586788Y18748260D01*
X-13534626Y18690626D01*
X-13498463Y18608496D01*
X-13475976Y18494934D01*
X-13464844Y18343007D01*
X-13462558Y18206850D01*
X-13462000Y17883000D01*
X-13665200Y17883000D01*
X-13665200Y18186543D01*
X-13730354Y18161772D01*
X-13848824Y18139623D01*
X-13961329Y18159639D01*
X-14055507Y18217682D01*
X-14109271Y18288569D01*
X-14132422Y18359324D01*
X-14146163Y18451517D01*
X-14147318Y18479900D01*
X-13954760Y18479900D01*
X-13944926Y18408699D01*
X-13921269Y18355394D01*
X-13921170Y18355274D01*
X-13862838Y18319994D01*
X-13789982Y18318719D01*
X-13724307Y18349846D01*
X-13704741Y18371252D01*
X-13671195Y18452821D01*
X-13675585Y18533601D01*
X-13712521Y18600319D01*
X-13776610Y18639702D01*
X-13815931Y18645000D01*
X-13894241Y18624842D01*
X-13940952Y18565531D01*
X-13954760Y18479900D01*
X-14147318Y18479900D01*
X-14147800Y18491712D01*
X-14142266Y18578926D01*
X-14119054Y18642032D01*
X-14068257Y18707124D01*
X-14064378Y18711376D01*
X-13962027Y18788012D01*
X-13840829Y18820235D01*
X-13709296Y18806435D01*
G37*
X-13709296Y18806435D02*
X-13657271Y18788330D01*
X-13586788Y18748260D01*
X-13534626Y18690626D01*
X-13498463Y18608496D01*
X-13475976Y18494934D01*
X-13464844Y18343007D01*
X-13462558Y18206850D01*
X-13462000Y17883000D01*
X-13665200Y17883000D01*
X-13665200Y18186543D01*
X-13730354Y18161772D01*
X-13848824Y18139623D01*
X-13961329Y18159639D01*
X-14055507Y18217682D01*
X-14109271Y18288569D01*
X-14132422Y18359324D01*
X-14146163Y18451517D01*
X-14147318Y18479900D01*
X-13954760Y18479900D01*
X-13944926Y18408699D01*
X-13921269Y18355394D01*
X-13921170Y18355274D01*
X-13862838Y18319994D01*
X-13789982Y18318719D01*
X-13724307Y18349846D01*
X-13704741Y18371252D01*
X-13671195Y18452821D01*
X-13675585Y18533601D01*
X-13712521Y18600319D01*
X-13776610Y18639702D01*
X-13815931Y18645000D01*
X-13894241Y18624842D01*
X-13940952Y18565531D01*
X-13954760Y18479900D01*
X-14147318Y18479900D01*
X-14147800Y18491712D01*
X-14142266Y18578926D01*
X-14119054Y18642032D01*
X-14068257Y18707124D01*
X-14064378Y18711376D01*
X-13962027Y18788012D01*
X-13840829Y18820235D01*
X-13709296Y18806435D01*
G36*
X-19583400Y18586580D02*
G01*
X-19579864Y18463675D01*
X-19566937Y18383190D01*
X-19541145Y18337091D01*
X-19499011Y18317345D01*
X-19465835Y18314800D01*
X-19403906Y18326030D01*
X-19362832Y18364292D01*
X-19339286Y18436448D01*
X-19329937Y18549359D01*
X-19329400Y18596015D01*
X-19329400Y18797400D01*
X-19151600Y18797400D01*
X-19151600Y18558049D01*
X-19152728Y18443605D01*
X-19157921Y18366836D01*
X-19169893Y18314635D01*
X-19191360Y18273894D01*
X-19217358Y18240549D01*
X-19267615Y18190685D01*
X-19310795Y18163874D01*
X-19318958Y18162400D01*
X-19341981Y18146134D01*
X-19353024Y18092242D01*
X-19354800Y18035400D01*
X-19354800Y17908400D01*
X-19558000Y17908400D01*
X-19558000Y18029832D01*
X-19560990Y18104873D01*
X-19575709Y18146132D01*
X-19610785Y18170531D01*
X-19634645Y18180193D01*
X-19703374Y18226331D01*
X-19750535Y18307234D01*
X-19777739Y18427286D01*
X-19786599Y18590869D01*
X-19786600Y18593385D01*
X-19786600Y18797400D01*
X-19583400Y18797400D01*
X-19583400Y18586580D01*
G37*
X-19583400Y18586580D02*
X-19579864Y18463675D01*
X-19566937Y18383190D01*
X-19541145Y18337091D01*
X-19499011Y18317345D01*
X-19465835Y18314800D01*
X-19403906Y18326030D01*
X-19362832Y18364292D01*
X-19339286Y18436448D01*
X-19329937Y18549359D01*
X-19329400Y18596015D01*
X-19329400Y18797400D01*
X-19151600Y18797400D01*
X-19151600Y18558049D01*
X-19152728Y18443605D01*
X-19157921Y18366836D01*
X-19169893Y18314635D01*
X-19191360Y18273894D01*
X-19217358Y18240549D01*
X-19267615Y18190685D01*
X-19310795Y18163874D01*
X-19318958Y18162400D01*
X-19341981Y18146134D01*
X-19353024Y18092242D01*
X-19354800Y18035400D01*
X-19354800Y17908400D01*
X-19558000Y17908400D01*
X-19558000Y18029832D01*
X-19560990Y18104873D01*
X-19575709Y18146132D01*
X-19610785Y18170531D01*
X-19634645Y18180193D01*
X-19703374Y18226331D01*
X-19750535Y18307234D01*
X-19777739Y18427286D01*
X-19786599Y18590869D01*
X-19786600Y18593385D01*
X-19786600Y18797400D01*
X-19583400Y18797400D01*
X-19583400Y18586580D01*
G36*
X-18364200Y18718770D02*
G01*
X-18365312Y18567762D01*
X-18369263Y18458332D01*
X-18376975Y18381293D01*
X-18389372Y18327462D01*
X-18407375Y18287650D01*
X-18407534Y18287380D01*
X-18484181Y18204224D01*
X-18589066Y18154128D01*
X-18709567Y18139969D01*
X-18833058Y18164629D01*
X-18871745Y18181490D01*
X-18952535Y18247808D01*
X-19011807Y18346131D01*
X-19041985Y18459614D01*
X-19041420Y18479900D01*
X-18846800Y18479900D01*
X-18827420Y18404021D01*
X-18778280Y18347490D01*
X-18712881Y18316880D01*
X-18644722Y18318764D01*
X-18590831Y18355274D01*
X-18567140Y18408458D01*
X-18557241Y18479653D01*
X-18557240Y18479900D01*
X-18574191Y18573029D01*
X-18624065Y18628579D01*
X-18696070Y18645000D01*
X-18769121Y18622190D01*
X-18823871Y18563678D01*
X-18846738Y18484343D01*
X-18846800Y18479900D01*
X-19041420Y18479900D01*
X-19039350Y18554111D01*
X-18998827Y18660209D01*
X-18927743Y18744289D01*
X-18837014Y18800475D01*
X-18737559Y18822889D01*
X-18640296Y18805652D01*
X-18606037Y18787387D01*
X-18542000Y18745429D01*
X-18542000Y19076800D01*
X-18364200Y19076800D01*
X-18364200Y18718770D01*
G37*
X-18364200Y18718770D02*
X-18365312Y18567762D01*
X-18369263Y18458332D01*
X-18376975Y18381293D01*
X-18389372Y18327462D01*
X-18407375Y18287650D01*
X-18407534Y18287380D01*
X-18484181Y18204224D01*
X-18589066Y18154128D01*
X-18709567Y18139969D01*
X-18833058Y18164629D01*
X-18871745Y18181490D01*
X-18952535Y18247808D01*
X-19011807Y18346131D01*
X-19041985Y18459614D01*
X-19041420Y18479900D01*
X-18846800Y18479900D01*
X-18827420Y18404021D01*
X-18778280Y18347490D01*
X-18712881Y18316880D01*
X-18644722Y18318764D01*
X-18590831Y18355274D01*
X-18567140Y18408458D01*
X-18557241Y18479653D01*
X-18557240Y18479900D01*
X-18574191Y18573029D01*
X-18624065Y18628579D01*
X-18696070Y18645000D01*
X-18769121Y18622190D01*
X-18823871Y18563678D01*
X-18846738Y18484343D01*
X-18846800Y18479900D01*
X-19041420Y18479900D01*
X-19039350Y18554111D01*
X-18998827Y18660209D01*
X-18927743Y18744289D01*
X-18837014Y18800475D01*
X-18737559Y18822889D01*
X-18640296Y18805652D01*
X-18606037Y18787387D01*
X-18542000Y18745429D01*
X-18542000Y19076800D01*
X-18364200Y19076800D01*
X-18364200Y18718770D01*
G36*
X-16687800Y18586580D02*
G01*
X-16684264Y18463675D01*
X-16671337Y18383190D01*
X-16645545Y18337091D01*
X-16603411Y18317345D01*
X-16570235Y18314800D01*
X-16508306Y18326030D01*
X-16467232Y18364292D01*
X-16443686Y18436448D01*
X-16434337Y18549359D01*
X-16433800Y18596015D01*
X-16433800Y18797400D01*
X-16256000Y18797400D01*
X-16256000Y18556501D01*
X-16256937Y18442693D01*
X-16261672Y18366682D01*
X-16273097Y18315474D01*
X-16294103Y18276074D01*
X-16327359Y18235738D01*
X-16386014Y18182415D01*
X-16452644Y18155373D01*
X-16524209Y18145576D01*
X-16660039Y18152101D01*
X-16730447Y18176539D01*
X-16804447Y18231943D01*
X-16854028Y18313879D01*
X-16881955Y18429494D01*
X-16890992Y18585934D01*
X-16891000Y18591689D01*
X-16891000Y18797400D01*
X-16687800Y18797400D01*
X-16687800Y18586580D01*
G37*
X-16687800Y18586580D02*
X-16684264Y18463675D01*
X-16671337Y18383190D01*
X-16645545Y18337091D01*
X-16603411Y18317345D01*
X-16570235Y18314800D01*
X-16508306Y18326030D01*
X-16467232Y18364292D01*
X-16443686Y18436448D01*
X-16434337Y18549359D01*
X-16433800Y18596015D01*
X-16433800Y18797400D01*
X-16256000Y18797400D01*
X-16256000Y18556501D01*
X-16256937Y18442693D01*
X-16261672Y18366682D01*
X-16273097Y18315474D01*
X-16294103Y18276074D01*
X-16327359Y18235738D01*
X-16386014Y18182415D01*
X-16452644Y18155373D01*
X-16524209Y18145576D01*
X-16660039Y18152101D01*
X-16730447Y18176539D01*
X-16804447Y18231943D01*
X-16854028Y18313879D01*
X-16881955Y18429494D01*
X-16890992Y18585934D01*
X-16891000Y18591689D01*
X-16891000Y18797400D01*
X-16687800Y18797400D01*
X-16687800Y18586580D01*
G36*
X-15925800Y18921683D02*
G01*
X-15924314Y18836984D01*
X-15917705Y18793324D01*
X-15902745Y18780975D01*
X-15881350Y18787691D01*
X-15830035Y18800428D01*
X-15751791Y18808171D01*
X-15713946Y18809211D01*
X-15631915Y18804411D01*
X-15576521Y18782825D01*
X-15524083Y18734669D01*
X-15518457Y18728426D01*
X-15466930Y18653186D01*
X-15432312Y18571072D01*
X-15428830Y18556128D01*
X-15428442Y18457445D01*
X-15455622Y18351142D01*
X-15503164Y18256808D01*
X-15561448Y18195578D01*
X-15652482Y18159026D01*
X-15765422Y18144597D01*
X-15876014Y18153613D01*
X-15939805Y18174968D01*
X-15999410Y18211375D01*
X-16042808Y18255854D01*
X-16072458Y18316568D01*
X-16090819Y18401685D01*
X-16097154Y18479900D01*
X-15910560Y18479900D01*
X-15900726Y18408699D01*
X-15877069Y18355394D01*
X-15876970Y18355274D01*
X-15818638Y18319994D01*
X-15745782Y18318719D01*
X-15680107Y18349846D01*
X-15660541Y18371252D01*
X-15626995Y18452821D01*
X-15631385Y18533601D01*
X-15668321Y18600319D01*
X-15732410Y18639702D01*
X-15771731Y18645000D01*
X-15850041Y18624842D01*
X-15896752Y18565531D01*
X-15910560Y18479900D01*
X-16097154Y18479900D01*
X-16100352Y18519368D01*
X-16103515Y18677784D01*
X-16103600Y18718770D01*
X-16103600Y19076800D01*
X-15925800Y19076800D01*
X-15925800Y18921683D01*
G37*
X-15925800Y18921683D02*
X-15924314Y18836984D01*
X-15917705Y18793324D01*
X-15902745Y18780975D01*
X-15881350Y18787691D01*
X-15830035Y18800428D01*
X-15751791Y18808171D01*
X-15713946Y18809211D01*
X-15631915Y18804411D01*
X-15576521Y18782825D01*
X-15524083Y18734669D01*
X-15518457Y18728426D01*
X-15466930Y18653186D01*
X-15432312Y18571072D01*
X-15428830Y18556128D01*
X-15428442Y18457445D01*
X-15455622Y18351142D01*
X-15503164Y18256808D01*
X-15561448Y18195578D01*
X-15652482Y18159026D01*
X-15765422Y18144597D01*
X-15876014Y18153613D01*
X-15939805Y18174968D01*
X-15999410Y18211375D01*
X-16042808Y18255854D01*
X-16072458Y18316568D01*
X-16090819Y18401685D01*
X-16097154Y18479900D01*
X-15910560Y18479900D01*
X-15900726Y18408699D01*
X-15877069Y18355394D01*
X-15876970Y18355274D01*
X-15818638Y18319994D01*
X-15745782Y18318719D01*
X-15680107Y18349846D01*
X-15660541Y18371252D01*
X-15626995Y18452821D01*
X-15631385Y18533601D01*
X-15668321Y18600319D01*
X-15732410Y18639702D01*
X-15771731Y18645000D01*
X-15850041Y18624842D01*
X-15896752Y18565531D01*
X-15910560Y18479900D01*
X-16097154Y18479900D01*
X-16100352Y18519368D01*
X-16103515Y18677784D01*
X-16103600Y18718770D01*
X-16103600Y19076800D01*
X-15925800Y19076800D01*
X-15925800Y18921683D01*
G36*
X-14914396Y18802394D02*
G01*
X-14807015Y18748534D01*
X-14718464Y18657390D01*
X-14706463Y18638883D01*
X-14664416Y18527032D01*
X-14666435Y18414064D01*
X-14706867Y18309285D01*
X-14780060Y18221997D01*
X-14880360Y18161506D01*
X-15002113Y18137115D01*
X-15011400Y18137000D01*
X-15096604Y18149709D01*
X-15182196Y18180585D01*
X-15187634Y18183413D01*
X-15284276Y18261621D01*
X-15343679Y18366092D01*
X-15361650Y18479900D01*
X-15163800Y18479900D01*
X-15142744Y18399153D01*
X-15088501Y18339297D01*
X-15014457Y18314838D01*
X-15011400Y18314800D01*
X-14933491Y18337170D01*
X-14898541Y18371252D01*
X-14864757Y18453263D01*
X-14869341Y18534127D01*
X-14906873Y18600698D01*
X-14971933Y18639826D01*
X-15011400Y18645000D01*
X-15085937Y18622189D01*
X-15141188Y18563426D01*
X-15163766Y18483212D01*
X-15163800Y18479900D01*
X-15361650Y18479900D01*
X-15362495Y18485250D01*
X-15337381Y18607519D01*
X-15320588Y18643434D01*
X-15243702Y18739491D01*
X-15143320Y18797951D01*
X-15030024Y18818892D01*
X-14914396Y18802394D01*
G37*
X-14914396Y18802394D02*
X-14807015Y18748534D01*
X-14718464Y18657390D01*
X-14706463Y18638883D01*
X-14664416Y18527032D01*
X-14666435Y18414064D01*
X-14706867Y18309285D01*
X-14780060Y18221997D01*
X-14880360Y18161506D01*
X-15002113Y18137115D01*
X-15011400Y18137000D01*
X-15096604Y18149709D01*
X-15182196Y18180585D01*
X-15187634Y18183413D01*
X-15284276Y18261621D01*
X-15343679Y18366092D01*
X-15361650Y18479900D01*
X-15163800Y18479900D01*
X-15142744Y18399153D01*
X-15088501Y18339297D01*
X-15014457Y18314838D01*
X-15011400Y18314800D01*
X-14933491Y18337170D01*
X-14898541Y18371252D01*
X-14864757Y18453263D01*
X-14869341Y18534127D01*
X-14906873Y18600698D01*
X-14971933Y18639826D01*
X-15011400Y18645000D01*
X-15085937Y18622189D01*
X-15141188Y18563426D01*
X-15163766Y18483212D01*
X-15163800Y18479900D01*
X-15361650Y18479900D01*
X-15362495Y18485250D01*
X-15337381Y18607519D01*
X-15320588Y18643434D01*
X-15243702Y18739491D01*
X-15143320Y18797951D01*
X-15030024Y18818892D01*
X-14914396Y18802394D01*
G36*
X-17587950Y18972509D02*
G01*
X-17559041Y18955892D01*
X-17551628Y18912533D01*
X-17551400Y18886300D01*
X-17545718Y18825029D01*
X-17523534Y18800306D01*
X-17500600Y18797400D01*
X-17463416Y18785426D01*
X-17450325Y18740871D01*
X-17449800Y18721200D01*
X-17458197Y18664891D01*
X-17488367Y18645493D01*
X-17497911Y18645000D01*
X-17522164Y18639456D01*
X-17537666Y18616167D01*
X-17547206Y18565153D01*
X-17553577Y18476431D01*
X-17555352Y18439540D01*
X-17565217Y18317102D01*
X-17586514Y18236740D01*
X-17626734Y18189883D01*
X-17693368Y18167961D01*
X-17793904Y18162404D01*
X-17797555Y18162400D01*
X-17875653Y18163813D01*
X-17915676Y18172843D01*
X-17930350Y18196682D01*
X-17932400Y18238600D01*
X-17927445Y18289796D01*
X-17902308Y18310795D01*
X-17843500Y18314800D01*
X-17754600Y18314800D01*
X-17754600Y18645000D01*
X-17843500Y18645000D01*
X-17903229Y18649248D01*
X-17927727Y18670794D01*
X-17932400Y18721200D01*
X-17927445Y18772396D01*
X-17902308Y18793395D01*
X-17843500Y18797400D01*
X-17783917Y18801332D01*
X-17759481Y18823516D01*
X-17754612Y18879534D01*
X-17754600Y18886300D01*
X-17751525Y18943220D01*
X-17732533Y18968515D01*
X-17682980Y18975002D01*
X-17653000Y18975200D01*
X-17587950Y18972509D01*
G37*
X-17587950Y18972509D02*
X-17559041Y18955892D01*
X-17551628Y18912533D01*
X-17551400Y18886300D01*
X-17545718Y18825029D01*
X-17523534Y18800306D01*
X-17500600Y18797400D01*
X-17463416Y18785426D01*
X-17450325Y18740871D01*
X-17449800Y18721200D01*
X-17458197Y18664891D01*
X-17488367Y18645493D01*
X-17497911Y18645000D01*
X-17522164Y18639456D01*
X-17537666Y18616167D01*
X-17547206Y18565153D01*
X-17553577Y18476431D01*
X-17555352Y18439540D01*
X-17565217Y18317102D01*
X-17586514Y18236740D01*
X-17626734Y18189883D01*
X-17693368Y18167961D01*
X-17793904Y18162404D01*
X-17797555Y18162400D01*
X-17875653Y18163813D01*
X-17915676Y18172843D01*
X-17930350Y18196682D01*
X-17932400Y18238600D01*
X-17927445Y18289796D01*
X-17902308Y18310795D01*
X-17843500Y18314800D01*
X-17754600Y18314800D01*
X-17754600Y18645000D01*
X-17843500Y18645000D01*
X-17903229Y18649248D01*
X-17927727Y18670794D01*
X-17932400Y18721200D01*
X-17927445Y18772396D01*
X-17902308Y18793395D01*
X-17843500Y18797400D01*
X-17783917Y18801332D01*
X-17759481Y18823516D01*
X-17754612Y18879534D01*
X-17754600Y18886300D01*
X-17751525Y18943220D01*
X-17732533Y18968515D01*
X-17682980Y18975002D01*
X-17653000Y18975200D01*
X-17587950Y18972509D01*
G36*
X-17190239Y18776536D02*
G01*
X-17088506Y18717062D01*
X-17021186Y18623654D01*
X-16993124Y18500991D01*
X-16992600Y18479900D01*
X-17014216Y18353166D01*
X-17075834Y18254971D01*
X-17172607Y18189992D01*
X-17299689Y18162906D01*
X-17321539Y18162400D01*
X-17387208Y18165314D01*
X-17416604Y18181206D01*
X-17424206Y18220801D01*
X-17424400Y18238600D01*
X-17417632Y18292994D01*
X-17388558Y18312917D01*
X-17359746Y18314800D01*
X-17296960Y18333244D01*
X-17232962Y18378430D01*
X-17185203Y18435140D01*
X-17170400Y18479900D01*
X-17191553Y18534646D01*
X-17243374Y18590450D01*
X-17308413Y18632093D01*
X-17359746Y18645000D01*
X-17405898Y18652978D01*
X-17422802Y18687243D01*
X-17424400Y18721200D01*
X-17420467Y18769848D01*
X-17399015Y18791625D01*
X-17345566Y18797256D01*
X-17321539Y18797400D01*
X-17190239Y18776536D01*
G37*
X-17190239Y18776536D02*
X-17088506Y18717062D01*
X-17021186Y18623654D01*
X-16993124Y18500991D01*
X-16992600Y18479900D01*
X-17014216Y18353166D01*
X-17075834Y18254971D01*
X-17172607Y18189992D01*
X-17299689Y18162906D01*
X-17321539Y18162400D01*
X-17387208Y18165314D01*
X-17416604Y18181206D01*
X-17424206Y18220801D01*
X-17424400Y18238600D01*
X-17417632Y18292994D01*
X-17388558Y18312917D01*
X-17359746Y18314800D01*
X-17296960Y18333244D01*
X-17232962Y18378430D01*
X-17185203Y18435140D01*
X-17170400Y18479900D01*
X-17191553Y18534646D01*
X-17243374Y18590450D01*
X-17308413Y18632093D01*
X-17359746Y18645000D01*
X-17405898Y18652978D01*
X-17422802Y18687243D01*
X-17424400Y18721200D01*
X-17420467Y18769848D01*
X-17399015Y18791625D01*
X-17345566Y18797256D01*
X-17321539Y18797400D01*
X-17190239Y18776536D01*
G36*
X-14396180Y18792884D02*
G01*
X-14329920Y18774343D01*
X-14287017Y18734296D01*
X-14262570Y18665259D01*
X-14251673Y18559746D01*
X-14249400Y18429100D01*
X-14249400Y18162400D01*
X-14452600Y18162400D01*
X-14452600Y18645000D01*
X-14541500Y18645000D01*
X-14601229Y18649248D01*
X-14625727Y18670794D01*
X-14630400Y18721200D01*
X-14628055Y18764763D01*
X-14612681Y18787437D01*
X-14571777Y18796042D01*
X-14492837Y18797400D01*
X-14490700Y18797400D01*
X-14396180Y18792884D01*
G37*
X-14396180Y18792884D02*
X-14329920Y18774343D01*
X-14287017Y18734296D01*
X-14262570Y18665259D01*
X-14251673Y18559746D01*
X-14249400Y18429100D01*
X-14249400Y18162400D01*
X-14452600Y18162400D01*
X-14452600Y18645000D01*
X-14541500Y18645000D01*
X-14601229Y18649248D01*
X-14625727Y18670794D01*
X-14630400Y18721200D01*
X-14628055Y18764763D01*
X-14612681Y18787437D01*
X-14571777Y18796042D01*
X-14492837Y18797400D01*
X-14490700Y18797400D01*
X-14396180Y18792884D01*
G36*
X-12557642Y19020936D02*
G01*
X-12538847Y19004961D01*
X-12518727Y18969351D01*
X-12485410Y18896257D01*
X-12442891Y18795869D01*
X-12395160Y18678377D01*
X-12346213Y18553971D01*
X-12300040Y18432841D01*
X-12260636Y18325176D01*
X-12231993Y18241168D01*
X-12218103Y18191005D01*
X-12217400Y18184609D01*
X-12239905Y18170558D01*
X-12295964Y18162884D01*
X-12316516Y18162400D01*
X-12383775Y18167507D01*
X-12419809Y18190578D01*
X-12442194Y18238600D01*
X-12457594Y18277157D01*
X-12478484Y18299854D01*
X-12516979Y18310893D01*
X-12585197Y18314477D01*
X-12661900Y18314800D01*
X-12759899Y18314028D01*
X-12819213Y18308908D01*
X-12851959Y18295238D01*
X-12870254Y18268818D01*
X-12881607Y18238600D01*
X-12903653Y18190707D01*
X-12936905Y18168586D01*
X-12998978Y18162538D01*
X-13019985Y18162400D01*
X-13087234Y18163689D01*
X-13126912Y18166940D01*
X-13131477Y18168750D01*
X-13121274Y18208744D01*
X-13095206Y18284228D01*
X-13057166Y18385649D01*
X-13011046Y18503452D01*
X-12996783Y18538790D01*
X-12776200Y18538790D01*
X-12753469Y18526467D01*
X-12695871Y18519013D01*
X-12660189Y18518000D01*
X-12590010Y18519985D01*
X-12559307Y18530334D01*
X-12556786Y18555641D01*
X-12562305Y18575150D01*
X-12608442Y18715276D01*
X-12643033Y18807970D01*
X-12666846Y18855083D01*
X-12680169Y18859337D01*
X-12695293Y18822215D01*
X-12717702Y18754688D01*
X-12742034Y18674651D01*
X-12762929Y18600000D01*
X-12775025Y18548630D01*
X-12776200Y18538790D01*
X-12996783Y18538790D01*
X-12960741Y18628083D01*
X-12910143Y18749989D01*
X-12863147Y18859616D01*
X-12823644Y18947408D01*
X-12795530Y19003812D01*
X-12784822Y19019424D01*
X-12713365Y19047058D01*
X-12629630Y19047091D01*
X-12557642Y19020936D01*
G37*
X-12557642Y19020936D02*
X-12538847Y19004961D01*
X-12518727Y18969351D01*
X-12485410Y18896257D01*
X-12442891Y18795869D01*
X-12395160Y18678377D01*
X-12346213Y18553971D01*
X-12300040Y18432841D01*
X-12260636Y18325176D01*
X-12231993Y18241168D01*
X-12218103Y18191005D01*
X-12217400Y18184609D01*
X-12239905Y18170558D01*
X-12295964Y18162884D01*
X-12316516Y18162400D01*
X-12383775Y18167507D01*
X-12419809Y18190578D01*
X-12442194Y18238600D01*
X-12457594Y18277157D01*
X-12478484Y18299854D01*
X-12516979Y18310893D01*
X-12585197Y18314477D01*
X-12661900Y18314800D01*
X-12759899Y18314028D01*
X-12819213Y18308908D01*
X-12851959Y18295238D01*
X-12870254Y18268818D01*
X-12881607Y18238600D01*
X-12903653Y18190707D01*
X-12936905Y18168586D01*
X-12998978Y18162538D01*
X-13019985Y18162400D01*
X-13087234Y18163689D01*
X-13126912Y18166940D01*
X-13131477Y18168750D01*
X-13121274Y18208744D01*
X-13095206Y18284228D01*
X-13057166Y18385649D01*
X-13011046Y18503452D01*
X-12996783Y18538790D01*
X-12776200Y18538790D01*
X-12753469Y18526467D01*
X-12695871Y18519013D01*
X-12660189Y18518000D01*
X-12590010Y18519985D01*
X-12559307Y18530334D01*
X-12556786Y18555641D01*
X-12562305Y18575150D01*
X-12608442Y18715276D01*
X-12643033Y18807970D01*
X-12666846Y18855083D01*
X-12680169Y18859337D01*
X-12695293Y18822215D01*
X-12717702Y18754688D01*
X-12742034Y18674651D01*
X-12762929Y18600000D01*
X-12775025Y18548630D01*
X-12776200Y18538790D01*
X-12996783Y18538790D01*
X-12960741Y18628083D01*
X-12910143Y18749989D01*
X-12863147Y18859616D01*
X-12823644Y18947408D01*
X-12795530Y19003812D01*
X-12784822Y19019424D01*
X-12713365Y19047058D01*
X-12629630Y19047091D01*
X-12557642Y19020936D01*
G36*
X-8962189Y17990749D02*
G01*
X-8953057Y17960613D01*
X-8940101Y17891063D01*
X-8924806Y17793206D01*
X-8908657Y17678150D01*
X-8893138Y17557002D01*
X-8879734Y17440870D01*
X-8869929Y17340863D01*
X-8865207Y17268087D01*
X-8865105Y17264297D01*
X-8841642Y17253894D01*
X-8772902Y17264245D01*
X-8680450Y17289018D01*
X-8642808Y17285494D01*
X-8636000Y17266433D01*
X-8658179Y17237556D01*
X-8714100Y17208299D01*
X-8739216Y17199717D01*
X-8810198Y17170290D01*
X-8832705Y17142969D01*
X-8808969Y17122942D01*
X-8741222Y17115396D01*
X-8703605Y17116938D01*
X-8629365Y17118866D01*
X-8593703Y17108438D01*
X-8585200Y17085488D01*
X-8605551Y17053224D01*
X-8629650Y17049124D01*
X-8724459Y17050198D01*
X-8774816Y17032925D01*
X-8784793Y17000350D01*
X-8796691Y16931492D01*
X-8844359Y16849256D01*
X-8918873Y16764403D01*
X-9011304Y16687696D01*
X-9078286Y16646496D01*
X-9206222Y16586448D01*
X-9334166Y16544348D01*
X-9476109Y16517156D01*
X-9646041Y16501835D01*
X-9766300Y16497102D01*
X-9901022Y16495465D01*
X-10026704Y16497348D01*
X-10129650Y16502328D01*
X-10196164Y16509986D01*
X-10198100Y16510391D01*
X-10334213Y16547827D01*
X-10473489Y16599525D01*
X-10596718Y16657655D01*
X-10669357Y16702439D01*
X-10754271Y16775765D01*
X-10823053Y16855860D01*
X-10867466Y16931196D01*
X-10879278Y16990242D01*
X-10878302Y16994989D01*
X-10882717Y17031760D01*
X-10890007Y17034931D01*
X-9921590Y17034931D01*
X-9909524Y17012345D01*
X-9893300Y16994000D01*
X-9849388Y16955976D01*
X-9819274Y16943200D01*
X-9785235Y16962516D01*
X-9759495Y16994000D01*
X-9743567Y17025921D01*
X-9755652Y17040590D01*
X-9805437Y17044653D01*
X-9833522Y17044800D01*
X-9898935Y17043472D01*
X-9921590Y17034931D01*
X-10890007Y17034931D01*
X-10924013Y17049722D01*
X-11007538Y17050786D01*
X-11029950Y17049124D01*
X-11067766Y17064669D01*
X-11074400Y17086503D01*
X-11065277Y17111415D01*
X-11029890Y17119665D01*
X-10961558Y17114888D01*
X-10878316Y17113877D01*
X-10835610Y17129709D01*
X-10836309Y17156002D01*
X-10883280Y17186377D01*
X-10923066Y17200521D01*
X-10985724Y17227145D01*
X-11020856Y17257313D01*
X-11023600Y17266433D01*
X-11005335Y17291316D01*
X-10979150Y17289018D01*
X-10888989Y17262792D01*
X-10835122Y17255751D01*
X-10814854Y17269999D01*
X-10388056Y17269999D01*
X-10377405Y17246450D01*
X-10320563Y17205925D01*
X-10303279Y17195237D01*
X-10233200Y17157639D01*
X-10184142Y17149998D01*
X-10137075Y17171020D01*
X-10120405Y17182791D01*
X-10088725Y17220193D01*
X-10091111Y17223913D01*
X-9572078Y17223913D01*
X-9544302Y17186691D01*
X-9539196Y17182791D01*
X-9490898Y17154064D01*
X-9446479Y17151871D01*
X-9388528Y17178103D01*
X-9347200Y17203645D01*
X-9258300Y17260700D01*
X-9395277Y17268504D01*
X-9493615Y17267173D01*
X-9553866Y17251525D01*
X-9572078Y17223913D01*
X-10091111Y17223913D01*
X-10107014Y17248707D01*
X-10175217Y17268298D01*
X-10265584Y17277516D01*
X-10351215Y17279409D01*
X-10388056Y17269999D01*
X-10814854Y17269999D01*
X-10806835Y17275636D01*
X-10793411Y17330189D01*
X-10784135Y17427152D01*
X-10783872Y17430096D01*
X-10768313Y17582510D01*
X-10750446Y17723288D01*
X-10731694Y17843761D01*
X-10713485Y17935260D01*
X-10697241Y17989114D01*
X-10690323Y17999202D01*
X-10655777Y18000039D01*
X-10596402Y17972047D01*
X-10508270Y17912937D01*
X-10397836Y17828646D01*
X-10241971Y17705418D01*
X-10134292Y17743409D01*
X-10027720Y17767365D01*
X-9892275Y17778968D01*
X-9748198Y17778205D01*
X-9615735Y17765061D01*
X-9526557Y17743850D01*
X-9420126Y17706299D01*
X-9255496Y17832481D01*
X-9145739Y17914798D01*
X-9068031Y17967919D01*
X-9015649Y17995472D01*
X-8981870Y18001085D01*
X-8962189Y17990749D01*
G37*
X-8962189Y17990749D02*
X-8953057Y17960613D01*
X-8940101Y17891063D01*
X-8924806Y17793206D01*
X-8908657Y17678150D01*
X-8893138Y17557002D01*
X-8879734Y17440870D01*
X-8869929Y17340863D01*
X-8865207Y17268087D01*
X-8865105Y17264297D01*
X-8841642Y17253894D01*
X-8772902Y17264245D01*
X-8680450Y17289018D01*
X-8642808Y17285494D01*
X-8636000Y17266433D01*
X-8658179Y17237556D01*
X-8714100Y17208299D01*
X-8739216Y17199717D01*
X-8810198Y17170290D01*
X-8832705Y17142969D01*
X-8808969Y17122942D01*
X-8741222Y17115396D01*
X-8703605Y17116938D01*
X-8629365Y17118866D01*
X-8593703Y17108438D01*
X-8585200Y17085488D01*
X-8605551Y17053224D01*
X-8629650Y17049124D01*
X-8724459Y17050198D01*
X-8774816Y17032925D01*
X-8784793Y17000350D01*
X-8796691Y16931492D01*
X-8844359Y16849256D01*
X-8918873Y16764403D01*
X-9011304Y16687696D01*
X-9078286Y16646496D01*
X-9206222Y16586448D01*
X-9334166Y16544348D01*
X-9476109Y16517156D01*
X-9646041Y16501835D01*
X-9766300Y16497102D01*
X-9901022Y16495465D01*
X-10026704Y16497348D01*
X-10129650Y16502328D01*
X-10196164Y16509986D01*
X-10198100Y16510391D01*
X-10334213Y16547827D01*
X-10473489Y16599525D01*
X-10596718Y16657655D01*
X-10669357Y16702439D01*
X-10754271Y16775765D01*
X-10823053Y16855860D01*
X-10867466Y16931196D01*
X-10879278Y16990242D01*
X-10878302Y16994989D01*
X-10882717Y17031760D01*
X-10890007Y17034931D01*
X-9921590Y17034931D01*
X-9909524Y17012345D01*
X-9893300Y16994000D01*
X-9849388Y16955976D01*
X-9819274Y16943200D01*
X-9785235Y16962516D01*
X-9759495Y16994000D01*
X-9743567Y17025921D01*
X-9755652Y17040590D01*
X-9805437Y17044653D01*
X-9833522Y17044800D01*
X-9898935Y17043472D01*
X-9921590Y17034931D01*
X-10890007Y17034931D01*
X-10924013Y17049722D01*
X-11007538Y17050786D01*
X-11029950Y17049124D01*
X-11067766Y17064669D01*
X-11074400Y17086503D01*
X-11065277Y17111415D01*
X-11029890Y17119665D01*
X-10961558Y17114888D01*
X-10878316Y17113877D01*
X-10835610Y17129709D01*
X-10836309Y17156002D01*
X-10883280Y17186377D01*
X-10923066Y17200521D01*
X-10985724Y17227145D01*
X-11020856Y17257313D01*
X-11023600Y17266433D01*
X-11005335Y17291316D01*
X-10979150Y17289018D01*
X-10888989Y17262792D01*
X-10835122Y17255751D01*
X-10814854Y17269999D01*
X-10388056Y17269999D01*
X-10377405Y17246450D01*
X-10320563Y17205925D01*
X-10303279Y17195237D01*
X-10233200Y17157639D01*
X-10184142Y17149998D01*
X-10137075Y17171020D01*
X-10120405Y17182791D01*
X-10088725Y17220193D01*
X-10091111Y17223913D01*
X-9572078Y17223913D01*
X-9544302Y17186691D01*
X-9539196Y17182791D01*
X-9490898Y17154064D01*
X-9446479Y17151871D01*
X-9388528Y17178103D01*
X-9347200Y17203645D01*
X-9258300Y17260700D01*
X-9395277Y17268504D01*
X-9493615Y17267173D01*
X-9553866Y17251525D01*
X-9572078Y17223913D01*
X-10091111Y17223913D01*
X-10107014Y17248707D01*
X-10175217Y17268298D01*
X-10265584Y17277516D01*
X-10351215Y17279409D01*
X-10388056Y17269999D01*
X-10814854Y17269999D01*
X-10806835Y17275636D01*
X-10793411Y17330189D01*
X-10784135Y17427152D01*
X-10783872Y17430096D01*
X-10768313Y17582510D01*
X-10750446Y17723288D01*
X-10731694Y17843761D01*
X-10713485Y17935260D01*
X-10697241Y17989114D01*
X-10690323Y17999202D01*
X-10655777Y18000039D01*
X-10596402Y17972047D01*
X-10508270Y17912937D01*
X-10397836Y17828646D01*
X-10241971Y17705418D01*
X-10134292Y17743409D01*
X-10027720Y17767365D01*
X-9892275Y17778968D01*
X-9748198Y17778205D01*
X-9615735Y17765061D01*
X-9526557Y17743850D01*
X-9420126Y17706299D01*
X-9255496Y17832481D01*
X-9145739Y17914798D01*
X-9068031Y17967919D01*
X-9015649Y17995472D01*
X-8981870Y18001085D01*
X-8962189Y17990749D01*
G36*
X-9731484Y18169616D02*
G01*
X-9629631Y18144663D01*
X-9539556Y18110176D01*
X-9471975Y18069955D01*
X-9437607Y18027796D01*
X-9437747Y18002170D01*
X-9467416Y17964869D01*
X-9502221Y17938059D01*
X-9539839Y17922061D01*
X-9584937Y17924228D01*
X-9653159Y17946557D01*
X-9692231Y17962329D01*
X-9829800Y18019348D01*
X-9963641Y17963874D01*
X-10044157Y17930681D01*
X-10092425Y17914971D01*
X-10123645Y17916083D01*
X-10153018Y17933358D01*
X-10180289Y17954459D01*
X-10220615Y18002019D01*
X-10223726Y18038353D01*
X-10187710Y18076379D01*
X-10115775Y18116527D01*
X-10022055Y18152239D01*
X-9927647Y18175738D01*
X-9834395Y18181241D01*
X-9731484Y18169616D01*
G37*
X-9731484Y18169616D02*
X-9629631Y18144663D01*
X-9539556Y18110176D01*
X-9471975Y18069955D01*
X-9437607Y18027796D01*
X-9437747Y18002170D01*
X-9467416Y17964869D01*
X-9502221Y17938059D01*
X-9539839Y17922061D01*
X-9584937Y17924228D01*
X-9653159Y17946557D01*
X-9692231Y17962329D01*
X-9829800Y18019348D01*
X-9963641Y17963874D01*
X-10044157Y17930681D01*
X-10092425Y17914971D01*
X-10123645Y17916083D01*
X-10153018Y17933358D01*
X-10180289Y17954459D01*
X-10220615Y18002019D01*
X-10223726Y18038353D01*
X-10187710Y18076379D01*
X-10115775Y18116527D01*
X-10022055Y18152239D01*
X-9927647Y18175738D01*
X-9834395Y18181241D01*
X-9731484Y18169616D01*
G36*
X-9640453Y18452973D02*
G01*
X-9434358Y18403871D01*
X-9262380Y18328325D01*
X-9186207Y18273420D01*
X-9160406Y18221958D01*
X-9184748Y18172897D01*
X-9222056Y18144944D01*
X-9263910Y18123578D01*
X-9300457Y18122686D01*
X-9349430Y18145302D01*
X-9397854Y18175008D01*
X-9546606Y18242049D01*
X-9719741Y18277119D01*
X-9902185Y18280245D01*
X-10078864Y18251454D01*
X-10234704Y18190773D01*
X-10264190Y18173466D01*
X-10333664Y18131722D01*
X-10377911Y18116667D01*
X-10414223Y18127187D01*
X-10458450Y18160967D01*
X-10502921Y18205074D01*
X-10508250Y18240246D01*
X-10472167Y18279144D01*
X-10432114Y18307896D01*
X-10262361Y18394982D01*
X-10066082Y18448325D01*
X-9854903Y18467723D01*
X-9640453Y18452973D01*
G37*
X-9640453Y18452973D02*
X-9434358Y18403871D01*
X-9262380Y18328325D01*
X-9186207Y18273420D01*
X-9160406Y18221958D01*
X-9184748Y18172897D01*
X-9222056Y18144944D01*
X-9263910Y18123578D01*
X-9300457Y18122686D01*
X-9349430Y18145302D01*
X-9397854Y18175008D01*
X-9546606Y18242049D01*
X-9719741Y18277119D01*
X-9902185Y18280245D01*
X-10078864Y18251454D01*
X-10234704Y18190773D01*
X-10264190Y18173466D01*
X-10333664Y18131722D01*
X-10377911Y18116667D01*
X-10414223Y18127187D01*
X-10458450Y18160967D01*
X-10502921Y18205074D01*
X-10508250Y18240246D01*
X-10472167Y18279144D01*
X-10432114Y18307896D01*
X-10262361Y18394982D01*
X-10066082Y18448325D01*
X-9854903Y18467723D01*
X-9640453Y18452973D01*
G36*
X-9595244Y18743290D02*
G01*
X-9391861Y18707882D01*
X-9204512Y18644590D01*
X-9067999Y18578126D01*
X-8967512Y18522279D01*
X-8905646Y18483562D01*
X-8875962Y18455645D01*
X-8872022Y18432200D01*
X-8887387Y18406896D01*
X-8890258Y18403390D01*
X-8944684Y18351561D01*
X-8999532Y18337281D01*
X-9068560Y18359807D01*
X-9122715Y18390808D01*
X-9313825Y18483105D01*
X-9530650Y18542854D01*
X-9761554Y18569946D01*
X-9994902Y18564267D01*
X-10219058Y18525707D01*
X-10422388Y18454155D01*
X-10515600Y18404135D01*
X-10578205Y18365726D01*
X-10623698Y18338149D01*
X-10630574Y18334072D01*
X-10668412Y18335380D01*
X-10723837Y18359600D01*
X-10725824Y18360793D01*
X-10779150Y18402225D01*
X-10788510Y18440857D01*
X-10752641Y18484509D01*
X-10699750Y18522368D01*
X-10502272Y18630540D01*
X-10292868Y18703305D01*
X-10060761Y18743538D01*
X-9829800Y18754315D01*
X-9595244Y18743290D01*
G37*
X-9595244Y18743290D02*
X-9391861Y18707882D01*
X-9204512Y18644590D01*
X-9067999Y18578126D01*
X-8967512Y18522279D01*
X-8905646Y18483562D01*
X-8875962Y18455645D01*
X-8872022Y18432200D01*
X-8887387Y18406896D01*
X-8890258Y18403390D01*
X-8944684Y18351561D01*
X-8999532Y18337281D01*
X-9068560Y18359807D01*
X-9122715Y18390808D01*
X-9313825Y18483105D01*
X-9530650Y18542854D01*
X-9761554Y18569946D01*
X-9994902Y18564267D01*
X-10219058Y18525707D01*
X-10422388Y18454155D01*
X-10515600Y18404135D01*
X-10578205Y18365726D01*
X-10623698Y18338149D01*
X-10630574Y18334072D01*
X-10668412Y18335380D01*
X-10723837Y18359600D01*
X-10725824Y18360793D01*
X-10779150Y18402225D01*
X-10788510Y18440857D01*
X-10752641Y18484509D01*
X-10699750Y18522368D01*
X-10502272Y18630540D01*
X-10292868Y18703305D01*
X-10060761Y18743538D01*
X-9829800Y18754315D01*
X-9595244Y18743290D01*
D13*
G36*
X11173242Y-25820404D02*
G01*
X11210337Y-25831657D01*
X11244515Y-25849925D01*
X11274481Y-25874519D01*
X11299075Y-25904485D01*
X11317343Y-25938663D01*
X11328596Y-25975758D01*
X11333000Y-26020474D01*
X11333000Y-27513526D01*
X11328596Y-27558242D01*
X11317343Y-27595337D01*
X11299075Y-27629515D01*
X11274481Y-27659481D01*
X11244515Y-27684075D01*
X11210337Y-27702343D01*
X11173242Y-27713596D01*
X11128526Y-27718000D01*
X10235474Y-27718000D01*
X10190758Y-27713596D01*
X10153663Y-27702343D01*
X10119485Y-27684075D01*
X10089519Y-27659481D01*
X10064925Y-27629515D01*
X10046657Y-27595337D01*
X10035404Y-27558242D01*
X10031000Y-27513526D01*
X10031000Y-26020474D01*
X10035404Y-25975758D01*
X10046657Y-25938663D01*
X10064925Y-25904485D01*
X10089519Y-25874519D01*
X10119485Y-25849925D01*
X10153663Y-25831657D01*
X10190758Y-25820404D01*
X10235474Y-25816000D01*
X11128526Y-25816000D01*
X11173242Y-25820404D01*
G37*
G36*
X6573242Y-25820404D02*
G01*
X6610337Y-25831657D01*
X6644515Y-25849925D01*
X6674481Y-25874519D01*
X6699075Y-25904485D01*
X6717343Y-25938663D01*
X6728596Y-25975758D01*
X6733000Y-26020474D01*
X6733000Y-27513526D01*
X6728596Y-27558242D01*
X6717343Y-27595337D01*
X6699075Y-27629515D01*
X6674481Y-27659481D01*
X6644515Y-27684075D01*
X6610337Y-27702343D01*
X6573242Y-27713596D01*
X6528526Y-27718000D01*
X5635474Y-27718000D01*
X5590758Y-27713596D01*
X5553663Y-27702343D01*
X5519485Y-27684075D01*
X5489519Y-27659481D01*
X5464925Y-27629515D01*
X5446657Y-27595337D01*
X5435404Y-27558242D01*
X5431000Y-27513526D01*
X5431000Y-26020474D01*
X5435404Y-25975758D01*
X5446657Y-25938663D01*
X5464925Y-25904485D01*
X5489519Y-25874519D01*
X5519485Y-25849925D01*
X5553663Y-25831657D01*
X5590758Y-25820404D01*
X5635474Y-25816000D01*
X6528526Y-25816000D01*
X6573242Y-25820404D01*
G37*
G36*
X-4582758Y-25820404D02*
G01*
X-4545663Y-25831657D01*
X-4511485Y-25849925D01*
X-4481519Y-25874519D01*
X-4456925Y-25904485D01*
X-4438657Y-25938663D01*
X-4427404Y-25975758D01*
X-4423000Y-26020474D01*
X-4423000Y-27513526D01*
X-4427404Y-27558242D01*
X-4438657Y-27595337D01*
X-4456925Y-27629515D01*
X-4481519Y-27659481D01*
X-4511485Y-27684075D01*
X-4545663Y-27702343D01*
X-4582758Y-27713596D01*
X-4627474Y-27718000D01*
X-5520526Y-27718000D01*
X-5565242Y-27713596D01*
X-5602337Y-27702343D01*
X-5636515Y-27684075D01*
X-5666481Y-27659481D01*
X-5691075Y-27629515D01*
X-5709343Y-27595337D01*
X-5720596Y-27558242D01*
X-5725000Y-27513526D01*
X-5725000Y-26020474D01*
X-5720596Y-25975758D01*
X-5709343Y-25938663D01*
X-5691075Y-25904485D01*
X-5666481Y-25874519D01*
X-5636515Y-25849925D01*
X-5602337Y-25831657D01*
X-5565242Y-25820404D01*
X-5520526Y-25816000D01*
X-4627474Y-25816000D01*
X-4582758Y-25820404D01*
G37*
G36*
X-10182758Y-25820404D02*
G01*
X-10145663Y-25831657D01*
X-10111485Y-25849925D01*
X-10081519Y-25874519D01*
X-10056925Y-25904485D01*
X-10038657Y-25938663D01*
X-10027404Y-25975758D01*
X-10023000Y-26020474D01*
X-10023000Y-27513526D01*
X-10027404Y-27558242D01*
X-10038657Y-27595337D01*
X-10056925Y-27629515D01*
X-10081519Y-27659481D01*
X-10111485Y-27684075D01*
X-10145663Y-27702343D01*
X-10182758Y-27713596D01*
X-10227474Y-27718000D01*
X-11120526Y-27718000D01*
X-11165242Y-27713596D01*
X-11202337Y-27702343D01*
X-11236515Y-27684075D01*
X-11266481Y-27659481D01*
X-11291075Y-27629515D01*
X-11309343Y-27595337D01*
X-11320596Y-27558242D01*
X-11325000Y-27513526D01*
X-11325000Y-26020474D01*
X-11320596Y-25975758D01*
X-11309343Y-25938663D01*
X-11291075Y-25904485D01*
X-11266481Y-25874519D01*
X-11236515Y-25849925D01*
X-11202337Y-25831657D01*
X-11165242Y-25820404D01*
X-11120526Y-25816000D01*
X-10227474Y-25816000D01*
X-10182758Y-25820404D01*
G37*
G36*
X-6114072Y-22068764D02*
G01*
X-6092991Y-22075160D01*
X-6073555Y-22085548D01*
X-6056524Y-22099524D01*
X-6042548Y-22116555D01*
X-6032160Y-22135991D01*
X-6025764Y-22157072D01*
X-6023000Y-22185140D01*
X-6023000Y-23598860D01*
X-6025764Y-23626928D01*
X-6032160Y-23648009D01*
X-6042548Y-23667445D01*
X-6056524Y-23684476D01*
X-6073555Y-23698452D01*
X-6092991Y-23708840D01*
X-6114072Y-23715236D01*
X-6142140Y-23718000D01*
X-6605860Y-23718000D01*
X-6633928Y-23715236D01*
X-6655009Y-23708840D01*
X-6674445Y-23698452D01*
X-6691476Y-23684476D01*
X-6705452Y-23667445D01*
X-6715840Y-23648009D01*
X-6722236Y-23626928D01*
X-6725000Y-23598860D01*
X-6725000Y-22185140D01*
X-6722236Y-22157072D01*
X-6715840Y-22135991D01*
X-6705452Y-22116555D01*
X-6691476Y-22099524D01*
X-6674445Y-22085548D01*
X-6655009Y-22075160D01*
X-6633928Y-22068764D01*
X-6605860Y-22066000D01*
X-6142140Y-22066000D01*
X-6114072Y-22068764D01*
G37*
G36*
X7641928Y-22068764D02*
G01*
X7663009Y-22075160D01*
X7682445Y-22085548D01*
X7699476Y-22099524D01*
X7713452Y-22116555D01*
X7723840Y-22135991D01*
X7730236Y-22157072D01*
X7733000Y-22185140D01*
X7733000Y-23598860D01*
X7730236Y-23626928D01*
X7723840Y-23648009D01*
X7713452Y-23667445D01*
X7699476Y-23684476D01*
X7682445Y-23698452D01*
X7663009Y-23708840D01*
X7641928Y-23715236D01*
X7613860Y-23718000D01*
X7150140Y-23718000D01*
X7122072Y-23715236D01*
X7100991Y-23708840D01*
X7081555Y-23698452D01*
X7064524Y-23684476D01*
X7050548Y-23667445D01*
X7040160Y-23648009D01*
X7033764Y-23626928D01*
X7031000Y-23598860D01*
X7031000Y-22185140D01*
X7033764Y-22157072D01*
X7040160Y-22135991D01*
X7050548Y-22116555D01*
X7064524Y-22099524D01*
X7081555Y-22085548D01*
X7100991Y-22075160D01*
X7122072Y-22068764D01*
X7150140Y-22066000D01*
X7613860Y-22066000D01*
X7641928Y-22068764D01*
G37*
G36*
X8641928Y-22068764D02*
G01*
X8663009Y-22075160D01*
X8682445Y-22085548D01*
X8699476Y-22099524D01*
X8713452Y-22116555D01*
X8723840Y-22135991D01*
X8730236Y-22157072D01*
X8733000Y-22185140D01*
X8733000Y-23598860D01*
X8730236Y-23626928D01*
X8723840Y-23648009D01*
X8713452Y-23667445D01*
X8699476Y-23684476D01*
X8682445Y-23698452D01*
X8663009Y-23708840D01*
X8641928Y-23715236D01*
X8613860Y-23718000D01*
X8150140Y-23718000D01*
X8122072Y-23715236D01*
X8100991Y-23708840D01*
X8081555Y-23698452D01*
X8064524Y-23684476D01*
X8050548Y-23667445D01*
X8040160Y-23648009D01*
X8033764Y-23626928D01*
X8031000Y-23598860D01*
X8031000Y-22185140D01*
X8033764Y-22157072D01*
X8040160Y-22135991D01*
X8050548Y-22116555D01*
X8064524Y-22099524D01*
X8081555Y-22085548D01*
X8100991Y-22075160D01*
X8122072Y-22068764D01*
X8150140Y-22066000D01*
X8613860Y-22066000D01*
X8641928Y-22068764D01*
G37*
G36*
X9641928Y-22068764D02*
G01*
X9663009Y-22075160D01*
X9682445Y-22085548D01*
X9699476Y-22099524D01*
X9713452Y-22116555D01*
X9723840Y-22135991D01*
X9730236Y-22157072D01*
X9733000Y-22185140D01*
X9733000Y-23598860D01*
X9730236Y-23626928D01*
X9723840Y-23648009D01*
X9713452Y-23667445D01*
X9699476Y-23684476D01*
X9682445Y-23698452D01*
X9663009Y-23708840D01*
X9641928Y-23715236D01*
X9613860Y-23718000D01*
X9150140Y-23718000D01*
X9122072Y-23715236D01*
X9100991Y-23708840D01*
X9081555Y-23698452D01*
X9064524Y-23684476D01*
X9050548Y-23667445D01*
X9040160Y-23648009D01*
X9033764Y-23626928D01*
X9031000Y-23598860D01*
X9031000Y-22185140D01*
X9033764Y-22157072D01*
X9040160Y-22135991D01*
X9050548Y-22116555D01*
X9064524Y-22099524D01*
X9081555Y-22085548D01*
X9100991Y-22075160D01*
X9122072Y-22068764D01*
X9150140Y-22066000D01*
X9613860Y-22066000D01*
X9641928Y-22068764D01*
G37*
G36*
X-9114072Y-22068764D02*
G01*
X-9092991Y-22075160D01*
X-9073555Y-22085548D01*
X-9056524Y-22099524D01*
X-9042548Y-22116555D01*
X-9032160Y-22135991D01*
X-9025764Y-22157072D01*
X-9023000Y-22185140D01*
X-9023000Y-23598860D01*
X-9025764Y-23626928D01*
X-9032160Y-23648009D01*
X-9042548Y-23667445D01*
X-9056524Y-23684476D01*
X-9073555Y-23698452D01*
X-9092991Y-23708840D01*
X-9114072Y-23715236D01*
X-9142140Y-23718000D01*
X-9605860Y-23718000D01*
X-9633928Y-23715236D01*
X-9655009Y-23708840D01*
X-9674445Y-23698452D01*
X-9691476Y-23684476D01*
X-9705452Y-23667445D01*
X-9715840Y-23648009D01*
X-9722236Y-23626928D01*
X-9725000Y-23598860D01*
X-9725000Y-22185140D01*
X-9722236Y-22157072D01*
X-9715840Y-22135991D01*
X-9705452Y-22116555D01*
X-9691476Y-22099524D01*
X-9674445Y-22085548D01*
X-9655009Y-22075160D01*
X-9633928Y-22068764D01*
X-9605860Y-22066000D01*
X-9142140Y-22066000D01*
X-9114072Y-22068764D01*
G37*
G36*
X-8114072Y-22068764D02*
G01*
X-8092991Y-22075160D01*
X-8073555Y-22085548D01*
X-8056524Y-22099524D01*
X-8042548Y-22116555D01*
X-8032160Y-22135991D01*
X-8025764Y-22157072D01*
X-8023000Y-22185140D01*
X-8023000Y-23598860D01*
X-8025764Y-23626928D01*
X-8032160Y-23648009D01*
X-8042548Y-23667445D01*
X-8056524Y-23684476D01*
X-8073555Y-23698452D01*
X-8092991Y-23708840D01*
X-8114072Y-23715236D01*
X-8142140Y-23718000D01*
X-8605860Y-23718000D01*
X-8633928Y-23715236D01*
X-8655009Y-23708840D01*
X-8674445Y-23698452D01*
X-8691476Y-23684476D01*
X-8705452Y-23667445D01*
X-8715840Y-23648009D01*
X-8722236Y-23626928D01*
X-8725000Y-23598860D01*
X-8725000Y-22185140D01*
X-8722236Y-22157072D01*
X-8715840Y-22135991D01*
X-8705452Y-22116555D01*
X-8691476Y-22099524D01*
X-8674445Y-22085548D01*
X-8655009Y-22075160D01*
X-8633928Y-22068764D01*
X-8605860Y-22066000D01*
X-8142140Y-22066000D01*
X-8114072Y-22068764D01*
G37*
G36*
X-7114072Y-22068764D02*
G01*
X-7092991Y-22075160D01*
X-7073555Y-22085548D01*
X-7056524Y-22099524D01*
X-7042548Y-22116555D01*
X-7032160Y-22135991D01*
X-7025764Y-22157072D01*
X-7023000Y-22185140D01*
X-7023000Y-23598860D01*
X-7025764Y-23626928D01*
X-7032160Y-23648009D01*
X-7042548Y-23667445D01*
X-7056524Y-23684476D01*
X-7073555Y-23698452D01*
X-7092991Y-23708840D01*
X-7114072Y-23715236D01*
X-7142140Y-23718000D01*
X-7605860Y-23718000D01*
X-7633928Y-23715236D01*
X-7655009Y-23708840D01*
X-7674445Y-23698452D01*
X-7691476Y-23684476D01*
X-7705452Y-23667445D01*
X-7715840Y-23648009D01*
X-7722236Y-23626928D01*
X-7725000Y-23598860D01*
X-7725000Y-22185140D01*
X-7722236Y-22157072D01*
X-7715840Y-22135991D01*
X-7705452Y-22116555D01*
X-7691476Y-22099524D01*
X-7674445Y-22085548D01*
X-7655009Y-22075160D01*
X-7633928Y-22068764D01*
X-7605860Y-22066000D01*
X-7142140Y-22066000D01*
X-7114072Y-22068764D01*
G37*
G36*
X-738605Y-8991546D02*
G01*
X-565534Y-9063234D01*
X-565533Y-9063235D01*
X-409773Y-9167310D01*
X-277310Y-9299773D01*
X-277309Y-9299775D01*
X-173234Y-9455534D01*
X-101546Y-9628605D01*
X-65000Y-9812333D01*
X-65000Y-9999667D01*
X-101546Y-10183395D01*
X-173234Y-10356466D01*
X-173235Y-10356467D01*
X-277310Y-10512227D01*
X-409773Y-10644690D01*
X-488182Y-10697081D01*
X-565534Y-10748766D01*
X-738605Y-10820454D01*
X-922333Y-10857000D01*
X-1109667Y-10857000D01*
X-1293395Y-10820454D01*
X-1466466Y-10748766D01*
X-1543818Y-10697081D01*
X-1622227Y-10644690D01*
X-1754690Y-10512227D01*
X-1858765Y-10356467D01*
X-1858766Y-10356466D01*
X-1930454Y-10183395D01*
X-1967000Y-9999667D01*
X-1967000Y-9812333D01*
X-1930454Y-9628605D01*
X-1858766Y-9455534D01*
X-1754691Y-9299775D01*
X-1754690Y-9299773D01*
X-1622227Y-9167310D01*
X-1466467Y-9063235D01*
X-1466466Y-9063234D01*
X-1293395Y-8991546D01*
X-1109667Y-8955000D01*
X-922333Y-8955000D01*
X-738605Y-8991546D01*
G37*
G36*
X4341395Y-8991546D02*
G01*
X4514466Y-9063234D01*
X4514467Y-9063235D01*
X4670227Y-9167310D01*
X4802690Y-9299773D01*
X4802691Y-9299775D01*
X4906766Y-9455534D01*
X4978454Y-9628605D01*
X5015000Y-9812333D01*
X5015000Y-9999667D01*
X4978454Y-10183395D01*
X4906766Y-10356466D01*
X4906765Y-10356467D01*
X4802690Y-10512227D01*
X4670227Y-10644690D01*
X4591818Y-10697081D01*
X4514466Y-10748766D01*
X4341395Y-10820454D01*
X4157667Y-10857000D01*
X3970333Y-10857000D01*
X3786605Y-10820454D01*
X3613534Y-10748766D01*
X3536182Y-10697081D01*
X3457773Y-10644690D01*
X3325310Y-10512227D01*
X3221235Y-10356467D01*
X3221234Y-10356466D01*
X3149546Y-10183395D01*
X3113000Y-9999667D01*
X3113000Y-9812333D01*
X3149546Y-9628605D01*
X3221234Y-9455534D01*
X3325309Y-9299775D01*
X3325310Y-9299773D01*
X3457773Y-9167310D01*
X3613533Y-9063235D01*
X3613534Y-9063234D01*
X3786605Y-8991546D01*
X3970333Y-8955000D01*
X4157667Y-8955000D01*
X4341395Y-8991546D01*
G37*
G36*
X-10898605Y-8991546D02*
G01*
X-10725534Y-9063234D01*
X-10725533Y-9063235D01*
X-10569773Y-9167310D01*
X-10437310Y-9299773D01*
X-10437309Y-9299775D01*
X-10333234Y-9455534D01*
X-10261546Y-9628605D01*
X-10225000Y-9812333D01*
X-10225000Y-9999667D01*
X-10261546Y-10183395D01*
X-10333234Y-10356466D01*
X-10333235Y-10356467D01*
X-10437310Y-10512227D01*
X-10569773Y-10644690D01*
X-10648182Y-10697081D01*
X-10725534Y-10748766D01*
X-10898605Y-10820454D01*
X-11082333Y-10857000D01*
X-11269667Y-10857000D01*
X-11453395Y-10820454D01*
X-11626466Y-10748766D01*
X-11703818Y-10697081D01*
X-11782227Y-10644690D01*
X-11914690Y-10512227D01*
X-12018765Y-10356467D01*
X-12018766Y-10356466D01*
X-12090454Y-10183395D01*
X-12127000Y-9999667D01*
X-12127000Y-9812333D01*
X-12090454Y-9628605D01*
X-12018766Y-9455534D01*
X-11914691Y-9299775D01*
X-11914690Y-9299773D01*
X-11782227Y-9167310D01*
X-11626467Y-9063235D01*
X-11626466Y-9063234D01*
X-11453395Y-8991546D01*
X-11269667Y-8955000D01*
X-11082333Y-8955000D01*
X-10898605Y-8991546D01*
G37*
G36*
X-8358605Y-8991546D02*
G01*
X-8185534Y-9063234D01*
X-8185533Y-9063235D01*
X-8029773Y-9167310D01*
X-7897310Y-9299773D01*
X-7897309Y-9299775D01*
X-7793234Y-9455534D01*
X-7721546Y-9628605D01*
X-7685000Y-9812333D01*
X-7685000Y-9999667D01*
X-7721546Y-10183395D01*
X-7793234Y-10356466D01*
X-7793235Y-10356467D01*
X-7897310Y-10512227D01*
X-8029773Y-10644690D01*
X-8108182Y-10697081D01*
X-8185534Y-10748766D01*
X-8358605Y-10820454D01*
X-8542333Y-10857000D01*
X-8729667Y-10857000D01*
X-8913395Y-10820454D01*
X-9086466Y-10748766D01*
X-9163818Y-10697081D01*
X-9242227Y-10644690D01*
X-9374690Y-10512227D01*
X-9478765Y-10356467D01*
X-9478766Y-10356466D01*
X-9550454Y-10183395D01*
X-9587000Y-9999667D01*
X-9587000Y-9812333D01*
X-9550454Y-9628605D01*
X-9478766Y-9455534D01*
X-9374691Y-9299775D01*
X-9374690Y-9299773D01*
X-9242227Y-9167310D01*
X-9086467Y-9063235D01*
X-9086466Y-9063234D01*
X-8913395Y-8991546D01*
X-8729667Y-8955000D01*
X-8542333Y-8955000D01*
X-8358605Y-8991546D01*
G37*
G36*
X-5818605Y-8991546D02*
G01*
X-5645534Y-9063234D01*
X-5645533Y-9063235D01*
X-5489773Y-9167310D01*
X-5357310Y-9299773D01*
X-5357309Y-9299775D01*
X-5253234Y-9455534D01*
X-5181546Y-9628605D01*
X-5145000Y-9812333D01*
X-5145000Y-9999667D01*
X-5181546Y-10183395D01*
X-5253234Y-10356466D01*
X-5253235Y-10356467D01*
X-5357310Y-10512227D01*
X-5489773Y-10644690D01*
X-5568182Y-10697081D01*
X-5645534Y-10748766D01*
X-5818605Y-10820454D01*
X-6002333Y-10857000D01*
X-6189667Y-10857000D01*
X-6373395Y-10820454D01*
X-6546466Y-10748766D01*
X-6623818Y-10697081D01*
X-6702227Y-10644690D01*
X-6834690Y-10512227D01*
X-6938765Y-10356467D01*
X-6938766Y-10356466D01*
X-7010454Y-10183395D01*
X-7047000Y-9999667D01*
X-7047000Y-9812333D01*
X-7010454Y-9628605D01*
X-6938766Y-9455534D01*
X-6834691Y-9299775D01*
X-6834690Y-9299773D01*
X-6702227Y-9167310D01*
X-6546467Y-9063235D01*
X-6546466Y-9063234D01*
X-6373395Y-8991546D01*
X-6189667Y-8955000D01*
X-6002333Y-8955000D01*
X-5818605Y-8991546D01*
G37*
G36*
X-3278605Y-8991546D02*
G01*
X-3105534Y-9063234D01*
X-3105533Y-9063235D01*
X-2949773Y-9167310D01*
X-2817310Y-9299773D01*
X-2817309Y-9299775D01*
X-2713234Y-9455534D01*
X-2641546Y-9628605D01*
X-2605000Y-9812333D01*
X-2605000Y-9999667D01*
X-2641546Y-10183395D01*
X-2713234Y-10356466D01*
X-2713235Y-10356467D01*
X-2817310Y-10512227D01*
X-2949773Y-10644690D01*
X-3028182Y-10697081D01*
X-3105534Y-10748766D01*
X-3278605Y-10820454D01*
X-3462333Y-10857000D01*
X-3649667Y-10857000D01*
X-3833395Y-10820454D01*
X-4006466Y-10748766D01*
X-4083818Y-10697081D01*
X-4162227Y-10644690D01*
X-4294690Y-10512227D01*
X-4398765Y-10356467D01*
X-4398766Y-10356466D01*
X-4470454Y-10183395D01*
X-4507000Y-9999667D01*
X-4507000Y-9812333D01*
X-4470454Y-9628605D01*
X-4398766Y-9455534D01*
X-4294691Y-9299775D01*
X-4294690Y-9299773D01*
X-4162227Y-9167310D01*
X-4006467Y-9063235D01*
X-4006466Y-9063234D01*
X-3833395Y-8991546D01*
X-3649667Y-8955000D01*
X-3462333Y-8955000D01*
X-3278605Y-8991546D01*
G37*
G36*
X1801395Y-8991546D02*
G01*
X1974466Y-9063234D01*
X1974467Y-9063235D01*
X2130227Y-9167310D01*
X2262690Y-9299773D01*
X2262691Y-9299775D01*
X2366766Y-9455534D01*
X2438454Y-9628605D01*
X2475000Y-9812333D01*
X2475000Y-9999667D01*
X2438454Y-10183395D01*
X2366766Y-10356466D01*
X2366765Y-10356467D01*
X2262690Y-10512227D01*
X2130227Y-10644690D01*
X2051818Y-10697081D01*
X1974466Y-10748766D01*
X1801395Y-10820454D01*
X1617667Y-10857000D01*
X1430333Y-10857000D01*
X1246605Y-10820454D01*
X1073534Y-10748766D01*
X996182Y-10697081D01*
X917773Y-10644690D01*
X785310Y-10512227D01*
X681235Y-10356467D01*
X681234Y-10356466D01*
X609546Y-10183395D01*
X573000Y-9999667D01*
X573000Y-9812333D01*
X609546Y-9628605D01*
X681234Y-9455534D01*
X785309Y-9299775D01*
X785310Y-9299773D01*
X917773Y-9167310D01*
X1073533Y-9063235D01*
X1073534Y-9063234D01*
X1246605Y-8991546D01*
X1430333Y-8955000D01*
X1617667Y-8955000D01*
X1801395Y-8991546D01*
G37*
G36*
X6881395Y-8991546D02*
G01*
X7054466Y-9063234D01*
X7054467Y-9063235D01*
X7210227Y-9167310D01*
X7342690Y-9299773D01*
X7342691Y-9299775D01*
X7446766Y-9455534D01*
X7518454Y-9628605D01*
X7555000Y-9812333D01*
X7555000Y-9999667D01*
X7518454Y-10183395D01*
X7446766Y-10356466D01*
X7446765Y-10356467D01*
X7342690Y-10512227D01*
X7210227Y-10644690D01*
X7131818Y-10697081D01*
X7054466Y-10748766D01*
X6881395Y-10820454D01*
X6697667Y-10857000D01*
X6510333Y-10857000D01*
X6326605Y-10820454D01*
X6153534Y-10748766D01*
X6076182Y-10697081D01*
X5997773Y-10644690D01*
X5865310Y-10512227D01*
X5761235Y-10356467D01*
X5761234Y-10356466D01*
X5689546Y-10183395D01*
X5653000Y-9999667D01*
X5653000Y-9812333D01*
X5689546Y-9628605D01*
X5761234Y-9455534D01*
X5865309Y-9299775D01*
X5865310Y-9299773D01*
X5997773Y-9167310D01*
X6153533Y-9063235D01*
X6153534Y-9063234D01*
X6326605Y-8991546D01*
X6510333Y-8955000D01*
X6697667Y-8955000D01*
X6881395Y-8991546D01*
G37*
G36*
X20629999Y-6685737D02*
G01*
X20639608Y-6688652D01*
X20648472Y-6693390D01*
X20656237Y-6699763D01*
X20662610Y-6707528D01*
X20667348Y-6716392D01*
X20670263Y-6726001D01*
X20671852Y-6742140D01*
X20671852Y-7229860D01*
X20670263Y-7245999D01*
X20667348Y-7255608D01*
X20662610Y-7264472D01*
X20656237Y-7272237D01*
X20648472Y-7278610D01*
X20639608Y-7283348D01*
X20629999Y-7286263D01*
X20613860Y-7287852D01*
X20126140Y-7287852D01*
X20110001Y-7286263D01*
X20100392Y-7283348D01*
X20091528Y-7278610D01*
X20083763Y-7272237D01*
X20077390Y-7264472D01*
X20072652Y-7255608D01*
X20069737Y-7245999D01*
X20068148Y-7229860D01*
X20068148Y-6742140D01*
X20069737Y-6726001D01*
X20072652Y-6716392D01*
X20077390Y-6707528D01*
X20083763Y-6699763D01*
X20091528Y-6693390D01*
X20100392Y-6688652D01*
X20110001Y-6685737D01*
X20126140Y-6684148D01*
X20613860Y-6684148D01*
X20629999Y-6685737D01*
G37*
G36*
X18140799Y-6101537D02*
G01*
X18150408Y-6104452D01*
X18159272Y-6109190D01*
X18167037Y-6115563D01*
X18173410Y-6123328D01*
X18178148Y-6132192D01*
X18181063Y-6141801D01*
X18182652Y-6157940D01*
X18182652Y-6645660D01*
X18181063Y-6661799D01*
X18178148Y-6671408D01*
X18173410Y-6680272D01*
X18167037Y-6688037D01*
X18159272Y-6694410D01*
X18150408Y-6699148D01*
X18140799Y-6702063D01*
X18124660Y-6703652D01*
X17636940Y-6703652D01*
X17620801Y-6702063D01*
X17611192Y-6699148D01*
X17602328Y-6694410D01*
X17594563Y-6688037D01*
X17588190Y-6680272D01*
X17583452Y-6671408D01*
X17580537Y-6661799D01*
X17578948Y-6645660D01*
X17578948Y-6157940D01*
X17580537Y-6141801D01*
X17583452Y-6132192D01*
X17588190Y-6123328D01*
X17594563Y-6115563D01*
X17602328Y-6109190D01*
X17611192Y-6104452D01*
X17620801Y-6101537D01*
X17636940Y-6099948D01*
X18124660Y-6099948D01*
X18140799Y-6101537D01*
G37*
G36*
X19528231Y-5156705D02*
G01*
X19566967Y-5164410D01*
X19597195Y-5176931D01*
X19639944Y-5194638D01*
X19705622Y-5238523D01*
X19761477Y-5294378D01*
X19805362Y-5360056D01*
X19835590Y-5433034D01*
X19851000Y-5510504D01*
X19851000Y-5589496D01*
X19835590Y-5666966D01*
X19805362Y-5739944D01*
X19761477Y-5805622D01*
X19705622Y-5861477D01*
X19639944Y-5905362D01*
X19597195Y-5923069D01*
X19566967Y-5935590D01*
X19528231Y-5943295D01*
X19489496Y-5951000D01*
X19410504Y-5951000D01*
X19371769Y-5943295D01*
X19333033Y-5935590D01*
X19302805Y-5923069D01*
X19260056Y-5905362D01*
X19194378Y-5861477D01*
X19138523Y-5805622D01*
X19094638Y-5739944D01*
X19064410Y-5666966D01*
X19049000Y-5589496D01*
X19049000Y-5510504D01*
X19064410Y-5433034D01*
X19094638Y-5360056D01*
X19138523Y-5294378D01*
X19194378Y-5238523D01*
X19260056Y-5194638D01*
X19302805Y-5176931D01*
X19333033Y-5164410D01*
X19371769Y-5156705D01*
X19410504Y-5149000D01*
X19489496Y-5149000D01*
X19528231Y-5156705D01*
G37*
G36*
X19528231Y-3456705D02*
G01*
X19566967Y-3464410D01*
X19597195Y-3476931D01*
X19639944Y-3494638D01*
X19705622Y-3538523D01*
X19761477Y-3594378D01*
X19805362Y-3660056D01*
X19835590Y-3733034D01*
X19851000Y-3810504D01*
X19851000Y-3889496D01*
X19835590Y-3966966D01*
X19805362Y-4039944D01*
X19761477Y-4105622D01*
X19705622Y-4161477D01*
X19639944Y-4205362D01*
X19597195Y-4223069D01*
X19566967Y-4235590D01*
X19528231Y-4243295D01*
X19489496Y-4251000D01*
X19410504Y-4251000D01*
X19371769Y-4243295D01*
X19333033Y-4235590D01*
X19302805Y-4223069D01*
X19260056Y-4205362D01*
X19194378Y-4161477D01*
X19138523Y-4105622D01*
X19094638Y-4039944D01*
X19064410Y-3966966D01*
X19049000Y-3889496D01*
X19049000Y-3810504D01*
X19064410Y-3733034D01*
X19094638Y-3660056D01*
X19138523Y-3594378D01*
X19194378Y-3538523D01*
X19260056Y-3494638D01*
X19302805Y-3476931D01*
X19333033Y-3464410D01*
X19371769Y-3456705D01*
X19410504Y-3449000D01*
X19489496Y-3449000D01*
X19528231Y-3456705D01*
G37*
G36*
X18166199Y-2697937D02*
G01*
X18175808Y-2700852D01*
X18184672Y-2705590D01*
X18192437Y-2711963D01*
X18198810Y-2719728D01*
X18203548Y-2728592D01*
X18206463Y-2738201D01*
X18208052Y-2754340D01*
X18208052Y-3242060D01*
X18206463Y-3258199D01*
X18203548Y-3267808D01*
X18198810Y-3276672D01*
X18192437Y-3284437D01*
X18184672Y-3290810D01*
X18175808Y-3295548D01*
X18166199Y-3298463D01*
X18150060Y-3300052D01*
X17662340Y-3300052D01*
X17646201Y-3298463D01*
X17636592Y-3295548D01*
X17627728Y-3290810D01*
X17619963Y-3284437D01*
X17613590Y-3276672D01*
X17608852Y-3267808D01*
X17605937Y-3258199D01*
X17604348Y-3242060D01*
X17604348Y-2754340D01*
X17605937Y-2738201D01*
X17608852Y-2728592D01*
X17613590Y-2719728D01*
X17619963Y-2711963D01*
X17627728Y-2705590D01*
X17636592Y-2700852D01*
X17646201Y-2697937D01*
X17662340Y-2696348D01*
X18150060Y-2696348D01*
X18166199Y-2697937D01*
G37*
G36*
X20629999Y-2113737D02*
G01*
X20639608Y-2116652D01*
X20648472Y-2121390D01*
X20656237Y-2127763D01*
X20662610Y-2135528D01*
X20667348Y-2144392D01*
X20670263Y-2154001D01*
X20671852Y-2170140D01*
X20671852Y-2657860D01*
X20670263Y-2673999D01*
X20667348Y-2683608D01*
X20662610Y-2692472D01*
X20656237Y-2700237D01*
X20648472Y-2706610D01*
X20639608Y-2711348D01*
X20629999Y-2714263D01*
X20613860Y-2715852D01*
X20126140Y-2715852D01*
X20110001Y-2714263D01*
X20100392Y-2711348D01*
X20091528Y-2706610D01*
X20083763Y-2700237D01*
X20077390Y-2692472D01*
X20072652Y-2683608D01*
X20069737Y-2673999D01*
X20068148Y-2657860D01*
X20068148Y-2170140D01*
X20069737Y-2154001D01*
X20072652Y-2144392D01*
X20077390Y-2135528D01*
X20083763Y-2127763D01*
X20091528Y-2121390D01*
X20100392Y-2116652D01*
X20110001Y-2113737D01*
X20126140Y-2112148D01*
X20613860Y-2112148D01*
X20629999Y-2113737D01*
G37*
G36*
X19417512Y1150073D02*
G01*
X19566812Y1120376D01*
X19730784Y1052456D01*
X19878354Y953853D01*
X20003853Y828354D01*
X20102456Y680784D01*
X20170376Y516812D01*
X20205000Y342741D01*
X20205000Y165259D01*
X20170376Y-8812D01*
X20102456Y-172784D01*
X20003853Y-320354D01*
X19878354Y-445853D01*
X19730784Y-544456D01*
X19566812Y-612376D01*
X19417512Y-642073D01*
X19392742Y-647000D01*
X19215258Y-647000D01*
X19190488Y-642073D01*
X19041188Y-612376D01*
X18877216Y-544456D01*
X18729646Y-445853D01*
X18604147Y-320354D01*
X18505544Y-172784D01*
X18437624Y-8812D01*
X18403000Y165259D01*
X18403000Y342741D01*
X18437624Y516812D01*
X18505544Y680784D01*
X18604147Y828354D01*
X18729646Y953853D01*
X18877216Y1052456D01*
X19041188Y1120376D01*
X19190488Y1150073D01*
X19215258Y1155000D01*
X19392742Y1155000D01*
X19417512Y1150073D01*
G37*
G36*
X19417512Y3690073D02*
G01*
X19566812Y3660376D01*
X19730784Y3592456D01*
X19878354Y3493853D01*
X20003853Y3368354D01*
X20102456Y3220784D01*
X20170376Y3056812D01*
X20205000Y2882741D01*
X20205000Y2705259D01*
X20170376Y2531188D01*
X20102456Y2367216D01*
X20003853Y2219646D01*
X19878354Y2094147D01*
X19730784Y1995544D01*
X19566812Y1927624D01*
X19417512Y1897927D01*
X19392742Y1893000D01*
X19215258Y1893000D01*
X19190488Y1897927D01*
X19041188Y1927624D01*
X18877216Y1995544D01*
X18729646Y2094147D01*
X18604147Y2219646D01*
X18505544Y2367216D01*
X18437624Y2531188D01*
X18403000Y2705259D01*
X18403000Y2882741D01*
X18437624Y3056812D01*
X18505544Y3220784D01*
X18604147Y3368354D01*
X18729646Y3493853D01*
X18877216Y3592456D01*
X19041188Y3660376D01*
X19190488Y3690073D01*
X19215258Y3695000D01*
X19392742Y3695000D01*
X19417512Y3690073D01*
G37*
G36*
X19417512Y6230073D02*
G01*
X19566812Y6200376D01*
X19730784Y6132456D01*
X19878354Y6033853D01*
X20003853Y5908354D01*
X20102456Y5760784D01*
X20170376Y5596812D01*
X20205000Y5422741D01*
X20205000Y5245259D01*
X20170376Y5071188D01*
X20102456Y4907216D01*
X20003853Y4759646D01*
X19878354Y4634147D01*
X19730784Y4535544D01*
X19566812Y4467624D01*
X19417512Y4437927D01*
X19392742Y4433000D01*
X19215258Y4433000D01*
X19190488Y4437927D01*
X19041188Y4467624D01*
X18877216Y4535544D01*
X18729646Y4634147D01*
X18604147Y4759646D01*
X18505544Y4907216D01*
X18437624Y5071188D01*
X18403000Y5245259D01*
X18403000Y5422741D01*
X18437624Y5596812D01*
X18505544Y5760784D01*
X18604147Y5908354D01*
X18729646Y6033853D01*
X18877216Y6132456D01*
X19041188Y6200376D01*
X19190488Y6230073D01*
X19215258Y6235000D01*
X19392742Y6235000D01*
X19417512Y6230073D01*
G37*
G36*
X19417512Y8770073D02*
G01*
X19566812Y8740376D01*
X19730784Y8672456D01*
X19878354Y8573853D01*
X20003853Y8448354D01*
X20102456Y8300784D01*
X20170376Y8136812D01*
X20205000Y7962741D01*
X20205000Y7785259D01*
X20170376Y7611188D01*
X20102456Y7447216D01*
X20003853Y7299646D01*
X19878354Y7174147D01*
X19730784Y7075544D01*
X19566812Y7007624D01*
X19417512Y6977927D01*
X19392742Y6973000D01*
X19215258Y6973000D01*
X19190488Y6977927D01*
X19041188Y7007624D01*
X18877216Y7075544D01*
X18729646Y7174147D01*
X18604147Y7299646D01*
X18505544Y7447216D01*
X18437624Y7611188D01*
X18403000Y7785259D01*
X18403000Y7962741D01*
X18437624Y8136812D01*
X18505544Y8300784D01*
X18604147Y8448354D01*
X18729646Y8573853D01*
X18877216Y8672456D01*
X19041188Y8740376D01*
X19190488Y8770073D01*
X19215258Y8775000D01*
X19392742Y8775000D01*
X19417512Y8770073D01*
G37*
G36*
X19417512Y11310073D02*
G01*
X19566812Y11280376D01*
X19730784Y11212456D01*
X19878354Y11113853D01*
X20003853Y10988354D01*
X20102456Y10840784D01*
X20170376Y10676812D01*
X20205000Y10502741D01*
X20205000Y10325259D01*
X20170376Y10151188D01*
X20102456Y9987216D01*
X20003853Y9839646D01*
X19878354Y9714147D01*
X19730784Y9615544D01*
X19566812Y9547624D01*
X19417512Y9517927D01*
X19392742Y9513000D01*
X19215258Y9513000D01*
X19190488Y9517927D01*
X19041188Y9547624D01*
X18877216Y9615544D01*
X18729646Y9714147D01*
X18604147Y9839646D01*
X18505544Y9987216D01*
X18437624Y10151188D01*
X18403000Y10325259D01*
X18403000Y10502741D01*
X18437624Y10676812D01*
X18505544Y10840784D01*
X18604147Y10988354D01*
X18729646Y11113853D01*
X18877216Y11212456D01*
X19041188Y11280376D01*
X19190488Y11310073D01*
X19215258Y11315000D01*
X19392742Y11315000D01*
X19417512Y11310073D01*
G37*
G36*
X-3278605Y13868454D02*
G01*
X-3105534Y13796766D01*
X-3105533Y13796765D01*
X-2949773Y13692690D01*
X-2817310Y13560227D01*
X-2817309Y13560225D01*
X-2713234Y13404466D01*
X-2641546Y13231395D01*
X-2605000Y13047667D01*
X-2605000Y12860333D01*
X-2641546Y12676605D01*
X-2713234Y12503534D01*
X-2713235Y12503533D01*
X-2817310Y12347773D01*
X-2949773Y12215310D01*
X-3028182Y12162919D01*
X-3105534Y12111234D01*
X-3278605Y12039546D01*
X-3462333Y12003000D01*
X-3649667Y12003000D01*
X-3833395Y12039546D01*
X-4006466Y12111234D01*
X-4083818Y12162919D01*
X-4162227Y12215310D01*
X-4294690Y12347773D01*
X-4398765Y12503533D01*
X-4398766Y12503534D01*
X-4470454Y12676605D01*
X-4507000Y12860333D01*
X-4507000Y13047667D01*
X-4470454Y13231395D01*
X-4398766Y13404466D01*
X-4294691Y13560225D01*
X-4294690Y13560227D01*
X-4162227Y13692690D01*
X-4006467Y13796765D01*
X-4006466Y13796766D01*
X-3833395Y13868454D01*
X-3649667Y13905000D01*
X-3462333Y13905000D01*
X-3278605Y13868454D01*
G37*
G36*
X-5818605Y13868454D02*
G01*
X-5645534Y13796766D01*
X-5645533Y13796765D01*
X-5489773Y13692690D01*
X-5357310Y13560227D01*
X-5357309Y13560225D01*
X-5253234Y13404466D01*
X-5181546Y13231395D01*
X-5145000Y13047667D01*
X-5145000Y12860333D01*
X-5181546Y12676605D01*
X-5253234Y12503534D01*
X-5253235Y12503533D01*
X-5357310Y12347773D01*
X-5489773Y12215310D01*
X-5568182Y12162919D01*
X-5645534Y12111234D01*
X-5818605Y12039546D01*
X-6002333Y12003000D01*
X-6189667Y12003000D01*
X-6373395Y12039546D01*
X-6546466Y12111234D01*
X-6623818Y12162919D01*
X-6702227Y12215310D01*
X-6834690Y12347773D01*
X-6938765Y12503533D01*
X-6938766Y12503534D01*
X-7010454Y12676605D01*
X-7047000Y12860333D01*
X-7047000Y13047667D01*
X-7010454Y13231395D01*
X-6938766Y13404466D01*
X-6834691Y13560225D01*
X-6834690Y13560227D01*
X-6702227Y13692690D01*
X-6546467Y13796765D01*
X-6546466Y13796766D01*
X-6373395Y13868454D01*
X-6189667Y13905000D01*
X-6002333Y13905000D01*
X-5818605Y13868454D01*
G37*
G36*
X-8358605Y13868454D02*
G01*
X-8185534Y13796766D01*
X-8185533Y13796765D01*
X-8029773Y13692690D01*
X-7897310Y13560227D01*
X-7897309Y13560225D01*
X-7793234Y13404466D01*
X-7721546Y13231395D01*
X-7685000Y13047667D01*
X-7685000Y12860333D01*
X-7721546Y12676605D01*
X-7793234Y12503534D01*
X-7793235Y12503533D01*
X-7897310Y12347773D01*
X-8029773Y12215310D01*
X-8108182Y12162919D01*
X-8185534Y12111234D01*
X-8358605Y12039546D01*
X-8542333Y12003000D01*
X-8729667Y12003000D01*
X-8913395Y12039546D01*
X-9086466Y12111234D01*
X-9163818Y12162919D01*
X-9242227Y12215310D01*
X-9374690Y12347773D01*
X-9478765Y12503533D01*
X-9478766Y12503534D01*
X-9550454Y12676605D01*
X-9587000Y12860333D01*
X-9587000Y13047667D01*
X-9550454Y13231395D01*
X-9478766Y13404466D01*
X-9374691Y13560225D01*
X-9374690Y13560227D01*
X-9242227Y13692690D01*
X-9086467Y13796765D01*
X-9086466Y13796766D01*
X-8913395Y13868454D01*
X-8729667Y13905000D01*
X-8542333Y13905000D01*
X-8358605Y13868454D01*
G37*
G36*
X-738605Y13868454D02*
G01*
X-565534Y13796766D01*
X-565533Y13796765D01*
X-409773Y13692690D01*
X-277310Y13560227D01*
X-277309Y13560225D01*
X-173234Y13404466D01*
X-101546Y13231395D01*
X-65000Y13047667D01*
X-65000Y12860333D01*
X-101546Y12676605D01*
X-173234Y12503534D01*
X-173235Y12503533D01*
X-277310Y12347773D01*
X-409773Y12215310D01*
X-488182Y12162919D01*
X-565534Y12111234D01*
X-738605Y12039546D01*
X-922333Y12003000D01*
X-1109667Y12003000D01*
X-1293395Y12039546D01*
X-1466466Y12111234D01*
X-1543818Y12162919D01*
X-1622227Y12215310D01*
X-1754690Y12347773D01*
X-1858765Y12503533D01*
X-1858766Y12503534D01*
X-1930454Y12676605D01*
X-1967000Y12860333D01*
X-1967000Y13047667D01*
X-1930454Y13231395D01*
X-1858766Y13404466D01*
X-1754691Y13560225D01*
X-1754690Y13560227D01*
X-1622227Y13692690D01*
X-1466467Y13796765D01*
X-1466466Y13796766D01*
X-1293395Y13868454D01*
X-1109667Y13905000D01*
X-922333Y13905000D01*
X-738605Y13868454D01*
G37*
G36*
X1801395Y13868454D02*
G01*
X1974466Y13796766D01*
X1974467Y13796765D01*
X2130227Y13692690D01*
X2262690Y13560227D01*
X2262691Y13560225D01*
X2366766Y13404466D01*
X2438454Y13231395D01*
X2475000Y13047667D01*
X2475000Y12860333D01*
X2438454Y12676605D01*
X2366766Y12503534D01*
X2366765Y12503533D01*
X2262690Y12347773D01*
X2130227Y12215310D01*
X2051818Y12162919D01*
X1974466Y12111234D01*
X1801395Y12039546D01*
X1617667Y12003000D01*
X1430333Y12003000D01*
X1246605Y12039546D01*
X1073534Y12111234D01*
X996182Y12162919D01*
X917773Y12215310D01*
X785310Y12347773D01*
X681235Y12503533D01*
X681234Y12503534D01*
X609546Y12676605D01*
X573000Y12860333D01*
X573000Y13047667D01*
X609546Y13231395D01*
X681234Y13404466D01*
X785309Y13560225D01*
X785310Y13560227D01*
X917773Y13692690D01*
X1073533Y13796765D01*
X1073534Y13796766D01*
X1246605Y13868454D01*
X1430333Y13905000D01*
X1617667Y13905000D01*
X1801395Y13868454D01*
G37*
G36*
X4341395Y13868454D02*
G01*
X4514466Y13796766D01*
X4514467Y13796765D01*
X4670227Y13692690D01*
X4802690Y13560227D01*
X4802691Y13560225D01*
X4906766Y13404466D01*
X4978454Y13231395D01*
X5015000Y13047667D01*
X5015000Y12860333D01*
X4978454Y12676605D01*
X4906766Y12503534D01*
X4906765Y12503533D01*
X4802690Y12347773D01*
X4670227Y12215310D01*
X4591818Y12162919D01*
X4514466Y12111234D01*
X4341395Y12039546D01*
X4157667Y12003000D01*
X3970333Y12003000D01*
X3786605Y12039546D01*
X3613534Y12111234D01*
X3536182Y12162919D01*
X3457773Y12215310D01*
X3325310Y12347773D01*
X3221235Y12503533D01*
X3221234Y12503534D01*
X3149546Y12676605D01*
X3113000Y12860333D01*
X3113000Y13047667D01*
X3149546Y13231395D01*
X3221234Y13404466D01*
X3325309Y13560225D01*
X3325310Y13560227D01*
X3457773Y13692690D01*
X3613533Y13796765D01*
X3613534Y13796766D01*
X3786605Y13868454D01*
X3970333Y13905000D01*
X4157667Y13905000D01*
X4341395Y13868454D01*
G37*
G36*
X6881395Y13868454D02*
G01*
X7054466Y13796766D01*
X7054467Y13796765D01*
X7210227Y13692690D01*
X7342690Y13560227D01*
X7342691Y13560225D01*
X7446766Y13404466D01*
X7518454Y13231395D01*
X7555000Y13047667D01*
X7555000Y12860333D01*
X7518454Y12676605D01*
X7446766Y12503534D01*
X7446765Y12503533D01*
X7342690Y12347773D01*
X7210227Y12215310D01*
X7131818Y12162919D01*
X7054466Y12111234D01*
X6881395Y12039546D01*
X6697667Y12003000D01*
X6510333Y12003000D01*
X6326605Y12039546D01*
X6153534Y12111234D01*
X6076182Y12162919D01*
X5997773Y12215310D01*
X5865310Y12347773D01*
X5761235Y12503533D01*
X5761234Y12503534D01*
X5689546Y12676605D01*
X5653000Y12860333D01*
X5653000Y13047667D01*
X5689546Y13231395D01*
X5761234Y13404466D01*
X5865309Y13560225D01*
X5865310Y13560227D01*
X5997773Y13692690D01*
X6153533Y13796765D01*
X6153534Y13796766D01*
X6326605Y13868454D01*
X6510333Y13905000D01*
X6697667Y13905000D01*
X6881395Y13868454D01*
G37*
G36*
X-10898605Y13868454D02*
G01*
X-10725534Y13796766D01*
X-10725533Y13796765D01*
X-10569773Y13692690D01*
X-10437310Y13560227D01*
X-10437309Y13560225D01*
X-10333234Y13404466D01*
X-10261546Y13231395D01*
X-10225000Y13047667D01*
X-10225000Y12860333D01*
X-10261546Y12676605D01*
X-10333234Y12503534D01*
X-10333235Y12503533D01*
X-10437310Y12347773D01*
X-10569773Y12215310D01*
X-10648182Y12162919D01*
X-10725534Y12111234D01*
X-10898605Y12039546D01*
X-11082333Y12003000D01*
X-11269667Y12003000D01*
X-11453395Y12039546D01*
X-11626466Y12111234D01*
X-11703818Y12162919D01*
X-11782227Y12215310D01*
X-11914690Y12347773D01*
X-12018765Y12503533D01*
X-12018766Y12503534D01*
X-12090454Y12676605D01*
X-12127000Y12860333D01*
X-12127000Y13047667D01*
X-12090454Y13231395D01*
X-12018766Y13404466D01*
X-11914691Y13560225D01*
X-11914690Y13560227D01*
X-11782227Y13692690D01*
X-11626467Y13796765D01*
X-11626466Y13796766D01*
X-11453395Y13868454D01*
X-11269667Y13905000D01*
X-11082333Y13905000D01*
X-10898605Y13868454D01*
G37*
G36*
X19417512Y13850073D02*
G01*
X19566812Y13820376D01*
X19730784Y13752456D01*
X19878354Y13653853D01*
X20003853Y13528354D01*
X20102456Y13380784D01*
X20170376Y13216812D01*
X20205000Y13042741D01*
X20205000Y12865259D01*
X20170376Y12691188D01*
X20102456Y12527216D01*
X20003853Y12379646D01*
X19878354Y12254147D01*
X19730784Y12155544D01*
X19566812Y12087624D01*
X19417512Y12057927D01*
X19392742Y12053000D01*
X19215258Y12053000D01*
X19190488Y12057927D01*
X19041188Y12087624D01*
X18877216Y12155544D01*
X18729646Y12254147D01*
X18604147Y12379646D01*
X18505544Y12527216D01*
X18437624Y12691188D01*
X18403000Y12865259D01*
X18403000Y13042741D01*
X18437624Y13216812D01*
X18505544Y13380784D01*
X18604147Y13528354D01*
X18729646Y13653853D01*
X18877216Y13752456D01*
X19041188Y13820376D01*
X19190488Y13850073D01*
X19215258Y13855000D01*
X19392742Y13855000D01*
X19417512Y13850073D01*
G37*
G36*
X19417512Y16390073D02*
G01*
X19566812Y16360376D01*
X19730784Y16292456D01*
X19878354Y16193853D01*
X20003853Y16068354D01*
X20102456Y15920784D01*
X20170376Y15756812D01*
X20205000Y15582741D01*
X20205000Y15405259D01*
X20170376Y15231188D01*
X20102456Y15067216D01*
X20003853Y14919646D01*
X19878354Y14794147D01*
X19730784Y14695544D01*
X19566812Y14627624D01*
X19417512Y14597927D01*
X19392742Y14593000D01*
X19215258Y14593000D01*
X19190488Y14597927D01*
X19041188Y14627624D01*
X18877216Y14695544D01*
X18729646Y14794147D01*
X18604147Y14919646D01*
X18505544Y15067216D01*
X18437624Y15231188D01*
X18403000Y15405259D01*
X18403000Y15582741D01*
X18437624Y15756812D01*
X18505544Y15920784D01*
X18604147Y16068354D01*
X18729646Y16193853D01*
X18877216Y16292456D01*
X19041188Y16360376D01*
X19190488Y16390073D01*
X19215258Y16395000D01*
X19392742Y16395000D01*
X19417512Y16390073D01*
G37*
G36*
X4087395Y18712454D02*
G01*
X4260466Y18640766D01*
X4260467Y18640765D01*
X4416227Y18536690D01*
X4548690Y18404227D01*
X4548691Y18404225D01*
X4652766Y18248466D01*
X4724454Y18075395D01*
X4761000Y17891667D01*
X4761000Y17704333D01*
X4724454Y17520605D01*
X4652766Y17347534D01*
X4652765Y17347533D01*
X4548690Y17191773D01*
X4416227Y17059310D01*
X4337818Y17006919D01*
X4260466Y16955234D01*
X4087395Y16883546D01*
X3903667Y16847000D01*
X3716333Y16847000D01*
X3532605Y16883546D01*
X3359534Y16955234D01*
X3282182Y17006919D01*
X3203773Y17059310D01*
X3071310Y17191773D01*
X2967235Y17347533D01*
X2967234Y17347534D01*
X2895546Y17520605D01*
X2859000Y17704333D01*
X2859000Y17891667D01*
X2895546Y18075395D01*
X2967234Y18248466D01*
X3071309Y18404225D01*
X3071310Y18404227D01*
X3203773Y18536690D01*
X3359533Y18640765D01*
X3359534Y18640766D01*
X3532605Y18712454D01*
X3716333Y18749000D01*
X3903667Y18749000D01*
X4087395Y18712454D01*
G37*
G36*
X1547395Y18712454D02*
G01*
X1720466Y18640766D01*
X1720467Y18640765D01*
X1876227Y18536690D01*
X2008690Y18404227D01*
X2008691Y18404225D01*
X2112766Y18248466D01*
X2184454Y18075395D01*
X2221000Y17891667D01*
X2221000Y17704333D01*
X2184454Y17520605D01*
X2112766Y17347534D01*
X2112765Y17347533D01*
X2008690Y17191773D01*
X1876227Y17059310D01*
X1797818Y17006919D01*
X1720466Y16955234D01*
X1547395Y16883546D01*
X1363667Y16847000D01*
X1176333Y16847000D01*
X992605Y16883546D01*
X819534Y16955234D01*
X742182Y17006919D01*
X663773Y17059310D01*
X531310Y17191773D01*
X427235Y17347533D01*
X427234Y17347534D01*
X355546Y17520605D01*
X319000Y17704333D01*
X319000Y17891667D01*
X355546Y18075395D01*
X427234Y18248466D01*
X531309Y18404225D01*
X531310Y18404227D01*
X663773Y18536690D01*
X819533Y18640765D01*
X819534Y18640766D01*
X992605Y18712454D01*
X1176333Y18749000D01*
X1363667Y18749000D01*
X1547395Y18712454D01*
G37*
G36*
X-992605Y18712454D02*
G01*
X-819534Y18640766D01*
X-819533Y18640765D01*
X-663773Y18536690D01*
X-531310Y18404227D01*
X-531309Y18404225D01*
X-427234Y18248466D01*
X-355546Y18075395D01*
X-319000Y17891667D01*
X-319000Y17704333D01*
X-355546Y17520605D01*
X-427234Y17347534D01*
X-427235Y17347533D01*
X-531310Y17191773D01*
X-663773Y17059310D01*
X-742182Y17006919D01*
X-819534Y16955234D01*
X-992605Y16883546D01*
X-1176333Y16847000D01*
X-1363667Y16847000D01*
X-1547395Y16883546D01*
X-1720466Y16955234D01*
X-1797818Y17006919D01*
X-1876227Y17059310D01*
X-2008690Y17191773D01*
X-2112765Y17347533D01*
X-2112766Y17347534D01*
X-2184454Y17520605D01*
X-2221000Y17704333D01*
X-2221000Y17891667D01*
X-2184454Y18075395D01*
X-2112766Y18248466D01*
X-2008691Y18404225D01*
X-2008690Y18404227D01*
X-1876227Y18536690D01*
X-1720467Y18640765D01*
X-1720466Y18640766D01*
X-1547395Y18712454D01*
X-1363667Y18749000D01*
X-1176333Y18749000D01*
X-992605Y18712454D01*
G37*
G36*
X-3532605Y18712454D02*
G01*
X-3359534Y18640766D01*
X-3359533Y18640765D01*
X-3203773Y18536690D01*
X-3071310Y18404227D01*
X-3071309Y18404225D01*
X-2967234Y18248466D01*
X-2895546Y18075395D01*
X-2859000Y17891667D01*
X-2859000Y17704333D01*
X-2895546Y17520605D01*
X-2967234Y17347534D01*
X-2967235Y17347533D01*
X-3071310Y17191773D01*
X-3203773Y17059310D01*
X-3282182Y17006919D01*
X-3359534Y16955234D01*
X-3532605Y16883546D01*
X-3716333Y16847000D01*
X-3903667Y16847000D01*
X-4087395Y16883546D01*
X-4260466Y16955234D01*
X-4337818Y17006919D01*
X-4416227Y17059310D01*
X-4548690Y17191773D01*
X-4652765Y17347533D01*
X-4652766Y17347534D01*
X-4724454Y17520605D01*
X-4761000Y17704333D01*
X-4761000Y17891667D01*
X-4724454Y18075395D01*
X-4652766Y18248466D01*
X-4548691Y18404225D01*
X-4548690Y18404227D01*
X-4416227Y18536690D01*
X-4260467Y18640765D01*
X-4260466Y18640766D01*
X-4087395Y18712454D01*
X-3903667Y18749000D01*
X-3716333Y18749000D01*
X-3532605Y18712454D01*
G37*
G36*
X20205000Y17133000D02*
G01*
X18403000Y17133000D01*
X18403000Y18935000D01*
X20205000Y18935000D01*
X20205000Y17133000D01*
G37*
G36*
X14494098Y26452967D02*
G01*
X14958350Y26260668D01*
X14958352Y26260667D01*
X15376168Y25981491D01*
X15731491Y25626168D01*
X16010667Y25208352D01*
X16010668Y25208350D01*
X16202967Y24744098D01*
X16301000Y24251253D01*
X16301000Y23748747D01*
X16202967Y23255902D01*
X16010668Y22791650D01*
X16010667Y22791648D01*
X15731491Y22373832D01*
X15376168Y22018509D01*
X14958352Y21739333D01*
X14958351Y21739332D01*
X14958350Y21739332D01*
X14494098Y21547033D01*
X14001253Y21449000D01*
X13498747Y21449000D01*
X13005902Y21547033D01*
X12541650Y21739332D01*
X12541649Y21739332D01*
X12541648Y21739333D01*
X12123832Y22018509D01*
X11768509Y22373832D01*
X11489333Y22791648D01*
X11489332Y22791650D01*
X11297033Y23255902D01*
X11199000Y23748747D01*
X11199000Y24251253D01*
X11297033Y24744098D01*
X11489332Y25208350D01*
X11489333Y25208352D01*
X11768509Y25626168D01*
X12123832Y25981491D01*
X12541648Y26260667D01*
X12541650Y26260668D01*
X13005902Y26452967D01*
X13498747Y26551000D01*
X14001253Y26551000D01*
X14494098Y26452967D01*
G37*
G36*
X-13005902Y26452967D02*
G01*
X-12541650Y26260668D01*
X-12541648Y26260667D01*
X-12123832Y25981491D01*
X-11768509Y25626168D01*
X-11489333Y25208352D01*
X-11489332Y25208350D01*
X-11297033Y24744098D01*
X-11199000Y24251253D01*
X-11199000Y23748747D01*
X-11297033Y23255902D01*
X-11489332Y22791650D01*
X-11489333Y22791648D01*
X-11768509Y22373832D01*
X-12123832Y22018509D01*
X-12541648Y21739333D01*
X-12541649Y21739332D01*
X-12541650Y21739332D01*
X-13005902Y21547033D01*
X-13498747Y21449000D01*
X-14001253Y21449000D01*
X-14494098Y21547033D01*
X-14958350Y21739332D01*
X-14958351Y21739332D01*
X-14958352Y21739333D01*
X-15376168Y22018509D01*
X-15731491Y22373832D01*
X-16010667Y22791648D01*
X-16010668Y22791650D01*
X-16202967Y23255902D01*
X-16301000Y23748747D01*
X-16301000Y24251253D01*
X-16202967Y24744098D01*
X-16010668Y25208350D01*
X-16010667Y25208352D01*
X-15731491Y25626168D01*
X-15376168Y25981491D01*
X-14958352Y26260667D01*
X-14958350Y26260668D01*
X-14494098Y26452967D01*
X-14001253Y26551000D01*
X-13498747Y26551000D01*
X-13005902Y26452967D01*
G37*
M02*
