M48
; DRILL file {KiCad 5.1.5+dfsg1-2build2} date Mon 13 Jun 2022 07:55:39 PM PDT
; FORMAT={2:4/ absolute / inch / suppress leading zeros}
; #@! TF.CreationDate,2022-06-13T19:55:39-07:00
; #@! TF.GenerationSoftware,Kicad,Pcbnew,5.1.5+dfsg1-2build2
; #@! TF.FileFunction,Plated,1,2,PTH
FMAT,2
INCH,TZ
T1C0.0157
T2C0.0394
T3C0.0400
T4C0.0984
%
G90
G05
T1
X-5694Y-7950
X-5050Y-8830
X-4400Y-8850
X-2800Y3450
X-2200Y-9013
X-1200Y-7700
X-1100Y1800
X-400Y1800
X300Y1800
X2100Y-3200
X3275Y-4600
X3300Y-5700
X6100Y7500
X7050Y-5679
X7115Y-1850
T2
X7600Y7100
X7600Y6100
X7600Y5100
X7600Y4100
X7600Y3100
X7600Y2100
X7600Y1100
X7600Y100
X-1500Y7007
X-500Y7007
X500Y7007
X1500Y7007
T3
X-4400Y5100
X-4400Y-3900
X-3400Y5100
X-3400Y-3900
X-2400Y5100
X-2400Y-3900
X-1400Y5100
X-1400Y-3900
X-400Y5100
X-400Y-3900
X600Y5100
X600Y-3900
X1600Y5100
X1600Y-3900
X2600Y5100
X2600Y-3900
T4
X-5413Y9449
X5413Y9449
T0
M30
