G04 #@! TF.GenerationSoftware,KiCad,Pcbnew,5.1.5+dfsg1-2build2*
G04 #@! TF.CreationDate,2022-06-13T19:55:36-07:00*
G04 #@! TF.ProjectId,v3.0.1-Dev-Kit,76332e30-2e31-42d4-9465-762d4b69742e,rev?*
G04 #@! TF.SameCoordinates,Original*
G04 #@! TF.FileFunction,Paste,Bot*
G04 #@! TF.FilePolarity,Positive*
%FSLAX46Y46*%
G04 Gerber Fmt 4.6, Leading zero omitted, Abs format (unit mm)*
G04 Created by KiCad (PCBNEW 5.1.5+dfsg1-2build2) date 2022-06-13 19:55:36*
%MOMM*%
%LPD*%
G04 APERTURE LIST*
%ADD10C,0.100000*%
%ADD11C,0.150000*%
G04 APERTURE END LIST*
D10*
G36*
X20320000Y-6299200D02*
G01*
X20320000Y-6705600D01*
X19659600Y-6705600D01*
X19659600Y-7340600D01*
X20955000Y-7340600D01*
X20955000Y-6299200D01*
X20320000Y-6299200D01*
G37*
X20320000Y-6299200D02*
X20320000Y-6705600D01*
X19659600Y-6705600D01*
X19659600Y-7340600D01*
X20955000Y-7340600D01*
X20955000Y-6299200D01*
X20320000Y-6299200D01*
G36*
X19659600Y-2057400D02*
G01*
X19659600Y-2692400D01*
X20294600Y-2692400D01*
X20294600Y-3098800D01*
X20955000Y-3098800D01*
X20955000Y-2057400D01*
X19659600Y-2057400D01*
G37*
X19659600Y-2057400D02*
X19659600Y-2692400D01*
X20294600Y-2692400D01*
X20294600Y-3098800D01*
X20955000Y-3098800D01*
X20955000Y-2057400D01*
X19659600Y-2057400D01*
G36*
X17754600Y-6096000D02*
G01*
X17754600Y-6705600D01*
X18948400Y-6705600D01*
X18948400Y-6096000D01*
X17754600Y-6096000D01*
G37*
X17754600Y-6096000D02*
X17754600Y-6705600D01*
X18948400Y-6705600D01*
X18948400Y-6096000D01*
X17754600Y-6096000D01*
G36*
X17754600Y-2717800D02*
G01*
X17754600Y-3302000D01*
X18948400Y-3302000D01*
X18948400Y-2717800D01*
X17754600Y-2717800D01*
G37*
X17754600Y-2717800D02*
X17754600Y-3302000D01*
X18948400Y-3302000D01*
X18948400Y-2717800D01*
X17754600Y-2717800D01*
D11*
G36*
X2461004Y-24442204D02*
G01*
X2485273Y-24445804D01*
X2509071Y-24451765D01*
X2532171Y-24460030D01*
X2554349Y-24470520D01*
X2575393Y-24483133D01*
X2595098Y-24497747D01*
X2613277Y-24514223D01*
X2629753Y-24532402D01*
X2644367Y-24552107D01*
X2656980Y-24573151D01*
X2667470Y-24595329D01*
X2675735Y-24618429D01*
X2681696Y-24642227D01*
X2685296Y-24666496D01*
X2686500Y-24691000D01*
X2686500Y-27591000D01*
X2685296Y-27615504D01*
X2681696Y-27639773D01*
X2675735Y-27663571D01*
X2667470Y-27686671D01*
X2656980Y-27708849D01*
X2644367Y-27729893D01*
X2629753Y-27749598D01*
X2613277Y-27767777D01*
X2595098Y-27784253D01*
X2575393Y-27798867D01*
X2554349Y-27811480D01*
X2532171Y-27821970D01*
X2509071Y-27830235D01*
X2485273Y-27836196D01*
X2461004Y-27839796D01*
X2436500Y-27841000D01*
X1436500Y-27841000D01*
X1411996Y-27839796D01*
X1387727Y-27836196D01*
X1363929Y-27830235D01*
X1340829Y-27821970D01*
X1318651Y-27811480D01*
X1297607Y-27798867D01*
X1277902Y-27784253D01*
X1259723Y-27767777D01*
X1243247Y-27749598D01*
X1228633Y-27729893D01*
X1216020Y-27708849D01*
X1205530Y-27686671D01*
X1197265Y-27663571D01*
X1191304Y-27639773D01*
X1187704Y-27615504D01*
X1186500Y-27591000D01*
X1186500Y-24691000D01*
X1187704Y-24666496D01*
X1191304Y-24642227D01*
X1197265Y-24618429D01*
X1205530Y-24595329D01*
X1216020Y-24573151D01*
X1228633Y-24552107D01*
X1243247Y-24532402D01*
X1259723Y-24514223D01*
X1277902Y-24497747D01*
X1297607Y-24483133D01*
X1318651Y-24470520D01*
X1340829Y-24460030D01*
X1363929Y-24451765D01*
X1387727Y-24445804D01*
X1411996Y-24442204D01*
X1436500Y-24441000D01*
X2436500Y-24441000D01*
X2461004Y-24442204D01*
G37*
G36*
X11161004Y-24442204D02*
G01*
X11185273Y-24445804D01*
X11209071Y-24451765D01*
X11232171Y-24460030D01*
X11254349Y-24470520D01*
X11275393Y-24483133D01*
X11295098Y-24497747D01*
X11313277Y-24514223D01*
X11329753Y-24532402D01*
X11344367Y-24552107D01*
X11356980Y-24573151D01*
X11367470Y-24595329D01*
X11375735Y-24618429D01*
X11381696Y-24642227D01*
X11385296Y-24666496D01*
X11386500Y-24691000D01*
X11386500Y-27591000D01*
X11385296Y-27615504D01*
X11381696Y-27639773D01*
X11375735Y-27663571D01*
X11367470Y-27686671D01*
X11356980Y-27708849D01*
X11344367Y-27729893D01*
X11329753Y-27749598D01*
X11313277Y-27767777D01*
X11295098Y-27784253D01*
X11275393Y-27798867D01*
X11254349Y-27811480D01*
X11232171Y-27821970D01*
X11209071Y-27830235D01*
X11185273Y-27836196D01*
X11161004Y-27839796D01*
X11136500Y-27841000D01*
X10136500Y-27841000D01*
X10111996Y-27839796D01*
X10087727Y-27836196D01*
X10063929Y-27830235D01*
X10040829Y-27821970D01*
X10018651Y-27811480D01*
X9997607Y-27798867D01*
X9977902Y-27784253D01*
X9959723Y-27767777D01*
X9943247Y-27749598D01*
X9928633Y-27729893D01*
X9916020Y-27708849D01*
X9905530Y-27686671D01*
X9897265Y-27663571D01*
X9891304Y-27639773D01*
X9887704Y-27615504D01*
X9886500Y-27591000D01*
X9886500Y-24691000D01*
X9887704Y-24666496D01*
X9891304Y-24642227D01*
X9897265Y-24618429D01*
X9905530Y-24595329D01*
X9916020Y-24573151D01*
X9928633Y-24552107D01*
X9943247Y-24532402D01*
X9959723Y-24514223D01*
X9977902Y-24497747D01*
X9997607Y-24483133D01*
X10018651Y-24470520D01*
X10040829Y-24460030D01*
X10063929Y-24451765D01*
X10087727Y-24445804D01*
X10111996Y-24442204D01*
X10136500Y-24441000D01*
X11136500Y-24441000D01*
X11161004Y-24442204D01*
G37*
G36*
X4561004Y-18642204D02*
G01*
X4585273Y-18645804D01*
X4609071Y-18651765D01*
X4632171Y-18660030D01*
X4654349Y-18670520D01*
X4675393Y-18683133D01*
X4695098Y-18697747D01*
X4713277Y-18714223D01*
X4729753Y-18732402D01*
X4744367Y-18752107D01*
X4756980Y-18773151D01*
X4767470Y-18795329D01*
X4775735Y-18818429D01*
X4781696Y-18842227D01*
X4785296Y-18866496D01*
X4786500Y-18891000D01*
X4786500Y-21891000D01*
X4785296Y-21915504D01*
X4781696Y-21939773D01*
X4775735Y-21963571D01*
X4767470Y-21986671D01*
X4756980Y-22008849D01*
X4744367Y-22029893D01*
X4729753Y-22049598D01*
X4713277Y-22067777D01*
X4695098Y-22084253D01*
X4675393Y-22098867D01*
X4654349Y-22111480D01*
X4632171Y-22121970D01*
X4609071Y-22130235D01*
X4585273Y-22136196D01*
X4561004Y-22139796D01*
X4536500Y-22141000D01*
X4036500Y-22141000D01*
X4011996Y-22139796D01*
X3987727Y-22136196D01*
X3963929Y-22130235D01*
X3940829Y-22121970D01*
X3918651Y-22111480D01*
X3897607Y-22098867D01*
X3877902Y-22084253D01*
X3859723Y-22067777D01*
X3843247Y-22049598D01*
X3828633Y-22029893D01*
X3816020Y-22008849D01*
X3805530Y-21986671D01*
X3797265Y-21963571D01*
X3791304Y-21939773D01*
X3787704Y-21915504D01*
X3786500Y-21891000D01*
X3786500Y-18891000D01*
X3787704Y-18866496D01*
X3791304Y-18842227D01*
X3797265Y-18818429D01*
X3805530Y-18795329D01*
X3816020Y-18773151D01*
X3828633Y-18752107D01*
X3843247Y-18732402D01*
X3859723Y-18714223D01*
X3877902Y-18697747D01*
X3897607Y-18683133D01*
X3918651Y-18670520D01*
X3940829Y-18660030D01*
X3963929Y-18651765D01*
X3987727Y-18645804D01*
X4011996Y-18642204D01*
X4036500Y-18641000D01*
X4536500Y-18641000D01*
X4561004Y-18642204D01*
G37*
G36*
X6561004Y-18642204D02*
G01*
X6585273Y-18645804D01*
X6609071Y-18651765D01*
X6632171Y-18660030D01*
X6654349Y-18670520D01*
X6675393Y-18683133D01*
X6695098Y-18697747D01*
X6713277Y-18714223D01*
X6729753Y-18732402D01*
X6744367Y-18752107D01*
X6756980Y-18773151D01*
X6767470Y-18795329D01*
X6775735Y-18818429D01*
X6781696Y-18842227D01*
X6785296Y-18866496D01*
X6786500Y-18891000D01*
X6786500Y-21891000D01*
X6785296Y-21915504D01*
X6781696Y-21939773D01*
X6775735Y-21963571D01*
X6767470Y-21986671D01*
X6756980Y-22008849D01*
X6744367Y-22029893D01*
X6729753Y-22049598D01*
X6713277Y-22067777D01*
X6695098Y-22084253D01*
X6675393Y-22098867D01*
X6654349Y-22111480D01*
X6632171Y-22121970D01*
X6609071Y-22130235D01*
X6585273Y-22136196D01*
X6561004Y-22139796D01*
X6536500Y-22141000D01*
X6036500Y-22141000D01*
X6011996Y-22139796D01*
X5987727Y-22136196D01*
X5963929Y-22130235D01*
X5940829Y-22121970D01*
X5918651Y-22111480D01*
X5897607Y-22098867D01*
X5877902Y-22084253D01*
X5859723Y-22067777D01*
X5843247Y-22049598D01*
X5828633Y-22029893D01*
X5816020Y-22008849D01*
X5805530Y-21986671D01*
X5797265Y-21963571D01*
X5791304Y-21939773D01*
X5787704Y-21915504D01*
X5786500Y-21891000D01*
X5786500Y-18891000D01*
X5787704Y-18866496D01*
X5791304Y-18842227D01*
X5797265Y-18818429D01*
X5805530Y-18795329D01*
X5816020Y-18773151D01*
X5828633Y-18752107D01*
X5843247Y-18732402D01*
X5859723Y-18714223D01*
X5877902Y-18697747D01*
X5897607Y-18683133D01*
X5918651Y-18670520D01*
X5940829Y-18660030D01*
X5963929Y-18651765D01*
X5987727Y-18645804D01*
X6011996Y-18642204D01*
X6036500Y-18641000D01*
X6536500Y-18641000D01*
X6561004Y-18642204D01*
G37*
G36*
X8561004Y-18642204D02*
G01*
X8585273Y-18645804D01*
X8609071Y-18651765D01*
X8632171Y-18660030D01*
X8654349Y-18670520D01*
X8675393Y-18683133D01*
X8695098Y-18697747D01*
X8713277Y-18714223D01*
X8729753Y-18732402D01*
X8744367Y-18752107D01*
X8756980Y-18773151D01*
X8767470Y-18795329D01*
X8775735Y-18818429D01*
X8781696Y-18842227D01*
X8785296Y-18866496D01*
X8786500Y-18891000D01*
X8786500Y-21891000D01*
X8785296Y-21915504D01*
X8781696Y-21939773D01*
X8775735Y-21963571D01*
X8767470Y-21986671D01*
X8756980Y-22008849D01*
X8744367Y-22029893D01*
X8729753Y-22049598D01*
X8713277Y-22067777D01*
X8695098Y-22084253D01*
X8675393Y-22098867D01*
X8654349Y-22111480D01*
X8632171Y-22121970D01*
X8609071Y-22130235D01*
X8585273Y-22136196D01*
X8561004Y-22139796D01*
X8536500Y-22141000D01*
X8036500Y-22141000D01*
X8011996Y-22139796D01*
X7987727Y-22136196D01*
X7963929Y-22130235D01*
X7940829Y-22121970D01*
X7918651Y-22111480D01*
X7897607Y-22098867D01*
X7877902Y-22084253D01*
X7859723Y-22067777D01*
X7843247Y-22049598D01*
X7828633Y-22029893D01*
X7816020Y-22008849D01*
X7805530Y-21986671D01*
X7797265Y-21963571D01*
X7791304Y-21939773D01*
X7787704Y-21915504D01*
X7786500Y-21891000D01*
X7786500Y-18891000D01*
X7787704Y-18866496D01*
X7791304Y-18842227D01*
X7797265Y-18818429D01*
X7805530Y-18795329D01*
X7816020Y-18773151D01*
X7828633Y-18752107D01*
X7843247Y-18732402D01*
X7859723Y-18714223D01*
X7877902Y-18697747D01*
X7897607Y-18683133D01*
X7918651Y-18670520D01*
X7940829Y-18660030D01*
X7963929Y-18651765D01*
X7987727Y-18645804D01*
X8011996Y-18642204D01*
X8036500Y-18641000D01*
X8536500Y-18641000D01*
X8561004Y-18642204D01*
G37*
G36*
X-10299495Y-25995204D02*
G01*
X-10275227Y-25998804D01*
X-10251428Y-26004765D01*
X-10228329Y-26013030D01*
X-10206150Y-26023520D01*
X-10185107Y-26036132D01*
X-10165401Y-26050747D01*
X-10147223Y-26067223D01*
X-10130747Y-26085401D01*
X-10116132Y-26105107D01*
X-10103520Y-26126150D01*
X-10093030Y-26148329D01*
X-10084765Y-26171428D01*
X-10078804Y-26195227D01*
X-10075204Y-26219495D01*
X-10074000Y-26243999D01*
X-10074000Y-27544001D01*
X-10075204Y-27568505D01*
X-10078804Y-27592773D01*
X-10084765Y-27616572D01*
X-10093030Y-27639671D01*
X-10103520Y-27661850D01*
X-10116132Y-27682893D01*
X-10130747Y-27702599D01*
X-10147223Y-27720777D01*
X-10165401Y-27737253D01*
X-10185107Y-27751868D01*
X-10206150Y-27764480D01*
X-10228329Y-27774970D01*
X-10251428Y-27783235D01*
X-10275227Y-27789196D01*
X-10299495Y-27792796D01*
X-10323999Y-27794000D01*
X-11024001Y-27794000D01*
X-11048505Y-27792796D01*
X-11072773Y-27789196D01*
X-11096572Y-27783235D01*
X-11119671Y-27774970D01*
X-11141850Y-27764480D01*
X-11162893Y-27751868D01*
X-11182599Y-27737253D01*
X-11200777Y-27720777D01*
X-11217253Y-27702599D01*
X-11231868Y-27682893D01*
X-11244480Y-27661850D01*
X-11254970Y-27639671D01*
X-11263235Y-27616572D01*
X-11269196Y-27592773D01*
X-11272796Y-27568505D01*
X-11274000Y-27544001D01*
X-11274000Y-26243999D01*
X-11272796Y-26219495D01*
X-11269196Y-26195227D01*
X-11263235Y-26171428D01*
X-11254970Y-26148329D01*
X-11244480Y-26126150D01*
X-11231868Y-26105107D01*
X-11217253Y-26085401D01*
X-11200777Y-26067223D01*
X-11182599Y-26050747D01*
X-11162893Y-26036132D01*
X-11141850Y-26023520D01*
X-11119671Y-26013030D01*
X-11096572Y-26004765D01*
X-11072773Y-25998804D01*
X-11048505Y-25995204D01*
X-11024001Y-25994000D01*
X-10323999Y-25994000D01*
X-10299495Y-25995204D01*
G37*
G36*
X-4699495Y-25995204D02*
G01*
X-4675227Y-25998804D01*
X-4651428Y-26004765D01*
X-4628329Y-26013030D01*
X-4606150Y-26023520D01*
X-4585107Y-26036132D01*
X-4565401Y-26050747D01*
X-4547223Y-26067223D01*
X-4530747Y-26085401D01*
X-4516132Y-26105107D01*
X-4503520Y-26126150D01*
X-4493030Y-26148329D01*
X-4484765Y-26171428D01*
X-4478804Y-26195227D01*
X-4475204Y-26219495D01*
X-4474000Y-26243999D01*
X-4474000Y-27544001D01*
X-4475204Y-27568505D01*
X-4478804Y-27592773D01*
X-4484765Y-27616572D01*
X-4493030Y-27639671D01*
X-4503520Y-27661850D01*
X-4516132Y-27682893D01*
X-4530747Y-27702599D01*
X-4547223Y-27720777D01*
X-4565401Y-27737253D01*
X-4585107Y-27751868D01*
X-4606150Y-27764480D01*
X-4628329Y-27774970D01*
X-4651428Y-27783235D01*
X-4675227Y-27789196D01*
X-4699495Y-27792796D01*
X-4723999Y-27794000D01*
X-5424001Y-27794000D01*
X-5448505Y-27792796D01*
X-5472773Y-27789196D01*
X-5496572Y-27783235D01*
X-5519671Y-27774970D01*
X-5541850Y-27764480D01*
X-5562893Y-27751868D01*
X-5582599Y-27737253D01*
X-5600777Y-27720777D01*
X-5617253Y-27702599D01*
X-5631868Y-27682893D01*
X-5644480Y-27661850D01*
X-5654970Y-27639671D01*
X-5663235Y-27616572D01*
X-5669196Y-27592773D01*
X-5672796Y-27568505D01*
X-5674000Y-27544001D01*
X-5674000Y-26243999D01*
X-5672796Y-26219495D01*
X-5669196Y-26195227D01*
X-5663235Y-26171428D01*
X-5654970Y-26148329D01*
X-5644480Y-26126150D01*
X-5631868Y-26105107D01*
X-5617253Y-26085401D01*
X-5600777Y-26067223D01*
X-5582599Y-26050747D01*
X-5562893Y-26036132D01*
X-5541850Y-26023520D01*
X-5519671Y-26013030D01*
X-5496572Y-26004765D01*
X-5472773Y-25998804D01*
X-5448505Y-25995204D01*
X-5424001Y-25994000D01*
X-4723999Y-25994000D01*
X-4699495Y-25995204D01*
G37*
G36*
X-9209297Y-22244722D02*
G01*
X-9194736Y-22246882D01*
X-9180457Y-22250459D01*
X-9166597Y-22255418D01*
X-9153290Y-22261712D01*
X-9140664Y-22269280D01*
X-9128841Y-22278048D01*
X-9117934Y-22287934D01*
X-9108048Y-22298841D01*
X-9099280Y-22310664D01*
X-9091712Y-22323290D01*
X-9085418Y-22336597D01*
X-9080459Y-22350457D01*
X-9076882Y-22364736D01*
X-9074722Y-22379297D01*
X-9074000Y-22394000D01*
X-9074000Y-23644000D01*
X-9074722Y-23658703D01*
X-9076882Y-23673264D01*
X-9080459Y-23687543D01*
X-9085418Y-23701403D01*
X-9091712Y-23714710D01*
X-9099280Y-23727336D01*
X-9108048Y-23739159D01*
X-9117934Y-23750066D01*
X-9128841Y-23759952D01*
X-9140664Y-23768720D01*
X-9153290Y-23776288D01*
X-9166597Y-23782582D01*
X-9180457Y-23787541D01*
X-9194736Y-23791118D01*
X-9209297Y-23793278D01*
X-9224000Y-23794000D01*
X-9524000Y-23794000D01*
X-9538703Y-23793278D01*
X-9553264Y-23791118D01*
X-9567543Y-23787541D01*
X-9581403Y-23782582D01*
X-9594710Y-23776288D01*
X-9607336Y-23768720D01*
X-9619159Y-23759952D01*
X-9630066Y-23750066D01*
X-9639952Y-23739159D01*
X-9648720Y-23727336D01*
X-9656288Y-23714710D01*
X-9662582Y-23701403D01*
X-9667541Y-23687543D01*
X-9671118Y-23673264D01*
X-9673278Y-23658703D01*
X-9674000Y-23644000D01*
X-9674000Y-22394000D01*
X-9673278Y-22379297D01*
X-9671118Y-22364736D01*
X-9667541Y-22350457D01*
X-9662582Y-22336597D01*
X-9656288Y-22323290D01*
X-9648720Y-22310664D01*
X-9639952Y-22298841D01*
X-9630066Y-22287934D01*
X-9619159Y-22278048D01*
X-9607336Y-22269280D01*
X-9594710Y-22261712D01*
X-9581403Y-22255418D01*
X-9567543Y-22250459D01*
X-9553264Y-22246882D01*
X-9538703Y-22244722D01*
X-9524000Y-22244000D01*
X-9224000Y-22244000D01*
X-9209297Y-22244722D01*
G37*
G36*
X-8209297Y-22244722D02*
G01*
X-8194736Y-22246882D01*
X-8180457Y-22250459D01*
X-8166597Y-22255418D01*
X-8153290Y-22261712D01*
X-8140664Y-22269280D01*
X-8128841Y-22278048D01*
X-8117934Y-22287934D01*
X-8108048Y-22298841D01*
X-8099280Y-22310664D01*
X-8091712Y-22323290D01*
X-8085418Y-22336597D01*
X-8080459Y-22350457D01*
X-8076882Y-22364736D01*
X-8074722Y-22379297D01*
X-8074000Y-22394000D01*
X-8074000Y-23644000D01*
X-8074722Y-23658703D01*
X-8076882Y-23673264D01*
X-8080459Y-23687543D01*
X-8085418Y-23701403D01*
X-8091712Y-23714710D01*
X-8099280Y-23727336D01*
X-8108048Y-23739159D01*
X-8117934Y-23750066D01*
X-8128841Y-23759952D01*
X-8140664Y-23768720D01*
X-8153290Y-23776288D01*
X-8166597Y-23782582D01*
X-8180457Y-23787541D01*
X-8194736Y-23791118D01*
X-8209297Y-23793278D01*
X-8224000Y-23794000D01*
X-8524000Y-23794000D01*
X-8538703Y-23793278D01*
X-8553264Y-23791118D01*
X-8567543Y-23787541D01*
X-8581403Y-23782582D01*
X-8594710Y-23776288D01*
X-8607336Y-23768720D01*
X-8619159Y-23759952D01*
X-8630066Y-23750066D01*
X-8639952Y-23739159D01*
X-8648720Y-23727336D01*
X-8656288Y-23714710D01*
X-8662582Y-23701403D01*
X-8667541Y-23687543D01*
X-8671118Y-23673264D01*
X-8673278Y-23658703D01*
X-8674000Y-23644000D01*
X-8674000Y-22394000D01*
X-8673278Y-22379297D01*
X-8671118Y-22364736D01*
X-8667541Y-22350457D01*
X-8662582Y-22336597D01*
X-8656288Y-22323290D01*
X-8648720Y-22310664D01*
X-8639952Y-22298841D01*
X-8630066Y-22287934D01*
X-8619159Y-22278048D01*
X-8607336Y-22269280D01*
X-8594710Y-22261712D01*
X-8581403Y-22255418D01*
X-8567543Y-22250459D01*
X-8553264Y-22246882D01*
X-8538703Y-22244722D01*
X-8524000Y-22244000D01*
X-8224000Y-22244000D01*
X-8209297Y-22244722D01*
G37*
G36*
X-7209297Y-22244722D02*
G01*
X-7194736Y-22246882D01*
X-7180457Y-22250459D01*
X-7166597Y-22255418D01*
X-7153290Y-22261712D01*
X-7140664Y-22269280D01*
X-7128841Y-22278048D01*
X-7117934Y-22287934D01*
X-7108048Y-22298841D01*
X-7099280Y-22310664D01*
X-7091712Y-22323290D01*
X-7085418Y-22336597D01*
X-7080459Y-22350457D01*
X-7076882Y-22364736D01*
X-7074722Y-22379297D01*
X-7074000Y-22394000D01*
X-7074000Y-23644000D01*
X-7074722Y-23658703D01*
X-7076882Y-23673264D01*
X-7080459Y-23687543D01*
X-7085418Y-23701403D01*
X-7091712Y-23714710D01*
X-7099280Y-23727336D01*
X-7108048Y-23739159D01*
X-7117934Y-23750066D01*
X-7128841Y-23759952D01*
X-7140664Y-23768720D01*
X-7153290Y-23776288D01*
X-7166597Y-23782582D01*
X-7180457Y-23787541D01*
X-7194736Y-23791118D01*
X-7209297Y-23793278D01*
X-7224000Y-23794000D01*
X-7524000Y-23794000D01*
X-7538703Y-23793278D01*
X-7553264Y-23791118D01*
X-7567543Y-23787541D01*
X-7581403Y-23782582D01*
X-7594710Y-23776288D01*
X-7607336Y-23768720D01*
X-7619159Y-23759952D01*
X-7630066Y-23750066D01*
X-7639952Y-23739159D01*
X-7648720Y-23727336D01*
X-7656288Y-23714710D01*
X-7662582Y-23701403D01*
X-7667541Y-23687543D01*
X-7671118Y-23673264D01*
X-7673278Y-23658703D01*
X-7674000Y-23644000D01*
X-7674000Y-22394000D01*
X-7673278Y-22379297D01*
X-7671118Y-22364736D01*
X-7667541Y-22350457D01*
X-7662582Y-22336597D01*
X-7656288Y-22323290D01*
X-7648720Y-22310664D01*
X-7639952Y-22298841D01*
X-7630066Y-22287934D01*
X-7619159Y-22278048D01*
X-7607336Y-22269280D01*
X-7594710Y-22261712D01*
X-7581403Y-22255418D01*
X-7567543Y-22250459D01*
X-7553264Y-22246882D01*
X-7538703Y-22244722D01*
X-7524000Y-22244000D01*
X-7224000Y-22244000D01*
X-7209297Y-22244722D01*
G37*
G36*
X-6209297Y-22244722D02*
G01*
X-6194736Y-22246882D01*
X-6180457Y-22250459D01*
X-6166597Y-22255418D01*
X-6153290Y-22261712D01*
X-6140664Y-22269280D01*
X-6128841Y-22278048D01*
X-6117934Y-22287934D01*
X-6108048Y-22298841D01*
X-6099280Y-22310664D01*
X-6091712Y-22323290D01*
X-6085418Y-22336597D01*
X-6080459Y-22350457D01*
X-6076882Y-22364736D01*
X-6074722Y-22379297D01*
X-6074000Y-22394000D01*
X-6074000Y-23644000D01*
X-6074722Y-23658703D01*
X-6076882Y-23673264D01*
X-6080459Y-23687543D01*
X-6085418Y-23701403D01*
X-6091712Y-23714710D01*
X-6099280Y-23727336D01*
X-6108048Y-23739159D01*
X-6117934Y-23750066D01*
X-6128841Y-23759952D01*
X-6140664Y-23768720D01*
X-6153290Y-23776288D01*
X-6166597Y-23782582D01*
X-6180457Y-23787541D01*
X-6194736Y-23791118D01*
X-6209297Y-23793278D01*
X-6224000Y-23794000D01*
X-6524000Y-23794000D01*
X-6538703Y-23793278D01*
X-6553264Y-23791118D01*
X-6567543Y-23787541D01*
X-6581403Y-23782582D01*
X-6594710Y-23776288D01*
X-6607336Y-23768720D01*
X-6619159Y-23759952D01*
X-6630066Y-23750066D01*
X-6639952Y-23739159D01*
X-6648720Y-23727336D01*
X-6656288Y-23714710D01*
X-6662582Y-23701403D01*
X-6667541Y-23687543D01*
X-6671118Y-23673264D01*
X-6673278Y-23658703D01*
X-6674000Y-23644000D01*
X-6674000Y-22394000D01*
X-6673278Y-22379297D01*
X-6671118Y-22364736D01*
X-6667541Y-22350457D01*
X-6662582Y-22336597D01*
X-6656288Y-22323290D01*
X-6648720Y-22310664D01*
X-6639952Y-22298841D01*
X-6630066Y-22287934D01*
X-6619159Y-22278048D01*
X-6607336Y-22269280D01*
X-6594710Y-22261712D01*
X-6581403Y-22255418D01*
X-6567543Y-22250459D01*
X-6553264Y-22246882D01*
X-6538703Y-22244722D01*
X-6524000Y-22244000D01*
X-6224000Y-22244000D01*
X-6209297Y-22244722D01*
G37*
M02*
