G04 #@! TF.GenerationSoftware,KiCad,Pcbnew,5.1.5+dfsg1-2build2*
G04 #@! TF.CreationDate,2022-05-18T23:03:37-07:00*
G04 #@! TF.ProjectId,v3.0-Dev-Kit,76332e30-2d44-4657-962d-4b69742e6b69,rev?*
G04 #@! TF.SameCoordinates,Original*
G04 #@! TF.FileFunction,Soldermask,Top*
G04 #@! TF.FilePolarity,Negative*
%FSLAX46Y46*%
G04 Gerber Fmt 4.6, Leading zero omitted, Abs format (unit mm)*
G04 Created by KiCad (PCBNEW 5.1.5+dfsg1-2build2) date 2022-05-18 23:03:37*
%MOMM*%
%LPD*%
G04 APERTURE LIST*
%ADD10C,0.010000*%
%ADD11C,0.150000*%
G04 APERTURE END LIST*
D10*
G36*
X-20370800Y-19828261D02*
G01*
X-16402050Y-23654829D01*
X-12433300Y-27481398D01*
X12459680Y-27481400D01*
X16427940Y-23655249D01*
X20396199Y-19829098D01*
X20396200Y-17813249D01*
X20396200Y-15797400D01*
X21183600Y-15797400D01*
X21182541Y-18292950D01*
X21181483Y-20788500D01*
X20617391Y-21327049D01*
X20538866Y-21402217D01*
X20426051Y-21510506D01*
X20281198Y-21649744D01*
X20106559Y-21817763D01*
X19904385Y-22012392D01*
X19676929Y-22231460D01*
X19426440Y-22472798D01*
X19155172Y-22734235D01*
X18865376Y-23013603D01*
X18559303Y-23308729D01*
X18239205Y-23617445D01*
X17907333Y-23937580D01*
X17565939Y-24266964D01*
X17217275Y-24603428D01*
X16863592Y-24944800D01*
X16738600Y-25065458D01*
X13423900Y-28265318D01*
X-13398500Y-28265366D01*
X-21154134Y-20788500D01*
X-21158200Y-15797400D01*
X-20370800Y-15797400D01*
X-20370800Y-19828261D01*
G37*
X-20370800Y-19828261D02*
X-16402050Y-23654829D01*
X-12433300Y-27481398D01*
X12459680Y-27481400D01*
X16427940Y-23655249D01*
X20396199Y-19829098D01*
X20396200Y-17813249D01*
X20396200Y-15797400D01*
X21183600Y-15797400D01*
X21182541Y-18292950D01*
X21181483Y-20788500D01*
X20617391Y-21327049D01*
X20538866Y-21402217D01*
X20426051Y-21510506D01*
X20281198Y-21649744D01*
X20106559Y-21817763D01*
X19904385Y-22012392D01*
X19676929Y-22231460D01*
X19426440Y-22472798D01*
X19155172Y-22734235D01*
X18865376Y-23013603D01*
X18559303Y-23308729D01*
X18239205Y-23617445D01*
X17907333Y-23937580D01*
X17565939Y-24266964D01*
X17217275Y-24603428D01*
X16863592Y-24944800D01*
X16738600Y-25065458D01*
X13423900Y-28265318D01*
X-13398500Y-28265366D01*
X-21154134Y-20788500D01*
X-21158200Y-15797400D01*
X-20370800Y-15797400D01*
X-20370800Y-19828261D01*
G36*
X-9554631Y-24942407D02*
G01*
X-9495427Y-24945042D01*
X-9474200Y-24948543D01*
X-9482082Y-24977646D01*
X-9503677Y-25045677D01*
X-9535907Y-25143616D01*
X-9575695Y-25262446D01*
X-9619965Y-25393147D01*
X-9665639Y-25526702D01*
X-9709640Y-25654093D01*
X-9748892Y-25766301D01*
X-9780317Y-25854307D01*
X-9800838Y-25909094D01*
X-9806119Y-25921349D01*
X-9870904Y-25994524D01*
X-9965755Y-26040623D01*
X-10076046Y-26056722D01*
X-10187150Y-26039896D01*
X-10251932Y-26010496D01*
X-10315869Y-25952629D01*
X-10360778Y-25879570D01*
X-10361636Y-25877241D01*
X-10399146Y-25771124D01*
X-10442598Y-25645712D01*
X-10489064Y-25509751D01*
X-10535618Y-25371987D01*
X-10579331Y-25241167D01*
X-10617275Y-25126036D01*
X-10646523Y-25035341D01*
X-10664147Y-24977828D01*
X-10668000Y-24962023D01*
X-10644858Y-24951501D01*
X-10584180Y-24945954D01*
X-10499090Y-24946579D01*
X-10498874Y-24946589D01*
X-10329748Y-24954100D01*
X-10208725Y-25343731D01*
X-10167038Y-25476310D01*
X-10129978Y-25591107D01*
X-10100357Y-25679654D01*
X-10080985Y-25733483D01*
X-10075277Y-25745789D01*
X-10063936Y-25727078D01*
X-10040307Y-25667439D01*
X-10007126Y-25574471D01*
X-9967125Y-25455775D01*
X-9932819Y-25349807D01*
X-9802785Y-24941400D01*
X-9638493Y-24941400D01*
X-9554631Y-24942407D01*
G37*
X-9554631Y-24942407D02*
X-9495427Y-24945042D01*
X-9474200Y-24948543D01*
X-9482082Y-24977646D01*
X-9503677Y-25045677D01*
X-9535907Y-25143616D01*
X-9575695Y-25262446D01*
X-9619965Y-25393147D01*
X-9665639Y-25526702D01*
X-9709640Y-25654093D01*
X-9748892Y-25766301D01*
X-9780317Y-25854307D01*
X-9800838Y-25909094D01*
X-9806119Y-25921349D01*
X-9870904Y-25994524D01*
X-9965755Y-26040623D01*
X-10076046Y-26056722D01*
X-10187150Y-26039896D01*
X-10251932Y-26010496D01*
X-10315869Y-25952629D01*
X-10360778Y-25879570D01*
X-10361636Y-25877241D01*
X-10399146Y-25771124D01*
X-10442598Y-25645712D01*
X-10489064Y-25509751D01*
X-10535618Y-25371987D01*
X-10579331Y-25241167D01*
X-10617275Y-25126036D01*
X-10646523Y-25035341D01*
X-10664147Y-24977828D01*
X-10668000Y-24962023D01*
X-10644858Y-24951501D01*
X-10584180Y-24945954D01*
X-10499090Y-24946579D01*
X-10498874Y-24946589D01*
X-10329748Y-24954100D01*
X-10208725Y-25343731D01*
X-10167038Y-25476310D01*
X-10129978Y-25591107D01*
X-10100357Y-25679654D01*
X-10080985Y-25733483D01*
X-10075277Y-25745789D01*
X-10063936Y-25727078D01*
X-10040307Y-25667439D01*
X-10007126Y-25574471D01*
X-9967125Y-25455775D01*
X-9932819Y-25349807D01*
X-9802785Y-24941400D01*
X-9638493Y-24941400D01*
X-9554631Y-24942407D01*
G36*
X-4408422Y-25430350D02*
G01*
X-4473678Y-25622323D01*
X-4528476Y-25770998D01*
X-4576642Y-25881824D01*
X-4622004Y-25960252D01*
X-4668390Y-26011732D01*
X-4719626Y-26041717D01*
X-4779541Y-26055655D01*
X-4849852Y-26059000D01*
X-4945471Y-26050619D01*
X-5016968Y-26020224D01*
X-5050764Y-25994830D01*
X-5080848Y-25964022D01*
X-5110105Y-25919950D01*
X-5141625Y-25855551D01*
X-5178494Y-25763765D01*
X-5223801Y-25637534D01*
X-5280635Y-25469795D01*
X-5281313Y-25467762D01*
X-5329422Y-25321835D01*
X-5371407Y-25191446D01*
X-5404764Y-25084625D01*
X-5426988Y-25009402D01*
X-5435574Y-24973806D01*
X-5435600Y-24973132D01*
X-5415452Y-24953924D01*
X-5352284Y-24943679D01*
X-5272212Y-24941400D01*
X-5180071Y-24943887D01*
X-5127057Y-24953286D01*
X-5101657Y-24972499D01*
X-5095953Y-24985850D01*
X-5061553Y-25101855D01*
X-5022184Y-25230174D01*
X-4980892Y-25361404D01*
X-4940722Y-25486141D01*
X-4904721Y-25594982D01*
X-4875934Y-25678524D01*
X-4857407Y-25727364D01*
X-4853060Y-25735712D01*
X-4840135Y-25719367D01*
X-4815659Y-25661757D01*
X-4782388Y-25570364D01*
X-4743080Y-25452666D01*
X-4710293Y-25348362D01*
X-4585550Y-24941400D01*
X-4245557Y-24941400D01*
X-4408422Y-25430350D01*
G37*
X-4408422Y-25430350D02*
X-4473678Y-25622323D01*
X-4528476Y-25770998D01*
X-4576642Y-25881824D01*
X-4622004Y-25960252D01*
X-4668390Y-26011732D01*
X-4719626Y-26041717D01*
X-4779541Y-26055655D01*
X-4849852Y-26059000D01*
X-4945471Y-26050619D01*
X-5016968Y-26020224D01*
X-5050764Y-25994830D01*
X-5080848Y-25964022D01*
X-5110105Y-25919950D01*
X-5141625Y-25855551D01*
X-5178494Y-25763765D01*
X-5223801Y-25637534D01*
X-5280635Y-25469795D01*
X-5281313Y-25467762D01*
X-5329422Y-25321835D01*
X-5371407Y-25191446D01*
X-5404764Y-25084625D01*
X-5426988Y-25009402D01*
X-5435574Y-24973806D01*
X-5435600Y-24973132D01*
X-5415452Y-24953924D01*
X-5352284Y-24943679D01*
X-5272212Y-24941400D01*
X-5180071Y-24943887D01*
X-5127057Y-24953286D01*
X-5101657Y-24972499D01*
X-5095953Y-24985850D01*
X-5061553Y-25101855D01*
X-5022184Y-25230174D01*
X-4980892Y-25361404D01*
X-4940722Y-25486141D01*
X-4904721Y-25594982D01*
X-4875934Y-25678524D01*
X-4857407Y-25727364D01*
X-4853060Y-25735712D01*
X-4840135Y-25719367D01*
X-4815659Y-25661757D01*
X-4782388Y-25570364D01*
X-4743080Y-25452666D01*
X-4710293Y-25348362D01*
X-4585550Y-24941400D01*
X-4245557Y-24941400D01*
X-4408422Y-25430350D01*
G36*
X-2656218Y-25674727D02*
G01*
X-2585686Y-25737484D01*
X-2548907Y-25834883D01*
X-2545373Y-25907342D01*
X-2570002Y-25961169D01*
X-2599325Y-25993633D01*
X-2677648Y-26043112D01*
X-2769190Y-26059823D01*
X-2853980Y-26041348D01*
X-2876902Y-26027250D01*
X-2923138Y-25970335D01*
X-2953071Y-25894204D01*
X-2957766Y-25823657D01*
X-2954603Y-25811570D01*
X-2902970Y-25725536D01*
X-2826272Y-25668903D01*
X-2754287Y-25652600D01*
X-2656218Y-25674727D01*
G37*
X-2656218Y-25674727D02*
X-2585686Y-25737484D01*
X-2548907Y-25834883D01*
X-2545373Y-25907342D01*
X-2570002Y-25961169D01*
X-2599325Y-25993633D01*
X-2677648Y-26043112D01*
X-2769190Y-26059823D01*
X-2853980Y-26041348D01*
X-2876902Y-26027250D01*
X-2923138Y-25970335D01*
X-2953071Y-25894204D01*
X-2957766Y-25823657D01*
X-2954603Y-25811570D01*
X-2902970Y-25725536D01*
X-2826272Y-25668903D01*
X-2754287Y-25652600D01*
X-2656218Y-25674727D01*
G36*
X-1674447Y-24520773D02*
G01*
X-1522106Y-24568936D01*
X-1412770Y-24640526D01*
X-1340814Y-24707909D01*
X-1288757Y-24779530D01*
X-1253612Y-24865002D01*
X-1232393Y-24973942D01*
X-1222115Y-25115965D01*
X-1219758Y-25262075D01*
X-1220725Y-25394536D01*
X-1223767Y-25515109D01*
X-1228423Y-25611236D01*
X-1234234Y-25670359D01*
X-1234850Y-25673699D01*
X-1270763Y-25759433D01*
X-1338858Y-25852825D01*
X-1425826Y-25938926D01*
X-1518355Y-26002788D01*
X-1535283Y-26011092D01*
X-1660450Y-26046990D01*
X-1806096Y-26057248D01*
X-1949157Y-26041842D01*
X-2044918Y-26011629D01*
X-2157133Y-25939382D01*
X-2254304Y-25838054D01*
X-2321619Y-25724306D01*
X-2335273Y-25685044D01*
X-2347849Y-25609530D01*
X-2356291Y-25498090D01*
X-2360576Y-25365259D01*
X-2360622Y-25305396D01*
X-2033551Y-25305396D01*
X-2030567Y-25429999D01*
X-2021885Y-25539590D01*
X-2007401Y-25621059D01*
X-1996555Y-25649804D01*
X-1928533Y-25725979D01*
X-1838286Y-25765365D01*
X-1740106Y-25766483D01*
X-1648287Y-25727853D01*
X-1606550Y-25690141D01*
X-1583272Y-25659873D01*
X-1567328Y-25625662D01*
X-1557346Y-25577779D01*
X-1551949Y-25506493D01*
X-1549762Y-25402074D01*
X-1549400Y-25285697D01*
X-1550375Y-25142931D01*
X-1553988Y-25041790D01*
X-1561276Y-24973123D01*
X-1573275Y-24927779D01*
X-1591021Y-24896608D01*
X-1593850Y-24893063D01*
X-1673216Y-24832714D01*
X-1769810Y-24811047D01*
X-1869085Y-24827108D01*
X-1956493Y-24879944D01*
X-1990642Y-24919055D01*
X-2009384Y-24972610D01*
X-2022853Y-25063591D01*
X-2030945Y-25178890D01*
X-2033551Y-25305396D01*
X-2360622Y-25305396D01*
X-2360684Y-25225571D01*
X-2356593Y-25093559D01*
X-2348283Y-24983759D01*
X-2336393Y-24913012D01*
X-2270355Y-24763801D01*
X-2166386Y-24645792D01*
X-2029495Y-24563039D01*
X-1864689Y-24519594D01*
X-1848002Y-24517683D01*
X-1674447Y-24520773D01*
G37*
X-1674447Y-24520773D02*
X-1522106Y-24568936D01*
X-1412770Y-24640526D01*
X-1340814Y-24707909D01*
X-1288757Y-24779530D01*
X-1253612Y-24865002D01*
X-1232393Y-24973942D01*
X-1222115Y-25115965D01*
X-1219758Y-25262075D01*
X-1220725Y-25394536D01*
X-1223767Y-25515109D01*
X-1228423Y-25611236D01*
X-1234234Y-25670359D01*
X-1234850Y-25673699D01*
X-1270763Y-25759433D01*
X-1338858Y-25852825D01*
X-1425826Y-25938926D01*
X-1518355Y-26002788D01*
X-1535283Y-26011092D01*
X-1660450Y-26046990D01*
X-1806096Y-26057248D01*
X-1949157Y-26041842D01*
X-2044918Y-26011629D01*
X-2157133Y-25939382D01*
X-2254304Y-25838054D01*
X-2321619Y-25724306D01*
X-2335273Y-25685044D01*
X-2347849Y-25609530D01*
X-2356291Y-25498090D01*
X-2360576Y-25365259D01*
X-2360622Y-25305396D01*
X-2033551Y-25305396D01*
X-2030567Y-25429999D01*
X-2021885Y-25539590D01*
X-2007401Y-25621059D01*
X-1996555Y-25649804D01*
X-1928533Y-25725979D01*
X-1838286Y-25765365D01*
X-1740106Y-25766483D01*
X-1648287Y-25727853D01*
X-1606550Y-25690141D01*
X-1583272Y-25659873D01*
X-1567328Y-25625662D01*
X-1557346Y-25577779D01*
X-1551949Y-25506493D01*
X-1549762Y-25402074D01*
X-1549400Y-25285697D01*
X-1550375Y-25142931D01*
X-1553988Y-25041790D01*
X-1561276Y-24973123D01*
X-1573275Y-24927779D01*
X-1591021Y-24896608D01*
X-1593850Y-24893063D01*
X-1673216Y-24832714D01*
X-1769810Y-24811047D01*
X-1869085Y-24827108D01*
X-1956493Y-24879944D01*
X-1990642Y-24919055D01*
X-2009384Y-24972610D01*
X-2022853Y-25063591D01*
X-2030945Y-25178890D01*
X-2033551Y-25305396D01*
X-2360622Y-25305396D01*
X-2360684Y-25225571D01*
X-2356593Y-25093559D01*
X-2348283Y-24983759D01*
X-2336393Y-24913012D01*
X-2270355Y-24763801D01*
X-2166386Y-24645792D01*
X-2029495Y-24563039D01*
X-1864689Y-24519594D01*
X-1848002Y-24517683D01*
X-1674447Y-24520773D01*
G36*
X-12833350Y-24539458D02*
G01*
X-12640892Y-24547746D01*
X-12489557Y-24563825D01*
X-12369935Y-24590297D01*
X-12272613Y-24629764D01*
X-12188180Y-24684827D01*
X-12132584Y-24733211D01*
X-12030979Y-24849294D01*
X-11964642Y-24976429D01*
X-11927947Y-25128015D01*
X-11917337Y-25245755D01*
X-11920874Y-25427241D01*
X-11953800Y-25576247D01*
X-12020662Y-25704608D01*
X-12126010Y-25824157D01*
X-12147118Y-25843596D01*
X-12233500Y-25913066D01*
X-12322100Y-25963945D01*
X-12422808Y-25998832D01*
X-12545515Y-26020329D01*
X-12700113Y-26031036D01*
X-12869711Y-26033600D01*
X-13208000Y-26033600D01*
X-13208000Y-25761025D01*
X-12877800Y-25761025D01*
X-12700028Y-25748306D01*
X-12577894Y-25733301D01*
X-12486649Y-25705275D01*
X-12424597Y-25670959D01*
X-12322417Y-25574546D01*
X-12260580Y-25447341D01*
X-12239188Y-25289559D01*
X-12239172Y-25284708D01*
X-12249214Y-25161227D01*
X-12284558Y-25064036D01*
X-12353028Y-24971726D01*
X-12353925Y-24970736D01*
X-12430569Y-24903728D01*
X-12524288Y-24859363D01*
X-12648821Y-24831995D01*
X-12709422Y-24824635D01*
X-12877800Y-24807384D01*
X-12877800Y-25761025D01*
X-13208000Y-25761025D01*
X-13208000Y-24530340D01*
X-12833350Y-24539458D01*
G37*
X-12833350Y-24539458D02*
X-12640892Y-24547746D01*
X-12489557Y-24563825D01*
X-12369935Y-24590297D01*
X-12272613Y-24629764D01*
X-12188180Y-24684827D01*
X-12132584Y-24733211D01*
X-12030979Y-24849294D01*
X-11964642Y-24976429D01*
X-11927947Y-25128015D01*
X-11917337Y-25245755D01*
X-11920874Y-25427241D01*
X-11953800Y-25576247D01*
X-12020662Y-25704608D01*
X-12126010Y-25824157D01*
X-12147118Y-25843596D01*
X-12233500Y-25913066D01*
X-12322100Y-25963945D01*
X-12422808Y-25998832D01*
X-12545515Y-26020329D01*
X-12700113Y-26031036D01*
X-12869711Y-26033600D01*
X-13208000Y-26033600D01*
X-13208000Y-25761025D01*
X-12877800Y-25761025D01*
X-12700028Y-25748306D01*
X-12577894Y-25733301D01*
X-12486649Y-25705275D01*
X-12424597Y-25670959D01*
X-12322417Y-25574546D01*
X-12260580Y-25447341D01*
X-12239188Y-25289559D01*
X-12239172Y-25284708D01*
X-12249214Y-25161227D01*
X-12284558Y-25064036D01*
X-12353028Y-24971726D01*
X-12353925Y-24970736D01*
X-12430569Y-24903728D01*
X-12524288Y-24859363D01*
X-12648821Y-24831995D01*
X-12709422Y-24824635D01*
X-12877800Y-24807384D01*
X-12877800Y-25761025D01*
X-13208000Y-25761025D01*
X-13208000Y-24530340D01*
X-12833350Y-24539458D01*
G36*
X-11065108Y-24938444D02*
G01*
X-10932722Y-25002934D01*
X-10828857Y-25105205D01*
X-10757332Y-25240993D01*
X-10721967Y-25406034D01*
X-10718800Y-25477993D01*
X-10718800Y-25601800D01*
X-11076517Y-25601800D01*
X-11227833Y-25602820D01*
X-11332684Y-25607065D01*
X-11395388Y-25616307D01*
X-11420259Y-25632320D01*
X-11411614Y-25656878D01*
X-11373767Y-25691755D01*
X-11346434Y-25712727D01*
X-11293769Y-25741210D01*
X-11219303Y-25759968D01*
X-11110750Y-25771673D01*
X-11062285Y-25774607D01*
X-10845800Y-25785970D01*
X-10845800Y-26033600D01*
X-11093450Y-26031667D01*
X-11210863Y-26027737D01*
X-11318121Y-26018824D01*
X-11398912Y-26006507D01*
X-11423933Y-25999694D01*
X-11565926Y-25923352D01*
X-11675385Y-25813910D01*
X-11749182Y-25679690D01*
X-11784195Y-25529014D01*
X-11777297Y-25370203D01*
X-11769323Y-25345846D01*
X-11455400Y-25345846D01*
X-11430936Y-25360678D01*
X-11360824Y-25370016D01*
X-11252200Y-25373200D01*
X-11150783Y-25372066D01*
X-11089984Y-25367033D01*
X-11059646Y-25355653D01*
X-11049608Y-25335479D01*
X-11049000Y-25324243D01*
X-11070811Y-25270104D01*
X-11124763Y-25217516D01*
X-11193639Y-25180037D01*
X-11244880Y-25170000D01*
X-11297679Y-25186807D01*
X-11360661Y-25228114D01*
X-11417455Y-25280243D01*
X-11451688Y-25329521D01*
X-11455400Y-25345846D01*
X-11769323Y-25345846D01*
X-11725363Y-25211578D01*
X-11722272Y-25205290D01*
X-11632172Y-25072042D01*
X-11514377Y-24980318D01*
X-11366802Y-24928913D01*
X-11222194Y-24916000D01*
X-11065108Y-24938444D01*
G37*
X-11065108Y-24938444D02*
X-10932722Y-25002934D01*
X-10828857Y-25105205D01*
X-10757332Y-25240993D01*
X-10721967Y-25406034D01*
X-10718800Y-25477993D01*
X-10718800Y-25601800D01*
X-11076517Y-25601800D01*
X-11227833Y-25602820D01*
X-11332684Y-25607065D01*
X-11395388Y-25616307D01*
X-11420259Y-25632320D01*
X-11411614Y-25656878D01*
X-11373767Y-25691755D01*
X-11346434Y-25712727D01*
X-11293769Y-25741210D01*
X-11219303Y-25759968D01*
X-11110750Y-25771673D01*
X-11062285Y-25774607D01*
X-10845800Y-25785970D01*
X-10845800Y-26033600D01*
X-11093450Y-26031667D01*
X-11210863Y-26027737D01*
X-11318121Y-26018824D01*
X-11398912Y-26006507D01*
X-11423933Y-25999694D01*
X-11565926Y-25923352D01*
X-11675385Y-25813910D01*
X-11749182Y-25679690D01*
X-11784195Y-25529014D01*
X-11777297Y-25370203D01*
X-11769323Y-25345846D01*
X-11455400Y-25345846D01*
X-11430936Y-25360678D01*
X-11360824Y-25370016D01*
X-11252200Y-25373200D01*
X-11150783Y-25372066D01*
X-11089984Y-25367033D01*
X-11059646Y-25355653D01*
X-11049608Y-25335479D01*
X-11049000Y-25324243D01*
X-11070811Y-25270104D01*
X-11124763Y-25217516D01*
X-11193639Y-25180037D01*
X-11244880Y-25170000D01*
X-11297679Y-25186807D01*
X-11360661Y-25228114D01*
X-11417455Y-25280243D01*
X-11451688Y-25329521D01*
X-11455400Y-25345846D01*
X-11769323Y-25345846D01*
X-11725363Y-25211578D01*
X-11722272Y-25205290D01*
X-11632172Y-25072042D01*
X-11514377Y-24980318D01*
X-11366802Y-24928913D01*
X-11222194Y-24916000D01*
X-11065108Y-24938444D01*
G36*
X-8432800Y-25144600D02*
G01*
X-8253047Y-25144600D01*
X-8155738Y-25142713D01*
X-8092845Y-25133871D01*
X-8048028Y-25113297D01*
X-8004951Y-25076215D01*
X-7999047Y-25070353D01*
X-7963776Y-25032259D01*
X-7941912Y-24995309D01*
X-7930257Y-24946386D01*
X-7925619Y-24872376D01*
X-7924800Y-24765553D01*
X-7924800Y-24535000D01*
X-7594600Y-24535000D01*
X-7595158Y-24782650D01*
X-7602840Y-24955075D01*
X-7627141Y-25088228D01*
X-7671262Y-25191828D01*
X-7738405Y-25275599D01*
X-7765517Y-25300010D01*
X-7842063Y-25364419D01*
X-7752856Y-25559309D01*
X-7708685Y-25653988D01*
X-7676720Y-25711621D01*
X-7648127Y-25741405D01*
X-7614074Y-25752533D01*
X-7565727Y-25754199D01*
X-7565625Y-25754200D01*
X-7467600Y-25754200D01*
X-7467600Y-26033600D01*
X-7639749Y-26033600D01*
X-7770775Y-26025690D01*
X-7855428Y-26001735D01*
X-7869106Y-25993529D01*
X-7903669Y-25954915D01*
X-7952604Y-25881673D01*
X-8008751Y-25785186D01*
X-8052789Y-25701429D01*
X-8179264Y-25449400D01*
X-8432800Y-25449400D01*
X-8432800Y-26033600D01*
X-8763000Y-26033600D01*
X-8763000Y-24535000D01*
X-8432800Y-24535000D01*
X-8432800Y-25144600D01*
G37*
X-8432800Y-25144600D02*
X-8253047Y-25144600D01*
X-8155738Y-25142713D01*
X-8092845Y-25133871D01*
X-8048028Y-25113297D01*
X-8004951Y-25076215D01*
X-7999047Y-25070353D01*
X-7963776Y-25032259D01*
X-7941912Y-24995309D01*
X-7930257Y-24946386D01*
X-7925619Y-24872376D01*
X-7924800Y-24765553D01*
X-7924800Y-24535000D01*
X-7594600Y-24535000D01*
X-7595158Y-24782650D01*
X-7602840Y-24955075D01*
X-7627141Y-25088228D01*
X-7671262Y-25191828D01*
X-7738405Y-25275599D01*
X-7765517Y-25300010D01*
X-7842063Y-25364419D01*
X-7752856Y-25559309D01*
X-7708685Y-25653988D01*
X-7676720Y-25711621D01*
X-7648127Y-25741405D01*
X-7614074Y-25752533D01*
X-7565727Y-25754199D01*
X-7565625Y-25754200D01*
X-7467600Y-25754200D01*
X-7467600Y-26033600D01*
X-7639749Y-26033600D01*
X-7770775Y-26025690D01*
X-7855428Y-26001735D01*
X-7869106Y-25993529D01*
X-7903669Y-25954915D01*
X-7952604Y-25881673D01*
X-8008751Y-25785186D01*
X-8052789Y-25701429D01*
X-8179264Y-25449400D01*
X-8432800Y-25449400D01*
X-8432800Y-26033600D01*
X-8763000Y-26033600D01*
X-8763000Y-24535000D01*
X-8432800Y-24535000D01*
X-8432800Y-25144600D01*
G36*
X-7035800Y-26033600D02*
G01*
X-7340600Y-26033600D01*
X-7340600Y-24941400D01*
X-7035800Y-24941400D01*
X-7035800Y-26033600D01*
G37*
X-7035800Y-26033600D02*
X-7340600Y-26033600D01*
X-7340600Y-24941400D01*
X-7035800Y-24941400D01*
X-7035800Y-26033600D01*
G36*
X-6400800Y-24941400D02*
G01*
X-6096000Y-24941400D01*
X-6096000Y-25220800D01*
X-6400800Y-25220800D01*
X-6400800Y-25469720D01*
X-6397453Y-25605242D01*
X-6387720Y-25699126D01*
X-6372064Y-25747134D01*
X-6370320Y-25749120D01*
X-6328167Y-25767237D01*
X-6256384Y-25778155D01*
X-6217920Y-25779600D01*
X-6096000Y-25779600D01*
X-6096000Y-26033600D01*
X-6311500Y-26033600D01*
X-6418699Y-26032369D01*
X-6489538Y-26026292D01*
X-6538440Y-26011789D01*
X-6579827Y-25985282D01*
X-6609950Y-25959546D01*
X-6692900Y-25885493D01*
X-6701269Y-25553146D01*
X-6709638Y-25220800D01*
X-6883400Y-25220800D01*
X-6883400Y-24941400D01*
X-6705600Y-24941400D01*
X-6705600Y-24662000D01*
X-6400800Y-24662000D01*
X-6400800Y-24941400D01*
G37*
X-6400800Y-24941400D02*
X-6096000Y-24941400D01*
X-6096000Y-25220800D01*
X-6400800Y-25220800D01*
X-6400800Y-25469720D01*
X-6397453Y-25605242D01*
X-6387720Y-25699126D01*
X-6372064Y-25747134D01*
X-6370320Y-25749120D01*
X-6328167Y-25767237D01*
X-6256384Y-25778155D01*
X-6217920Y-25779600D01*
X-6096000Y-25779600D01*
X-6096000Y-26033600D01*
X-6311500Y-26033600D01*
X-6418699Y-26032369D01*
X-6489538Y-26026292D01*
X-6538440Y-26011789D01*
X-6579827Y-25985282D01*
X-6609950Y-25959546D01*
X-6692900Y-25885493D01*
X-6701269Y-25553146D01*
X-6709638Y-25220800D01*
X-6883400Y-25220800D01*
X-6883400Y-24941400D01*
X-6705600Y-24941400D01*
X-6705600Y-24662000D01*
X-6400800Y-24662000D01*
X-6400800Y-24941400D01*
G36*
X-3816350Y-24535557D02*
G01*
X-3636940Y-24539880D01*
X-3499298Y-24553874D01*
X-3394891Y-24580126D01*
X-3315182Y-24621225D01*
X-3251638Y-24679758D01*
X-3224156Y-24715109D01*
X-3173046Y-24822463D01*
X-3151020Y-24948412D01*
X-3158791Y-25074377D01*
X-3197075Y-25181781D01*
X-3205669Y-25195400D01*
X-3266187Y-25284300D01*
X-3205604Y-25373200D01*
X-3161202Y-25478842D01*
X-3149441Y-25604692D01*
X-3169365Y-25732853D01*
X-3220018Y-25845430D01*
X-3231726Y-25861876D01*
X-3287875Y-25926358D01*
X-3348990Y-25972779D01*
X-3424413Y-26003924D01*
X-3523487Y-26022580D01*
X-3655553Y-26031534D01*
X-3807489Y-26033600D01*
X-4140200Y-26033600D01*
X-4140200Y-25754200D01*
X-3863614Y-25754200D01*
X-3710328Y-25750235D01*
X-3601039Y-25736603D01*
X-3529438Y-25710699D01*
X-3489216Y-25669917D01*
X-3474063Y-25611652D01*
X-3473450Y-25593073D01*
X-3481957Y-25523293D01*
X-3512164Y-25474987D01*
X-3571099Y-25444666D01*
X-3665790Y-25428839D01*
X-3803268Y-25424015D01*
X-3813937Y-25424000D01*
X-4064000Y-25424000D01*
X-4064000Y-25119200D01*
X-3800411Y-25119200D01*
X-3665227Y-25116841D01*
X-3572867Y-25107492D01*
X-3515478Y-25087741D01*
X-3485211Y-25054179D01*
X-3474213Y-25003393D01*
X-3473450Y-24977153D01*
X-3480151Y-24918940D01*
X-3505010Y-24877326D01*
X-3555160Y-24849298D01*
X-3637736Y-24831843D01*
X-3759873Y-24821948D01*
X-3848940Y-24818564D01*
X-4140200Y-24810028D01*
X-4140200Y-24535000D01*
X-3816350Y-24535557D01*
G37*
X-3816350Y-24535557D02*
X-3636940Y-24539880D01*
X-3499298Y-24553874D01*
X-3394891Y-24580126D01*
X-3315182Y-24621225D01*
X-3251638Y-24679758D01*
X-3224156Y-24715109D01*
X-3173046Y-24822463D01*
X-3151020Y-24948412D01*
X-3158791Y-25074377D01*
X-3197075Y-25181781D01*
X-3205669Y-25195400D01*
X-3266187Y-25284300D01*
X-3205604Y-25373200D01*
X-3161202Y-25478842D01*
X-3149441Y-25604692D01*
X-3169365Y-25732853D01*
X-3220018Y-25845430D01*
X-3231726Y-25861876D01*
X-3287875Y-25926358D01*
X-3348990Y-25972779D01*
X-3424413Y-26003924D01*
X-3523487Y-26022580D01*
X-3655553Y-26031534D01*
X-3807489Y-26033600D01*
X-4140200Y-26033600D01*
X-4140200Y-25754200D01*
X-3863614Y-25754200D01*
X-3710328Y-25750235D01*
X-3601039Y-25736603D01*
X-3529438Y-25710699D01*
X-3489216Y-25669917D01*
X-3474063Y-25611652D01*
X-3473450Y-25593073D01*
X-3481957Y-25523293D01*
X-3512164Y-25474987D01*
X-3571099Y-25444666D01*
X-3665790Y-25428839D01*
X-3803268Y-25424015D01*
X-3813937Y-25424000D01*
X-4064000Y-25424000D01*
X-4064000Y-25119200D01*
X-3800411Y-25119200D01*
X-3665227Y-25116841D01*
X-3572867Y-25107492D01*
X-3515478Y-25087741D01*
X-3485211Y-25054179D01*
X-3474213Y-25003393D01*
X-3473450Y-24977153D01*
X-3480151Y-24918940D01*
X-3505010Y-24877326D01*
X-3555160Y-24849298D01*
X-3637736Y-24831843D01*
X-3759873Y-24821948D01*
X-3848940Y-24818564D01*
X-4140200Y-24810028D01*
X-4140200Y-24535000D01*
X-3816350Y-24535557D01*
G36*
X-7137233Y-24455905D02*
G01*
X-7058888Y-24504125D01*
X-7044481Y-24519483D01*
X-7004497Y-24575238D01*
X-6985296Y-24620237D01*
X-6985000Y-24624121D01*
X-7005461Y-24704632D01*
X-7056322Y-24777597D01*
X-7103297Y-24811599D01*
X-7177890Y-24836529D01*
X-7237756Y-24827248D01*
X-7299075Y-24787156D01*
X-7348577Y-24731786D01*
X-7365549Y-24658736D01*
X-7366000Y-24638693D01*
X-7345662Y-24545603D01*
X-7292701Y-24481123D01*
X-7219198Y-24449730D01*
X-7137233Y-24455905D01*
G37*
X-7137233Y-24455905D02*
X-7058888Y-24504125D01*
X-7044481Y-24519483D01*
X-7004497Y-24575238D01*
X-6985296Y-24620237D01*
X-6985000Y-24624121D01*
X-7005461Y-24704632D01*
X-7056322Y-24777597D01*
X-7103297Y-24811599D01*
X-7177890Y-24836529D01*
X-7237756Y-24827248D01*
X-7299075Y-24787156D01*
X-7348577Y-24731786D01*
X-7365549Y-24658736D01*
X-7366000Y-24638693D01*
X-7345662Y-24545603D01*
X-7292701Y-24481123D01*
X-7219198Y-24449730D01*
X-7137233Y-24455905D01*
G36*
X-19100800Y-15086200D02*
G01*
X-21158200Y-15086200D01*
X-21158200Y-13740000D01*
X-19100800Y-13740000D01*
X-19100800Y-15086200D01*
G37*
X-19100800Y-15086200D02*
X-21158200Y-15086200D01*
X-21158200Y-13740000D01*
X-19100800Y-13740000D01*
X-19100800Y-15086200D01*
G36*
X20904200Y-15086200D02*
G01*
X18770600Y-15086200D01*
X18770600Y-13740000D01*
X20904200Y-13740000D01*
X20904200Y-15086200D01*
G37*
X20904200Y-15086200D02*
X18770600Y-15086200D01*
X18770600Y-13740000D01*
X20904200Y-13740000D01*
X20904200Y-15086200D01*
G36*
X-19100800Y-12546200D02*
G01*
X-21158200Y-12546200D01*
X-21158200Y-11200000D01*
X-19100800Y-11200000D01*
X-19100800Y-12546200D01*
G37*
X-19100800Y-12546200D02*
X-21158200Y-12546200D01*
X-21158200Y-11200000D01*
X-19100800Y-11200000D01*
X-19100800Y-12546200D01*
G36*
X20904200Y-12546200D02*
G01*
X18770600Y-12546200D01*
X18770600Y-11200000D01*
X20904200Y-11200000D01*
X20904200Y-12546200D01*
G37*
X20904200Y-12546200D02*
X18770600Y-12546200D01*
X18770600Y-11200000D01*
X20904200Y-11200000D01*
X20904200Y-12546200D01*
G36*
X-19100800Y-10006200D02*
G01*
X-21158200Y-10006200D01*
X-21158200Y-8660000D01*
X-19100800Y-8660000D01*
X-19100800Y-10006200D01*
G37*
X-19100800Y-10006200D02*
X-21158200Y-10006200D01*
X-21158200Y-8660000D01*
X-19100800Y-8660000D01*
X-19100800Y-10006200D01*
G36*
X20904200Y-10006200D02*
G01*
X18770600Y-10006200D01*
X18770600Y-8660000D01*
X20904200Y-8660000D01*
X20904200Y-10006200D01*
G37*
X20904200Y-10006200D02*
X18770600Y-10006200D01*
X18770600Y-8660000D01*
X20904200Y-8660000D01*
X20904200Y-10006200D01*
G36*
X13763439Y31242382D02*
G01*
X14287500Y31241364D01*
X16890444Y27286332D01*
X17172689Y26857502D01*
X17455989Y26427119D01*
X17738313Y25998265D01*
X18017635Y25574019D01*
X18291923Y25157462D01*
X18559151Y24751673D01*
X18817288Y24359732D01*
X19064306Y23984721D01*
X19298175Y23629718D01*
X19516868Y23297804D01*
X19718355Y22992059D01*
X19900608Y22715564D01*
X20061597Y22471398D01*
X20199293Y22262641D01*
X20311668Y22092374D01*
X20338494Y22051750D01*
X21183600Y20772200D01*
X21183600Y-7999600D01*
X20396200Y-7999600D01*
X20396199Y5864284D01*
X20396199Y19728167D01*
X20197711Y20031134D01*
X20094326Y20188808D01*
X19969843Y20378439D01*
X19825754Y20597762D01*
X19663553Y20844510D01*
X19484733Y21116419D01*
X19290788Y21411223D01*
X19083211Y21726655D01*
X18863496Y22060452D01*
X18633135Y22410346D01*
X18393623Y22774073D01*
X18146453Y23149366D01*
X17893118Y23533962D01*
X17635112Y23925592D01*
X17373927Y24321994D01*
X17111058Y24720900D01*
X16847998Y25120045D01*
X16586239Y25517164D01*
X16327277Y25909990D01*
X16072603Y26296260D01*
X15823712Y26673706D01*
X15582097Y27040063D01*
X15349251Y27393067D01*
X15126667Y27730450D01*
X14915840Y28049949D01*
X14718262Y28349296D01*
X14535427Y28626227D01*
X14368828Y28878476D01*
X14219959Y29103778D01*
X14090313Y29299867D01*
X13981383Y29464476D01*
X13894663Y29595342D01*
X13831647Y29690198D01*
X13793827Y29746779D01*
X13782635Y29763058D01*
X13772950Y29756705D01*
X13750043Y29729693D01*
X13713134Y29680855D01*
X13661444Y29609024D01*
X13594194Y29513033D01*
X13510603Y29391715D01*
X13409893Y29243905D01*
X13291283Y29068434D01*
X13153995Y28864136D01*
X12997248Y28629845D01*
X12820263Y28364394D01*
X12622261Y28066615D01*
X12402462Y27735342D01*
X12160086Y27369409D01*
X11894354Y26967648D01*
X11604486Y26528893D01*
X11289703Y26051977D01*
X10949226Y25535733D01*
X10582274Y24978995D01*
X10299585Y24549906D01*
X6845300Y19305797D01*
X-6819900Y19306151D01*
X-10273933Y24550336D01*
X-10660359Y25136899D01*
X-11019749Y25682125D01*
X-11352886Y26187184D01*
X-11660551Y26653248D01*
X-11943526Y27081486D01*
X-12202594Y27473069D01*
X-12438535Y27829166D01*
X-12652133Y28150949D01*
X-12844168Y28439587D01*
X-13015423Y28696252D01*
X-13166679Y28922112D01*
X-13298719Y29118340D01*
X-13412324Y29286104D01*
X-13508276Y29426575D01*
X-13587357Y29540924D01*
X-13650349Y29630320D01*
X-13698034Y29695935D01*
X-13731193Y29738939D01*
X-13750608Y29760501D01*
X-13756617Y29763311D01*
X-13773133Y29739399D01*
X-13816282Y29674998D01*
X-13884777Y29572058D01*
X-13977331Y29432531D01*
X-14092657Y29258365D01*
X-14229466Y29051512D01*
X-14386473Y28813921D01*
X-14562389Y28547543D01*
X-14755927Y28254329D01*
X-14965800Y27936228D01*
X-15190721Y27595191D01*
X-15429403Y27233168D01*
X-15680558Y26852109D01*
X-15942898Y26453965D01*
X-16215137Y26040686D01*
X-16495988Y25614223D01*
X-16784162Y25176525D01*
X-16803334Y25147400D01*
X-17095759Y24703196D01*
X-17383013Y24266873D01*
X-17663666Y23840603D01*
X-17936286Y23426558D01*
X-18199444Y23026911D01*
X-18451708Y22643834D01*
X-18691648Y22279499D01*
X-18917833Y21936077D01*
X-19128832Y21615741D01*
X-19323215Y21320662D01*
X-19499551Y21053014D01*
X-19656409Y20814968D01*
X-19792359Y20608695D01*
X-19905970Y20436369D01*
X-19995811Y20300161D01*
X-20060452Y20202243D01*
X-20096101Y20148348D01*
X-20370801Y19733995D01*
X-20370800Y5867198D01*
X-20370800Y-7999600D01*
X-21158200Y-7999600D01*
X-21158052Y20765900D01*
X-17710076Y26003498D01*
X-14262100Y31241095D01*
X-13737601Y31242248D01*
X-13213102Y31243400D01*
X-9686301Y25885293D01*
X-6159500Y20527185D01*
X6184900Y20526773D01*
X9712139Y25885087D01*
X13239379Y31243400D01*
X13763439Y31242382D01*
G37*
X13763439Y31242382D02*
X14287500Y31241364D01*
X16890444Y27286332D01*
X17172689Y26857502D01*
X17455989Y26427119D01*
X17738313Y25998265D01*
X18017635Y25574019D01*
X18291923Y25157462D01*
X18559151Y24751673D01*
X18817288Y24359732D01*
X19064306Y23984721D01*
X19298175Y23629718D01*
X19516868Y23297804D01*
X19718355Y22992059D01*
X19900608Y22715564D01*
X20061597Y22471398D01*
X20199293Y22262641D01*
X20311668Y22092374D01*
X20338494Y22051750D01*
X21183600Y20772200D01*
X21183600Y-7999600D01*
X20396200Y-7999600D01*
X20396199Y5864284D01*
X20396199Y19728167D01*
X20197711Y20031134D01*
X20094326Y20188808D01*
X19969843Y20378439D01*
X19825754Y20597762D01*
X19663553Y20844510D01*
X19484733Y21116419D01*
X19290788Y21411223D01*
X19083211Y21726655D01*
X18863496Y22060452D01*
X18633135Y22410346D01*
X18393623Y22774073D01*
X18146453Y23149366D01*
X17893118Y23533962D01*
X17635112Y23925592D01*
X17373927Y24321994D01*
X17111058Y24720900D01*
X16847998Y25120045D01*
X16586239Y25517164D01*
X16327277Y25909990D01*
X16072603Y26296260D01*
X15823712Y26673706D01*
X15582097Y27040063D01*
X15349251Y27393067D01*
X15126667Y27730450D01*
X14915840Y28049949D01*
X14718262Y28349296D01*
X14535427Y28626227D01*
X14368828Y28878476D01*
X14219959Y29103778D01*
X14090313Y29299867D01*
X13981383Y29464476D01*
X13894663Y29595342D01*
X13831647Y29690198D01*
X13793827Y29746779D01*
X13782635Y29763058D01*
X13772950Y29756705D01*
X13750043Y29729693D01*
X13713134Y29680855D01*
X13661444Y29609024D01*
X13594194Y29513033D01*
X13510603Y29391715D01*
X13409893Y29243905D01*
X13291283Y29068434D01*
X13153995Y28864136D01*
X12997248Y28629845D01*
X12820263Y28364394D01*
X12622261Y28066615D01*
X12402462Y27735342D01*
X12160086Y27369409D01*
X11894354Y26967648D01*
X11604486Y26528893D01*
X11289703Y26051977D01*
X10949226Y25535733D01*
X10582274Y24978995D01*
X10299585Y24549906D01*
X6845300Y19305797D01*
X-6819900Y19306151D01*
X-10273933Y24550336D01*
X-10660359Y25136899D01*
X-11019749Y25682125D01*
X-11352886Y26187184D01*
X-11660551Y26653248D01*
X-11943526Y27081486D01*
X-12202594Y27473069D01*
X-12438535Y27829166D01*
X-12652133Y28150949D01*
X-12844168Y28439587D01*
X-13015423Y28696252D01*
X-13166679Y28922112D01*
X-13298719Y29118340D01*
X-13412324Y29286104D01*
X-13508276Y29426575D01*
X-13587357Y29540924D01*
X-13650349Y29630320D01*
X-13698034Y29695935D01*
X-13731193Y29738939D01*
X-13750608Y29760501D01*
X-13756617Y29763311D01*
X-13773133Y29739399D01*
X-13816282Y29674998D01*
X-13884777Y29572058D01*
X-13977331Y29432531D01*
X-14092657Y29258365D01*
X-14229466Y29051512D01*
X-14386473Y28813921D01*
X-14562389Y28547543D01*
X-14755927Y28254329D01*
X-14965800Y27936228D01*
X-15190721Y27595191D01*
X-15429403Y27233168D01*
X-15680558Y26852109D01*
X-15942898Y26453965D01*
X-16215137Y26040686D01*
X-16495988Y25614223D01*
X-16784162Y25176525D01*
X-16803334Y25147400D01*
X-17095759Y24703196D01*
X-17383013Y24266873D01*
X-17663666Y23840603D01*
X-17936286Y23426558D01*
X-18199444Y23026911D01*
X-18451708Y22643834D01*
X-18691648Y22279499D01*
X-18917833Y21936077D01*
X-19128832Y21615741D01*
X-19323215Y21320662D01*
X-19499551Y21053014D01*
X-19656409Y20814968D01*
X-19792359Y20608695D01*
X-19905970Y20436369D01*
X-19995811Y20300161D01*
X-20060452Y20202243D01*
X-20096101Y20148348D01*
X-20370801Y19733995D01*
X-20370800Y5867198D01*
X-20370800Y-7999600D01*
X-21158200Y-7999600D01*
X-21158052Y20765900D01*
X-17710076Y26003498D01*
X-14262100Y31241095D01*
X-13737601Y31242248D01*
X-13213102Y31243400D01*
X-9686301Y25885293D01*
X-6159500Y20527185D01*
X6184900Y20526773D01*
X9712139Y25885087D01*
X13239379Y31243400D01*
X13763439Y31242382D01*
D11*
G36*
X11093500Y-25616000D02*
G01*
X8591500Y-25616000D01*
X8591500Y-23914000D01*
X11093500Y-23914000D01*
X11093500Y-25616000D01*
G37*
G36*
X2203500Y-25616000D02*
G01*
X-298500Y-25616000D01*
X-298500Y-23914000D01*
X2203500Y-23914000D01*
X2203500Y-25616000D01*
G37*
G36*
X-13487000Y-23229000D02*
G01*
X-15789000Y-23229000D01*
X-15789000Y-21627000D01*
X-13487000Y-21627000D01*
X-13487000Y-23229000D01*
G37*
G36*
X-8087000Y-23229000D02*
G01*
X-10389000Y-23229000D01*
X-10389000Y-21627000D01*
X-8087000Y-21627000D01*
X-8087000Y-23229000D01*
G37*
G36*
X8426500Y-21784000D02*
G01*
X5924500Y-21784000D01*
X5924500Y-20082000D01*
X8426500Y-20082000D01*
X8426500Y-21784000D01*
G37*
G36*
X4807000Y-21784000D02*
G01*
X2305000Y-21784000D01*
X2305000Y-20082000D01*
X4807000Y-20082000D01*
X4807000Y-21784000D01*
G37*
G36*
X-4083000Y-21784000D02*
G01*
X-6585000Y-21784000D01*
X-6585000Y-20082000D01*
X-4083000Y-20082000D01*
X-4083000Y-21784000D01*
G37*
G36*
X17316500Y-21784000D02*
G01*
X14814500Y-21784000D01*
X14814500Y-20082000D01*
X17316500Y-20082000D01*
X17316500Y-21784000D01*
G37*
G36*
X-8087000Y-20029000D02*
G01*
X-10389000Y-20029000D01*
X-10389000Y-18427000D01*
X-8087000Y-18427000D01*
X-8087000Y-20029000D01*
G37*
G36*
X-13487000Y-20029000D02*
G01*
X-15789000Y-20029000D01*
X-15789000Y-18427000D01*
X-13487000Y-18427000D01*
X-13487000Y-20029000D01*
G37*
G36*
X2203500Y-17932500D02*
G01*
X-298500Y-17932500D01*
X-298500Y-16230500D01*
X2203500Y-16230500D01*
X2203500Y-17932500D01*
G37*
G36*
X11093500Y-17932500D02*
G01*
X8591500Y-17932500D01*
X8591500Y-16230500D01*
X11093500Y-16230500D01*
X11093500Y-17932500D01*
G37*
G36*
X-10898605Y-8991546D02*
G01*
X-10725534Y-9063234D01*
X-10725533Y-9063235D01*
X-10569773Y-9167310D01*
X-10437310Y-9299773D01*
X-10437309Y-9299775D01*
X-10333234Y-9455534D01*
X-10261546Y-9628605D01*
X-10225000Y-9812333D01*
X-10225000Y-9999667D01*
X-10261546Y-10183395D01*
X-10333234Y-10356466D01*
X-10333235Y-10356467D01*
X-10437310Y-10512227D01*
X-10569773Y-10644690D01*
X-10648182Y-10697081D01*
X-10725534Y-10748766D01*
X-10898605Y-10820454D01*
X-11082333Y-10857000D01*
X-11269667Y-10857000D01*
X-11453395Y-10820454D01*
X-11626466Y-10748766D01*
X-11703818Y-10697081D01*
X-11782227Y-10644690D01*
X-11914690Y-10512227D01*
X-12018765Y-10356467D01*
X-12018766Y-10356466D01*
X-12090454Y-10183395D01*
X-12127000Y-9999667D01*
X-12127000Y-9812333D01*
X-12090454Y-9628605D01*
X-12018766Y-9455534D01*
X-11914691Y-9299775D01*
X-11914690Y-9299773D01*
X-11782227Y-9167310D01*
X-11626467Y-9063235D01*
X-11626466Y-9063234D01*
X-11453395Y-8991546D01*
X-11269667Y-8955000D01*
X-11082333Y-8955000D01*
X-10898605Y-8991546D01*
G37*
G36*
X-8358605Y-8991546D02*
G01*
X-8185534Y-9063234D01*
X-8185533Y-9063235D01*
X-8029773Y-9167310D01*
X-7897310Y-9299773D01*
X-7897309Y-9299775D01*
X-7793234Y-9455534D01*
X-7721546Y-9628605D01*
X-7685000Y-9812333D01*
X-7685000Y-9999667D01*
X-7721546Y-10183395D01*
X-7793234Y-10356466D01*
X-7793235Y-10356467D01*
X-7897310Y-10512227D01*
X-8029773Y-10644690D01*
X-8108182Y-10697081D01*
X-8185534Y-10748766D01*
X-8358605Y-10820454D01*
X-8542333Y-10857000D01*
X-8729667Y-10857000D01*
X-8913395Y-10820454D01*
X-9086466Y-10748766D01*
X-9163818Y-10697081D01*
X-9242227Y-10644690D01*
X-9374690Y-10512227D01*
X-9478765Y-10356467D01*
X-9478766Y-10356466D01*
X-9550454Y-10183395D01*
X-9587000Y-9999667D01*
X-9587000Y-9812333D01*
X-9550454Y-9628605D01*
X-9478766Y-9455534D01*
X-9374691Y-9299775D01*
X-9374690Y-9299773D01*
X-9242227Y-9167310D01*
X-9086467Y-9063235D01*
X-9086466Y-9063234D01*
X-8913395Y-8991546D01*
X-8729667Y-8955000D01*
X-8542333Y-8955000D01*
X-8358605Y-8991546D01*
G37*
G36*
X-5818605Y-8991546D02*
G01*
X-5645534Y-9063234D01*
X-5645533Y-9063235D01*
X-5489773Y-9167310D01*
X-5357310Y-9299773D01*
X-5357309Y-9299775D01*
X-5253234Y-9455534D01*
X-5181546Y-9628605D01*
X-5145000Y-9812333D01*
X-5145000Y-9999667D01*
X-5181546Y-10183395D01*
X-5253234Y-10356466D01*
X-5253235Y-10356467D01*
X-5357310Y-10512227D01*
X-5489773Y-10644690D01*
X-5568182Y-10697081D01*
X-5645534Y-10748766D01*
X-5818605Y-10820454D01*
X-6002333Y-10857000D01*
X-6189667Y-10857000D01*
X-6373395Y-10820454D01*
X-6546466Y-10748766D01*
X-6623818Y-10697081D01*
X-6702227Y-10644690D01*
X-6834690Y-10512227D01*
X-6938765Y-10356467D01*
X-6938766Y-10356466D01*
X-7010454Y-10183395D01*
X-7047000Y-9999667D01*
X-7047000Y-9812333D01*
X-7010454Y-9628605D01*
X-6938766Y-9455534D01*
X-6834691Y-9299775D01*
X-6834690Y-9299773D01*
X-6702227Y-9167310D01*
X-6546467Y-9063235D01*
X-6546466Y-9063234D01*
X-6373395Y-8991546D01*
X-6189667Y-8955000D01*
X-6002333Y-8955000D01*
X-5818605Y-8991546D01*
G37*
G36*
X-3278605Y-8991546D02*
G01*
X-3105534Y-9063234D01*
X-3105533Y-9063235D01*
X-2949773Y-9167310D01*
X-2817310Y-9299773D01*
X-2817309Y-9299775D01*
X-2713234Y-9455534D01*
X-2641546Y-9628605D01*
X-2605000Y-9812333D01*
X-2605000Y-9999667D01*
X-2641546Y-10183395D01*
X-2713234Y-10356466D01*
X-2713235Y-10356467D01*
X-2817310Y-10512227D01*
X-2949773Y-10644690D01*
X-3028182Y-10697081D01*
X-3105534Y-10748766D01*
X-3278605Y-10820454D01*
X-3462333Y-10857000D01*
X-3649667Y-10857000D01*
X-3833395Y-10820454D01*
X-4006466Y-10748766D01*
X-4083818Y-10697081D01*
X-4162227Y-10644690D01*
X-4294690Y-10512227D01*
X-4398765Y-10356467D01*
X-4398766Y-10356466D01*
X-4470454Y-10183395D01*
X-4507000Y-9999667D01*
X-4507000Y-9812333D01*
X-4470454Y-9628605D01*
X-4398766Y-9455534D01*
X-4294691Y-9299775D01*
X-4294690Y-9299773D01*
X-4162227Y-9167310D01*
X-4006467Y-9063235D01*
X-4006466Y-9063234D01*
X-3833395Y-8991546D01*
X-3649667Y-8955000D01*
X-3462333Y-8955000D01*
X-3278605Y-8991546D01*
G37*
G36*
X-738605Y-8991546D02*
G01*
X-565534Y-9063234D01*
X-565533Y-9063235D01*
X-409773Y-9167310D01*
X-277310Y-9299773D01*
X-277309Y-9299775D01*
X-173234Y-9455534D01*
X-101546Y-9628605D01*
X-65000Y-9812333D01*
X-65000Y-9999667D01*
X-101546Y-10183395D01*
X-173234Y-10356466D01*
X-173235Y-10356467D01*
X-277310Y-10512227D01*
X-409773Y-10644690D01*
X-488182Y-10697081D01*
X-565534Y-10748766D01*
X-738605Y-10820454D01*
X-922333Y-10857000D01*
X-1109667Y-10857000D01*
X-1293395Y-10820454D01*
X-1466466Y-10748766D01*
X-1543818Y-10697081D01*
X-1622227Y-10644690D01*
X-1754690Y-10512227D01*
X-1858765Y-10356467D01*
X-1858766Y-10356466D01*
X-1930454Y-10183395D01*
X-1967000Y-9999667D01*
X-1967000Y-9812333D01*
X-1930454Y-9628605D01*
X-1858766Y-9455534D01*
X-1754691Y-9299775D01*
X-1754690Y-9299773D01*
X-1622227Y-9167310D01*
X-1466467Y-9063235D01*
X-1466466Y-9063234D01*
X-1293395Y-8991546D01*
X-1109667Y-8955000D01*
X-922333Y-8955000D01*
X-738605Y-8991546D01*
G37*
G36*
X1801395Y-8991546D02*
G01*
X1974466Y-9063234D01*
X1974467Y-9063235D01*
X2130227Y-9167310D01*
X2262690Y-9299773D01*
X2262691Y-9299775D01*
X2366766Y-9455534D01*
X2438454Y-9628605D01*
X2475000Y-9812333D01*
X2475000Y-9999667D01*
X2438454Y-10183395D01*
X2366766Y-10356466D01*
X2366765Y-10356467D01*
X2262690Y-10512227D01*
X2130227Y-10644690D01*
X2051818Y-10697081D01*
X1974466Y-10748766D01*
X1801395Y-10820454D01*
X1617667Y-10857000D01*
X1430333Y-10857000D01*
X1246605Y-10820454D01*
X1073534Y-10748766D01*
X996182Y-10697081D01*
X917773Y-10644690D01*
X785310Y-10512227D01*
X681235Y-10356467D01*
X681234Y-10356466D01*
X609546Y-10183395D01*
X573000Y-9999667D01*
X573000Y-9812333D01*
X609546Y-9628605D01*
X681234Y-9455534D01*
X785309Y-9299775D01*
X785310Y-9299773D01*
X917773Y-9167310D01*
X1073533Y-9063235D01*
X1073534Y-9063234D01*
X1246605Y-8991546D01*
X1430333Y-8955000D01*
X1617667Y-8955000D01*
X1801395Y-8991546D01*
G37*
G36*
X4341395Y-8991546D02*
G01*
X4514466Y-9063234D01*
X4514467Y-9063235D01*
X4670227Y-9167310D01*
X4802690Y-9299773D01*
X4802691Y-9299775D01*
X4906766Y-9455534D01*
X4978454Y-9628605D01*
X5015000Y-9812333D01*
X5015000Y-9999667D01*
X4978454Y-10183395D01*
X4906766Y-10356466D01*
X4906765Y-10356467D01*
X4802690Y-10512227D01*
X4670227Y-10644690D01*
X4591818Y-10697081D01*
X4514466Y-10748766D01*
X4341395Y-10820454D01*
X4157667Y-10857000D01*
X3970333Y-10857000D01*
X3786605Y-10820454D01*
X3613534Y-10748766D01*
X3536182Y-10697081D01*
X3457773Y-10644690D01*
X3325310Y-10512227D01*
X3221235Y-10356467D01*
X3221234Y-10356466D01*
X3149546Y-10183395D01*
X3113000Y-9999667D01*
X3113000Y-9812333D01*
X3149546Y-9628605D01*
X3221234Y-9455534D01*
X3325309Y-9299775D01*
X3325310Y-9299773D01*
X3457773Y-9167310D01*
X3613533Y-9063235D01*
X3613534Y-9063234D01*
X3786605Y-8991546D01*
X3970333Y-8955000D01*
X4157667Y-8955000D01*
X4341395Y-8991546D01*
G37*
G36*
X6881395Y-8991546D02*
G01*
X7054466Y-9063234D01*
X7054467Y-9063235D01*
X7210227Y-9167310D01*
X7342690Y-9299773D01*
X7342691Y-9299775D01*
X7446766Y-9455534D01*
X7518454Y-9628605D01*
X7555000Y-9812333D01*
X7555000Y-9999667D01*
X7518454Y-10183395D01*
X7446766Y-10356466D01*
X7446765Y-10356467D01*
X7342690Y-10512227D01*
X7210227Y-10644690D01*
X7131818Y-10697081D01*
X7054466Y-10748766D01*
X6881395Y-10820454D01*
X6697667Y-10857000D01*
X6510333Y-10857000D01*
X6326605Y-10820454D01*
X6153534Y-10748766D01*
X6076182Y-10697081D01*
X5997773Y-10644690D01*
X5865310Y-10512227D01*
X5761235Y-10356467D01*
X5761234Y-10356466D01*
X5689546Y-10183395D01*
X5653000Y-9999667D01*
X5653000Y-9812333D01*
X5689546Y-9628605D01*
X5761234Y-9455534D01*
X5865309Y-9299775D01*
X5865310Y-9299773D01*
X5997773Y-9167310D01*
X6153533Y-9063235D01*
X6153534Y-9063234D01*
X6326605Y-8991546D01*
X6510333Y-8955000D01*
X6697667Y-8955000D01*
X6881395Y-8991546D01*
G37*
G36*
X19528231Y-5156705D02*
G01*
X19566967Y-5164410D01*
X19597195Y-5176931D01*
X19639944Y-5194638D01*
X19705622Y-5238523D01*
X19761477Y-5294378D01*
X19805362Y-5360056D01*
X19835590Y-5433034D01*
X19851000Y-5510504D01*
X19851000Y-5589496D01*
X19835590Y-5666966D01*
X19805362Y-5739944D01*
X19761477Y-5805622D01*
X19705622Y-5861477D01*
X19639944Y-5905362D01*
X19597195Y-5923069D01*
X19566967Y-5935590D01*
X19528231Y-5943295D01*
X19489496Y-5951000D01*
X19410504Y-5951000D01*
X19371769Y-5943295D01*
X19333033Y-5935590D01*
X19302805Y-5923069D01*
X19260056Y-5905362D01*
X19194378Y-5861477D01*
X19138523Y-5805622D01*
X19094638Y-5739944D01*
X19064410Y-5666966D01*
X19049000Y-5589496D01*
X19049000Y-5510504D01*
X19064410Y-5433034D01*
X19094638Y-5360056D01*
X19138523Y-5294378D01*
X19194378Y-5238523D01*
X19260056Y-5194638D01*
X19302805Y-5176931D01*
X19333033Y-5164410D01*
X19371769Y-5156705D01*
X19410504Y-5149000D01*
X19489496Y-5149000D01*
X19528231Y-5156705D01*
G37*
G36*
X19528231Y-3456705D02*
G01*
X19566967Y-3464410D01*
X19597195Y-3476931D01*
X19639944Y-3494638D01*
X19705622Y-3538523D01*
X19761477Y-3594378D01*
X19805362Y-3660056D01*
X19835590Y-3733034D01*
X19851000Y-3810504D01*
X19851000Y-3889496D01*
X19835590Y-3966966D01*
X19805362Y-4039944D01*
X19761477Y-4105622D01*
X19705622Y-4161477D01*
X19639944Y-4205362D01*
X19597195Y-4223069D01*
X19566967Y-4235590D01*
X19528231Y-4243295D01*
X19489496Y-4251000D01*
X19410504Y-4251000D01*
X19371769Y-4243295D01*
X19333033Y-4235590D01*
X19302805Y-4223069D01*
X19260056Y-4205362D01*
X19194378Y-4161477D01*
X19138523Y-4105622D01*
X19094638Y-4039944D01*
X19064410Y-3966966D01*
X19049000Y-3889496D01*
X19049000Y-3810504D01*
X19064410Y-3733034D01*
X19094638Y-3660056D01*
X19138523Y-3594378D01*
X19194378Y-3538523D01*
X19260056Y-3494638D01*
X19302805Y-3476931D01*
X19333033Y-3464410D01*
X19371769Y-3456705D01*
X19410504Y-3449000D01*
X19489496Y-3449000D01*
X19528231Y-3456705D01*
G37*
G36*
X19417512Y1150073D02*
G01*
X19566812Y1120376D01*
X19730784Y1052456D01*
X19878354Y953853D01*
X20003853Y828354D01*
X20102456Y680784D01*
X20170376Y516812D01*
X20205000Y342741D01*
X20205000Y165259D01*
X20170376Y-8812D01*
X20102456Y-172784D01*
X20003853Y-320354D01*
X19878354Y-445853D01*
X19730784Y-544456D01*
X19566812Y-612376D01*
X19417512Y-642073D01*
X19392742Y-647000D01*
X19215258Y-647000D01*
X19190488Y-642073D01*
X19041188Y-612376D01*
X18877216Y-544456D01*
X18729646Y-445853D01*
X18604147Y-320354D01*
X18505544Y-172784D01*
X18437624Y-8812D01*
X18403000Y165259D01*
X18403000Y342741D01*
X18437624Y516812D01*
X18505544Y680784D01*
X18604147Y828354D01*
X18729646Y953853D01*
X18877216Y1052456D01*
X19041188Y1120376D01*
X19190488Y1150073D01*
X19215258Y1155000D01*
X19392742Y1155000D01*
X19417512Y1150073D01*
G37*
G36*
X19417512Y3690073D02*
G01*
X19566812Y3660376D01*
X19730784Y3592456D01*
X19878354Y3493853D01*
X20003853Y3368354D01*
X20102456Y3220784D01*
X20170376Y3056812D01*
X20205000Y2882741D01*
X20205000Y2705259D01*
X20170376Y2531188D01*
X20102456Y2367216D01*
X20003853Y2219646D01*
X19878354Y2094147D01*
X19730784Y1995544D01*
X19566812Y1927624D01*
X19417512Y1897927D01*
X19392742Y1893000D01*
X19215258Y1893000D01*
X19190488Y1897927D01*
X19041188Y1927624D01*
X18877216Y1995544D01*
X18729646Y2094147D01*
X18604147Y2219646D01*
X18505544Y2367216D01*
X18437624Y2531188D01*
X18403000Y2705259D01*
X18403000Y2882741D01*
X18437624Y3056812D01*
X18505544Y3220784D01*
X18604147Y3368354D01*
X18729646Y3493853D01*
X18877216Y3592456D01*
X19041188Y3660376D01*
X19190488Y3690073D01*
X19215258Y3695000D01*
X19392742Y3695000D01*
X19417512Y3690073D01*
G37*
G36*
X19417512Y6230073D02*
G01*
X19566812Y6200376D01*
X19730784Y6132456D01*
X19878354Y6033853D01*
X20003853Y5908354D01*
X20102456Y5760784D01*
X20170376Y5596812D01*
X20205000Y5422741D01*
X20205000Y5245259D01*
X20170376Y5071188D01*
X20102456Y4907216D01*
X20003853Y4759646D01*
X19878354Y4634147D01*
X19730784Y4535544D01*
X19566812Y4467624D01*
X19417512Y4437927D01*
X19392742Y4433000D01*
X19215258Y4433000D01*
X19190488Y4437927D01*
X19041188Y4467624D01*
X18877216Y4535544D01*
X18729646Y4634147D01*
X18604147Y4759646D01*
X18505544Y4907216D01*
X18437624Y5071188D01*
X18403000Y5245259D01*
X18403000Y5422741D01*
X18437624Y5596812D01*
X18505544Y5760784D01*
X18604147Y5908354D01*
X18729646Y6033853D01*
X18877216Y6132456D01*
X19041188Y6200376D01*
X19190488Y6230073D01*
X19215258Y6235000D01*
X19392742Y6235000D01*
X19417512Y6230073D01*
G37*
G36*
X19417512Y8770073D02*
G01*
X19566812Y8740376D01*
X19730784Y8672456D01*
X19878354Y8573853D01*
X20003853Y8448354D01*
X20102456Y8300784D01*
X20170376Y8136812D01*
X20205000Y7962741D01*
X20205000Y7785259D01*
X20170376Y7611188D01*
X20102456Y7447216D01*
X20003853Y7299646D01*
X19878354Y7174147D01*
X19730784Y7075544D01*
X19566812Y7007624D01*
X19417512Y6977927D01*
X19392742Y6973000D01*
X19215258Y6973000D01*
X19190488Y6977927D01*
X19041188Y7007624D01*
X18877216Y7075544D01*
X18729646Y7174147D01*
X18604147Y7299646D01*
X18505544Y7447216D01*
X18437624Y7611188D01*
X18403000Y7785259D01*
X18403000Y7962741D01*
X18437624Y8136812D01*
X18505544Y8300784D01*
X18604147Y8448354D01*
X18729646Y8573853D01*
X18877216Y8672456D01*
X19041188Y8740376D01*
X19190488Y8770073D01*
X19215258Y8775000D01*
X19392742Y8775000D01*
X19417512Y8770073D01*
G37*
G36*
X19417512Y11310073D02*
G01*
X19566812Y11280376D01*
X19730784Y11212456D01*
X19878354Y11113853D01*
X20003853Y10988354D01*
X20102456Y10840784D01*
X20170376Y10676812D01*
X20205000Y10502741D01*
X20205000Y10325259D01*
X20170376Y10151188D01*
X20102456Y9987216D01*
X20003853Y9839646D01*
X19878354Y9714147D01*
X19730784Y9615544D01*
X19566812Y9547624D01*
X19417512Y9517927D01*
X19392742Y9513000D01*
X19215258Y9513000D01*
X19190488Y9517927D01*
X19041188Y9547624D01*
X18877216Y9615544D01*
X18729646Y9714147D01*
X18604147Y9839646D01*
X18505544Y9987216D01*
X18437624Y10151188D01*
X18403000Y10325259D01*
X18403000Y10502741D01*
X18437624Y10676812D01*
X18505544Y10840784D01*
X18604147Y10988354D01*
X18729646Y11113853D01*
X18877216Y11212456D01*
X19041188Y11280376D01*
X19190488Y11310073D01*
X19215258Y11315000D01*
X19392742Y11315000D01*
X19417512Y11310073D01*
G37*
G36*
X-8358605Y13868454D02*
G01*
X-8185534Y13796766D01*
X-8185533Y13796765D01*
X-8029773Y13692690D01*
X-7897310Y13560227D01*
X-7897309Y13560225D01*
X-7793234Y13404466D01*
X-7721546Y13231395D01*
X-7685000Y13047667D01*
X-7685000Y12860333D01*
X-7721546Y12676605D01*
X-7793234Y12503534D01*
X-7793235Y12503533D01*
X-7897310Y12347773D01*
X-8029773Y12215310D01*
X-8108182Y12162919D01*
X-8185534Y12111234D01*
X-8358605Y12039546D01*
X-8542333Y12003000D01*
X-8729667Y12003000D01*
X-8913395Y12039546D01*
X-9086466Y12111234D01*
X-9163818Y12162919D01*
X-9242227Y12215310D01*
X-9374690Y12347773D01*
X-9478765Y12503533D01*
X-9478766Y12503534D01*
X-9550454Y12676605D01*
X-9587000Y12860333D01*
X-9587000Y13047667D01*
X-9550454Y13231395D01*
X-9478766Y13404466D01*
X-9374691Y13560225D01*
X-9374690Y13560227D01*
X-9242227Y13692690D01*
X-9086467Y13796765D01*
X-9086466Y13796766D01*
X-8913395Y13868454D01*
X-8729667Y13905000D01*
X-8542333Y13905000D01*
X-8358605Y13868454D01*
G37*
G36*
X-10898605Y13868454D02*
G01*
X-10725534Y13796766D01*
X-10725533Y13796765D01*
X-10569773Y13692690D01*
X-10437310Y13560227D01*
X-10437309Y13560225D01*
X-10333234Y13404466D01*
X-10261546Y13231395D01*
X-10225000Y13047667D01*
X-10225000Y12860333D01*
X-10261546Y12676605D01*
X-10333234Y12503534D01*
X-10333235Y12503533D01*
X-10437310Y12347773D01*
X-10569773Y12215310D01*
X-10648182Y12162919D01*
X-10725534Y12111234D01*
X-10898605Y12039546D01*
X-11082333Y12003000D01*
X-11269667Y12003000D01*
X-11453395Y12039546D01*
X-11626466Y12111234D01*
X-11703818Y12162919D01*
X-11782227Y12215310D01*
X-11914690Y12347773D01*
X-12018765Y12503533D01*
X-12018766Y12503534D01*
X-12090454Y12676605D01*
X-12127000Y12860333D01*
X-12127000Y13047667D01*
X-12090454Y13231395D01*
X-12018766Y13404466D01*
X-11914691Y13560225D01*
X-11914690Y13560227D01*
X-11782227Y13692690D01*
X-11626467Y13796765D01*
X-11626466Y13796766D01*
X-11453395Y13868454D01*
X-11269667Y13905000D01*
X-11082333Y13905000D01*
X-10898605Y13868454D01*
G37*
G36*
X-5818605Y13868454D02*
G01*
X-5645534Y13796766D01*
X-5645533Y13796765D01*
X-5489773Y13692690D01*
X-5357310Y13560227D01*
X-5357309Y13560225D01*
X-5253234Y13404466D01*
X-5181546Y13231395D01*
X-5145000Y13047667D01*
X-5145000Y12860333D01*
X-5181546Y12676605D01*
X-5253234Y12503534D01*
X-5253235Y12503533D01*
X-5357310Y12347773D01*
X-5489773Y12215310D01*
X-5568182Y12162919D01*
X-5645534Y12111234D01*
X-5818605Y12039546D01*
X-6002333Y12003000D01*
X-6189667Y12003000D01*
X-6373395Y12039546D01*
X-6546466Y12111234D01*
X-6623818Y12162919D01*
X-6702227Y12215310D01*
X-6834690Y12347773D01*
X-6938765Y12503533D01*
X-6938766Y12503534D01*
X-7010454Y12676605D01*
X-7047000Y12860333D01*
X-7047000Y13047667D01*
X-7010454Y13231395D01*
X-6938766Y13404466D01*
X-6834691Y13560225D01*
X-6834690Y13560227D01*
X-6702227Y13692690D01*
X-6546467Y13796765D01*
X-6546466Y13796766D01*
X-6373395Y13868454D01*
X-6189667Y13905000D01*
X-6002333Y13905000D01*
X-5818605Y13868454D01*
G37*
G36*
X-3278605Y13868454D02*
G01*
X-3105534Y13796766D01*
X-3105533Y13796765D01*
X-2949773Y13692690D01*
X-2817310Y13560227D01*
X-2817309Y13560225D01*
X-2713234Y13404466D01*
X-2641546Y13231395D01*
X-2605000Y13047667D01*
X-2605000Y12860333D01*
X-2641546Y12676605D01*
X-2713234Y12503534D01*
X-2713235Y12503533D01*
X-2817310Y12347773D01*
X-2949773Y12215310D01*
X-3028182Y12162919D01*
X-3105534Y12111234D01*
X-3278605Y12039546D01*
X-3462333Y12003000D01*
X-3649667Y12003000D01*
X-3833395Y12039546D01*
X-4006466Y12111234D01*
X-4083818Y12162919D01*
X-4162227Y12215310D01*
X-4294690Y12347773D01*
X-4398765Y12503533D01*
X-4398766Y12503534D01*
X-4470454Y12676605D01*
X-4507000Y12860333D01*
X-4507000Y13047667D01*
X-4470454Y13231395D01*
X-4398766Y13404466D01*
X-4294691Y13560225D01*
X-4294690Y13560227D01*
X-4162227Y13692690D01*
X-4006467Y13796765D01*
X-4006466Y13796766D01*
X-3833395Y13868454D01*
X-3649667Y13905000D01*
X-3462333Y13905000D01*
X-3278605Y13868454D01*
G37*
G36*
X1801395Y13868454D02*
G01*
X1974466Y13796766D01*
X1974467Y13796765D01*
X2130227Y13692690D01*
X2262690Y13560227D01*
X2262691Y13560225D01*
X2366766Y13404466D01*
X2438454Y13231395D01*
X2475000Y13047667D01*
X2475000Y12860333D01*
X2438454Y12676605D01*
X2366766Y12503534D01*
X2366765Y12503533D01*
X2262690Y12347773D01*
X2130227Y12215310D01*
X2051818Y12162919D01*
X1974466Y12111234D01*
X1801395Y12039546D01*
X1617667Y12003000D01*
X1430333Y12003000D01*
X1246605Y12039546D01*
X1073534Y12111234D01*
X996182Y12162919D01*
X917773Y12215310D01*
X785310Y12347773D01*
X681235Y12503533D01*
X681234Y12503534D01*
X609546Y12676605D01*
X573000Y12860333D01*
X573000Y13047667D01*
X609546Y13231395D01*
X681234Y13404466D01*
X785309Y13560225D01*
X785310Y13560227D01*
X917773Y13692690D01*
X1073533Y13796765D01*
X1073534Y13796766D01*
X1246605Y13868454D01*
X1430333Y13905000D01*
X1617667Y13905000D01*
X1801395Y13868454D01*
G37*
G36*
X4341395Y13868454D02*
G01*
X4514466Y13796766D01*
X4514467Y13796765D01*
X4670227Y13692690D01*
X4802690Y13560227D01*
X4802691Y13560225D01*
X4906766Y13404466D01*
X4978454Y13231395D01*
X5015000Y13047667D01*
X5015000Y12860333D01*
X4978454Y12676605D01*
X4906766Y12503534D01*
X4906765Y12503533D01*
X4802690Y12347773D01*
X4670227Y12215310D01*
X4591818Y12162919D01*
X4514466Y12111234D01*
X4341395Y12039546D01*
X4157667Y12003000D01*
X3970333Y12003000D01*
X3786605Y12039546D01*
X3613534Y12111234D01*
X3536182Y12162919D01*
X3457773Y12215310D01*
X3325310Y12347773D01*
X3221235Y12503533D01*
X3221234Y12503534D01*
X3149546Y12676605D01*
X3113000Y12860333D01*
X3113000Y13047667D01*
X3149546Y13231395D01*
X3221234Y13404466D01*
X3325309Y13560225D01*
X3325310Y13560227D01*
X3457773Y13692690D01*
X3613533Y13796765D01*
X3613534Y13796766D01*
X3786605Y13868454D01*
X3970333Y13905000D01*
X4157667Y13905000D01*
X4341395Y13868454D01*
G37*
G36*
X6881395Y13868454D02*
G01*
X7054466Y13796766D01*
X7054467Y13796765D01*
X7210227Y13692690D01*
X7342690Y13560227D01*
X7342691Y13560225D01*
X7446766Y13404466D01*
X7518454Y13231395D01*
X7555000Y13047667D01*
X7555000Y12860333D01*
X7518454Y12676605D01*
X7446766Y12503534D01*
X7446765Y12503533D01*
X7342690Y12347773D01*
X7210227Y12215310D01*
X7131818Y12162919D01*
X7054466Y12111234D01*
X6881395Y12039546D01*
X6697667Y12003000D01*
X6510333Y12003000D01*
X6326605Y12039546D01*
X6153534Y12111234D01*
X6076182Y12162919D01*
X5997773Y12215310D01*
X5865310Y12347773D01*
X5761235Y12503533D01*
X5761234Y12503534D01*
X5689546Y12676605D01*
X5653000Y12860333D01*
X5653000Y13047667D01*
X5689546Y13231395D01*
X5761234Y13404466D01*
X5865309Y13560225D01*
X5865310Y13560227D01*
X5997773Y13692690D01*
X6153533Y13796765D01*
X6153534Y13796766D01*
X6326605Y13868454D01*
X6510333Y13905000D01*
X6697667Y13905000D01*
X6881395Y13868454D01*
G37*
G36*
X-738605Y13868454D02*
G01*
X-565534Y13796766D01*
X-565533Y13796765D01*
X-409773Y13692690D01*
X-277310Y13560227D01*
X-277309Y13560225D01*
X-173234Y13404466D01*
X-101546Y13231395D01*
X-65000Y13047667D01*
X-65000Y12860333D01*
X-101546Y12676605D01*
X-173234Y12503534D01*
X-173235Y12503533D01*
X-277310Y12347773D01*
X-409773Y12215310D01*
X-488182Y12162919D01*
X-565534Y12111234D01*
X-738605Y12039546D01*
X-922333Y12003000D01*
X-1109667Y12003000D01*
X-1293395Y12039546D01*
X-1466466Y12111234D01*
X-1543818Y12162919D01*
X-1622227Y12215310D01*
X-1754690Y12347773D01*
X-1858765Y12503533D01*
X-1858766Y12503534D01*
X-1930454Y12676605D01*
X-1967000Y12860333D01*
X-1967000Y13047667D01*
X-1930454Y13231395D01*
X-1858766Y13404466D01*
X-1754691Y13560225D01*
X-1754690Y13560227D01*
X-1622227Y13692690D01*
X-1466467Y13796765D01*
X-1466466Y13796766D01*
X-1293395Y13868454D01*
X-1109667Y13905000D01*
X-922333Y13905000D01*
X-738605Y13868454D01*
G37*
G36*
X19417512Y13850073D02*
G01*
X19566812Y13820376D01*
X19730784Y13752456D01*
X19878354Y13653853D01*
X20003853Y13528354D01*
X20102456Y13380784D01*
X20170376Y13216812D01*
X20205000Y13042741D01*
X20205000Y12865259D01*
X20170376Y12691188D01*
X20102456Y12527216D01*
X20003853Y12379646D01*
X19878354Y12254147D01*
X19730784Y12155544D01*
X19566812Y12087624D01*
X19417512Y12057927D01*
X19392742Y12053000D01*
X19215258Y12053000D01*
X19190488Y12057927D01*
X19041188Y12087624D01*
X18877216Y12155544D01*
X18729646Y12254147D01*
X18604147Y12379646D01*
X18505544Y12527216D01*
X18437624Y12691188D01*
X18403000Y12865259D01*
X18403000Y13042741D01*
X18437624Y13216812D01*
X18505544Y13380784D01*
X18604147Y13528354D01*
X18729646Y13653853D01*
X18877216Y13752456D01*
X19041188Y13820376D01*
X19190488Y13850073D01*
X19215258Y13855000D01*
X19392742Y13855000D01*
X19417512Y13850073D01*
G37*
G36*
X19417512Y16390073D02*
G01*
X19566812Y16360376D01*
X19730784Y16292456D01*
X19878354Y16193853D01*
X20003853Y16068354D01*
X20102456Y15920784D01*
X20170376Y15756812D01*
X20205000Y15582741D01*
X20205000Y15405259D01*
X20170376Y15231188D01*
X20102456Y15067216D01*
X20003853Y14919646D01*
X19878354Y14794147D01*
X19730784Y14695544D01*
X19566812Y14627624D01*
X19417512Y14597927D01*
X19392742Y14593000D01*
X19215258Y14593000D01*
X19190488Y14597927D01*
X19041188Y14627624D01*
X18877216Y14695544D01*
X18729646Y14794147D01*
X18604147Y14919646D01*
X18505544Y15067216D01*
X18437624Y15231188D01*
X18403000Y15405259D01*
X18403000Y15582741D01*
X18437624Y15756812D01*
X18505544Y15920784D01*
X18604147Y16068354D01*
X18729646Y16193853D01*
X18877216Y16292456D01*
X19041188Y16360376D01*
X19190488Y16390073D01*
X19215258Y16395000D01*
X19392742Y16395000D01*
X19417512Y16390073D01*
G37*
G36*
X4087395Y18712454D02*
G01*
X4260466Y18640766D01*
X4260467Y18640765D01*
X4416227Y18536690D01*
X4548690Y18404227D01*
X4548691Y18404225D01*
X4652766Y18248466D01*
X4724454Y18075395D01*
X4761000Y17891667D01*
X4761000Y17704333D01*
X4724454Y17520605D01*
X4652766Y17347534D01*
X4652765Y17347533D01*
X4548690Y17191773D01*
X4416227Y17059310D01*
X4337818Y17006919D01*
X4260466Y16955234D01*
X4087395Y16883546D01*
X3903667Y16847000D01*
X3716333Y16847000D01*
X3532605Y16883546D01*
X3359534Y16955234D01*
X3282182Y17006919D01*
X3203773Y17059310D01*
X3071310Y17191773D01*
X2967235Y17347533D01*
X2967234Y17347534D01*
X2895546Y17520605D01*
X2859000Y17704333D01*
X2859000Y17891667D01*
X2895546Y18075395D01*
X2967234Y18248466D01*
X3071309Y18404225D01*
X3071310Y18404227D01*
X3203773Y18536690D01*
X3359533Y18640765D01*
X3359534Y18640766D01*
X3532605Y18712454D01*
X3716333Y18749000D01*
X3903667Y18749000D01*
X4087395Y18712454D01*
G37*
G36*
X1547395Y18712454D02*
G01*
X1720466Y18640766D01*
X1720467Y18640765D01*
X1876227Y18536690D01*
X2008690Y18404227D01*
X2008691Y18404225D01*
X2112766Y18248466D01*
X2184454Y18075395D01*
X2221000Y17891667D01*
X2221000Y17704333D01*
X2184454Y17520605D01*
X2112766Y17347534D01*
X2112765Y17347533D01*
X2008690Y17191773D01*
X1876227Y17059310D01*
X1797818Y17006919D01*
X1720466Y16955234D01*
X1547395Y16883546D01*
X1363667Y16847000D01*
X1176333Y16847000D01*
X992605Y16883546D01*
X819534Y16955234D01*
X742182Y17006919D01*
X663773Y17059310D01*
X531310Y17191773D01*
X427235Y17347533D01*
X427234Y17347534D01*
X355546Y17520605D01*
X319000Y17704333D01*
X319000Y17891667D01*
X355546Y18075395D01*
X427234Y18248466D01*
X531309Y18404225D01*
X531310Y18404227D01*
X663773Y18536690D01*
X819533Y18640765D01*
X819534Y18640766D01*
X992605Y18712454D01*
X1176333Y18749000D01*
X1363667Y18749000D01*
X1547395Y18712454D01*
G37*
G36*
X-992605Y18712454D02*
G01*
X-819534Y18640766D01*
X-819533Y18640765D01*
X-663773Y18536690D01*
X-531310Y18404227D01*
X-531309Y18404225D01*
X-427234Y18248466D01*
X-355546Y18075395D01*
X-319000Y17891667D01*
X-319000Y17704333D01*
X-355546Y17520605D01*
X-427234Y17347534D01*
X-427235Y17347533D01*
X-531310Y17191773D01*
X-663773Y17059310D01*
X-742182Y17006919D01*
X-819534Y16955234D01*
X-992605Y16883546D01*
X-1176333Y16847000D01*
X-1363667Y16847000D01*
X-1547395Y16883546D01*
X-1720466Y16955234D01*
X-1797818Y17006919D01*
X-1876227Y17059310D01*
X-2008690Y17191773D01*
X-2112765Y17347533D01*
X-2112766Y17347534D01*
X-2184454Y17520605D01*
X-2221000Y17704333D01*
X-2221000Y17891667D01*
X-2184454Y18075395D01*
X-2112766Y18248466D01*
X-2008691Y18404225D01*
X-2008690Y18404227D01*
X-1876227Y18536690D01*
X-1720467Y18640765D01*
X-1720466Y18640766D01*
X-1547395Y18712454D01*
X-1363667Y18749000D01*
X-1176333Y18749000D01*
X-992605Y18712454D01*
G37*
G36*
X-3532605Y18712454D02*
G01*
X-3359534Y18640766D01*
X-3359533Y18640765D01*
X-3203773Y18536690D01*
X-3071310Y18404227D01*
X-3071309Y18404225D01*
X-2967234Y18248466D01*
X-2895546Y18075395D01*
X-2859000Y17891667D01*
X-2859000Y17704333D01*
X-2895546Y17520605D01*
X-2967234Y17347534D01*
X-2967235Y17347533D01*
X-3071310Y17191773D01*
X-3203773Y17059310D01*
X-3282182Y17006919D01*
X-3359534Y16955234D01*
X-3532605Y16883546D01*
X-3716333Y16847000D01*
X-3903667Y16847000D01*
X-4087395Y16883546D01*
X-4260466Y16955234D01*
X-4337818Y17006919D01*
X-4416227Y17059310D01*
X-4548690Y17191773D01*
X-4652765Y17347533D01*
X-4652766Y17347534D01*
X-4724454Y17520605D01*
X-4761000Y17704333D01*
X-4761000Y17891667D01*
X-4724454Y18075395D01*
X-4652766Y18248466D01*
X-4548691Y18404225D01*
X-4548690Y18404227D01*
X-4416227Y18536690D01*
X-4260467Y18640765D01*
X-4260466Y18640766D01*
X-4087395Y18712454D01*
X-3903667Y18749000D01*
X-3716333Y18749000D01*
X-3532605Y18712454D01*
G37*
G36*
X20205000Y17133000D02*
G01*
X18403000Y17133000D01*
X18403000Y18935000D01*
X20205000Y18935000D01*
X20205000Y17133000D01*
G37*
G36*
X-13005902Y26452967D02*
G01*
X-12541650Y26260668D01*
X-12541648Y26260667D01*
X-12123832Y25981491D01*
X-11768509Y25626168D01*
X-11489333Y25208352D01*
X-11489332Y25208350D01*
X-11297033Y24744098D01*
X-11199000Y24251253D01*
X-11199000Y23748747D01*
X-11297033Y23255902D01*
X-11489332Y22791650D01*
X-11489333Y22791648D01*
X-11768509Y22373832D01*
X-12123832Y22018509D01*
X-12541648Y21739333D01*
X-12541649Y21739332D01*
X-12541650Y21739332D01*
X-13005902Y21547033D01*
X-13498747Y21449000D01*
X-14001253Y21449000D01*
X-14494098Y21547033D01*
X-14958350Y21739332D01*
X-14958351Y21739332D01*
X-14958352Y21739333D01*
X-15376168Y22018509D01*
X-15731491Y22373832D01*
X-16010667Y22791648D01*
X-16010668Y22791650D01*
X-16202967Y23255902D01*
X-16301000Y23748747D01*
X-16301000Y24251253D01*
X-16202967Y24744098D01*
X-16010668Y25208350D01*
X-16010667Y25208352D01*
X-15731491Y25626168D01*
X-15376168Y25981491D01*
X-14958352Y26260667D01*
X-14958350Y26260668D01*
X-14494098Y26452967D01*
X-14001253Y26551000D01*
X-13498747Y26551000D01*
X-13005902Y26452967D01*
G37*
G36*
X14494098Y26452967D02*
G01*
X14958350Y26260668D01*
X14958352Y26260667D01*
X15376168Y25981491D01*
X15731491Y25626168D01*
X16010667Y25208352D01*
X16010668Y25208350D01*
X16202967Y24744098D01*
X16301000Y24251253D01*
X16301000Y23748747D01*
X16202967Y23255902D01*
X16010668Y22791650D01*
X16010667Y22791648D01*
X15731491Y22373832D01*
X15376168Y22018509D01*
X14958352Y21739333D01*
X14958351Y21739332D01*
X14958350Y21739332D01*
X14494098Y21547033D01*
X14001253Y21449000D01*
X13498747Y21449000D01*
X13005902Y21547033D01*
X12541650Y21739332D01*
X12541649Y21739332D01*
X12541648Y21739333D01*
X12123832Y22018509D01*
X11768509Y22373832D01*
X11489333Y22791648D01*
X11489332Y22791650D01*
X11297033Y23255902D01*
X11199000Y23748747D01*
X11199000Y24251253D01*
X11297033Y24744098D01*
X11489332Y25208350D01*
X11489333Y25208352D01*
X11768509Y25626168D01*
X12123832Y25981491D01*
X12541648Y26260667D01*
X12541650Y26260668D01*
X13005902Y26452967D01*
X13498747Y26551000D01*
X14001253Y26551000D01*
X14494098Y26452967D01*
G37*
M02*
