G04 #@! TF.GenerationSoftware,KiCad,Pcbnew,5.1.5+dfsg1-2build2*
G04 #@! TF.CreationDate,2022-06-30T02:03:08-07:00*
G04 #@! TF.ProjectId,v3.0.1-Dev-Kit,76332e30-2e31-42d4-9465-762d4b69742e,rev?*
G04 #@! TF.SameCoordinates,Original*
G04 #@! TF.FileFunction,Soldermask,Bot*
G04 #@! TF.FilePolarity,Negative*
%FSLAX46Y46*%
G04 Gerber Fmt 4.6, Leading zero omitted, Abs format (unit mm)*
G04 Created by KiCad (PCBNEW 5.1.5+dfsg1-2build2) date 2022-06-30 02:03:08*
%MOMM*%
%LPD*%
G04 APERTURE LIST*
%ADD10C,0.200000*%
%ADD11C,0.100000*%
%ADD12C,0.010000*%
%ADD13C,0.150000*%
G04 APERTURE END LIST*
D10*
X20954000Y-7349000D02*
X19654000Y-7349000D01*
X19654000Y-7349000D02*
X19654000Y-6699000D01*
X19654000Y-6699000D02*
X20304000Y-6699000D01*
X20304000Y-6699000D02*
X20304000Y-6299000D01*
X20304000Y-6299000D02*
X20954000Y-6299000D01*
X20954000Y-6299000D02*
X20954000Y-7349000D01*
X20954000Y-3099000D02*
X20304000Y-3099000D01*
X20304000Y-3099000D02*
X20304000Y-2699000D01*
X20304000Y-2699000D02*
X19654000Y-2699000D01*
X19654000Y-2699000D02*
X19654000Y-2049000D01*
X19654000Y-2049000D02*
X20954000Y-2049000D01*
X20954000Y-2049000D02*
X20954000Y-3099000D01*
X18954000Y-6699000D02*
X18954000Y-6099000D01*
X18954000Y-6099000D02*
X17754000Y-6099000D01*
X17754000Y-6099000D02*
X17754000Y-6699000D01*
X17754000Y-6699000D02*
X18954000Y-6699000D01*
X18954000Y-3299000D02*
X18954000Y-2699000D01*
X18954000Y-2699000D02*
X17754000Y-2699000D01*
X17754000Y-2699000D02*
X17754000Y-3299000D01*
X17754000Y-3299000D02*
X18954000Y-3299000D01*
D11*
G36*
X19659600Y-2057400D02*
G01*
X19659600Y-2692400D01*
X20294600Y-2692400D01*
X20294600Y-3098800D01*
X20955000Y-3098800D01*
X20955000Y-2057400D01*
X19659600Y-2057400D01*
G37*
X19659600Y-2057400D02*
X19659600Y-2692400D01*
X20294600Y-2692400D01*
X20294600Y-3098800D01*
X20955000Y-3098800D01*
X20955000Y-2057400D01*
X19659600Y-2057400D01*
G36*
X20320000Y-6299200D02*
G01*
X20320000Y-6705600D01*
X19659600Y-6705600D01*
X19659600Y-7340600D01*
X20955000Y-7340600D01*
X20955000Y-6299200D01*
X20320000Y-6299200D01*
G37*
X20320000Y-6299200D02*
X20320000Y-6705600D01*
X19659600Y-6705600D01*
X19659600Y-7340600D01*
X20955000Y-7340600D01*
X20955000Y-6299200D01*
X20320000Y-6299200D01*
G36*
X17754600Y-6096000D02*
G01*
X17754600Y-6705600D01*
X18948400Y-6705600D01*
X18948400Y-6096000D01*
X17754600Y-6096000D01*
G37*
X17754600Y-6096000D02*
X17754600Y-6705600D01*
X18948400Y-6705600D01*
X18948400Y-6096000D01*
X17754600Y-6096000D01*
G36*
X17754600Y-2717800D02*
G01*
X17754600Y-3302000D01*
X18948400Y-3302000D01*
X18948400Y-2717800D01*
X17754600Y-2717800D01*
G37*
X17754600Y-2717800D02*
X17754600Y-3302000D01*
X18948400Y-3302000D01*
X18948400Y-2717800D01*
X17754600Y-2717800D01*
D10*
X20954000Y-7349000D02*
X19654000Y-7349000D01*
X19654000Y-7349000D02*
X19654000Y-6699000D01*
X19654000Y-6699000D02*
X20304000Y-6699000D01*
X20304000Y-6699000D02*
X20304000Y-6299000D01*
X20304000Y-6299000D02*
X20954000Y-6299000D01*
X20954000Y-6299000D02*
X20954000Y-7349000D01*
X20954000Y-3099000D02*
X20304000Y-3099000D01*
X20304000Y-3099000D02*
X20304000Y-2699000D01*
X20304000Y-2699000D02*
X19654000Y-2699000D01*
X19654000Y-2699000D02*
X19654000Y-2049000D01*
X19654000Y-2049000D02*
X20954000Y-2049000D01*
X20954000Y-2049000D02*
X20954000Y-3099000D01*
X18954000Y-6699000D02*
X18954000Y-6099000D01*
X18954000Y-6099000D02*
X17754000Y-6099000D01*
X17754000Y-6099000D02*
X17754000Y-6699000D01*
X17754000Y-6699000D02*
X18954000Y-6699000D01*
X18954000Y-3299000D02*
X18954000Y-2699000D01*
X18954000Y-2699000D02*
X17754000Y-2699000D01*
X17754000Y-2699000D02*
X17754000Y-3299000D01*
X17754000Y-3299000D02*
X18954000Y-3299000D01*
X19979001Y-5549000D02*
G75*
G03X19979001Y-5549000I-325001J0D01*
G01*
X19979000Y-3849000D02*
G75*
G03X19979000Y-3849000I-325000J0D01*
G01*
D12*
G36*
X-9734847Y19183031D02*
G01*
X-9478991Y19122899D01*
X-9238847Y19020774D01*
X-9019263Y18879587D01*
X-8825086Y18702268D01*
X-8661166Y18491748D01*
X-8532350Y18250959D01*
X-8467899Y18073500D01*
X-8440277Y17947981D01*
X-8426286Y17795714D01*
X-8423933Y17654400D01*
X-8447940Y17370987D01*
X-8516758Y17111101D01*
X-8631212Y16872857D01*
X-8792127Y16654371D01*
X-8917301Y16526418D01*
X-9056654Y16416776D01*
X-9224760Y16314306D01*
X-9403149Y16228667D01*
X-9573350Y16169522D01*
X-9621501Y16158089D01*
X-9755788Y16140100D01*
X-9915964Y16133122D01*
X-10082278Y16136821D01*
X-10234980Y16150859D01*
X-10337800Y16170270D01*
X-10579764Y16257607D01*
X-10806992Y16386181D01*
X-11010895Y16549169D01*
X-11182885Y16739744D01*
X-11310446Y16943200D01*
X-11393713Y17128130D01*
X-11446364Y17298559D01*
X-11473550Y17476061D01*
X-11480499Y17655414D01*
X-11474856Y17743727D01*
X-11327787Y17743727D01*
X-11319851Y17498318D01*
X-11268152Y17260866D01*
X-11176165Y17036860D01*
X-11047362Y16831789D01*
X-10885218Y16651143D01*
X-10693205Y16500412D01*
X-10474799Y16385084D01*
X-10233471Y16310649D01*
X-10223500Y16308622D01*
X-10071819Y16290125D01*
X-9899889Y16287280D01*
X-9735756Y16299983D01*
X-9672301Y16310664D01*
X-9433423Y16385348D01*
X-9212665Y16504054D01*
X-9015530Y16661593D01*
X-8847516Y16852779D01*
X-8714127Y17072426D01*
X-8626156Y17297061D01*
X-8599611Y17431603D01*
X-8587354Y17595255D01*
X-8589427Y17768365D01*
X-8605873Y17931280D01*
X-8624602Y18023601D01*
X-8710484Y18255230D01*
X-8839687Y18467670D01*
X-9006571Y18655266D01*
X-9205494Y18812363D01*
X-9430813Y18933305D01*
X-9588500Y18989777D01*
X-9759660Y19022749D01*
X-9954926Y19033130D01*
X-10153065Y19021244D01*
X-10332845Y18987414D01*
X-10365033Y18977948D01*
X-10594422Y18879504D01*
X-10803137Y18738801D01*
X-10985220Y18562200D01*
X-11134717Y18356063D01*
X-11245671Y18126751D01*
X-11288486Y17991603D01*
X-11327787Y17743727D01*
X-11474856Y17743727D01*
X-11463443Y17922312D01*
X-11409179Y18160000D01*
X-11314129Y18377196D01*
X-11174712Y18582620D01*
X-11036587Y18736529D01*
X-10835900Y18913363D01*
X-10626335Y19044265D01*
X-10399248Y19134101D01*
X-10274300Y19165589D01*
X-10001566Y19198238D01*
X-9734847Y19183031D01*
G37*
X-9734847Y19183031D02*
X-9478991Y19122899D01*
X-9238847Y19020774D01*
X-9019263Y18879587D01*
X-8825086Y18702268D01*
X-8661166Y18491748D01*
X-8532350Y18250959D01*
X-8467899Y18073500D01*
X-8440277Y17947981D01*
X-8426286Y17795714D01*
X-8423933Y17654400D01*
X-8447940Y17370987D01*
X-8516758Y17111101D01*
X-8631212Y16872857D01*
X-8792127Y16654371D01*
X-8917301Y16526418D01*
X-9056654Y16416776D01*
X-9224760Y16314306D01*
X-9403149Y16228667D01*
X-9573350Y16169522D01*
X-9621501Y16158089D01*
X-9755788Y16140100D01*
X-9915964Y16133122D01*
X-10082278Y16136821D01*
X-10234980Y16150859D01*
X-10337800Y16170270D01*
X-10579764Y16257607D01*
X-10806992Y16386181D01*
X-11010895Y16549169D01*
X-11182885Y16739744D01*
X-11310446Y16943200D01*
X-11393713Y17128130D01*
X-11446364Y17298559D01*
X-11473550Y17476061D01*
X-11480499Y17655414D01*
X-11474856Y17743727D01*
X-11327787Y17743727D01*
X-11319851Y17498318D01*
X-11268152Y17260866D01*
X-11176165Y17036860D01*
X-11047362Y16831789D01*
X-10885218Y16651143D01*
X-10693205Y16500412D01*
X-10474799Y16385084D01*
X-10233471Y16310649D01*
X-10223500Y16308622D01*
X-10071819Y16290125D01*
X-9899889Y16287280D01*
X-9735756Y16299983D01*
X-9672301Y16310664D01*
X-9433423Y16385348D01*
X-9212665Y16504054D01*
X-9015530Y16661593D01*
X-8847516Y16852779D01*
X-8714127Y17072426D01*
X-8626156Y17297061D01*
X-8599611Y17431603D01*
X-8587354Y17595255D01*
X-8589427Y17768365D01*
X-8605873Y17931280D01*
X-8624602Y18023601D01*
X-8710484Y18255230D01*
X-8839687Y18467670D01*
X-9006571Y18655266D01*
X-9205494Y18812363D01*
X-9430813Y18933305D01*
X-9588500Y18989777D01*
X-9759660Y19022749D01*
X-9954926Y19033130D01*
X-10153065Y19021244D01*
X-10332845Y18987414D01*
X-10365033Y18977948D01*
X-10594422Y18879504D01*
X-10803137Y18738801D01*
X-10985220Y18562200D01*
X-11134717Y18356063D01*
X-11245671Y18126751D01*
X-11288486Y17991603D01*
X-11327787Y17743727D01*
X-11474856Y17743727D01*
X-11463443Y17922312D01*
X-11409179Y18160000D01*
X-11314129Y18377196D01*
X-11174712Y18582620D01*
X-11036587Y18736529D01*
X-10835900Y18913363D01*
X-10626335Y19044265D01*
X-10399248Y19134101D01*
X-10274300Y19165589D01*
X-10001566Y19198238D01*
X-9734847Y19183031D01*
G36*
X-16731455Y16602798D02*
G01*
X-16692880Y16582520D01*
X-16668271Y16530037D01*
X-16664294Y16460717D01*
X-16681566Y16402591D01*
X-16688744Y16393617D01*
X-16702096Y16349808D01*
X-16688744Y16297983D01*
X-16669537Y16239929D01*
X-16662400Y16204947D01*
X-16683671Y16188906D01*
X-16732333Y16181841D01*
X-16785662Y16184414D01*
X-16820936Y16197288D01*
X-16823327Y16200250D01*
X-16836459Y16233609D01*
X-16857959Y16299122D01*
X-16874582Y16353744D01*
X-16898920Y16474698D01*
X-16889369Y16558021D01*
X-16845965Y16603605D01*
X-16795109Y16613000D01*
X-16731455Y16602798D01*
G37*
X-16731455Y16602798D02*
X-16692880Y16582520D01*
X-16668271Y16530037D01*
X-16664294Y16460717D01*
X-16681566Y16402591D01*
X-16688744Y16393617D01*
X-16702096Y16349808D01*
X-16688744Y16297983D01*
X-16669537Y16239929D01*
X-16662400Y16204947D01*
X-16683671Y16188906D01*
X-16732333Y16181841D01*
X-16785662Y16184414D01*
X-16820936Y16197288D01*
X-16823327Y16200250D01*
X-16836459Y16233609D01*
X-16857959Y16299122D01*
X-16874582Y16353744D01*
X-16898920Y16474698D01*
X-16889369Y16558021D01*
X-16845965Y16603605D01*
X-16795109Y16613000D01*
X-16731455Y16602798D01*
G36*
X-15567023Y17028322D02*
G01*
X-15471163Y16976760D01*
X-15399513Y16894624D01*
X-15355391Y16790431D01*
X-15346825Y16674170D01*
X-15371381Y16561152D01*
X-15426626Y16466687D01*
X-15474157Y16424846D01*
X-15554240Y16388005D01*
X-15642929Y16369440D01*
X-15716204Y16373864D01*
X-15722600Y16376078D01*
X-15772513Y16404677D01*
X-15805150Y16429752D01*
X-15838637Y16454750D01*
X-15849008Y16443062D01*
X-15849600Y16426437D01*
X-15864574Y16396380D01*
X-15916088Y16384916D01*
X-15938500Y16384400D01*
X-16027400Y16384400D01*
X-16027400Y16590112D01*
X-16016719Y16755259D01*
X-15819879Y16755259D01*
X-15819328Y16675212D01*
X-15793587Y16602204D01*
X-15747422Y16551358D01*
X-15698915Y16536800D01*
X-15647626Y16550759D01*
X-15601252Y16576341D01*
X-15554546Y16636002D01*
X-15544800Y16698486D01*
X-15561846Y16793991D01*
X-15610741Y16853671D01*
X-15684500Y16873350D01*
X-15750950Y16857522D01*
X-15790470Y16827221D01*
X-15819879Y16755259D01*
X-16016719Y16755259D01*
X-16016425Y16759793D01*
X-15981833Y16886658D01*
X-15921124Y16974093D01*
X-15831801Y17025484D01*
X-15711364Y17044216D01*
X-15692112Y17044426D01*
X-15567023Y17028322D01*
G37*
X-15567023Y17028322D02*
X-15471163Y16976760D01*
X-15399513Y16894624D01*
X-15355391Y16790431D01*
X-15346825Y16674170D01*
X-15371381Y16561152D01*
X-15426626Y16466687D01*
X-15474157Y16424846D01*
X-15554240Y16388005D01*
X-15642929Y16369440D01*
X-15716204Y16373864D01*
X-15722600Y16376078D01*
X-15772513Y16404677D01*
X-15805150Y16429752D01*
X-15838637Y16454750D01*
X-15849008Y16443062D01*
X-15849600Y16426437D01*
X-15864574Y16396380D01*
X-15916088Y16384916D01*
X-15938500Y16384400D01*
X-16027400Y16384400D01*
X-16027400Y16590112D01*
X-16016719Y16755259D01*
X-15819879Y16755259D01*
X-15819328Y16675212D01*
X-15793587Y16602204D01*
X-15747422Y16551358D01*
X-15698915Y16536800D01*
X-15647626Y16550759D01*
X-15601252Y16576341D01*
X-15554546Y16636002D01*
X-15544800Y16698486D01*
X-15561846Y16793991D01*
X-15610741Y16853671D01*
X-15684500Y16873350D01*
X-15750950Y16857522D01*
X-15790470Y16827221D01*
X-15819879Y16755259D01*
X-16016719Y16755259D01*
X-16016425Y16759793D01*
X-15981833Y16886658D01*
X-15921124Y16974093D01*
X-15831801Y17025484D01*
X-15711364Y17044216D01*
X-15692112Y17044426D01*
X-15567023Y17028322D01*
G36*
X-13368722Y17024888D02*
G01*
X-13263416Y16967185D01*
X-13193737Y16874743D01*
X-13162391Y16750613D01*
X-13163511Y16657866D01*
X-13196092Y16539678D01*
X-13263045Y16447396D01*
X-13355310Y16388045D01*
X-13463827Y16368651D01*
X-13525500Y16377141D01*
X-13583860Y16400253D01*
X-13608050Y16415644D01*
X-13635374Y16427176D01*
X-13639800Y16412911D01*
X-13662636Y16394429D01*
X-13721344Y16384902D01*
X-13741400Y16384400D01*
X-13843000Y16384400D01*
X-13843000Y16588862D01*
X-13833654Y16715397D01*
X-13639800Y16715397D01*
X-13621912Y16627842D01*
X-13575553Y16567602D01*
X-13511684Y16541105D01*
X-13441265Y16554774D01*
X-13406851Y16578837D01*
X-13373636Y16635697D01*
X-13360807Y16713329D01*
X-13369062Y16789529D01*
X-13398579Y16841665D01*
X-13471344Y16875064D01*
X-13544009Y16866186D01*
X-13603505Y16821874D01*
X-13636761Y16748967D01*
X-13639800Y16715397D01*
X-13833654Y16715397D01*
X-13830354Y16760062D01*
X-13791346Y16889078D01*
X-13724374Y16978084D01*
X-13627836Y17029254D01*
X-13506944Y17044800D01*
X-13368722Y17024888D01*
G37*
X-13368722Y17024888D02*
X-13263416Y16967185D01*
X-13193737Y16874743D01*
X-13162391Y16750613D01*
X-13163511Y16657866D01*
X-13196092Y16539678D01*
X-13263045Y16447396D01*
X-13355310Y16388045D01*
X-13463827Y16368651D01*
X-13525500Y16377141D01*
X-13583860Y16400253D01*
X-13608050Y16415644D01*
X-13635374Y16427176D01*
X-13639800Y16412911D01*
X-13662636Y16394429D01*
X-13721344Y16384902D01*
X-13741400Y16384400D01*
X-13843000Y16384400D01*
X-13843000Y16588862D01*
X-13833654Y16715397D01*
X-13639800Y16715397D01*
X-13621912Y16627842D01*
X-13575553Y16567602D01*
X-13511684Y16541105D01*
X-13441265Y16554774D01*
X-13406851Y16578837D01*
X-13373636Y16635697D01*
X-13360807Y16713329D01*
X-13369062Y16789529D01*
X-13398579Y16841665D01*
X-13471344Y16875064D01*
X-13544009Y16866186D01*
X-13603505Y16821874D01*
X-13636761Y16748967D01*
X-13639800Y16715397D01*
X-13833654Y16715397D01*
X-13830354Y16760062D01*
X-13791346Y16889078D01*
X-13724374Y16978084D01*
X-13627836Y17029254D01*
X-13506944Y17044800D01*
X-13368722Y17024888D01*
G36*
X-18899897Y17268649D02*
G01*
X-18740486Y17237047D01*
X-18615345Y17169582D01*
X-18527074Y17069137D01*
X-18478270Y16938597D01*
X-18470625Y16792086D01*
X-18503246Y16643913D01*
X-18575176Y16526065D01*
X-18682728Y16441815D01*
X-18822213Y16394437D01*
X-18929350Y16384958D01*
X-19050000Y16384400D01*
X-19050000Y16473300D01*
X-19046167Y16532600D01*
X-19024342Y16557137D01*
X-18969042Y16562180D01*
X-18959839Y16562200D01*
X-18857597Y16577838D01*
X-18765470Y16618893D01*
X-18701975Y16676580D01*
X-18695153Y16687794D01*
X-18677254Y16746380D01*
X-18669055Y16822822D01*
X-18669000Y16828900D01*
X-18676129Y16905350D01*
X-18693459Y16966648D01*
X-18695153Y16970007D01*
X-18751693Y17029712D01*
X-18840124Y17074331D01*
X-18941929Y17095079D01*
X-18959839Y17095600D01*
X-19019572Y17099222D01*
X-19044593Y17120325D01*
X-19049960Y17174264D01*
X-19050000Y17187553D01*
X-19050000Y17279506D01*
X-18899897Y17268649D01*
G37*
X-18899897Y17268649D02*
X-18740486Y17237047D01*
X-18615345Y17169582D01*
X-18527074Y17069137D01*
X-18478270Y16938597D01*
X-18470625Y16792086D01*
X-18503246Y16643913D01*
X-18575176Y16526065D01*
X-18682728Y16441815D01*
X-18822213Y16394437D01*
X-18929350Y16384958D01*
X-19050000Y16384400D01*
X-19050000Y16473300D01*
X-19046167Y16532600D01*
X-19024342Y16557137D01*
X-18969042Y16562180D01*
X-18959839Y16562200D01*
X-18857597Y16577838D01*
X-18765470Y16618893D01*
X-18701975Y16676580D01*
X-18695153Y16687794D01*
X-18677254Y16746380D01*
X-18669055Y16822822D01*
X-18669000Y16828900D01*
X-18676129Y16905350D01*
X-18693459Y16966648D01*
X-18695153Y16970007D01*
X-18751693Y17029712D01*
X-18840124Y17074331D01*
X-18941929Y17095079D01*
X-18959839Y17095600D01*
X-19019572Y17099222D01*
X-19044593Y17120325D01*
X-19049960Y17174264D01*
X-19050000Y17187553D01*
X-19050000Y17279506D01*
X-18899897Y17268649D01*
G36*
X-17911477Y16902954D02*
G01*
X-17919700Y16532507D01*
X-18002651Y16458454D01*
X-18055050Y16417112D01*
X-18106695Y16394752D01*
X-18176373Y16385756D01*
X-18250301Y16384400D01*
X-18415000Y16384400D01*
X-18415000Y16559665D01*
X-18268950Y16567283D01*
X-18122900Y16574900D01*
X-18115834Y16924150D01*
X-18108767Y17273400D01*
X-17903253Y17273400D01*
X-17911477Y16902954D01*
G37*
X-17911477Y16902954D02*
X-17919700Y16532507D01*
X-18002651Y16458454D01*
X-18055050Y16417112D01*
X-18106695Y16394752D01*
X-18176373Y16385756D01*
X-18250301Y16384400D01*
X-18415000Y16384400D01*
X-18415000Y16559665D01*
X-18268950Y16567283D01*
X-18122900Y16574900D01*
X-18115834Y16924150D01*
X-18108767Y17273400D01*
X-17903253Y17273400D01*
X-17911477Y16902954D01*
G36*
X-17327277Y16902954D02*
G01*
X-17335500Y16532507D01*
X-17418451Y16458454D01*
X-17470850Y16417112D01*
X-17522495Y16394752D01*
X-17592173Y16385756D01*
X-17666101Y16384400D01*
X-17830800Y16384400D01*
X-17830800Y16562200D01*
X-17708880Y16562200D01*
X-17630402Y16568210D01*
X-17571515Y16583426D01*
X-17556480Y16592681D01*
X-17541441Y16633941D01*
X-17531511Y16723167D01*
X-17526601Y16861402D01*
X-17526000Y16948281D01*
X-17526000Y17273400D01*
X-17319053Y17273400D01*
X-17327277Y16902954D01*
G37*
X-17327277Y16902954D02*
X-17335500Y16532507D01*
X-17418451Y16458454D01*
X-17470850Y16417112D01*
X-17522495Y16394752D01*
X-17592173Y16385756D01*
X-17666101Y16384400D01*
X-17830800Y16384400D01*
X-17830800Y16562200D01*
X-17708880Y16562200D01*
X-17630402Y16568210D01*
X-17571515Y16583426D01*
X-17556480Y16592681D01*
X-17541441Y16633941D01*
X-17531511Y16723167D01*
X-17526601Y16861402D01*
X-17526000Y16948281D01*
X-17526000Y17273400D01*
X-17319053Y17273400D01*
X-17327277Y16902954D01*
G36*
X-16241654Y17194191D02*
G01*
X-16212693Y17177885D01*
X-16205361Y17137363D01*
X-16205200Y17121000D01*
X-16197217Y17065224D01*
X-16167514Y17045587D01*
X-16154400Y17044800D01*
X-16119388Y17034856D01*
X-16105261Y16996034D01*
X-16103600Y16955900D01*
X-16109283Y16894629D01*
X-16131467Y16869906D01*
X-16154400Y16867000D01*
X-16180619Y16862402D01*
X-16195879Y16841514D01*
X-16203088Y16793695D01*
X-16205149Y16708304D01*
X-16205200Y16680928D01*
X-16212794Y16552017D01*
X-16239550Y16465068D01*
X-16291431Y16412988D01*
X-16374401Y16388684D01*
X-16454488Y16384400D01*
X-16586200Y16384400D01*
X-16586200Y16473300D01*
X-16582269Y16532884D01*
X-16560085Y16557320D01*
X-16504067Y16562189D01*
X-16497300Y16562200D01*
X-16408400Y16562200D01*
X-16408400Y16867000D01*
X-16497300Y16867000D01*
X-16556884Y16870932D01*
X-16581320Y16893116D01*
X-16586189Y16949134D01*
X-16586200Y16955900D01*
X-16582269Y17015484D01*
X-16560085Y17039920D01*
X-16504067Y17044789D01*
X-16497300Y17044800D01*
X-16437572Y17049048D01*
X-16413074Y17070594D01*
X-16408400Y17121000D01*
X-16404388Y17169861D01*
X-16382647Y17191581D01*
X-16328617Y17197080D01*
X-16306800Y17197200D01*
X-16241654Y17194191D01*
G37*
X-16241654Y17194191D02*
X-16212693Y17177885D01*
X-16205361Y17137363D01*
X-16205200Y17121000D01*
X-16197217Y17065224D01*
X-16167514Y17045587D01*
X-16154400Y17044800D01*
X-16119388Y17034856D01*
X-16105261Y16996034D01*
X-16103600Y16955900D01*
X-16109283Y16894629D01*
X-16131467Y16869906D01*
X-16154400Y16867000D01*
X-16180619Y16862402D01*
X-16195879Y16841514D01*
X-16203088Y16793695D01*
X-16205149Y16708304D01*
X-16205200Y16680928D01*
X-16212794Y16552017D01*
X-16239550Y16465068D01*
X-16291431Y16412988D01*
X-16374401Y16388684D01*
X-16454488Y16384400D01*
X-16586200Y16384400D01*
X-16586200Y16473300D01*
X-16582269Y16532884D01*
X-16560085Y16557320D01*
X-16504067Y16562189D01*
X-16497300Y16562200D01*
X-16408400Y16562200D01*
X-16408400Y16867000D01*
X-16497300Y16867000D01*
X-16556884Y16870932D01*
X-16581320Y16893116D01*
X-16586189Y16949134D01*
X-16586200Y16955900D01*
X-16582269Y17015484D01*
X-16560085Y17039920D01*
X-16504067Y17044789D01*
X-16497300Y17044800D01*
X-16437572Y17049048D01*
X-16413074Y17070594D01*
X-16408400Y17121000D01*
X-16404388Y17169861D01*
X-16382647Y17191581D01*
X-16328617Y17197080D01*
X-16306800Y17197200D01*
X-16241654Y17194191D01*
G36*
X-15115297Y17268649D02*
G01*
X-14955886Y17237047D01*
X-14830745Y17169582D01*
X-14742474Y17069137D01*
X-14693670Y16938597D01*
X-14686025Y16792086D01*
X-14718646Y16643913D01*
X-14790576Y16526065D01*
X-14898128Y16441815D01*
X-15037613Y16394437D01*
X-15144750Y16384958D01*
X-15265400Y16384400D01*
X-15265400Y16473300D01*
X-15261567Y16532600D01*
X-15239742Y16557137D01*
X-15184442Y16562180D01*
X-15175239Y16562200D01*
X-15072997Y16577838D01*
X-14980870Y16618893D01*
X-14917375Y16676580D01*
X-14910553Y16687794D01*
X-14892654Y16746380D01*
X-14884455Y16822822D01*
X-14884400Y16828900D01*
X-14891529Y16905350D01*
X-14908859Y16966648D01*
X-14910553Y16970007D01*
X-14967093Y17029712D01*
X-15055524Y17074331D01*
X-15157329Y17095079D01*
X-15175239Y17095600D01*
X-15234972Y17099222D01*
X-15259993Y17120325D01*
X-15265360Y17174264D01*
X-15265400Y17187553D01*
X-15265400Y17279506D01*
X-15115297Y17268649D01*
G37*
X-15115297Y17268649D02*
X-14955886Y17237047D01*
X-14830745Y17169582D01*
X-14742474Y17069137D01*
X-14693670Y16938597D01*
X-14686025Y16792086D01*
X-14718646Y16643913D01*
X-14790576Y16526065D01*
X-14898128Y16441815D01*
X-15037613Y16394437D01*
X-15144750Y16384958D01*
X-15265400Y16384400D01*
X-15265400Y16473300D01*
X-15261567Y16532600D01*
X-15239742Y16557137D01*
X-15184442Y16562180D01*
X-15175239Y16562200D01*
X-15072997Y16577838D01*
X-14980870Y16618893D01*
X-14917375Y16676580D01*
X-14910553Y16687794D01*
X-14892654Y16746380D01*
X-14884455Y16822822D01*
X-14884400Y16828900D01*
X-14891529Y16905350D01*
X-14908859Y16966648D01*
X-14910553Y16970007D01*
X-14967093Y17029712D01*
X-15055524Y17074331D01*
X-15157329Y17095079D01*
X-15175239Y17095600D01*
X-15234972Y17099222D01*
X-15259993Y17120325D01*
X-15265360Y17174264D01*
X-15265400Y17187553D01*
X-15265400Y17279506D01*
X-15115297Y17268649D01*
G36*
X-13970000Y16384400D02*
G01*
X-14173200Y16384400D01*
X-14173200Y16511400D01*
X-14175491Y16587002D01*
X-14186267Y16624724D01*
X-14211382Y16637421D01*
X-14231049Y16638400D01*
X-14319583Y16616881D01*
X-14379621Y16558411D01*
X-14401800Y16472123D01*
X-14401800Y16471860D01*
X-14404964Y16415858D01*
X-14424214Y16390970D01*
X-14474192Y16384592D01*
X-14503400Y16384400D01*
X-14568447Y16387065D01*
X-14597354Y16403725D01*
X-14604770Y16447381D01*
X-14605000Y16474562D01*
X-14590377Y16572657D01*
X-14552357Y16663218D01*
X-14499713Y16726941D01*
X-14486231Y16735899D01*
X-14465172Y16753703D01*
X-14465105Y16780755D01*
X-14489028Y16828815D01*
X-14524331Y16885435D01*
X-14567658Y16955605D01*
X-14596940Y17008102D01*
X-14605000Y17027974D01*
X-14582487Y17038629D01*
X-14526420Y17044440D01*
X-14506048Y17044800D01*
X-14447635Y17040915D01*
X-14405996Y17022256D01*
X-14366203Y16978318D01*
X-14325600Y16917800D01*
X-14268607Y16835724D01*
X-14227299Y16795204D01*
X-14199399Y16798142D01*
X-14182627Y16846434D01*
X-14174705Y16941981D01*
X-14173200Y17044800D01*
X-14173200Y17298800D01*
X-13970000Y17298800D01*
X-13970000Y16384400D01*
G37*
X-13970000Y16384400D02*
X-14173200Y16384400D01*
X-14173200Y16511400D01*
X-14175491Y16587002D01*
X-14186267Y16624724D01*
X-14211382Y16637421D01*
X-14231049Y16638400D01*
X-14319583Y16616881D01*
X-14379621Y16558411D01*
X-14401800Y16472123D01*
X-14401800Y16471860D01*
X-14404964Y16415858D01*
X-14424214Y16390970D01*
X-14474192Y16384592D01*
X-14503400Y16384400D01*
X-14568447Y16387065D01*
X-14597354Y16403725D01*
X-14604770Y16447381D01*
X-14605000Y16474562D01*
X-14590377Y16572657D01*
X-14552357Y16663218D01*
X-14499713Y16726941D01*
X-14486231Y16735899D01*
X-14465172Y16753703D01*
X-14465105Y16780755D01*
X-14489028Y16828815D01*
X-14524331Y16885435D01*
X-14567658Y16955605D01*
X-14596940Y17008102D01*
X-14605000Y17027974D01*
X-14582487Y17038629D01*
X-14526420Y17044440D01*
X-14506048Y17044800D01*
X-14447635Y17040915D01*
X-14405996Y17022256D01*
X-14366203Y16978318D01*
X-14325600Y16917800D01*
X-14268607Y16835724D01*
X-14227299Y16795204D01*
X-14199399Y16798142D01*
X-14182627Y16846434D01*
X-14174705Y16941981D01*
X-14173200Y17044800D01*
X-14173200Y17298800D01*
X-13970000Y17298800D01*
X-13970000Y16384400D01*
G36*
X-12852400Y16917800D02*
G01*
X-12496800Y16917800D01*
X-12496800Y17273400D01*
X-12293600Y17273400D01*
X-12293600Y16384400D01*
X-12496800Y16384400D01*
X-12496800Y16740000D01*
X-12852400Y16740000D01*
X-12852400Y16384400D01*
X-13055600Y16384400D01*
X-13055600Y17273400D01*
X-12852400Y17273400D01*
X-12852400Y16917800D01*
G37*
X-12852400Y16917800D02*
X-12496800Y16917800D01*
X-12496800Y17273400D01*
X-12293600Y17273400D01*
X-12293600Y16384400D01*
X-12496800Y16384400D01*
X-12496800Y16740000D01*
X-12852400Y16740000D01*
X-12852400Y16384400D01*
X-13055600Y16384400D01*
X-13055600Y17273400D01*
X-12852400Y17273400D01*
X-12852400Y16917800D01*
G36*
X-13709296Y18806435D02*
G01*
X-13657271Y18788330D01*
X-13586788Y18748260D01*
X-13534626Y18690626D01*
X-13498463Y18608496D01*
X-13475976Y18494934D01*
X-13464844Y18343007D01*
X-13462558Y18206850D01*
X-13462000Y17883000D01*
X-13665200Y17883000D01*
X-13665200Y18186543D01*
X-13730354Y18161772D01*
X-13848824Y18139623D01*
X-13961329Y18159639D01*
X-14055507Y18217682D01*
X-14109271Y18288569D01*
X-14132422Y18359324D01*
X-14146163Y18451517D01*
X-14147318Y18479900D01*
X-13954760Y18479900D01*
X-13944926Y18408699D01*
X-13921269Y18355394D01*
X-13921170Y18355274D01*
X-13862838Y18319994D01*
X-13789982Y18318719D01*
X-13724307Y18349846D01*
X-13704741Y18371252D01*
X-13671195Y18452821D01*
X-13675585Y18533601D01*
X-13712521Y18600319D01*
X-13776610Y18639702D01*
X-13815931Y18645000D01*
X-13894241Y18624842D01*
X-13940952Y18565531D01*
X-13954760Y18479900D01*
X-14147318Y18479900D01*
X-14147800Y18491712D01*
X-14142266Y18578926D01*
X-14119054Y18642032D01*
X-14068257Y18707124D01*
X-14064378Y18711376D01*
X-13962027Y18788012D01*
X-13840829Y18820235D01*
X-13709296Y18806435D01*
G37*
X-13709296Y18806435D02*
X-13657271Y18788330D01*
X-13586788Y18748260D01*
X-13534626Y18690626D01*
X-13498463Y18608496D01*
X-13475976Y18494934D01*
X-13464844Y18343007D01*
X-13462558Y18206850D01*
X-13462000Y17883000D01*
X-13665200Y17883000D01*
X-13665200Y18186543D01*
X-13730354Y18161772D01*
X-13848824Y18139623D01*
X-13961329Y18159639D01*
X-14055507Y18217682D01*
X-14109271Y18288569D01*
X-14132422Y18359324D01*
X-14146163Y18451517D01*
X-14147318Y18479900D01*
X-13954760Y18479900D01*
X-13944926Y18408699D01*
X-13921269Y18355394D01*
X-13921170Y18355274D01*
X-13862838Y18319994D01*
X-13789982Y18318719D01*
X-13724307Y18349846D01*
X-13704741Y18371252D01*
X-13671195Y18452821D01*
X-13675585Y18533601D01*
X-13712521Y18600319D01*
X-13776610Y18639702D01*
X-13815931Y18645000D01*
X-13894241Y18624842D01*
X-13940952Y18565531D01*
X-13954760Y18479900D01*
X-14147318Y18479900D01*
X-14147800Y18491712D01*
X-14142266Y18578926D01*
X-14119054Y18642032D01*
X-14068257Y18707124D01*
X-14064378Y18711376D01*
X-13962027Y18788012D01*
X-13840829Y18820235D01*
X-13709296Y18806435D01*
G36*
X-19583400Y18586580D02*
G01*
X-19579864Y18463675D01*
X-19566937Y18383190D01*
X-19541145Y18337091D01*
X-19499011Y18317345D01*
X-19465835Y18314800D01*
X-19403906Y18326030D01*
X-19362832Y18364292D01*
X-19339286Y18436448D01*
X-19329937Y18549359D01*
X-19329400Y18596015D01*
X-19329400Y18797400D01*
X-19151600Y18797400D01*
X-19151600Y18558049D01*
X-19152728Y18443605D01*
X-19157921Y18366836D01*
X-19169893Y18314635D01*
X-19191360Y18273894D01*
X-19217358Y18240549D01*
X-19267615Y18190685D01*
X-19310795Y18163874D01*
X-19318958Y18162400D01*
X-19341981Y18146134D01*
X-19353024Y18092242D01*
X-19354800Y18035400D01*
X-19354800Y17908400D01*
X-19558000Y17908400D01*
X-19558000Y18029832D01*
X-19560990Y18104873D01*
X-19575709Y18146132D01*
X-19610785Y18170531D01*
X-19634645Y18180193D01*
X-19703374Y18226331D01*
X-19750535Y18307234D01*
X-19777739Y18427286D01*
X-19786599Y18590869D01*
X-19786600Y18593385D01*
X-19786600Y18797400D01*
X-19583400Y18797400D01*
X-19583400Y18586580D01*
G37*
X-19583400Y18586580D02*
X-19579864Y18463675D01*
X-19566937Y18383190D01*
X-19541145Y18337091D01*
X-19499011Y18317345D01*
X-19465835Y18314800D01*
X-19403906Y18326030D01*
X-19362832Y18364292D01*
X-19339286Y18436448D01*
X-19329937Y18549359D01*
X-19329400Y18596015D01*
X-19329400Y18797400D01*
X-19151600Y18797400D01*
X-19151600Y18558049D01*
X-19152728Y18443605D01*
X-19157921Y18366836D01*
X-19169893Y18314635D01*
X-19191360Y18273894D01*
X-19217358Y18240549D01*
X-19267615Y18190685D01*
X-19310795Y18163874D01*
X-19318958Y18162400D01*
X-19341981Y18146134D01*
X-19353024Y18092242D01*
X-19354800Y18035400D01*
X-19354800Y17908400D01*
X-19558000Y17908400D01*
X-19558000Y18029832D01*
X-19560990Y18104873D01*
X-19575709Y18146132D01*
X-19610785Y18170531D01*
X-19634645Y18180193D01*
X-19703374Y18226331D01*
X-19750535Y18307234D01*
X-19777739Y18427286D01*
X-19786599Y18590869D01*
X-19786600Y18593385D01*
X-19786600Y18797400D01*
X-19583400Y18797400D01*
X-19583400Y18586580D01*
G36*
X-18364200Y18718770D02*
G01*
X-18365312Y18567762D01*
X-18369263Y18458332D01*
X-18376975Y18381293D01*
X-18389372Y18327462D01*
X-18407375Y18287650D01*
X-18407534Y18287380D01*
X-18484181Y18204224D01*
X-18589066Y18154128D01*
X-18709567Y18139969D01*
X-18833058Y18164629D01*
X-18871745Y18181490D01*
X-18952535Y18247808D01*
X-19011807Y18346131D01*
X-19041985Y18459614D01*
X-19041420Y18479900D01*
X-18846800Y18479900D01*
X-18827420Y18404021D01*
X-18778280Y18347490D01*
X-18712881Y18316880D01*
X-18644722Y18318764D01*
X-18590831Y18355274D01*
X-18567140Y18408458D01*
X-18557241Y18479653D01*
X-18557240Y18479900D01*
X-18574191Y18573029D01*
X-18624065Y18628579D01*
X-18696070Y18645000D01*
X-18769121Y18622190D01*
X-18823871Y18563678D01*
X-18846738Y18484343D01*
X-18846800Y18479900D01*
X-19041420Y18479900D01*
X-19039350Y18554111D01*
X-18998827Y18660209D01*
X-18927743Y18744289D01*
X-18837014Y18800475D01*
X-18737559Y18822889D01*
X-18640296Y18805652D01*
X-18606037Y18787387D01*
X-18542000Y18745429D01*
X-18542000Y19076800D01*
X-18364200Y19076800D01*
X-18364200Y18718770D01*
G37*
X-18364200Y18718770D02*
X-18365312Y18567762D01*
X-18369263Y18458332D01*
X-18376975Y18381293D01*
X-18389372Y18327462D01*
X-18407375Y18287650D01*
X-18407534Y18287380D01*
X-18484181Y18204224D01*
X-18589066Y18154128D01*
X-18709567Y18139969D01*
X-18833058Y18164629D01*
X-18871745Y18181490D01*
X-18952535Y18247808D01*
X-19011807Y18346131D01*
X-19041985Y18459614D01*
X-19041420Y18479900D01*
X-18846800Y18479900D01*
X-18827420Y18404021D01*
X-18778280Y18347490D01*
X-18712881Y18316880D01*
X-18644722Y18318764D01*
X-18590831Y18355274D01*
X-18567140Y18408458D01*
X-18557241Y18479653D01*
X-18557240Y18479900D01*
X-18574191Y18573029D01*
X-18624065Y18628579D01*
X-18696070Y18645000D01*
X-18769121Y18622190D01*
X-18823871Y18563678D01*
X-18846738Y18484343D01*
X-18846800Y18479900D01*
X-19041420Y18479900D01*
X-19039350Y18554111D01*
X-18998827Y18660209D01*
X-18927743Y18744289D01*
X-18837014Y18800475D01*
X-18737559Y18822889D01*
X-18640296Y18805652D01*
X-18606037Y18787387D01*
X-18542000Y18745429D01*
X-18542000Y19076800D01*
X-18364200Y19076800D01*
X-18364200Y18718770D01*
G36*
X-16687800Y18586580D02*
G01*
X-16684264Y18463675D01*
X-16671337Y18383190D01*
X-16645545Y18337091D01*
X-16603411Y18317345D01*
X-16570235Y18314800D01*
X-16508306Y18326030D01*
X-16467232Y18364292D01*
X-16443686Y18436448D01*
X-16434337Y18549359D01*
X-16433800Y18596015D01*
X-16433800Y18797400D01*
X-16256000Y18797400D01*
X-16256000Y18556501D01*
X-16256937Y18442693D01*
X-16261672Y18366682D01*
X-16273097Y18315474D01*
X-16294103Y18276074D01*
X-16327359Y18235738D01*
X-16386014Y18182415D01*
X-16452644Y18155373D01*
X-16524209Y18145576D01*
X-16660039Y18152101D01*
X-16730447Y18176539D01*
X-16804447Y18231943D01*
X-16854028Y18313879D01*
X-16881955Y18429494D01*
X-16890992Y18585934D01*
X-16891000Y18591689D01*
X-16891000Y18797400D01*
X-16687800Y18797400D01*
X-16687800Y18586580D01*
G37*
X-16687800Y18586580D02*
X-16684264Y18463675D01*
X-16671337Y18383190D01*
X-16645545Y18337091D01*
X-16603411Y18317345D01*
X-16570235Y18314800D01*
X-16508306Y18326030D01*
X-16467232Y18364292D01*
X-16443686Y18436448D01*
X-16434337Y18549359D01*
X-16433800Y18596015D01*
X-16433800Y18797400D01*
X-16256000Y18797400D01*
X-16256000Y18556501D01*
X-16256937Y18442693D01*
X-16261672Y18366682D01*
X-16273097Y18315474D01*
X-16294103Y18276074D01*
X-16327359Y18235738D01*
X-16386014Y18182415D01*
X-16452644Y18155373D01*
X-16524209Y18145576D01*
X-16660039Y18152101D01*
X-16730447Y18176539D01*
X-16804447Y18231943D01*
X-16854028Y18313879D01*
X-16881955Y18429494D01*
X-16890992Y18585934D01*
X-16891000Y18591689D01*
X-16891000Y18797400D01*
X-16687800Y18797400D01*
X-16687800Y18586580D01*
G36*
X-15925800Y18921683D02*
G01*
X-15924314Y18836984D01*
X-15917705Y18793324D01*
X-15902745Y18780975D01*
X-15881350Y18787691D01*
X-15830035Y18800428D01*
X-15751791Y18808171D01*
X-15713946Y18809211D01*
X-15631915Y18804411D01*
X-15576521Y18782825D01*
X-15524083Y18734669D01*
X-15518457Y18728426D01*
X-15466930Y18653186D01*
X-15432312Y18571072D01*
X-15428830Y18556128D01*
X-15428442Y18457445D01*
X-15455622Y18351142D01*
X-15503164Y18256808D01*
X-15561448Y18195578D01*
X-15652482Y18159026D01*
X-15765422Y18144597D01*
X-15876014Y18153613D01*
X-15939805Y18174968D01*
X-15999410Y18211375D01*
X-16042808Y18255854D01*
X-16072458Y18316568D01*
X-16090819Y18401685D01*
X-16097154Y18479900D01*
X-15910560Y18479900D01*
X-15900726Y18408699D01*
X-15877069Y18355394D01*
X-15876970Y18355274D01*
X-15818638Y18319994D01*
X-15745782Y18318719D01*
X-15680107Y18349846D01*
X-15660541Y18371252D01*
X-15626995Y18452821D01*
X-15631385Y18533601D01*
X-15668321Y18600319D01*
X-15732410Y18639702D01*
X-15771731Y18645000D01*
X-15850041Y18624842D01*
X-15896752Y18565531D01*
X-15910560Y18479900D01*
X-16097154Y18479900D01*
X-16100352Y18519368D01*
X-16103515Y18677784D01*
X-16103600Y18718770D01*
X-16103600Y19076800D01*
X-15925800Y19076800D01*
X-15925800Y18921683D01*
G37*
X-15925800Y18921683D02*
X-15924314Y18836984D01*
X-15917705Y18793324D01*
X-15902745Y18780975D01*
X-15881350Y18787691D01*
X-15830035Y18800428D01*
X-15751791Y18808171D01*
X-15713946Y18809211D01*
X-15631915Y18804411D01*
X-15576521Y18782825D01*
X-15524083Y18734669D01*
X-15518457Y18728426D01*
X-15466930Y18653186D01*
X-15432312Y18571072D01*
X-15428830Y18556128D01*
X-15428442Y18457445D01*
X-15455622Y18351142D01*
X-15503164Y18256808D01*
X-15561448Y18195578D01*
X-15652482Y18159026D01*
X-15765422Y18144597D01*
X-15876014Y18153613D01*
X-15939805Y18174968D01*
X-15999410Y18211375D01*
X-16042808Y18255854D01*
X-16072458Y18316568D01*
X-16090819Y18401685D01*
X-16097154Y18479900D01*
X-15910560Y18479900D01*
X-15900726Y18408699D01*
X-15877069Y18355394D01*
X-15876970Y18355274D01*
X-15818638Y18319994D01*
X-15745782Y18318719D01*
X-15680107Y18349846D01*
X-15660541Y18371252D01*
X-15626995Y18452821D01*
X-15631385Y18533601D01*
X-15668321Y18600319D01*
X-15732410Y18639702D01*
X-15771731Y18645000D01*
X-15850041Y18624842D01*
X-15896752Y18565531D01*
X-15910560Y18479900D01*
X-16097154Y18479900D01*
X-16100352Y18519368D01*
X-16103515Y18677784D01*
X-16103600Y18718770D01*
X-16103600Y19076800D01*
X-15925800Y19076800D01*
X-15925800Y18921683D01*
G36*
X-14914396Y18802394D02*
G01*
X-14807015Y18748534D01*
X-14718464Y18657390D01*
X-14706463Y18638883D01*
X-14664416Y18527032D01*
X-14666435Y18414064D01*
X-14706867Y18309285D01*
X-14780060Y18221997D01*
X-14880360Y18161506D01*
X-15002113Y18137115D01*
X-15011400Y18137000D01*
X-15096604Y18149709D01*
X-15182196Y18180585D01*
X-15187634Y18183413D01*
X-15284276Y18261621D01*
X-15343679Y18366092D01*
X-15361650Y18479900D01*
X-15163800Y18479900D01*
X-15142744Y18399153D01*
X-15088501Y18339297D01*
X-15014457Y18314838D01*
X-15011400Y18314800D01*
X-14933491Y18337170D01*
X-14898541Y18371252D01*
X-14864757Y18453263D01*
X-14869341Y18534127D01*
X-14906873Y18600698D01*
X-14971933Y18639826D01*
X-15011400Y18645000D01*
X-15085937Y18622189D01*
X-15141188Y18563426D01*
X-15163766Y18483212D01*
X-15163800Y18479900D01*
X-15361650Y18479900D01*
X-15362495Y18485250D01*
X-15337381Y18607519D01*
X-15320588Y18643434D01*
X-15243702Y18739491D01*
X-15143320Y18797951D01*
X-15030024Y18818892D01*
X-14914396Y18802394D01*
G37*
X-14914396Y18802394D02*
X-14807015Y18748534D01*
X-14718464Y18657390D01*
X-14706463Y18638883D01*
X-14664416Y18527032D01*
X-14666435Y18414064D01*
X-14706867Y18309285D01*
X-14780060Y18221997D01*
X-14880360Y18161506D01*
X-15002113Y18137115D01*
X-15011400Y18137000D01*
X-15096604Y18149709D01*
X-15182196Y18180585D01*
X-15187634Y18183413D01*
X-15284276Y18261621D01*
X-15343679Y18366092D01*
X-15361650Y18479900D01*
X-15163800Y18479900D01*
X-15142744Y18399153D01*
X-15088501Y18339297D01*
X-15014457Y18314838D01*
X-15011400Y18314800D01*
X-14933491Y18337170D01*
X-14898541Y18371252D01*
X-14864757Y18453263D01*
X-14869341Y18534127D01*
X-14906873Y18600698D01*
X-14971933Y18639826D01*
X-15011400Y18645000D01*
X-15085937Y18622189D01*
X-15141188Y18563426D01*
X-15163766Y18483212D01*
X-15163800Y18479900D01*
X-15361650Y18479900D01*
X-15362495Y18485250D01*
X-15337381Y18607519D01*
X-15320588Y18643434D01*
X-15243702Y18739491D01*
X-15143320Y18797951D01*
X-15030024Y18818892D01*
X-14914396Y18802394D01*
G36*
X-17587950Y18972509D02*
G01*
X-17559041Y18955892D01*
X-17551628Y18912533D01*
X-17551400Y18886300D01*
X-17545718Y18825029D01*
X-17523534Y18800306D01*
X-17500600Y18797400D01*
X-17463416Y18785426D01*
X-17450325Y18740871D01*
X-17449800Y18721200D01*
X-17458197Y18664891D01*
X-17488367Y18645493D01*
X-17497911Y18645000D01*
X-17522164Y18639456D01*
X-17537666Y18616167D01*
X-17547206Y18565153D01*
X-17553577Y18476431D01*
X-17555352Y18439540D01*
X-17565217Y18317102D01*
X-17586514Y18236740D01*
X-17626734Y18189883D01*
X-17693368Y18167961D01*
X-17793904Y18162404D01*
X-17797555Y18162400D01*
X-17875653Y18163813D01*
X-17915676Y18172843D01*
X-17930350Y18196682D01*
X-17932400Y18238600D01*
X-17927445Y18289796D01*
X-17902308Y18310795D01*
X-17843500Y18314800D01*
X-17754600Y18314800D01*
X-17754600Y18645000D01*
X-17843500Y18645000D01*
X-17903229Y18649248D01*
X-17927727Y18670794D01*
X-17932400Y18721200D01*
X-17927445Y18772396D01*
X-17902308Y18793395D01*
X-17843500Y18797400D01*
X-17783917Y18801332D01*
X-17759481Y18823516D01*
X-17754612Y18879534D01*
X-17754600Y18886300D01*
X-17751525Y18943220D01*
X-17732533Y18968515D01*
X-17682980Y18975002D01*
X-17653000Y18975200D01*
X-17587950Y18972509D01*
G37*
X-17587950Y18972509D02*
X-17559041Y18955892D01*
X-17551628Y18912533D01*
X-17551400Y18886300D01*
X-17545718Y18825029D01*
X-17523534Y18800306D01*
X-17500600Y18797400D01*
X-17463416Y18785426D01*
X-17450325Y18740871D01*
X-17449800Y18721200D01*
X-17458197Y18664891D01*
X-17488367Y18645493D01*
X-17497911Y18645000D01*
X-17522164Y18639456D01*
X-17537666Y18616167D01*
X-17547206Y18565153D01*
X-17553577Y18476431D01*
X-17555352Y18439540D01*
X-17565217Y18317102D01*
X-17586514Y18236740D01*
X-17626734Y18189883D01*
X-17693368Y18167961D01*
X-17793904Y18162404D01*
X-17797555Y18162400D01*
X-17875653Y18163813D01*
X-17915676Y18172843D01*
X-17930350Y18196682D01*
X-17932400Y18238600D01*
X-17927445Y18289796D01*
X-17902308Y18310795D01*
X-17843500Y18314800D01*
X-17754600Y18314800D01*
X-17754600Y18645000D01*
X-17843500Y18645000D01*
X-17903229Y18649248D01*
X-17927727Y18670794D01*
X-17932400Y18721200D01*
X-17927445Y18772396D01*
X-17902308Y18793395D01*
X-17843500Y18797400D01*
X-17783917Y18801332D01*
X-17759481Y18823516D01*
X-17754612Y18879534D01*
X-17754600Y18886300D01*
X-17751525Y18943220D01*
X-17732533Y18968515D01*
X-17682980Y18975002D01*
X-17653000Y18975200D01*
X-17587950Y18972509D01*
G36*
X-17190239Y18776536D02*
G01*
X-17088506Y18717062D01*
X-17021186Y18623654D01*
X-16993124Y18500991D01*
X-16992600Y18479900D01*
X-17014216Y18353166D01*
X-17075834Y18254971D01*
X-17172607Y18189992D01*
X-17299689Y18162906D01*
X-17321539Y18162400D01*
X-17387208Y18165314D01*
X-17416604Y18181206D01*
X-17424206Y18220801D01*
X-17424400Y18238600D01*
X-17417632Y18292994D01*
X-17388558Y18312917D01*
X-17359746Y18314800D01*
X-17296960Y18333244D01*
X-17232962Y18378430D01*
X-17185203Y18435140D01*
X-17170400Y18479900D01*
X-17191553Y18534646D01*
X-17243374Y18590450D01*
X-17308413Y18632093D01*
X-17359746Y18645000D01*
X-17405898Y18652978D01*
X-17422802Y18687243D01*
X-17424400Y18721200D01*
X-17420467Y18769848D01*
X-17399015Y18791625D01*
X-17345566Y18797256D01*
X-17321539Y18797400D01*
X-17190239Y18776536D01*
G37*
X-17190239Y18776536D02*
X-17088506Y18717062D01*
X-17021186Y18623654D01*
X-16993124Y18500991D01*
X-16992600Y18479900D01*
X-17014216Y18353166D01*
X-17075834Y18254971D01*
X-17172607Y18189992D01*
X-17299689Y18162906D01*
X-17321539Y18162400D01*
X-17387208Y18165314D01*
X-17416604Y18181206D01*
X-17424206Y18220801D01*
X-17424400Y18238600D01*
X-17417632Y18292994D01*
X-17388558Y18312917D01*
X-17359746Y18314800D01*
X-17296960Y18333244D01*
X-17232962Y18378430D01*
X-17185203Y18435140D01*
X-17170400Y18479900D01*
X-17191553Y18534646D01*
X-17243374Y18590450D01*
X-17308413Y18632093D01*
X-17359746Y18645000D01*
X-17405898Y18652978D01*
X-17422802Y18687243D01*
X-17424400Y18721200D01*
X-17420467Y18769848D01*
X-17399015Y18791625D01*
X-17345566Y18797256D01*
X-17321539Y18797400D01*
X-17190239Y18776536D01*
G36*
X-14396180Y18792884D02*
G01*
X-14329920Y18774343D01*
X-14287017Y18734296D01*
X-14262570Y18665259D01*
X-14251673Y18559746D01*
X-14249400Y18429100D01*
X-14249400Y18162400D01*
X-14452600Y18162400D01*
X-14452600Y18645000D01*
X-14541500Y18645000D01*
X-14601229Y18649248D01*
X-14625727Y18670794D01*
X-14630400Y18721200D01*
X-14628055Y18764763D01*
X-14612681Y18787437D01*
X-14571777Y18796042D01*
X-14492837Y18797400D01*
X-14490700Y18797400D01*
X-14396180Y18792884D01*
G37*
X-14396180Y18792884D02*
X-14329920Y18774343D01*
X-14287017Y18734296D01*
X-14262570Y18665259D01*
X-14251673Y18559746D01*
X-14249400Y18429100D01*
X-14249400Y18162400D01*
X-14452600Y18162400D01*
X-14452600Y18645000D01*
X-14541500Y18645000D01*
X-14601229Y18649248D01*
X-14625727Y18670794D01*
X-14630400Y18721200D01*
X-14628055Y18764763D01*
X-14612681Y18787437D01*
X-14571777Y18796042D01*
X-14492837Y18797400D01*
X-14490700Y18797400D01*
X-14396180Y18792884D01*
G36*
X-12557642Y19020936D02*
G01*
X-12538847Y19004961D01*
X-12518727Y18969351D01*
X-12485410Y18896257D01*
X-12442891Y18795869D01*
X-12395160Y18678377D01*
X-12346213Y18553971D01*
X-12300040Y18432841D01*
X-12260636Y18325176D01*
X-12231993Y18241168D01*
X-12218103Y18191005D01*
X-12217400Y18184609D01*
X-12239905Y18170558D01*
X-12295964Y18162884D01*
X-12316516Y18162400D01*
X-12383775Y18167507D01*
X-12419809Y18190578D01*
X-12442194Y18238600D01*
X-12457594Y18277157D01*
X-12478484Y18299854D01*
X-12516979Y18310893D01*
X-12585197Y18314477D01*
X-12661900Y18314800D01*
X-12759899Y18314028D01*
X-12819213Y18308908D01*
X-12851959Y18295238D01*
X-12870254Y18268818D01*
X-12881607Y18238600D01*
X-12903653Y18190707D01*
X-12936905Y18168586D01*
X-12998978Y18162538D01*
X-13019985Y18162400D01*
X-13087234Y18163689D01*
X-13126912Y18166940D01*
X-13131477Y18168750D01*
X-13121274Y18208744D01*
X-13095206Y18284228D01*
X-13057166Y18385649D01*
X-13011046Y18503452D01*
X-12996783Y18538790D01*
X-12776200Y18538790D01*
X-12753469Y18526467D01*
X-12695871Y18519013D01*
X-12660189Y18518000D01*
X-12590010Y18519985D01*
X-12559307Y18530334D01*
X-12556786Y18555641D01*
X-12562305Y18575150D01*
X-12608442Y18715276D01*
X-12643033Y18807970D01*
X-12666846Y18855083D01*
X-12680169Y18859337D01*
X-12695293Y18822215D01*
X-12717702Y18754688D01*
X-12742034Y18674651D01*
X-12762929Y18600000D01*
X-12775025Y18548630D01*
X-12776200Y18538790D01*
X-12996783Y18538790D01*
X-12960741Y18628083D01*
X-12910143Y18749989D01*
X-12863147Y18859616D01*
X-12823644Y18947408D01*
X-12795530Y19003812D01*
X-12784822Y19019424D01*
X-12713365Y19047058D01*
X-12629630Y19047091D01*
X-12557642Y19020936D01*
G37*
X-12557642Y19020936D02*
X-12538847Y19004961D01*
X-12518727Y18969351D01*
X-12485410Y18896257D01*
X-12442891Y18795869D01*
X-12395160Y18678377D01*
X-12346213Y18553971D01*
X-12300040Y18432841D01*
X-12260636Y18325176D01*
X-12231993Y18241168D01*
X-12218103Y18191005D01*
X-12217400Y18184609D01*
X-12239905Y18170558D01*
X-12295964Y18162884D01*
X-12316516Y18162400D01*
X-12383775Y18167507D01*
X-12419809Y18190578D01*
X-12442194Y18238600D01*
X-12457594Y18277157D01*
X-12478484Y18299854D01*
X-12516979Y18310893D01*
X-12585197Y18314477D01*
X-12661900Y18314800D01*
X-12759899Y18314028D01*
X-12819213Y18308908D01*
X-12851959Y18295238D01*
X-12870254Y18268818D01*
X-12881607Y18238600D01*
X-12903653Y18190707D01*
X-12936905Y18168586D01*
X-12998978Y18162538D01*
X-13019985Y18162400D01*
X-13087234Y18163689D01*
X-13126912Y18166940D01*
X-13131477Y18168750D01*
X-13121274Y18208744D01*
X-13095206Y18284228D01*
X-13057166Y18385649D01*
X-13011046Y18503452D01*
X-12996783Y18538790D01*
X-12776200Y18538790D01*
X-12753469Y18526467D01*
X-12695871Y18519013D01*
X-12660189Y18518000D01*
X-12590010Y18519985D01*
X-12559307Y18530334D01*
X-12556786Y18555641D01*
X-12562305Y18575150D01*
X-12608442Y18715276D01*
X-12643033Y18807970D01*
X-12666846Y18855083D01*
X-12680169Y18859337D01*
X-12695293Y18822215D01*
X-12717702Y18754688D01*
X-12742034Y18674651D01*
X-12762929Y18600000D01*
X-12775025Y18548630D01*
X-12776200Y18538790D01*
X-12996783Y18538790D01*
X-12960741Y18628083D01*
X-12910143Y18749989D01*
X-12863147Y18859616D01*
X-12823644Y18947408D01*
X-12795530Y19003812D01*
X-12784822Y19019424D01*
X-12713365Y19047058D01*
X-12629630Y19047091D01*
X-12557642Y19020936D01*
G36*
X-10667684Y18008700D02*
G01*
X-10592179Y17962379D01*
X-10486094Y17884210D01*
X-10462204Y17865648D01*
X-10385984Y17807986D01*
X-10335408Y17777838D01*
X-10297109Y17770181D01*
X-10257720Y17779991D01*
X-10246304Y17784516D01*
X-10177099Y17800502D01*
X-10073864Y17810233D01*
X-9952983Y17813723D01*
X-9830837Y17810983D01*
X-9723810Y17802025D01*
X-9648283Y17786863D01*
X-9640691Y17784057D01*
X-9581008Y17767145D01*
X-9533618Y17781152D01*
X-9500991Y17804446D01*
X-9359991Y17910991D01*
X-9253739Y17981768D01*
X-9181399Y18017268D01*
X-9142137Y18017981D01*
X-9140047Y18016207D01*
X-9126657Y17981463D01*
X-9110188Y17906591D01*
X-9092577Y17802014D01*
X-9075759Y17678158D01*
X-9073077Y17655586D01*
X-9056302Y17518737D01*
X-9042220Y17425300D01*
X-9029060Y17368084D01*
X-9015051Y17339896D01*
X-8998420Y17333546D01*
X-8993973Y17334436D01*
X-8936522Y17350541D01*
X-8896350Y17361997D01*
X-8850300Y17364622D01*
X-8838180Y17343619D01*
X-8857465Y17310737D01*
X-8905629Y17277725D01*
X-8915400Y17273400D01*
X-8975605Y17241953D01*
X-8986023Y17219494D01*
X-8947166Y17207889D01*
X-8897198Y17207003D01*
X-8830379Y17202692D01*
X-8799251Y17180388D01*
X-8793156Y17162442D01*
X-8795313Y17129805D01*
X-8812802Y17133084D01*
X-8870461Y17145151D01*
X-8927258Y17124540D01*
X-8962642Y17081030D01*
X-8966200Y17060079D01*
X-8986740Y16999525D01*
X-9041276Y16925578D01*
X-9119188Y16849132D01*
X-9209854Y16781080D01*
X-9273150Y16745265D01*
X-9469065Y16671788D01*
X-9691933Y16623308D01*
X-9923019Y16602609D01*
X-10143591Y16612479D01*
X-10155602Y16614040D01*
X-10326661Y16644573D01*
X-10474640Y16689885D01*
X-10618812Y16754195D01*
X-10704373Y16807688D01*
X-10788237Y16877739D01*
X-10859587Y16953132D01*
X-10907606Y17022653D01*
X-10922000Y17068562D01*
X-10936230Y17099608D01*
X-9994399Y17099608D01*
X-9982200Y17082900D01*
X-9953237Y17051424D01*
X-9944100Y17044800D01*
X-9924888Y17061499D01*
X-9906000Y17082900D01*
X-9890796Y17110151D01*
X-9914283Y17120089D01*
X-9944100Y17121000D01*
X-9990606Y17116951D01*
X-9994399Y17099608D01*
X-10936230Y17099608D01*
X-10943290Y17115008D01*
X-10995540Y17138194D01*
X-11060698Y17130570D01*
X-11093548Y17127463D01*
X-11095086Y17161744D01*
X-11078746Y17192716D01*
X-11037589Y17205073D01*
X-10978210Y17205092D01*
X-10902472Y17207866D01*
X-10874839Y17222853D01*
X-10896217Y17246636D01*
X-10960100Y17273400D01*
X-11018252Y17301450D01*
X-11047994Y17333117D01*
X-11049000Y17338870D01*
X-11039509Y17368205D01*
X-11004690Y17371548D01*
X-10935023Y17349721D01*
X-10932831Y17348890D01*
X-10881082Y17332710D01*
X-10855834Y17331101D01*
X-10850966Y17353329D01*
X-10452100Y17353329D01*
X-10392137Y17300665D01*
X-10326220Y17260872D01*
X-10261297Y17249641D01*
X-10213284Y17268189D01*
X-10201615Y17286100D01*
X-10205895Y17317879D01*
X-10207383Y17318216D01*
X-9692776Y17318216D01*
X-9682779Y17292764D01*
X-9677400Y17286100D01*
X-9620276Y17252079D01*
X-9550645Y17257539D01*
X-9486012Y17300978D01*
X-9484487Y17302678D01*
X-9436100Y17357356D01*
X-9521825Y17340778D01*
X-9596777Y17329131D01*
X-9657722Y17324201D01*
X-9658286Y17324200D01*
X-9692776Y17318216D01*
X-10207383Y17318216D01*
X-10233823Y17324200D01*
X-10291391Y17328404D01*
X-10365025Y17338536D01*
X-10366375Y17338765D01*
X-10452100Y17353329D01*
X-10850966Y17353329D01*
X-10849939Y17358017D01*
X-10839739Y17425707D01*
X-10826584Y17524459D01*
X-10811822Y17644563D01*
X-10809250Y17666397D01*
X-10793160Y17790921D01*
X-10776551Y17897384D01*
X-10761238Y17975464D01*
X-10749037Y18014842D01*
X-10747621Y18016740D01*
X-10717776Y18025908D01*
X-10667684Y18008700D01*
G37*
X-10667684Y18008700D02*
X-10592179Y17962379D01*
X-10486094Y17884210D01*
X-10462204Y17865648D01*
X-10385984Y17807986D01*
X-10335408Y17777838D01*
X-10297109Y17770181D01*
X-10257720Y17779991D01*
X-10246304Y17784516D01*
X-10177099Y17800502D01*
X-10073864Y17810233D01*
X-9952983Y17813723D01*
X-9830837Y17810983D01*
X-9723810Y17802025D01*
X-9648283Y17786863D01*
X-9640691Y17784057D01*
X-9581008Y17767145D01*
X-9533618Y17781152D01*
X-9500991Y17804446D01*
X-9359991Y17910991D01*
X-9253739Y17981768D01*
X-9181399Y18017268D01*
X-9142137Y18017981D01*
X-9140047Y18016207D01*
X-9126657Y17981463D01*
X-9110188Y17906591D01*
X-9092577Y17802014D01*
X-9075759Y17678158D01*
X-9073077Y17655586D01*
X-9056302Y17518737D01*
X-9042220Y17425300D01*
X-9029060Y17368084D01*
X-9015051Y17339896D01*
X-8998420Y17333546D01*
X-8993973Y17334436D01*
X-8936522Y17350541D01*
X-8896350Y17361997D01*
X-8850300Y17364622D01*
X-8838180Y17343619D01*
X-8857465Y17310737D01*
X-8905629Y17277725D01*
X-8915400Y17273400D01*
X-8975605Y17241953D01*
X-8986023Y17219494D01*
X-8947166Y17207889D01*
X-8897198Y17207003D01*
X-8830379Y17202692D01*
X-8799251Y17180388D01*
X-8793156Y17162442D01*
X-8795313Y17129805D01*
X-8812802Y17133084D01*
X-8870461Y17145151D01*
X-8927258Y17124540D01*
X-8962642Y17081030D01*
X-8966200Y17060079D01*
X-8986740Y16999525D01*
X-9041276Y16925578D01*
X-9119188Y16849132D01*
X-9209854Y16781080D01*
X-9273150Y16745265D01*
X-9469065Y16671788D01*
X-9691933Y16623308D01*
X-9923019Y16602609D01*
X-10143591Y16612479D01*
X-10155602Y16614040D01*
X-10326661Y16644573D01*
X-10474640Y16689885D01*
X-10618812Y16754195D01*
X-10704373Y16807688D01*
X-10788237Y16877739D01*
X-10859587Y16953132D01*
X-10907606Y17022653D01*
X-10922000Y17068562D01*
X-10936230Y17099608D01*
X-9994399Y17099608D01*
X-9982200Y17082900D01*
X-9953237Y17051424D01*
X-9944100Y17044800D01*
X-9924888Y17061499D01*
X-9906000Y17082900D01*
X-9890796Y17110151D01*
X-9914283Y17120089D01*
X-9944100Y17121000D01*
X-9990606Y17116951D01*
X-9994399Y17099608D01*
X-10936230Y17099608D01*
X-10943290Y17115008D01*
X-10995540Y17138194D01*
X-11060698Y17130570D01*
X-11093548Y17127463D01*
X-11095086Y17161744D01*
X-11078746Y17192716D01*
X-11037589Y17205073D01*
X-10978210Y17205092D01*
X-10902472Y17207866D01*
X-10874839Y17222853D01*
X-10896217Y17246636D01*
X-10960100Y17273400D01*
X-11018252Y17301450D01*
X-11047994Y17333117D01*
X-11049000Y17338870D01*
X-11039509Y17368205D01*
X-11004690Y17371548D01*
X-10935023Y17349721D01*
X-10932831Y17348890D01*
X-10881082Y17332710D01*
X-10855834Y17331101D01*
X-10850966Y17353329D01*
X-10452100Y17353329D01*
X-10392137Y17300665D01*
X-10326220Y17260872D01*
X-10261297Y17249641D01*
X-10213284Y17268189D01*
X-10201615Y17286100D01*
X-10205895Y17317879D01*
X-10207383Y17318216D01*
X-9692776Y17318216D01*
X-9682779Y17292764D01*
X-9677400Y17286100D01*
X-9620276Y17252079D01*
X-9550645Y17257539D01*
X-9486012Y17300978D01*
X-9484487Y17302678D01*
X-9436100Y17357356D01*
X-9521825Y17340778D01*
X-9596777Y17329131D01*
X-9657722Y17324201D01*
X-9658286Y17324200D01*
X-9692776Y17318216D01*
X-10207383Y17318216D01*
X-10233823Y17324200D01*
X-10291391Y17328404D01*
X-10365025Y17338536D01*
X-10366375Y17338765D01*
X-10452100Y17353329D01*
X-10850966Y17353329D01*
X-10849939Y17358017D01*
X-10839739Y17425707D01*
X-10826584Y17524459D01*
X-10811822Y17644563D01*
X-10809250Y17666397D01*
X-10793160Y17790921D01*
X-10776551Y17897384D01*
X-10761238Y17975464D01*
X-10749037Y18014842D01*
X-10747621Y18016740D01*
X-10717776Y18025908D01*
X-10667684Y18008700D01*
G36*
X-9918817Y18966568D02*
G01*
X-9883811Y18921051D01*
X-9835467Y18832207D01*
X-9827296Y18816450D01*
X-9797495Y18756628D01*
X-9791388Y18729221D01*
X-9809238Y18721572D01*
X-9829284Y18721200D01*
X-9856379Y18716471D01*
X-9871828Y18694986D01*
X-9878831Y18645803D01*
X-9880590Y18557975D01*
X-9880600Y18545700D01*
X-9880600Y18370199D01*
X-9750973Y18404394D01*
X-9653044Y18434193D01*
X-9605037Y18458897D01*
X-9606364Y18478867D01*
X-9620250Y18485495D01*
X-9641114Y18517302D01*
X-9651462Y18585851D01*
X-9652000Y18609017D01*
X-9652000Y18721200D01*
X-9423400Y18721200D01*
X-9423400Y18606900D01*
X-9428445Y18538735D01*
X-9441210Y18497845D01*
X-9448800Y18492600D01*
X-9468094Y18470920D01*
X-9474200Y18430903D01*
X-9480700Y18399465D01*
X-9505106Y18372878D01*
X-9554782Y18347745D01*
X-9637089Y18320667D01*
X-9759389Y18288247D01*
X-9810750Y18275559D01*
X-9867013Y18247395D01*
X-9875448Y18202875D01*
X-9835887Y18143234D01*
X-9829800Y18137000D01*
X-9785593Y18064868D01*
X-9785088Y17992062D01*
X-9822699Y17930206D01*
X-9892842Y17890925D01*
X-9951865Y17883000D01*
X-10027232Y17900090D01*
X-10074118Y17947541D01*
X-10101548Y18006264D01*
X-10093622Y18061168D01*
X-10087623Y18075254D01*
X-10052708Y18127953D01*
X-10020520Y18153131D01*
X-9984653Y18185599D01*
X-9987520Y18228423D01*
X-10024817Y18264967D01*
X-10052050Y18275018D01*
X-10195584Y18311171D01*
X-10294870Y18341951D01*
X-10355853Y18369812D01*
X-10384480Y18397210D01*
X-10388600Y18414000D01*
X-10407019Y18469468D01*
X-10426700Y18492600D01*
X-10456969Y18545616D01*
X-10462905Y18616854D01*
X-10443474Y18679390D01*
X-10434320Y18690720D01*
X-10386824Y18714191D01*
X-10337800Y18721200D01*
X-10275858Y18710112D01*
X-10241280Y18690720D01*
X-10214399Y18632579D01*
X-10216996Y18558629D01*
X-10248001Y18493650D01*
X-10249884Y18491514D01*
X-10269372Y18464075D01*
X-10259302Y18445966D01*
X-10211381Y18429067D01*
X-10176954Y18420121D01*
X-10099063Y18399340D01*
X-10037432Y18380892D01*
X-10023571Y18376041D01*
X-10001926Y18374005D01*
X-9989381Y18394832D01*
X-9983589Y18447866D01*
X-9982200Y18540683D01*
X-9983138Y18634462D01*
X-9988471Y18688425D01*
X-10001984Y18713553D01*
X-10027459Y18720826D01*
X-10044388Y18721200D01*
X-10106575Y18721200D01*
X-10025747Y18861926D01*
X-9981590Y18935127D01*
X-9948678Y18970634D01*
X-9918817Y18966568D01*
G37*
X-9918817Y18966568D02*
X-9883811Y18921051D01*
X-9835467Y18832207D01*
X-9827296Y18816450D01*
X-9797495Y18756628D01*
X-9791388Y18729221D01*
X-9809238Y18721572D01*
X-9829284Y18721200D01*
X-9856379Y18716471D01*
X-9871828Y18694986D01*
X-9878831Y18645803D01*
X-9880590Y18557975D01*
X-9880600Y18545700D01*
X-9880600Y18370199D01*
X-9750973Y18404394D01*
X-9653044Y18434193D01*
X-9605037Y18458897D01*
X-9606364Y18478867D01*
X-9620250Y18485495D01*
X-9641114Y18517302D01*
X-9651462Y18585851D01*
X-9652000Y18609017D01*
X-9652000Y18721200D01*
X-9423400Y18721200D01*
X-9423400Y18606900D01*
X-9428445Y18538735D01*
X-9441210Y18497845D01*
X-9448800Y18492600D01*
X-9468094Y18470920D01*
X-9474200Y18430903D01*
X-9480700Y18399465D01*
X-9505106Y18372878D01*
X-9554782Y18347745D01*
X-9637089Y18320667D01*
X-9759389Y18288247D01*
X-9810750Y18275559D01*
X-9867013Y18247395D01*
X-9875448Y18202875D01*
X-9835887Y18143234D01*
X-9829800Y18137000D01*
X-9785593Y18064868D01*
X-9785088Y17992062D01*
X-9822699Y17930206D01*
X-9892842Y17890925D01*
X-9951865Y17883000D01*
X-10027232Y17900090D01*
X-10074118Y17947541D01*
X-10101548Y18006264D01*
X-10093622Y18061168D01*
X-10087623Y18075254D01*
X-10052708Y18127953D01*
X-10020520Y18153131D01*
X-9984653Y18185599D01*
X-9987520Y18228423D01*
X-10024817Y18264967D01*
X-10052050Y18275018D01*
X-10195584Y18311171D01*
X-10294870Y18341951D01*
X-10355853Y18369812D01*
X-10384480Y18397210D01*
X-10388600Y18414000D01*
X-10407019Y18469468D01*
X-10426700Y18492600D01*
X-10456969Y18545616D01*
X-10462905Y18616854D01*
X-10443474Y18679390D01*
X-10434320Y18690720D01*
X-10386824Y18714191D01*
X-10337800Y18721200D01*
X-10275858Y18710112D01*
X-10241280Y18690720D01*
X-10214399Y18632579D01*
X-10216996Y18558629D01*
X-10248001Y18493650D01*
X-10249884Y18491514D01*
X-10269372Y18464075D01*
X-10259302Y18445966D01*
X-10211381Y18429067D01*
X-10176954Y18420121D01*
X-10099063Y18399340D01*
X-10037432Y18380892D01*
X-10023571Y18376041D01*
X-10001926Y18374005D01*
X-9989381Y18394832D01*
X-9983589Y18447866D01*
X-9982200Y18540683D01*
X-9983138Y18634462D01*
X-9988471Y18688425D01*
X-10001984Y18713553D01*
X-10027459Y18720826D01*
X-10044388Y18721200D01*
X-10106575Y18721200D01*
X-10025747Y18861926D01*
X-9981590Y18935127D01*
X-9948678Y18970634D01*
X-9918817Y18966568D01*
D13*
G36*
X11289548Y-24394122D02*
G01*
X11323887Y-24404539D01*
X11355536Y-24421456D01*
X11383278Y-24444222D01*
X11406044Y-24471964D01*
X11422961Y-24503613D01*
X11433378Y-24537952D01*
X11437500Y-24579807D01*
X11437500Y-27702193D01*
X11433378Y-27744048D01*
X11422961Y-27778387D01*
X11406044Y-27810036D01*
X11383278Y-27837778D01*
X11355536Y-27860544D01*
X11323887Y-27877461D01*
X11289548Y-27887878D01*
X11247693Y-27892000D01*
X10025307Y-27892000D01*
X9983452Y-27887878D01*
X9949113Y-27877461D01*
X9917464Y-27860544D01*
X9889722Y-27837778D01*
X9866956Y-27810036D01*
X9850039Y-27778387D01*
X9839622Y-27744048D01*
X9835500Y-27702193D01*
X9835500Y-24579807D01*
X9839622Y-24537952D01*
X9850039Y-24503613D01*
X9866956Y-24471964D01*
X9889722Y-24444222D01*
X9917464Y-24421456D01*
X9949113Y-24404539D01*
X9983452Y-24394122D01*
X10025307Y-24390000D01*
X11247693Y-24390000D01*
X11289548Y-24394122D01*
G37*
G36*
X2589548Y-24394122D02*
G01*
X2623887Y-24404539D01*
X2655536Y-24421456D01*
X2683278Y-24444222D01*
X2706044Y-24471964D01*
X2722961Y-24503613D01*
X2733378Y-24537952D01*
X2737500Y-24579807D01*
X2737500Y-27702193D01*
X2733378Y-27744048D01*
X2722961Y-27778387D01*
X2706044Y-27810036D01*
X2683278Y-27837778D01*
X2655536Y-27860544D01*
X2623887Y-27877461D01*
X2589548Y-27887878D01*
X2547693Y-27892000D01*
X1325307Y-27892000D01*
X1283452Y-27887878D01*
X1249113Y-27877461D01*
X1217464Y-27860544D01*
X1189722Y-27837778D01*
X1166956Y-27810036D01*
X1150039Y-27778387D01*
X1139622Y-27744048D01*
X1135500Y-27702193D01*
X1135500Y-24579807D01*
X1139622Y-24537952D01*
X1150039Y-24503613D01*
X1166956Y-24471964D01*
X1189722Y-24444222D01*
X1217464Y-24421456D01*
X1249113Y-24404539D01*
X1283452Y-24394122D01*
X1325307Y-24390000D01*
X2547693Y-24390000D01*
X2589548Y-24394122D01*
G37*
G36*
X-4582758Y-25947404D02*
G01*
X-4545663Y-25958657D01*
X-4511485Y-25976925D01*
X-4481519Y-26001519D01*
X-4456925Y-26031485D01*
X-4438657Y-26065663D01*
X-4427404Y-26102758D01*
X-4423000Y-26147474D01*
X-4423000Y-27640526D01*
X-4427404Y-27685242D01*
X-4438657Y-27722337D01*
X-4456925Y-27756515D01*
X-4481519Y-27786481D01*
X-4511485Y-27811075D01*
X-4545663Y-27829343D01*
X-4582758Y-27840596D01*
X-4627474Y-27845000D01*
X-5520526Y-27845000D01*
X-5565242Y-27840596D01*
X-5602337Y-27829343D01*
X-5636515Y-27811075D01*
X-5666481Y-27786481D01*
X-5691075Y-27756515D01*
X-5709343Y-27722337D01*
X-5720596Y-27685242D01*
X-5725000Y-27640526D01*
X-5725000Y-26147474D01*
X-5720596Y-26102758D01*
X-5709343Y-26065663D01*
X-5691075Y-26031485D01*
X-5666481Y-26001519D01*
X-5636515Y-25976925D01*
X-5602337Y-25958657D01*
X-5565242Y-25947404D01*
X-5520526Y-25943000D01*
X-4627474Y-25943000D01*
X-4582758Y-25947404D01*
G37*
G36*
X-10182758Y-25947404D02*
G01*
X-10145663Y-25958657D01*
X-10111485Y-25976925D01*
X-10081519Y-26001519D01*
X-10056925Y-26031485D01*
X-10038657Y-26065663D01*
X-10027404Y-26102758D01*
X-10023000Y-26147474D01*
X-10023000Y-27640526D01*
X-10027404Y-27685242D01*
X-10038657Y-27722337D01*
X-10056925Y-27756515D01*
X-10081519Y-27786481D01*
X-10111485Y-27811075D01*
X-10145663Y-27829343D01*
X-10182758Y-27840596D01*
X-10227474Y-27845000D01*
X-11120526Y-27845000D01*
X-11165242Y-27840596D01*
X-11202337Y-27829343D01*
X-11236515Y-27811075D01*
X-11266481Y-27786481D01*
X-11291075Y-27756515D01*
X-11309343Y-27722337D01*
X-11320596Y-27685242D01*
X-11325000Y-27640526D01*
X-11325000Y-26147474D01*
X-11320596Y-26102758D01*
X-11309343Y-26065663D01*
X-11291075Y-26031485D01*
X-11266481Y-26001519D01*
X-11236515Y-25976925D01*
X-11202337Y-25958657D01*
X-11165242Y-25947404D01*
X-11120526Y-25943000D01*
X-10227474Y-25943000D01*
X-10182758Y-25947404D01*
G37*
G36*
X-6114072Y-22195764D02*
G01*
X-6092991Y-22202160D01*
X-6073555Y-22212548D01*
X-6056524Y-22226524D01*
X-6042548Y-22243555D01*
X-6032160Y-22262991D01*
X-6025764Y-22284072D01*
X-6023000Y-22312140D01*
X-6023000Y-23725860D01*
X-6025764Y-23753928D01*
X-6032160Y-23775009D01*
X-6042548Y-23794445D01*
X-6056524Y-23811476D01*
X-6073555Y-23825452D01*
X-6092991Y-23835840D01*
X-6114072Y-23842236D01*
X-6142140Y-23845000D01*
X-6605860Y-23845000D01*
X-6633928Y-23842236D01*
X-6655009Y-23835840D01*
X-6674445Y-23825452D01*
X-6691476Y-23811476D01*
X-6705452Y-23794445D01*
X-6715840Y-23775009D01*
X-6722236Y-23753928D01*
X-6725000Y-23725860D01*
X-6725000Y-22312140D01*
X-6722236Y-22284072D01*
X-6715840Y-22262991D01*
X-6705452Y-22243555D01*
X-6691476Y-22226524D01*
X-6674445Y-22212548D01*
X-6655009Y-22202160D01*
X-6633928Y-22195764D01*
X-6605860Y-22193000D01*
X-6142140Y-22193000D01*
X-6114072Y-22195764D01*
G37*
G36*
X-7114072Y-22195764D02*
G01*
X-7092991Y-22202160D01*
X-7073555Y-22212548D01*
X-7056524Y-22226524D01*
X-7042548Y-22243555D01*
X-7032160Y-22262991D01*
X-7025764Y-22284072D01*
X-7023000Y-22312140D01*
X-7023000Y-23725860D01*
X-7025764Y-23753928D01*
X-7032160Y-23775009D01*
X-7042548Y-23794445D01*
X-7056524Y-23811476D01*
X-7073555Y-23825452D01*
X-7092991Y-23835840D01*
X-7114072Y-23842236D01*
X-7142140Y-23845000D01*
X-7605860Y-23845000D01*
X-7633928Y-23842236D01*
X-7655009Y-23835840D01*
X-7674445Y-23825452D01*
X-7691476Y-23811476D01*
X-7705452Y-23794445D01*
X-7715840Y-23775009D01*
X-7722236Y-23753928D01*
X-7725000Y-23725860D01*
X-7725000Y-22312140D01*
X-7722236Y-22284072D01*
X-7715840Y-22262991D01*
X-7705452Y-22243555D01*
X-7691476Y-22226524D01*
X-7674445Y-22212548D01*
X-7655009Y-22202160D01*
X-7633928Y-22195764D01*
X-7605860Y-22193000D01*
X-7142140Y-22193000D01*
X-7114072Y-22195764D01*
G37*
G36*
X-8114072Y-22195764D02*
G01*
X-8092991Y-22202160D01*
X-8073555Y-22212548D01*
X-8056524Y-22226524D01*
X-8042548Y-22243555D01*
X-8032160Y-22262991D01*
X-8025764Y-22284072D01*
X-8023000Y-22312140D01*
X-8023000Y-23725860D01*
X-8025764Y-23753928D01*
X-8032160Y-23775009D01*
X-8042548Y-23794445D01*
X-8056524Y-23811476D01*
X-8073555Y-23825452D01*
X-8092991Y-23835840D01*
X-8114072Y-23842236D01*
X-8142140Y-23845000D01*
X-8605860Y-23845000D01*
X-8633928Y-23842236D01*
X-8655009Y-23835840D01*
X-8674445Y-23825452D01*
X-8691476Y-23811476D01*
X-8705452Y-23794445D01*
X-8715840Y-23775009D01*
X-8722236Y-23753928D01*
X-8725000Y-23725860D01*
X-8725000Y-22312140D01*
X-8722236Y-22284072D01*
X-8715840Y-22262991D01*
X-8705452Y-22243555D01*
X-8691476Y-22226524D01*
X-8674445Y-22212548D01*
X-8655009Y-22202160D01*
X-8633928Y-22195764D01*
X-8605860Y-22193000D01*
X-8142140Y-22193000D01*
X-8114072Y-22195764D01*
G37*
G36*
X-9114072Y-22195764D02*
G01*
X-9092991Y-22202160D01*
X-9073555Y-22212548D01*
X-9056524Y-22226524D01*
X-9042548Y-22243555D01*
X-9032160Y-22262991D01*
X-9025764Y-22284072D01*
X-9023000Y-22312140D01*
X-9023000Y-23725860D01*
X-9025764Y-23753928D01*
X-9032160Y-23775009D01*
X-9042548Y-23794445D01*
X-9056524Y-23811476D01*
X-9073555Y-23825452D01*
X-9092991Y-23835840D01*
X-9114072Y-23842236D01*
X-9142140Y-23845000D01*
X-9605860Y-23845000D01*
X-9633928Y-23842236D01*
X-9655009Y-23835840D01*
X-9674445Y-23825452D01*
X-9691476Y-23811476D01*
X-9705452Y-23794445D01*
X-9715840Y-23775009D01*
X-9722236Y-23753928D01*
X-9725000Y-23725860D01*
X-9725000Y-22312140D01*
X-9722236Y-22284072D01*
X-9715840Y-22262991D01*
X-9705452Y-22243555D01*
X-9691476Y-22226524D01*
X-9674445Y-22212548D01*
X-9655009Y-22202160D01*
X-9633928Y-22195764D01*
X-9605860Y-22193000D01*
X-9142140Y-22193000D01*
X-9114072Y-22195764D01*
G37*
G36*
X4665934Y-18594686D02*
G01*
X4705784Y-18606774D01*
X4742499Y-18626399D01*
X4774686Y-18652814D01*
X4801101Y-18685001D01*
X4820726Y-18721716D01*
X4832814Y-18761566D01*
X4837500Y-18809141D01*
X4837500Y-21972859D01*
X4832814Y-22020434D01*
X4820726Y-22060284D01*
X4801101Y-22096999D01*
X4774686Y-22129186D01*
X4742499Y-22155601D01*
X4705784Y-22175226D01*
X4665934Y-22187314D01*
X4618359Y-22192000D01*
X3954641Y-22192000D01*
X3907066Y-22187314D01*
X3867216Y-22175226D01*
X3830501Y-22155601D01*
X3798314Y-22129186D01*
X3771899Y-22096999D01*
X3752274Y-22060284D01*
X3740186Y-22020434D01*
X3735500Y-21972859D01*
X3735500Y-18809141D01*
X3740186Y-18761566D01*
X3752274Y-18721716D01*
X3771899Y-18685001D01*
X3798314Y-18652814D01*
X3830501Y-18626399D01*
X3867216Y-18606774D01*
X3907066Y-18594686D01*
X3954641Y-18590000D01*
X4618359Y-18590000D01*
X4665934Y-18594686D01*
G37*
G36*
X6665934Y-18594686D02*
G01*
X6705784Y-18606774D01*
X6742499Y-18626399D01*
X6774686Y-18652814D01*
X6801101Y-18685001D01*
X6820726Y-18721716D01*
X6832814Y-18761566D01*
X6837500Y-18809141D01*
X6837500Y-21972859D01*
X6832814Y-22020434D01*
X6820726Y-22060284D01*
X6801101Y-22096999D01*
X6774686Y-22129186D01*
X6742499Y-22155601D01*
X6705784Y-22175226D01*
X6665934Y-22187314D01*
X6618359Y-22192000D01*
X5954641Y-22192000D01*
X5907066Y-22187314D01*
X5867216Y-22175226D01*
X5830501Y-22155601D01*
X5798314Y-22129186D01*
X5771899Y-22096999D01*
X5752274Y-22060284D01*
X5740186Y-22020434D01*
X5735500Y-21972859D01*
X5735500Y-18809141D01*
X5740186Y-18761566D01*
X5752274Y-18721716D01*
X5771899Y-18685001D01*
X5798314Y-18652814D01*
X5830501Y-18626399D01*
X5867216Y-18606774D01*
X5907066Y-18594686D01*
X5954641Y-18590000D01*
X6618359Y-18590000D01*
X6665934Y-18594686D01*
G37*
G36*
X8665934Y-18594686D02*
G01*
X8705784Y-18606774D01*
X8742499Y-18626399D01*
X8774686Y-18652814D01*
X8801101Y-18685001D01*
X8820726Y-18721716D01*
X8832814Y-18761566D01*
X8837500Y-18809141D01*
X8837500Y-21972859D01*
X8832814Y-22020434D01*
X8820726Y-22060284D01*
X8801101Y-22096999D01*
X8774686Y-22129186D01*
X8742499Y-22155601D01*
X8705784Y-22175226D01*
X8665934Y-22187314D01*
X8618359Y-22192000D01*
X7954641Y-22192000D01*
X7907066Y-22187314D01*
X7867216Y-22175226D01*
X7830501Y-22155601D01*
X7798314Y-22129186D01*
X7771899Y-22096999D01*
X7752274Y-22060284D01*
X7740186Y-22020434D01*
X7735500Y-21972859D01*
X7735500Y-18809141D01*
X7740186Y-18761566D01*
X7752274Y-18721716D01*
X7771899Y-18685001D01*
X7798314Y-18652814D01*
X7830501Y-18626399D01*
X7867216Y-18606774D01*
X7907066Y-18594686D01*
X7954641Y-18590000D01*
X8618359Y-18590000D01*
X8665934Y-18594686D01*
G37*
G36*
X1801395Y-8991546D02*
G01*
X1974466Y-9063234D01*
X1974467Y-9063235D01*
X2130227Y-9167310D01*
X2262690Y-9299773D01*
X2262691Y-9299775D01*
X2366766Y-9455534D01*
X2438454Y-9628605D01*
X2475000Y-9812333D01*
X2475000Y-9999667D01*
X2438454Y-10183395D01*
X2366766Y-10356466D01*
X2366765Y-10356467D01*
X2262690Y-10512227D01*
X2130227Y-10644690D01*
X2051818Y-10697081D01*
X1974466Y-10748766D01*
X1801395Y-10820454D01*
X1617667Y-10857000D01*
X1430333Y-10857000D01*
X1246605Y-10820454D01*
X1073534Y-10748766D01*
X996182Y-10697081D01*
X917773Y-10644690D01*
X785310Y-10512227D01*
X681235Y-10356467D01*
X681234Y-10356466D01*
X609546Y-10183395D01*
X573000Y-9999667D01*
X573000Y-9812333D01*
X609546Y-9628605D01*
X681234Y-9455534D01*
X785309Y-9299775D01*
X785310Y-9299773D01*
X917773Y-9167310D01*
X1073533Y-9063235D01*
X1073534Y-9063234D01*
X1246605Y-8991546D01*
X1430333Y-8955000D01*
X1617667Y-8955000D01*
X1801395Y-8991546D01*
G37*
G36*
X-10898605Y-8991546D02*
G01*
X-10725534Y-9063234D01*
X-10725533Y-9063235D01*
X-10569773Y-9167310D01*
X-10437310Y-9299773D01*
X-10437309Y-9299775D01*
X-10333234Y-9455534D01*
X-10261546Y-9628605D01*
X-10225000Y-9812333D01*
X-10225000Y-9999667D01*
X-10261546Y-10183395D01*
X-10333234Y-10356466D01*
X-10333235Y-10356467D01*
X-10437310Y-10512227D01*
X-10569773Y-10644690D01*
X-10648182Y-10697081D01*
X-10725534Y-10748766D01*
X-10898605Y-10820454D01*
X-11082333Y-10857000D01*
X-11269667Y-10857000D01*
X-11453395Y-10820454D01*
X-11626466Y-10748766D01*
X-11703818Y-10697081D01*
X-11782227Y-10644690D01*
X-11914690Y-10512227D01*
X-12018765Y-10356467D01*
X-12018766Y-10356466D01*
X-12090454Y-10183395D01*
X-12127000Y-9999667D01*
X-12127000Y-9812333D01*
X-12090454Y-9628605D01*
X-12018766Y-9455534D01*
X-11914691Y-9299775D01*
X-11914690Y-9299773D01*
X-11782227Y-9167310D01*
X-11626467Y-9063235D01*
X-11626466Y-9063234D01*
X-11453395Y-8991546D01*
X-11269667Y-8955000D01*
X-11082333Y-8955000D01*
X-10898605Y-8991546D01*
G37*
G36*
X-5818605Y-8991546D02*
G01*
X-5645534Y-9063234D01*
X-5645533Y-9063235D01*
X-5489773Y-9167310D01*
X-5357310Y-9299773D01*
X-5357309Y-9299775D01*
X-5253234Y-9455534D01*
X-5181546Y-9628605D01*
X-5145000Y-9812333D01*
X-5145000Y-9999667D01*
X-5181546Y-10183395D01*
X-5253234Y-10356466D01*
X-5253235Y-10356467D01*
X-5357310Y-10512227D01*
X-5489773Y-10644690D01*
X-5568182Y-10697081D01*
X-5645534Y-10748766D01*
X-5818605Y-10820454D01*
X-6002333Y-10857000D01*
X-6189667Y-10857000D01*
X-6373395Y-10820454D01*
X-6546466Y-10748766D01*
X-6623818Y-10697081D01*
X-6702227Y-10644690D01*
X-6834690Y-10512227D01*
X-6938765Y-10356467D01*
X-6938766Y-10356466D01*
X-7010454Y-10183395D01*
X-7047000Y-9999667D01*
X-7047000Y-9812333D01*
X-7010454Y-9628605D01*
X-6938766Y-9455534D01*
X-6834691Y-9299775D01*
X-6834690Y-9299773D01*
X-6702227Y-9167310D01*
X-6546467Y-9063235D01*
X-6546466Y-9063234D01*
X-6373395Y-8991546D01*
X-6189667Y-8955000D01*
X-6002333Y-8955000D01*
X-5818605Y-8991546D01*
G37*
G36*
X-3278605Y-8991546D02*
G01*
X-3105534Y-9063234D01*
X-3105533Y-9063235D01*
X-2949773Y-9167310D01*
X-2817310Y-9299773D01*
X-2817309Y-9299775D01*
X-2713234Y-9455534D01*
X-2641546Y-9628605D01*
X-2605000Y-9812333D01*
X-2605000Y-9999667D01*
X-2641546Y-10183395D01*
X-2713234Y-10356466D01*
X-2713235Y-10356467D01*
X-2817310Y-10512227D01*
X-2949773Y-10644690D01*
X-3028182Y-10697081D01*
X-3105534Y-10748766D01*
X-3278605Y-10820454D01*
X-3462333Y-10857000D01*
X-3649667Y-10857000D01*
X-3833395Y-10820454D01*
X-4006466Y-10748766D01*
X-4083818Y-10697081D01*
X-4162227Y-10644690D01*
X-4294690Y-10512227D01*
X-4398765Y-10356467D01*
X-4398766Y-10356466D01*
X-4470454Y-10183395D01*
X-4507000Y-9999667D01*
X-4507000Y-9812333D01*
X-4470454Y-9628605D01*
X-4398766Y-9455534D01*
X-4294691Y-9299775D01*
X-4294690Y-9299773D01*
X-4162227Y-9167310D01*
X-4006467Y-9063235D01*
X-4006466Y-9063234D01*
X-3833395Y-8991546D01*
X-3649667Y-8955000D01*
X-3462333Y-8955000D01*
X-3278605Y-8991546D01*
G37*
G36*
X6881395Y-8991546D02*
G01*
X7054466Y-9063234D01*
X7054467Y-9063235D01*
X7210227Y-9167310D01*
X7342690Y-9299773D01*
X7342691Y-9299775D01*
X7446766Y-9455534D01*
X7518454Y-9628605D01*
X7555000Y-9812333D01*
X7555000Y-9999667D01*
X7518454Y-10183395D01*
X7446766Y-10356466D01*
X7446765Y-10356467D01*
X7342690Y-10512227D01*
X7210227Y-10644690D01*
X7131818Y-10697081D01*
X7054466Y-10748766D01*
X6881395Y-10820454D01*
X6697667Y-10857000D01*
X6510333Y-10857000D01*
X6326605Y-10820454D01*
X6153534Y-10748766D01*
X6076182Y-10697081D01*
X5997773Y-10644690D01*
X5865310Y-10512227D01*
X5761235Y-10356467D01*
X5761234Y-10356466D01*
X5689546Y-10183395D01*
X5653000Y-9999667D01*
X5653000Y-9812333D01*
X5689546Y-9628605D01*
X5761234Y-9455534D01*
X5865309Y-9299775D01*
X5865310Y-9299773D01*
X5997773Y-9167310D01*
X6153533Y-9063235D01*
X6153534Y-9063234D01*
X6326605Y-8991546D01*
X6510333Y-8955000D01*
X6697667Y-8955000D01*
X6881395Y-8991546D01*
G37*
G36*
X4341395Y-8991546D02*
G01*
X4514466Y-9063234D01*
X4514467Y-9063235D01*
X4670227Y-9167310D01*
X4802690Y-9299773D01*
X4802691Y-9299775D01*
X4906766Y-9455534D01*
X4978454Y-9628605D01*
X5015000Y-9812333D01*
X5015000Y-9999667D01*
X4978454Y-10183395D01*
X4906766Y-10356466D01*
X4906765Y-10356467D01*
X4802690Y-10512227D01*
X4670227Y-10644690D01*
X4591818Y-10697081D01*
X4514466Y-10748766D01*
X4341395Y-10820454D01*
X4157667Y-10857000D01*
X3970333Y-10857000D01*
X3786605Y-10820454D01*
X3613534Y-10748766D01*
X3536182Y-10697081D01*
X3457773Y-10644690D01*
X3325310Y-10512227D01*
X3221235Y-10356467D01*
X3221234Y-10356466D01*
X3149546Y-10183395D01*
X3113000Y-9999667D01*
X3113000Y-9812333D01*
X3149546Y-9628605D01*
X3221234Y-9455534D01*
X3325309Y-9299775D01*
X3325310Y-9299773D01*
X3457773Y-9167310D01*
X3613533Y-9063235D01*
X3613534Y-9063234D01*
X3786605Y-8991546D01*
X3970333Y-8955000D01*
X4157667Y-8955000D01*
X4341395Y-8991546D01*
G37*
G36*
X-8358605Y-8991546D02*
G01*
X-8185534Y-9063234D01*
X-8185533Y-9063235D01*
X-8029773Y-9167310D01*
X-7897310Y-9299773D01*
X-7897309Y-9299775D01*
X-7793234Y-9455534D01*
X-7721546Y-9628605D01*
X-7685000Y-9812333D01*
X-7685000Y-9999667D01*
X-7721546Y-10183395D01*
X-7793234Y-10356466D01*
X-7793235Y-10356467D01*
X-7897310Y-10512227D01*
X-8029773Y-10644690D01*
X-8108182Y-10697081D01*
X-8185534Y-10748766D01*
X-8358605Y-10820454D01*
X-8542333Y-10857000D01*
X-8729667Y-10857000D01*
X-8913395Y-10820454D01*
X-9086466Y-10748766D01*
X-9163818Y-10697081D01*
X-9242227Y-10644690D01*
X-9374690Y-10512227D01*
X-9478765Y-10356467D01*
X-9478766Y-10356466D01*
X-9550454Y-10183395D01*
X-9587000Y-9999667D01*
X-9587000Y-9812333D01*
X-9550454Y-9628605D01*
X-9478766Y-9455534D01*
X-9374691Y-9299775D01*
X-9374690Y-9299773D01*
X-9242227Y-9167310D01*
X-9086467Y-9063235D01*
X-9086466Y-9063234D01*
X-8913395Y-8991546D01*
X-8729667Y-8955000D01*
X-8542333Y-8955000D01*
X-8358605Y-8991546D01*
G37*
G36*
X-738605Y-8991546D02*
G01*
X-565534Y-9063234D01*
X-565533Y-9063235D01*
X-409773Y-9167310D01*
X-277310Y-9299773D01*
X-277309Y-9299775D01*
X-173234Y-9455534D01*
X-101546Y-9628605D01*
X-65000Y-9812333D01*
X-65000Y-9999667D01*
X-101546Y-10183395D01*
X-173234Y-10356466D01*
X-173235Y-10356467D01*
X-277310Y-10512227D01*
X-409773Y-10644690D01*
X-488182Y-10697081D01*
X-565534Y-10748766D01*
X-738605Y-10820454D01*
X-922333Y-10857000D01*
X-1109667Y-10857000D01*
X-1293395Y-10820454D01*
X-1466466Y-10748766D01*
X-1543818Y-10697081D01*
X-1622227Y-10644690D01*
X-1754690Y-10512227D01*
X-1858765Y-10356467D01*
X-1858766Y-10356466D01*
X-1930454Y-10183395D01*
X-1967000Y-9999667D01*
X-1967000Y-9812333D01*
X-1930454Y-9628605D01*
X-1858766Y-9455534D01*
X-1754691Y-9299775D01*
X-1754690Y-9299773D01*
X-1622227Y-9167310D01*
X-1466467Y-9063235D01*
X-1466466Y-9063234D01*
X-1293395Y-8991546D01*
X-1109667Y-8955000D01*
X-922333Y-8955000D01*
X-738605Y-8991546D01*
G37*
G36*
X20833999Y-6684737D02*
G01*
X20843608Y-6687652D01*
X20852472Y-6692390D01*
X20860237Y-6698763D01*
X20866610Y-6706528D01*
X20871348Y-6715392D01*
X20874263Y-6725001D01*
X20875852Y-6741140D01*
X20875852Y-7228860D01*
X20874263Y-7244999D01*
X20871348Y-7254608D01*
X20866610Y-7263472D01*
X20860237Y-7271237D01*
X20852472Y-7277610D01*
X20843608Y-7282348D01*
X20833999Y-7285263D01*
X20817860Y-7286852D01*
X20330140Y-7286852D01*
X20314001Y-7285263D01*
X20304392Y-7282348D01*
X20295528Y-7277610D01*
X20287763Y-7271237D01*
X20281390Y-7263472D01*
X20276652Y-7254608D01*
X20273737Y-7244999D01*
X20272148Y-7228860D01*
X20272148Y-6741140D01*
X20273737Y-6725001D01*
X20276652Y-6715392D01*
X20281390Y-6706528D01*
X20287763Y-6698763D01*
X20295528Y-6692390D01*
X20304392Y-6687652D01*
X20314001Y-6684737D01*
X20330140Y-6683148D01*
X20817860Y-6683148D01*
X20833999Y-6684737D01*
G37*
G36*
X18344799Y-6100537D02*
G01*
X18354408Y-6103452D01*
X18363272Y-6108190D01*
X18371037Y-6114563D01*
X18377410Y-6122328D01*
X18382148Y-6131192D01*
X18385063Y-6140801D01*
X18386652Y-6156940D01*
X18386652Y-6644660D01*
X18385063Y-6660799D01*
X18382148Y-6670408D01*
X18377410Y-6679272D01*
X18371037Y-6687037D01*
X18363272Y-6693410D01*
X18354408Y-6698148D01*
X18344799Y-6701063D01*
X18328660Y-6702652D01*
X17840940Y-6702652D01*
X17824801Y-6701063D01*
X17815192Y-6698148D01*
X17806328Y-6693410D01*
X17798563Y-6687037D01*
X17792190Y-6679272D01*
X17787452Y-6670408D01*
X17784537Y-6660799D01*
X17782948Y-6644660D01*
X17782948Y-6156940D01*
X17784537Y-6140801D01*
X17787452Y-6131192D01*
X17792190Y-6122328D01*
X17798563Y-6114563D01*
X17806328Y-6108190D01*
X17815192Y-6103452D01*
X17824801Y-6100537D01*
X17840940Y-6098948D01*
X18328660Y-6098948D01*
X18344799Y-6100537D01*
G37*
G36*
X19732231Y-5155705D02*
G01*
X19770967Y-5163410D01*
X19801195Y-5175931D01*
X19843944Y-5193638D01*
X19909622Y-5237523D01*
X19965477Y-5293378D01*
X20009362Y-5359056D01*
X20039590Y-5432034D01*
X20055000Y-5509504D01*
X20055000Y-5588496D01*
X20039590Y-5665966D01*
X20009362Y-5738944D01*
X19965477Y-5804622D01*
X19909622Y-5860477D01*
X19843944Y-5904362D01*
X19801195Y-5922069D01*
X19770967Y-5934590D01*
X19732231Y-5942295D01*
X19693496Y-5950000D01*
X19614504Y-5950000D01*
X19575769Y-5942295D01*
X19537033Y-5934590D01*
X19506805Y-5922069D01*
X19464056Y-5904362D01*
X19398378Y-5860477D01*
X19342523Y-5804622D01*
X19298638Y-5738944D01*
X19268410Y-5665966D01*
X19253000Y-5588496D01*
X19253000Y-5509504D01*
X19268410Y-5432034D01*
X19298638Y-5359056D01*
X19342523Y-5293378D01*
X19398378Y-5237523D01*
X19464056Y-5193638D01*
X19506805Y-5175931D01*
X19537033Y-5163410D01*
X19575769Y-5155705D01*
X19614504Y-5148000D01*
X19693496Y-5148000D01*
X19732231Y-5155705D01*
G37*
G36*
X19732231Y-3455705D02*
G01*
X19770967Y-3463410D01*
X19801195Y-3475931D01*
X19843944Y-3493638D01*
X19909622Y-3537523D01*
X19965477Y-3593378D01*
X20009362Y-3659056D01*
X20039590Y-3732034D01*
X20055000Y-3809504D01*
X20055000Y-3888496D01*
X20039590Y-3965966D01*
X20009362Y-4038944D01*
X19965477Y-4104622D01*
X19909622Y-4160477D01*
X19843944Y-4204362D01*
X19801195Y-4222069D01*
X19770967Y-4234590D01*
X19732231Y-4242295D01*
X19693496Y-4250000D01*
X19614504Y-4250000D01*
X19575769Y-4242295D01*
X19537033Y-4234590D01*
X19506805Y-4222069D01*
X19464056Y-4204362D01*
X19398378Y-4160477D01*
X19342523Y-4104622D01*
X19298638Y-4038944D01*
X19268410Y-3965966D01*
X19253000Y-3888496D01*
X19253000Y-3809504D01*
X19268410Y-3732034D01*
X19298638Y-3659056D01*
X19342523Y-3593378D01*
X19398378Y-3537523D01*
X19464056Y-3493638D01*
X19506805Y-3475931D01*
X19537033Y-3463410D01*
X19575769Y-3455705D01*
X19614504Y-3448000D01*
X19693496Y-3448000D01*
X19732231Y-3455705D01*
G37*
G36*
X18370199Y-2696937D02*
G01*
X18379808Y-2699852D01*
X18388672Y-2704590D01*
X18396437Y-2710963D01*
X18402810Y-2718728D01*
X18407548Y-2727592D01*
X18410463Y-2737201D01*
X18412052Y-2753340D01*
X18412052Y-3241060D01*
X18410463Y-3257199D01*
X18407548Y-3266808D01*
X18402810Y-3275672D01*
X18396437Y-3283437D01*
X18388672Y-3289810D01*
X18379808Y-3294548D01*
X18370199Y-3297463D01*
X18354060Y-3299052D01*
X17866340Y-3299052D01*
X17850201Y-3297463D01*
X17840592Y-3294548D01*
X17831728Y-3289810D01*
X17823963Y-3283437D01*
X17817590Y-3275672D01*
X17812852Y-3266808D01*
X17809937Y-3257199D01*
X17808348Y-3241060D01*
X17808348Y-2753340D01*
X17809937Y-2737201D01*
X17812852Y-2727592D01*
X17817590Y-2718728D01*
X17823963Y-2710963D01*
X17831728Y-2704590D01*
X17840592Y-2699852D01*
X17850201Y-2696937D01*
X17866340Y-2695348D01*
X18354060Y-2695348D01*
X18370199Y-2696937D01*
G37*
G36*
X20833999Y-2112737D02*
G01*
X20843608Y-2115652D01*
X20852472Y-2120390D01*
X20860237Y-2126763D01*
X20866610Y-2134528D01*
X20871348Y-2143392D01*
X20874263Y-2153001D01*
X20875852Y-2169140D01*
X20875852Y-2656860D01*
X20874263Y-2672999D01*
X20871348Y-2682608D01*
X20866610Y-2691472D01*
X20860237Y-2699237D01*
X20852472Y-2705610D01*
X20843608Y-2710348D01*
X20833999Y-2713263D01*
X20817860Y-2714852D01*
X20330140Y-2714852D01*
X20314001Y-2713263D01*
X20304392Y-2710348D01*
X20295528Y-2705610D01*
X20287763Y-2699237D01*
X20281390Y-2691472D01*
X20276652Y-2682608D01*
X20273737Y-2672999D01*
X20272148Y-2656860D01*
X20272148Y-2169140D01*
X20273737Y-2153001D01*
X20276652Y-2143392D01*
X20281390Y-2134528D01*
X20287763Y-2126763D01*
X20295528Y-2120390D01*
X20304392Y-2115652D01*
X20314001Y-2112737D01*
X20330140Y-2111148D01*
X20817860Y-2111148D01*
X20833999Y-2112737D01*
G37*
G36*
X19417512Y1150073D02*
G01*
X19566812Y1120376D01*
X19730784Y1052456D01*
X19878354Y953853D01*
X20003853Y828354D01*
X20102456Y680784D01*
X20170376Y516812D01*
X20205000Y342741D01*
X20205000Y165259D01*
X20170376Y-8812D01*
X20102456Y-172784D01*
X20003853Y-320354D01*
X19878354Y-445853D01*
X19730784Y-544456D01*
X19566812Y-612376D01*
X19417512Y-642073D01*
X19392742Y-647000D01*
X19215258Y-647000D01*
X19190488Y-642073D01*
X19041188Y-612376D01*
X18877216Y-544456D01*
X18729646Y-445853D01*
X18604147Y-320354D01*
X18505544Y-172784D01*
X18437624Y-8812D01*
X18403000Y165259D01*
X18403000Y342741D01*
X18437624Y516812D01*
X18505544Y680784D01*
X18604147Y828354D01*
X18729646Y953853D01*
X18877216Y1052456D01*
X19041188Y1120376D01*
X19190488Y1150073D01*
X19215258Y1155000D01*
X19392742Y1155000D01*
X19417512Y1150073D01*
G37*
G36*
X19417512Y3690073D02*
G01*
X19566812Y3660376D01*
X19730784Y3592456D01*
X19878354Y3493853D01*
X20003853Y3368354D01*
X20102456Y3220784D01*
X20170376Y3056812D01*
X20205000Y2882741D01*
X20205000Y2705259D01*
X20170376Y2531188D01*
X20102456Y2367216D01*
X20003853Y2219646D01*
X19878354Y2094147D01*
X19730784Y1995544D01*
X19566812Y1927624D01*
X19417512Y1897927D01*
X19392742Y1893000D01*
X19215258Y1893000D01*
X19190488Y1897927D01*
X19041188Y1927624D01*
X18877216Y1995544D01*
X18729646Y2094147D01*
X18604147Y2219646D01*
X18505544Y2367216D01*
X18437624Y2531188D01*
X18403000Y2705259D01*
X18403000Y2882741D01*
X18437624Y3056812D01*
X18505544Y3220784D01*
X18604147Y3368354D01*
X18729646Y3493853D01*
X18877216Y3592456D01*
X19041188Y3660376D01*
X19190488Y3690073D01*
X19215258Y3695000D01*
X19392742Y3695000D01*
X19417512Y3690073D01*
G37*
G36*
X19417512Y6230073D02*
G01*
X19566812Y6200376D01*
X19730784Y6132456D01*
X19878354Y6033853D01*
X20003853Y5908354D01*
X20102456Y5760784D01*
X20170376Y5596812D01*
X20205000Y5422741D01*
X20205000Y5245259D01*
X20170376Y5071188D01*
X20102456Y4907216D01*
X20003853Y4759646D01*
X19878354Y4634147D01*
X19730784Y4535544D01*
X19566812Y4467624D01*
X19417512Y4437927D01*
X19392742Y4433000D01*
X19215258Y4433000D01*
X19190488Y4437927D01*
X19041188Y4467624D01*
X18877216Y4535544D01*
X18729646Y4634147D01*
X18604147Y4759646D01*
X18505544Y4907216D01*
X18437624Y5071188D01*
X18403000Y5245259D01*
X18403000Y5422741D01*
X18437624Y5596812D01*
X18505544Y5760784D01*
X18604147Y5908354D01*
X18729646Y6033853D01*
X18877216Y6132456D01*
X19041188Y6200376D01*
X19190488Y6230073D01*
X19215258Y6235000D01*
X19392742Y6235000D01*
X19417512Y6230073D01*
G37*
G36*
X19417512Y8770073D02*
G01*
X19566812Y8740376D01*
X19730784Y8672456D01*
X19878354Y8573853D01*
X20003853Y8448354D01*
X20102456Y8300784D01*
X20170376Y8136812D01*
X20205000Y7962741D01*
X20205000Y7785259D01*
X20170376Y7611188D01*
X20102456Y7447216D01*
X20003853Y7299646D01*
X19878354Y7174147D01*
X19730784Y7075544D01*
X19566812Y7007624D01*
X19417512Y6977927D01*
X19392742Y6973000D01*
X19215258Y6973000D01*
X19190488Y6977927D01*
X19041188Y7007624D01*
X18877216Y7075544D01*
X18729646Y7174147D01*
X18604147Y7299646D01*
X18505544Y7447216D01*
X18437624Y7611188D01*
X18403000Y7785259D01*
X18403000Y7962741D01*
X18437624Y8136812D01*
X18505544Y8300784D01*
X18604147Y8448354D01*
X18729646Y8573853D01*
X18877216Y8672456D01*
X19041188Y8740376D01*
X19190488Y8770073D01*
X19215258Y8775000D01*
X19392742Y8775000D01*
X19417512Y8770073D01*
G37*
G36*
X19417512Y11310073D02*
G01*
X19566812Y11280376D01*
X19730784Y11212456D01*
X19878354Y11113853D01*
X20003853Y10988354D01*
X20102456Y10840784D01*
X20170376Y10676812D01*
X20205000Y10502741D01*
X20205000Y10325259D01*
X20170376Y10151188D01*
X20102456Y9987216D01*
X20003853Y9839646D01*
X19878354Y9714147D01*
X19730784Y9615544D01*
X19566812Y9547624D01*
X19417512Y9517927D01*
X19392742Y9513000D01*
X19215258Y9513000D01*
X19190488Y9517927D01*
X19041188Y9547624D01*
X18877216Y9615544D01*
X18729646Y9714147D01*
X18604147Y9839646D01*
X18505544Y9987216D01*
X18437624Y10151188D01*
X18403000Y10325259D01*
X18403000Y10502741D01*
X18437624Y10676812D01*
X18505544Y10840784D01*
X18604147Y10988354D01*
X18729646Y11113853D01*
X18877216Y11212456D01*
X19041188Y11280376D01*
X19190488Y11310073D01*
X19215258Y11315000D01*
X19392742Y11315000D01*
X19417512Y11310073D01*
G37*
G36*
X-3278605Y13868454D02*
G01*
X-3105534Y13796766D01*
X-3105533Y13796765D01*
X-2949773Y13692690D01*
X-2817310Y13560227D01*
X-2817309Y13560225D01*
X-2713234Y13404466D01*
X-2641546Y13231395D01*
X-2605000Y13047667D01*
X-2605000Y12860333D01*
X-2641546Y12676605D01*
X-2713234Y12503534D01*
X-2713235Y12503533D01*
X-2817310Y12347773D01*
X-2949773Y12215310D01*
X-3028182Y12162919D01*
X-3105534Y12111234D01*
X-3278605Y12039546D01*
X-3462333Y12003000D01*
X-3649667Y12003000D01*
X-3833395Y12039546D01*
X-4006466Y12111234D01*
X-4083818Y12162919D01*
X-4162227Y12215310D01*
X-4294690Y12347773D01*
X-4398765Y12503533D01*
X-4398766Y12503534D01*
X-4470454Y12676605D01*
X-4507000Y12860333D01*
X-4507000Y13047667D01*
X-4470454Y13231395D01*
X-4398766Y13404466D01*
X-4294691Y13560225D01*
X-4294690Y13560227D01*
X-4162227Y13692690D01*
X-4006467Y13796765D01*
X-4006466Y13796766D01*
X-3833395Y13868454D01*
X-3649667Y13905000D01*
X-3462333Y13905000D01*
X-3278605Y13868454D01*
G37*
G36*
X1801395Y13868454D02*
G01*
X1974466Y13796766D01*
X1974467Y13796765D01*
X2130227Y13692690D01*
X2262690Y13560227D01*
X2262691Y13560225D01*
X2366766Y13404466D01*
X2438454Y13231395D01*
X2475000Y13047667D01*
X2475000Y12860333D01*
X2438454Y12676605D01*
X2366766Y12503534D01*
X2366765Y12503533D01*
X2262690Y12347773D01*
X2130227Y12215310D01*
X2051818Y12162919D01*
X1974466Y12111234D01*
X1801395Y12039546D01*
X1617667Y12003000D01*
X1430333Y12003000D01*
X1246605Y12039546D01*
X1073534Y12111234D01*
X996182Y12162919D01*
X917773Y12215310D01*
X785310Y12347773D01*
X681235Y12503533D01*
X681234Y12503534D01*
X609546Y12676605D01*
X573000Y12860333D01*
X573000Y13047667D01*
X609546Y13231395D01*
X681234Y13404466D01*
X785309Y13560225D01*
X785310Y13560227D01*
X917773Y13692690D01*
X1073533Y13796765D01*
X1073534Y13796766D01*
X1246605Y13868454D01*
X1430333Y13905000D01*
X1617667Y13905000D01*
X1801395Y13868454D01*
G37*
G36*
X4341395Y13868454D02*
G01*
X4514466Y13796766D01*
X4514467Y13796765D01*
X4670227Y13692690D01*
X4802690Y13560227D01*
X4802691Y13560225D01*
X4906766Y13404466D01*
X4978454Y13231395D01*
X5015000Y13047667D01*
X5015000Y12860333D01*
X4978454Y12676605D01*
X4906766Y12503534D01*
X4906765Y12503533D01*
X4802690Y12347773D01*
X4670227Y12215310D01*
X4591818Y12162919D01*
X4514466Y12111234D01*
X4341395Y12039546D01*
X4157667Y12003000D01*
X3970333Y12003000D01*
X3786605Y12039546D01*
X3613534Y12111234D01*
X3536182Y12162919D01*
X3457773Y12215310D01*
X3325310Y12347773D01*
X3221235Y12503533D01*
X3221234Y12503534D01*
X3149546Y12676605D01*
X3113000Y12860333D01*
X3113000Y13047667D01*
X3149546Y13231395D01*
X3221234Y13404466D01*
X3325309Y13560225D01*
X3325310Y13560227D01*
X3457773Y13692690D01*
X3613533Y13796765D01*
X3613534Y13796766D01*
X3786605Y13868454D01*
X3970333Y13905000D01*
X4157667Y13905000D01*
X4341395Y13868454D01*
G37*
G36*
X6881395Y13868454D02*
G01*
X7054466Y13796766D01*
X7054467Y13796765D01*
X7210227Y13692690D01*
X7342690Y13560227D01*
X7342691Y13560225D01*
X7446766Y13404466D01*
X7518454Y13231395D01*
X7555000Y13047667D01*
X7555000Y12860333D01*
X7518454Y12676605D01*
X7446766Y12503534D01*
X7446765Y12503533D01*
X7342690Y12347773D01*
X7210227Y12215310D01*
X7131818Y12162919D01*
X7054466Y12111234D01*
X6881395Y12039546D01*
X6697667Y12003000D01*
X6510333Y12003000D01*
X6326605Y12039546D01*
X6153534Y12111234D01*
X6076182Y12162919D01*
X5997773Y12215310D01*
X5865310Y12347773D01*
X5761235Y12503533D01*
X5761234Y12503534D01*
X5689546Y12676605D01*
X5653000Y12860333D01*
X5653000Y13047667D01*
X5689546Y13231395D01*
X5761234Y13404466D01*
X5865309Y13560225D01*
X5865310Y13560227D01*
X5997773Y13692690D01*
X6153533Y13796765D01*
X6153534Y13796766D01*
X6326605Y13868454D01*
X6510333Y13905000D01*
X6697667Y13905000D01*
X6881395Y13868454D01*
G37*
G36*
X-5818605Y13868454D02*
G01*
X-5645534Y13796766D01*
X-5645533Y13796765D01*
X-5489773Y13692690D01*
X-5357310Y13560227D01*
X-5357309Y13560225D01*
X-5253234Y13404466D01*
X-5181546Y13231395D01*
X-5145000Y13047667D01*
X-5145000Y12860333D01*
X-5181546Y12676605D01*
X-5253234Y12503534D01*
X-5253235Y12503533D01*
X-5357310Y12347773D01*
X-5489773Y12215310D01*
X-5568182Y12162919D01*
X-5645534Y12111234D01*
X-5818605Y12039546D01*
X-6002333Y12003000D01*
X-6189667Y12003000D01*
X-6373395Y12039546D01*
X-6546466Y12111234D01*
X-6623818Y12162919D01*
X-6702227Y12215310D01*
X-6834690Y12347773D01*
X-6938765Y12503533D01*
X-6938766Y12503534D01*
X-7010454Y12676605D01*
X-7047000Y12860333D01*
X-7047000Y13047667D01*
X-7010454Y13231395D01*
X-6938766Y13404466D01*
X-6834691Y13560225D01*
X-6834690Y13560227D01*
X-6702227Y13692690D01*
X-6546467Y13796765D01*
X-6546466Y13796766D01*
X-6373395Y13868454D01*
X-6189667Y13905000D01*
X-6002333Y13905000D01*
X-5818605Y13868454D01*
G37*
G36*
X-8358605Y13868454D02*
G01*
X-8185534Y13796766D01*
X-8185533Y13796765D01*
X-8029773Y13692690D01*
X-7897310Y13560227D01*
X-7897309Y13560225D01*
X-7793234Y13404466D01*
X-7721546Y13231395D01*
X-7685000Y13047667D01*
X-7685000Y12860333D01*
X-7721546Y12676605D01*
X-7793234Y12503534D01*
X-7793235Y12503533D01*
X-7897310Y12347773D01*
X-8029773Y12215310D01*
X-8108182Y12162919D01*
X-8185534Y12111234D01*
X-8358605Y12039546D01*
X-8542333Y12003000D01*
X-8729667Y12003000D01*
X-8913395Y12039546D01*
X-9086466Y12111234D01*
X-9163818Y12162919D01*
X-9242227Y12215310D01*
X-9374690Y12347773D01*
X-9478765Y12503533D01*
X-9478766Y12503534D01*
X-9550454Y12676605D01*
X-9587000Y12860333D01*
X-9587000Y13047667D01*
X-9550454Y13231395D01*
X-9478766Y13404466D01*
X-9374691Y13560225D01*
X-9374690Y13560227D01*
X-9242227Y13692690D01*
X-9086467Y13796765D01*
X-9086466Y13796766D01*
X-8913395Y13868454D01*
X-8729667Y13905000D01*
X-8542333Y13905000D01*
X-8358605Y13868454D01*
G37*
G36*
X-10898605Y13868454D02*
G01*
X-10725534Y13796766D01*
X-10725533Y13796765D01*
X-10569773Y13692690D01*
X-10437310Y13560227D01*
X-10437309Y13560225D01*
X-10333234Y13404466D01*
X-10261546Y13231395D01*
X-10225000Y13047667D01*
X-10225000Y12860333D01*
X-10261546Y12676605D01*
X-10333234Y12503534D01*
X-10333235Y12503533D01*
X-10437310Y12347773D01*
X-10569773Y12215310D01*
X-10648182Y12162919D01*
X-10725534Y12111234D01*
X-10898605Y12039546D01*
X-11082333Y12003000D01*
X-11269667Y12003000D01*
X-11453395Y12039546D01*
X-11626466Y12111234D01*
X-11703818Y12162919D01*
X-11782227Y12215310D01*
X-11914690Y12347773D01*
X-12018765Y12503533D01*
X-12018766Y12503534D01*
X-12090454Y12676605D01*
X-12127000Y12860333D01*
X-12127000Y13047667D01*
X-12090454Y13231395D01*
X-12018766Y13404466D01*
X-11914691Y13560225D01*
X-11914690Y13560227D01*
X-11782227Y13692690D01*
X-11626467Y13796765D01*
X-11626466Y13796766D01*
X-11453395Y13868454D01*
X-11269667Y13905000D01*
X-11082333Y13905000D01*
X-10898605Y13868454D01*
G37*
G36*
X-738605Y13868454D02*
G01*
X-565534Y13796766D01*
X-565533Y13796765D01*
X-409773Y13692690D01*
X-277310Y13560227D01*
X-277309Y13560225D01*
X-173234Y13404466D01*
X-101546Y13231395D01*
X-65000Y13047667D01*
X-65000Y12860333D01*
X-101546Y12676605D01*
X-173234Y12503534D01*
X-173235Y12503533D01*
X-277310Y12347773D01*
X-409773Y12215310D01*
X-488182Y12162919D01*
X-565534Y12111234D01*
X-738605Y12039546D01*
X-922333Y12003000D01*
X-1109667Y12003000D01*
X-1293395Y12039546D01*
X-1466466Y12111234D01*
X-1543818Y12162919D01*
X-1622227Y12215310D01*
X-1754690Y12347773D01*
X-1858765Y12503533D01*
X-1858766Y12503534D01*
X-1930454Y12676605D01*
X-1967000Y12860333D01*
X-1967000Y13047667D01*
X-1930454Y13231395D01*
X-1858766Y13404466D01*
X-1754691Y13560225D01*
X-1754690Y13560227D01*
X-1622227Y13692690D01*
X-1466467Y13796765D01*
X-1466466Y13796766D01*
X-1293395Y13868454D01*
X-1109667Y13905000D01*
X-922333Y13905000D01*
X-738605Y13868454D01*
G37*
G36*
X19417512Y13850073D02*
G01*
X19566812Y13820376D01*
X19730784Y13752456D01*
X19878354Y13653853D01*
X20003853Y13528354D01*
X20102456Y13380784D01*
X20170376Y13216812D01*
X20205000Y13042741D01*
X20205000Y12865259D01*
X20170376Y12691188D01*
X20102456Y12527216D01*
X20003853Y12379646D01*
X19878354Y12254147D01*
X19730784Y12155544D01*
X19566812Y12087624D01*
X19417512Y12057927D01*
X19392742Y12053000D01*
X19215258Y12053000D01*
X19190488Y12057927D01*
X19041188Y12087624D01*
X18877216Y12155544D01*
X18729646Y12254147D01*
X18604147Y12379646D01*
X18505544Y12527216D01*
X18437624Y12691188D01*
X18403000Y12865259D01*
X18403000Y13042741D01*
X18437624Y13216812D01*
X18505544Y13380784D01*
X18604147Y13528354D01*
X18729646Y13653853D01*
X18877216Y13752456D01*
X19041188Y13820376D01*
X19190488Y13850073D01*
X19215258Y13855000D01*
X19392742Y13855000D01*
X19417512Y13850073D01*
G37*
G36*
X19417512Y16390073D02*
G01*
X19566812Y16360376D01*
X19730784Y16292456D01*
X19878354Y16193853D01*
X20003853Y16068354D01*
X20102456Y15920784D01*
X20170376Y15756812D01*
X20205000Y15582741D01*
X20205000Y15405259D01*
X20170376Y15231188D01*
X20102456Y15067216D01*
X20003853Y14919646D01*
X19878354Y14794147D01*
X19730784Y14695544D01*
X19566812Y14627624D01*
X19417512Y14597927D01*
X19392742Y14593000D01*
X19215258Y14593000D01*
X19190488Y14597927D01*
X19041188Y14627624D01*
X18877216Y14695544D01*
X18729646Y14794147D01*
X18604147Y14919646D01*
X18505544Y15067216D01*
X18437624Y15231188D01*
X18403000Y15405259D01*
X18403000Y15582741D01*
X18437624Y15756812D01*
X18505544Y15920784D01*
X18604147Y16068354D01*
X18729646Y16193853D01*
X18877216Y16292456D01*
X19041188Y16360376D01*
X19190488Y16390073D01*
X19215258Y16395000D01*
X19392742Y16395000D01*
X19417512Y16390073D01*
G37*
G36*
X4087395Y18712454D02*
G01*
X4260466Y18640766D01*
X4260467Y18640765D01*
X4416227Y18536690D01*
X4548690Y18404227D01*
X4548691Y18404225D01*
X4652766Y18248466D01*
X4724454Y18075395D01*
X4761000Y17891667D01*
X4761000Y17704333D01*
X4724454Y17520605D01*
X4652766Y17347534D01*
X4652765Y17347533D01*
X4548690Y17191773D01*
X4416227Y17059310D01*
X4337818Y17006919D01*
X4260466Y16955234D01*
X4087395Y16883546D01*
X3903667Y16847000D01*
X3716333Y16847000D01*
X3532605Y16883546D01*
X3359534Y16955234D01*
X3282182Y17006919D01*
X3203773Y17059310D01*
X3071310Y17191773D01*
X2967235Y17347533D01*
X2967234Y17347534D01*
X2895546Y17520605D01*
X2859000Y17704333D01*
X2859000Y17891667D01*
X2895546Y18075395D01*
X2967234Y18248466D01*
X3071309Y18404225D01*
X3071310Y18404227D01*
X3203773Y18536690D01*
X3359533Y18640765D01*
X3359534Y18640766D01*
X3532605Y18712454D01*
X3716333Y18749000D01*
X3903667Y18749000D01*
X4087395Y18712454D01*
G37*
G36*
X1547395Y18712454D02*
G01*
X1720466Y18640766D01*
X1720467Y18640765D01*
X1876227Y18536690D01*
X2008690Y18404227D01*
X2008691Y18404225D01*
X2112766Y18248466D01*
X2184454Y18075395D01*
X2221000Y17891667D01*
X2221000Y17704333D01*
X2184454Y17520605D01*
X2112766Y17347534D01*
X2112765Y17347533D01*
X2008690Y17191773D01*
X1876227Y17059310D01*
X1797818Y17006919D01*
X1720466Y16955234D01*
X1547395Y16883546D01*
X1363667Y16847000D01*
X1176333Y16847000D01*
X992605Y16883546D01*
X819534Y16955234D01*
X742182Y17006919D01*
X663773Y17059310D01*
X531310Y17191773D01*
X427235Y17347533D01*
X427234Y17347534D01*
X355546Y17520605D01*
X319000Y17704333D01*
X319000Y17891667D01*
X355546Y18075395D01*
X427234Y18248466D01*
X531309Y18404225D01*
X531310Y18404227D01*
X663773Y18536690D01*
X819533Y18640765D01*
X819534Y18640766D01*
X992605Y18712454D01*
X1176333Y18749000D01*
X1363667Y18749000D01*
X1547395Y18712454D01*
G37*
G36*
X-992605Y18712454D02*
G01*
X-819534Y18640766D01*
X-819533Y18640765D01*
X-663773Y18536690D01*
X-531310Y18404227D01*
X-531309Y18404225D01*
X-427234Y18248466D01*
X-355546Y18075395D01*
X-319000Y17891667D01*
X-319000Y17704333D01*
X-355546Y17520605D01*
X-427234Y17347534D01*
X-427235Y17347533D01*
X-531310Y17191773D01*
X-663773Y17059310D01*
X-742182Y17006919D01*
X-819534Y16955234D01*
X-992605Y16883546D01*
X-1176333Y16847000D01*
X-1363667Y16847000D01*
X-1547395Y16883546D01*
X-1720466Y16955234D01*
X-1797818Y17006919D01*
X-1876227Y17059310D01*
X-2008690Y17191773D01*
X-2112765Y17347533D01*
X-2112766Y17347534D01*
X-2184454Y17520605D01*
X-2221000Y17704333D01*
X-2221000Y17891667D01*
X-2184454Y18075395D01*
X-2112766Y18248466D01*
X-2008691Y18404225D01*
X-2008690Y18404227D01*
X-1876227Y18536690D01*
X-1720467Y18640765D01*
X-1720466Y18640766D01*
X-1547395Y18712454D01*
X-1363667Y18749000D01*
X-1176333Y18749000D01*
X-992605Y18712454D01*
G37*
G36*
X-3532605Y18712454D02*
G01*
X-3359534Y18640766D01*
X-3359533Y18640765D01*
X-3203773Y18536690D01*
X-3071310Y18404227D01*
X-3071309Y18404225D01*
X-2967234Y18248466D01*
X-2895546Y18075395D01*
X-2859000Y17891667D01*
X-2859000Y17704333D01*
X-2895546Y17520605D01*
X-2967234Y17347534D01*
X-2967235Y17347533D01*
X-3071310Y17191773D01*
X-3203773Y17059310D01*
X-3282182Y17006919D01*
X-3359534Y16955234D01*
X-3532605Y16883546D01*
X-3716333Y16847000D01*
X-3903667Y16847000D01*
X-4087395Y16883546D01*
X-4260466Y16955234D01*
X-4337818Y17006919D01*
X-4416227Y17059310D01*
X-4548690Y17191773D01*
X-4652765Y17347533D01*
X-4652766Y17347534D01*
X-4724454Y17520605D01*
X-4761000Y17704333D01*
X-4761000Y17891667D01*
X-4724454Y18075395D01*
X-4652766Y18248466D01*
X-4548691Y18404225D01*
X-4548690Y18404227D01*
X-4416227Y18536690D01*
X-4260467Y18640765D01*
X-4260466Y18640766D01*
X-4087395Y18712454D01*
X-3903667Y18749000D01*
X-3716333Y18749000D01*
X-3532605Y18712454D01*
G37*
G36*
X20205000Y17133000D02*
G01*
X18403000Y17133000D01*
X18403000Y18935000D01*
X20205000Y18935000D01*
X20205000Y17133000D01*
G37*
G36*
X-13005902Y26452967D02*
G01*
X-12541650Y26260668D01*
X-12541648Y26260667D01*
X-12123832Y25981491D01*
X-11768509Y25626168D01*
X-11489333Y25208352D01*
X-11489332Y25208350D01*
X-11297033Y24744098D01*
X-11199000Y24251253D01*
X-11199000Y23748747D01*
X-11297033Y23255902D01*
X-11489332Y22791650D01*
X-11489333Y22791648D01*
X-11768509Y22373832D01*
X-12123832Y22018509D01*
X-12541648Y21739333D01*
X-12541649Y21739332D01*
X-12541650Y21739332D01*
X-13005902Y21547033D01*
X-13498747Y21449000D01*
X-14001253Y21449000D01*
X-14494098Y21547033D01*
X-14958350Y21739332D01*
X-14958351Y21739332D01*
X-14958352Y21739333D01*
X-15376168Y22018509D01*
X-15731491Y22373832D01*
X-16010667Y22791648D01*
X-16010668Y22791650D01*
X-16202967Y23255902D01*
X-16301000Y23748747D01*
X-16301000Y24251253D01*
X-16202967Y24744098D01*
X-16010668Y25208350D01*
X-16010667Y25208352D01*
X-15731491Y25626168D01*
X-15376168Y25981491D01*
X-14958352Y26260667D01*
X-14958350Y26260668D01*
X-14494098Y26452967D01*
X-14001253Y26551000D01*
X-13498747Y26551000D01*
X-13005902Y26452967D01*
G37*
G36*
X14494098Y26452967D02*
G01*
X14958350Y26260668D01*
X14958352Y26260667D01*
X15376168Y25981491D01*
X15731491Y25626168D01*
X16010667Y25208352D01*
X16010668Y25208350D01*
X16202967Y24744098D01*
X16301000Y24251253D01*
X16301000Y23748747D01*
X16202967Y23255902D01*
X16010668Y22791650D01*
X16010667Y22791648D01*
X15731491Y22373832D01*
X15376168Y22018509D01*
X14958352Y21739333D01*
X14958351Y21739332D01*
X14958350Y21739332D01*
X14494098Y21547033D01*
X14001253Y21449000D01*
X13498747Y21449000D01*
X13005902Y21547033D01*
X12541650Y21739332D01*
X12541649Y21739332D01*
X12541648Y21739333D01*
X12123832Y22018509D01*
X11768509Y22373832D01*
X11489333Y22791648D01*
X11489332Y22791650D01*
X11297033Y23255902D01*
X11199000Y23748747D01*
X11199000Y24251253D01*
X11297033Y24744098D01*
X11489332Y25208350D01*
X11489333Y25208352D01*
X11768509Y25626168D01*
X12123832Y25981491D01*
X12541648Y26260667D01*
X12541650Y26260668D01*
X13005902Y26452967D01*
X13498747Y26551000D01*
X14001253Y26551000D01*
X14494098Y26452967D01*
G37*
M02*
