G04 #@! TF.GenerationSoftware,KiCad,Pcbnew,5.1.5+dfsg1-2build2*
G04 #@! TF.CreationDate,2022-06-13T19:55:36-07:00*
G04 #@! TF.ProjectId,v3.0.1-Dev-Kit,76332e30-2e31-42d4-9465-762d4b69742e,rev?*
G04 #@! TF.SameCoordinates,Original*
G04 #@! TF.FileFunction,Legend,Top*
G04 #@! TF.FilePolarity,Positive*
%FSLAX46Y46*%
G04 Gerber Fmt 4.6, Leading zero omitted, Abs format (unit mm)*
G04 Created by KiCad (PCBNEW 5.1.5+dfsg1-2build2) date 2022-06-13 19:55:36*
%MOMM*%
%LPD*%
G04 APERTURE LIST*
%ADD10C,0.120000*%
%ADD11C,0.100000*%
%ADD12C,0.010000*%
G04 APERTURE END LIST*
D10*
X20574000Y11684000D02*
X18034000Y11684000D01*
X17700000Y-13702000D02*
X17700000Y19798000D01*
X-17700000Y19798000D02*
X17700000Y19798000D01*
X-17700000Y-13702000D02*
X17700000Y-13702000D01*
X-17700000Y19798000D02*
X-17700000Y-13702000D01*
X2337500Y-22955000D02*
X8457500Y-22955000D01*
X8457500Y-22955000D02*
X8457500Y-26575000D01*
X8457500Y-26575000D02*
X2337500Y-26575000D01*
X2337500Y-26575000D02*
X2337500Y-22955000D01*
X2337500Y-15271500D02*
X8457500Y-15271500D01*
X8457500Y-15271500D02*
X8457500Y-18891500D01*
X8457500Y-18891500D02*
X2337500Y-18891500D01*
X2337500Y-18891500D02*
X2337500Y-15271500D01*
X-3949000Y-19123000D02*
X2171000Y-19123000D01*
X2171000Y-19123000D02*
X2171000Y-22743000D01*
X2171000Y-22743000D02*
X-3949000Y-22743000D01*
X-3949000Y-22743000D02*
X-3949000Y-19123000D01*
X8560500Y-19123000D02*
X14680500Y-19123000D01*
X14680500Y-19123000D02*
X14680500Y-22743000D01*
X14680500Y-22743000D02*
X8560500Y-22743000D01*
X8560500Y-22743000D02*
X8560500Y-19123000D01*
X-9461500Y-20929600D02*
X-11836400Y-23304500D01*
D11*
X-14438000Y-18328000D02*
X-14438000Y-23328000D01*
X-14438000Y-23328000D02*
X-9438000Y-23328000D01*
X-9438000Y-23328000D02*
X-9438000Y-18328000D01*
X-9438000Y-18328000D02*
X-14438000Y-18328000D01*
D10*
X20574000Y19304000D02*
X20634000Y-1076000D01*
X18034000Y19304000D02*
X17974000Y-1076000D01*
X17974000Y-1076000D02*
X20634000Y-1076000D01*
X20574000Y19304000D02*
X18034000Y19304000D01*
D12*
G36*
X13106400Y-25678000D02*
G01*
X12623800Y-25678000D01*
X12623800Y-25424000D01*
X13106400Y-25424000D01*
X13106400Y-25678000D01*
G37*
X13106400Y-25678000D02*
X12623800Y-25678000D01*
X12623800Y-25424000D01*
X13106400Y-25424000D01*
X13106400Y-25678000D01*
G36*
X12877800Y-25195400D02*
G01*
X12623800Y-25195400D01*
X12623800Y-25424000D01*
X12395200Y-25424000D01*
X12395200Y-25195400D01*
X12141200Y-25195400D01*
X12141200Y-24712800D01*
X12395200Y-24712800D01*
X12395200Y-24966800D01*
X12623800Y-24966800D01*
X12623800Y-24712800D01*
X12395200Y-24712800D01*
X12141200Y-24712800D01*
X12141200Y-24484200D01*
X12877800Y-24484200D01*
X12877800Y-25195400D01*
G37*
X12877800Y-25195400D02*
X12623800Y-25195400D01*
X12623800Y-25424000D01*
X12395200Y-25424000D01*
X12395200Y-25195400D01*
X12141200Y-25195400D01*
X12141200Y-24712800D01*
X12395200Y-24712800D01*
X12395200Y-24966800D01*
X12623800Y-24966800D01*
X12623800Y-24712800D01*
X12395200Y-24712800D01*
X12141200Y-24712800D01*
X12141200Y-24484200D01*
X12877800Y-24484200D01*
X12877800Y-25195400D01*
G36*
X14300200Y-25424000D02*
G01*
X13817600Y-25424000D01*
X13817600Y-25195400D01*
X14300200Y-25195400D01*
X14300200Y-25424000D01*
G37*
X14300200Y-25424000D02*
X13817600Y-25424000D01*
X13817600Y-25195400D01*
X14300200Y-25195400D01*
X14300200Y-25424000D01*
G36*
X14782800Y-24966800D02*
G01*
X14528800Y-24966800D01*
X14528800Y-25195400D01*
X14300200Y-25195400D01*
X14300200Y-24966800D01*
X14071600Y-24966800D01*
X14071600Y-24484200D01*
X14300200Y-24484200D01*
X14300200Y-24712800D01*
X14528800Y-24712800D01*
X14528800Y-24484200D01*
X14300200Y-24484200D01*
X14071600Y-24484200D01*
X14071600Y-24255600D01*
X14782800Y-24255600D01*
X14782800Y-24966800D01*
G37*
X14782800Y-24966800D02*
X14528800Y-24966800D01*
X14528800Y-25195400D01*
X14300200Y-25195400D01*
X14300200Y-24966800D01*
X14071600Y-24966800D01*
X14071600Y-24484200D01*
X14300200Y-24484200D01*
X14300200Y-24712800D01*
X14528800Y-24712800D01*
X14528800Y-24484200D01*
X14300200Y-24484200D01*
X14071600Y-24484200D01*
X14071600Y-24255600D01*
X14782800Y-24255600D01*
X14782800Y-24966800D01*
G36*
X13817600Y-23773000D02*
G01*
X13817600Y-24255600D01*
X13589000Y-24255600D01*
X13589000Y-25424000D01*
X13817600Y-25424000D01*
X13817600Y-25678000D01*
X13589000Y-25678000D01*
X13589000Y-26389200D01*
X13777376Y-26389200D01*
X13665200Y-26503500D01*
X13595087Y-26569486D01*
X13539817Y-26604320D01*
X13483054Y-26616955D01*
X13456711Y-26617800D01*
X13394374Y-26620665D01*
X13367185Y-26639193D01*
X13360560Y-26688279D01*
X13360400Y-26716165D01*
X13354612Y-26778443D01*
X13330983Y-26830028D01*
X13280111Y-26887715D01*
X13246667Y-26919365D01*
X13184683Y-26974649D01*
X13138252Y-27012635D01*
X13119667Y-27024200D01*
X13114641Y-27000404D01*
X13110488Y-26935427D01*
X13107611Y-26838889D01*
X13106412Y-26720405D01*
X13106400Y-26706700D01*
X13106400Y-26389200D01*
X13360400Y-26389200D01*
X13360400Y-25906600D01*
X13106400Y-25906600D01*
X13106400Y-25678000D01*
X13360400Y-25678000D01*
X13360400Y-24255600D01*
X13106400Y-24255600D01*
X13106400Y-23773000D01*
X13360400Y-23773000D01*
X13360400Y-24001600D01*
X13589000Y-24001600D01*
X13589000Y-23773000D01*
X13360400Y-23773000D01*
X13360400Y-23519000D01*
X13589000Y-23519000D01*
X13589000Y-23773000D01*
X13817600Y-23773000D01*
G37*
X13817600Y-23773000D02*
X13817600Y-24255600D01*
X13589000Y-24255600D01*
X13589000Y-25424000D01*
X13817600Y-25424000D01*
X13817600Y-25678000D01*
X13589000Y-25678000D01*
X13589000Y-26389200D01*
X13777376Y-26389200D01*
X13665200Y-26503500D01*
X13595087Y-26569486D01*
X13539817Y-26604320D01*
X13483054Y-26616955D01*
X13456711Y-26617800D01*
X13394374Y-26620665D01*
X13367185Y-26639193D01*
X13360560Y-26688279D01*
X13360400Y-26716165D01*
X13354612Y-26778443D01*
X13330983Y-26830028D01*
X13280111Y-26887715D01*
X13246667Y-26919365D01*
X13184683Y-26974649D01*
X13138252Y-27012635D01*
X13119667Y-27024200D01*
X13114641Y-27000404D01*
X13110488Y-26935427D01*
X13107611Y-26838889D01*
X13106412Y-26720405D01*
X13106400Y-26706700D01*
X13106400Y-26389200D01*
X13360400Y-26389200D01*
X13360400Y-25906600D01*
X13106400Y-25906600D01*
X13106400Y-25678000D01*
X13360400Y-25678000D01*
X13360400Y-24255600D01*
X13106400Y-24255600D01*
X13106400Y-23773000D01*
X13360400Y-23773000D01*
X13360400Y-24001600D01*
X13589000Y-24001600D01*
X13589000Y-23773000D01*
X13360400Y-23773000D01*
X13360400Y-23519000D01*
X13589000Y-23519000D01*
X13589000Y-23773000D01*
X13817600Y-23773000D01*
G36*
X6680200Y-25398600D02*
G01*
X4267200Y-25398600D01*
X4267200Y-24128600D01*
X4699000Y-24128600D01*
X4699000Y-25068400D01*
X4919580Y-25068400D01*
X5046742Y-25065036D01*
X5140218Y-25053130D01*
X5216788Y-25029958D01*
X5251456Y-25014522D01*
X5368420Y-24932763D01*
X5449679Y-24824358D01*
X5495177Y-24698852D01*
X5504857Y-24565792D01*
X5478662Y-24434723D01*
X5416537Y-24315192D01*
X5318424Y-24216743D01*
X5256410Y-24178691D01*
X5190005Y-24151956D01*
X5110410Y-24136285D01*
X5002909Y-24129429D01*
X4928611Y-24128600D01*
X5638800Y-24128600D01*
X5638800Y-24281000D01*
X5838889Y-24281000D01*
X5964160Y-24285933D01*
X6044629Y-24302861D01*
X6085528Y-24334975D01*
X6092087Y-24385464D01*
X6080793Y-24428567D01*
X6064981Y-24464126D01*
X6040299Y-24485289D01*
X5994335Y-24496590D01*
X5914682Y-24502559D01*
X5873223Y-24504362D01*
X5689600Y-24511825D01*
X5689600Y-24662000D01*
X5852885Y-24662000D01*
X5979501Y-24672875D01*
X6060395Y-24705425D01*
X6095449Y-24759540D01*
X6084545Y-24835107D01*
X6069706Y-24866869D01*
X6049554Y-24891897D01*
X6014497Y-24906768D01*
X5952970Y-24913970D01*
X5853408Y-24915987D01*
X5841106Y-24916000D01*
X5638800Y-24916000D01*
X5638800Y-25068400D01*
X5843261Y-25068400D01*
X5988171Y-25061728D01*
X6091534Y-25042218D01*
X6122231Y-25029870D01*
X6203984Y-24962896D01*
X6252309Y-24872156D01*
X6264248Y-24771691D01*
X6236844Y-24675545D01*
X6206061Y-24631916D01*
X6179266Y-24594914D01*
X6186638Y-24563610D01*
X6212136Y-24532971D01*
X6250100Y-24457502D01*
X6259945Y-24377971D01*
X6251277Y-24300659D01*
X6217243Y-24241512D01*
X6177572Y-24202200D01*
X6134888Y-24166964D01*
X6094115Y-24145231D01*
X6041566Y-24133757D01*
X5963550Y-24129298D01*
X5866999Y-24128600D01*
X5638800Y-24128600D01*
X4928611Y-24128600D01*
X4699000Y-24128600D01*
X4267200Y-24128600D01*
X4267200Y-23798400D01*
X6680200Y-23798400D01*
X6680200Y-25398600D01*
G37*
X6680200Y-25398600D02*
X4267200Y-25398600D01*
X4267200Y-24128600D01*
X4699000Y-24128600D01*
X4699000Y-25068400D01*
X4919580Y-25068400D01*
X5046742Y-25065036D01*
X5140218Y-25053130D01*
X5216788Y-25029958D01*
X5251456Y-25014522D01*
X5368420Y-24932763D01*
X5449679Y-24824358D01*
X5495177Y-24698852D01*
X5504857Y-24565792D01*
X5478662Y-24434723D01*
X5416537Y-24315192D01*
X5318424Y-24216743D01*
X5256410Y-24178691D01*
X5190005Y-24151956D01*
X5110410Y-24136285D01*
X5002909Y-24129429D01*
X4928611Y-24128600D01*
X5638800Y-24128600D01*
X5638800Y-24281000D01*
X5838889Y-24281000D01*
X5964160Y-24285933D01*
X6044629Y-24302861D01*
X6085528Y-24334975D01*
X6092087Y-24385464D01*
X6080793Y-24428567D01*
X6064981Y-24464126D01*
X6040299Y-24485289D01*
X5994335Y-24496590D01*
X5914682Y-24502559D01*
X5873223Y-24504362D01*
X5689600Y-24511825D01*
X5689600Y-24662000D01*
X5852885Y-24662000D01*
X5979501Y-24672875D01*
X6060395Y-24705425D01*
X6095449Y-24759540D01*
X6084545Y-24835107D01*
X6069706Y-24866869D01*
X6049554Y-24891897D01*
X6014497Y-24906768D01*
X5952970Y-24913970D01*
X5853408Y-24915987D01*
X5841106Y-24916000D01*
X5638800Y-24916000D01*
X5638800Y-25068400D01*
X5843261Y-25068400D01*
X5988171Y-25061728D01*
X6091534Y-25042218D01*
X6122231Y-25029870D01*
X6203984Y-24962896D01*
X6252309Y-24872156D01*
X6264248Y-24771691D01*
X6236844Y-24675545D01*
X6206061Y-24631916D01*
X6179266Y-24594914D01*
X6186638Y-24563610D01*
X6212136Y-24532971D01*
X6250100Y-24457502D01*
X6259945Y-24377971D01*
X6251277Y-24300659D01*
X6217243Y-24241512D01*
X6177572Y-24202200D01*
X6134888Y-24166964D01*
X6094115Y-24145231D01*
X6041566Y-24133757D01*
X5963550Y-24129298D01*
X5866999Y-24128600D01*
X5638800Y-24128600D01*
X4928611Y-24128600D01*
X4699000Y-24128600D01*
X4267200Y-24128600D01*
X4267200Y-23798400D01*
X6680200Y-23798400D01*
X6680200Y-25398600D01*
G36*
X-5638800Y-22655400D02*
G01*
X-5384800Y-22655400D01*
X-5384800Y-23112600D01*
X-5638800Y-23112600D01*
X-5638800Y-23341200D01*
X-5867400Y-23341200D01*
X-5867400Y-23112600D01*
X-6096000Y-23112600D01*
X-6096000Y-22884000D01*
X-5867400Y-22884000D01*
X-5867400Y-23112600D01*
X-5638800Y-23112600D01*
X-5638800Y-22884000D01*
X-5867400Y-22884000D01*
X-6096000Y-22884000D01*
X-6096000Y-22655400D01*
X-5867400Y-22655400D01*
X-5867400Y-22401400D01*
X-5638800Y-22401400D01*
X-5638800Y-22655400D01*
G37*
X-5638800Y-22655400D02*
X-5384800Y-22655400D01*
X-5384800Y-23112600D01*
X-5638800Y-23112600D01*
X-5638800Y-23341200D01*
X-5867400Y-23341200D01*
X-5867400Y-23112600D01*
X-6096000Y-23112600D01*
X-6096000Y-22884000D01*
X-5867400Y-22884000D01*
X-5867400Y-23112600D01*
X-5638800Y-23112600D01*
X-5638800Y-22884000D01*
X-5867400Y-22884000D01*
X-6096000Y-22884000D01*
X-6096000Y-22655400D01*
X-5867400Y-22655400D01*
X-5867400Y-22401400D01*
X-5638800Y-22401400D01*
X-5638800Y-22655400D01*
G36*
X317500Y-20051900D02*
G01*
X317500Y-21652100D01*
X-882650Y-21658698D01*
X-2082800Y-21665297D01*
X-2082800Y-21341391D01*
X-1676400Y-21341391D01*
X-1420954Y-21329091D01*
X-1300149Y-21321971D01*
X-1216380Y-21312279D01*
X-1155887Y-21296728D01*
X-1104910Y-21272029D01*
X-1061266Y-21243145D01*
X-948757Y-21135109D01*
X-880331Y-21002546D01*
X-857739Y-20852000D01*
X-881229Y-20698666D01*
X-950527Y-20566547D01*
X-1061266Y-20460854D01*
X-1114604Y-20426363D01*
X-1166341Y-20403676D01*
X-1230236Y-20389505D01*
X-1320050Y-20380563D01*
X-1420954Y-20374908D01*
X-1535343Y-20369400D01*
X-736600Y-20369400D01*
X-736600Y-20521800D01*
X-508000Y-20521800D01*
X-392510Y-20524620D01*
X-314721Y-20532627D01*
X-280502Y-20545142D01*
X-279400Y-20548269D01*
X-290962Y-20579337D01*
X-322611Y-20645709D01*
X-369794Y-20738266D01*
X-427958Y-20847886D01*
X-441086Y-20872119D01*
X-505459Y-20990891D01*
X-564665Y-21100807D01*
X-612540Y-21190379D01*
X-642921Y-21248118D01*
X-644938Y-21252050D01*
X-687105Y-21334600D01*
X-494883Y-21334600D01*
X-295752Y-20952547D01*
X-215068Y-20794700D01*
X-158633Y-20674379D01*
X-125333Y-20585095D01*
X-114055Y-20520357D01*
X-123684Y-20473677D01*
X-153108Y-20438564D01*
X-201212Y-20408529D01*
X-202307Y-20407961D01*
X-280606Y-20384114D01*
X-403008Y-20371627D01*
X-506739Y-20369400D01*
X-736600Y-20369400D01*
X-1535343Y-20369400D01*
X-1676400Y-20362608D01*
X-1676400Y-21341391D01*
X-2082800Y-21341391D01*
X-2082800Y-20038702D01*
X317500Y-20051900D01*
G37*
X317500Y-20051900D02*
X317500Y-21652100D01*
X-882650Y-21658698D01*
X-2082800Y-21665297D01*
X-2082800Y-21341391D01*
X-1676400Y-21341391D01*
X-1420954Y-21329091D01*
X-1300149Y-21321971D01*
X-1216380Y-21312279D01*
X-1155887Y-21296728D01*
X-1104910Y-21272029D01*
X-1061266Y-21243145D01*
X-948757Y-21135109D01*
X-880331Y-21002546D01*
X-857739Y-20852000D01*
X-881229Y-20698666D01*
X-950527Y-20566547D01*
X-1061266Y-20460854D01*
X-1114604Y-20426363D01*
X-1166341Y-20403676D01*
X-1230236Y-20389505D01*
X-1320050Y-20380563D01*
X-1420954Y-20374908D01*
X-1535343Y-20369400D01*
X-736600Y-20369400D01*
X-736600Y-20521800D01*
X-508000Y-20521800D01*
X-392510Y-20524620D01*
X-314721Y-20532627D01*
X-280502Y-20545142D01*
X-279400Y-20548269D01*
X-290962Y-20579337D01*
X-322611Y-20645709D01*
X-369794Y-20738266D01*
X-427958Y-20847886D01*
X-441086Y-20872119D01*
X-505459Y-20990891D01*
X-564665Y-21100807D01*
X-612540Y-21190379D01*
X-642921Y-21248118D01*
X-644938Y-21252050D01*
X-687105Y-21334600D01*
X-494883Y-21334600D01*
X-295752Y-20952547D01*
X-215068Y-20794700D01*
X-158633Y-20674379D01*
X-125333Y-20585095D01*
X-114055Y-20520357D01*
X-123684Y-20473677D01*
X-153108Y-20438564D01*
X-201212Y-20408529D01*
X-202307Y-20407961D01*
X-280606Y-20384114D01*
X-403008Y-20371627D01*
X-506739Y-20369400D01*
X-736600Y-20369400D01*
X-1535343Y-20369400D01*
X-1676400Y-20362608D01*
X-1676400Y-21341391D01*
X-2082800Y-21341391D01*
X-2082800Y-20038702D01*
X317500Y-20051900D01*
G36*
X12928600Y-21664800D02*
G01*
X10515600Y-21664800D01*
X10515600Y-21340659D01*
X10947400Y-21340659D01*
X11182350Y-21330271D01*
X11311947Y-21321511D01*
X11405688Y-21306721D01*
X11478425Y-21282909D01*
X11519336Y-21262388D01*
X11627868Y-21182200D01*
X11887200Y-21182200D01*
X11887200Y-21339812D01*
X12105052Y-21330856D01*
X12211225Y-21325626D01*
X12280750Y-21317351D01*
X12327747Y-21301223D01*
X12366337Y-21272429D01*
X12409852Y-21227023D01*
X12465678Y-21156874D01*
X12491194Y-21092266D01*
X12496800Y-21017873D01*
X12476036Y-20896865D01*
X12415022Y-20806165D01*
X12315668Y-20747748D01*
X12214013Y-20725984D01*
X12077700Y-20712300D01*
X12069816Y-20617050D01*
X12061933Y-20521800D01*
X12446000Y-20521800D01*
X12446000Y-20369400D01*
X11912600Y-20369400D01*
X11912600Y-20852000D01*
X12066154Y-20852000D01*
X12159324Y-20855499D01*
X12219901Y-20869450D01*
X12265819Y-20899032D01*
X12282054Y-20914345D01*
X12324626Y-20967872D01*
X12344250Y-21014148D01*
X12344400Y-21017100D01*
X12327499Y-21061594D01*
X12286377Y-21115434D01*
X12282054Y-21119854D01*
X12239694Y-21154768D01*
X12190313Y-21173719D01*
X12117221Y-21181259D01*
X12053454Y-21182200D01*
X11887200Y-21182200D01*
X11627868Y-21182200D01*
X11634722Y-21177136D01*
X11707776Y-21071697D01*
X11742837Y-20938267D01*
X11747500Y-20852000D01*
X11730485Y-20696588D01*
X11678119Y-20573580D01*
X11588416Y-20481295D01*
X11459391Y-20418055D01*
X11289060Y-20382179D01*
X11182350Y-20373728D01*
X10947400Y-20363340D01*
X10947400Y-21340659D01*
X10515600Y-21340659D01*
X10515600Y-20039200D01*
X12928600Y-20039200D01*
X12928600Y-21664800D01*
G37*
X12928600Y-21664800D02*
X10515600Y-21664800D01*
X10515600Y-21340659D01*
X10947400Y-21340659D01*
X11182350Y-21330271D01*
X11311947Y-21321511D01*
X11405688Y-21306721D01*
X11478425Y-21282909D01*
X11519336Y-21262388D01*
X11627868Y-21182200D01*
X11887200Y-21182200D01*
X11887200Y-21339812D01*
X12105052Y-21330856D01*
X12211225Y-21325626D01*
X12280750Y-21317351D01*
X12327747Y-21301223D01*
X12366337Y-21272429D01*
X12409852Y-21227023D01*
X12465678Y-21156874D01*
X12491194Y-21092266D01*
X12496800Y-21017873D01*
X12476036Y-20896865D01*
X12415022Y-20806165D01*
X12315668Y-20747748D01*
X12214013Y-20725984D01*
X12077700Y-20712300D01*
X12069816Y-20617050D01*
X12061933Y-20521800D01*
X12446000Y-20521800D01*
X12446000Y-20369400D01*
X11912600Y-20369400D01*
X11912600Y-20852000D01*
X12066154Y-20852000D01*
X12159324Y-20855499D01*
X12219901Y-20869450D01*
X12265819Y-20899032D01*
X12282054Y-20914345D01*
X12324626Y-20967872D01*
X12344250Y-21014148D01*
X12344400Y-21017100D01*
X12327499Y-21061594D01*
X12286377Y-21115434D01*
X12282054Y-21119854D01*
X12239694Y-21154768D01*
X12190313Y-21173719D01*
X12117221Y-21181259D01*
X12053454Y-21182200D01*
X11887200Y-21182200D01*
X11627868Y-21182200D01*
X11634722Y-21177136D01*
X11707776Y-21071697D01*
X11742837Y-20938267D01*
X11747500Y-20852000D01*
X11730485Y-20696588D01*
X11678119Y-20573580D01*
X11588416Y-20481295D01*
X11459391Y-20418055D01*
X11289060Y-20382179D01*
X11182350Y-20373728D01*
X10947400Y-20363340D01*
X10947400Y-21340659D01*
X10515600Y-21340659D01*
X10515600Y-20039200D01*
X12928600Y-20039200D01*
X12928600Y-21664800D01*
G36*
X-12007850Y-20121626D02*
G01*
X-9486900Y-20128100D01*
X-9480099Y-20744050D01*
X-9473297Y-21360000D01*
X-14528800Y-21360000D01*
X-14528800Y-21131400D01*
X-14274800Y-21131400D01*
X-14149364Y-21131400D01*
X-14135100Y-20509100D01*
X-14071600Y-20509100D01*
X-14043253Y-20510936D01*
X-14024252Y-20522464D01*
X-14011910Y-20552711D01*
X-14003538Y-20610703D01*
X-13996447Y-20705469D01*
X-13992163Y-20775800D01*
X-13985331Y-20886085D01*
X-13979335Y-20975500D01*
X-13974930Y-21033220D01*
X-13973113Y-21049223D01*
X-13951714Y-21065522D01*
X-13902535Y-21097531D01*
X-13887450Y-21106928D01*
X-13791859Y-21143015D01*
X-13700614Y-21129022D01*
X-13620750Y-21074289D01*
X-13596734Y-21048454D01*
X-13580574Y-21017484D01*
X-13570726Y-20971490D01*
X-13565649Y-20900586D01*
X-13565113Y-20869910D01*
X-13425819Y-20869910D01*
X-13404340Y-20964973D01*
X-13345345Y-21045385D01*
X-13252971Y-21103145D01*
X-13131356Y-21130249D01*
X-13100050Y-21131305D01*
X-13026230Y-21128396D01*
X-12990328Y-21115959D01*
X-12979633Y-21088650D01*
X-12979400Y-21080600D01*
X-12987765Y-21047575D01*
X-13021707Y-21032833D01*
X-13082670Y-21029800D01*
X-13183929Y-21019348D01*
X-13253794Y-20990540D01*
X-13283692Y-20947197D01*
X-13284200Y-20940006D01*
X-13273490Y-20920277D01*
X-13235411Y-20908704D01*
X-13161045Y-20903543D01*
X-13093700Y-20902800D01*
X-13002666Y-20900467D01*
X-12935353Y-20894298D01*
X-12904163Y-20885533D01*
X-12903342Y-20883750D01*
X-12907111Y-20863070D01*
X-12806456Y-20863070D01*
X-12787999Y-20965147D01*
X-12732430Y-21054716D01*
X-12642080Y-21119205D01*
X-12639592Y-21120302D01*
X-12563962Y-21148362D01*
X-12504513Y-21151996D01*
X-12434698Y-21131250D01*
X-12408772Y-21120700D01*
X-12322920Y-21061365D01*
X-12268384Y-20976308D01*
X-12246073Y-20878095D01*
X-12256900Y-20779294D01*
X-12301776Y-20692469D01*
X-12373484Y-20634195D01*
X-12490073Y-20598571D01*
X-12605845Y-20607135D01*
X-12707423Y-20658449D01*
X-12722714Y-20671690D01*
X-12785471Y-20761060D01*
X-12806456Y-20863070D01*
X-12907111Y-20863070D01*
X-12909703Y-20848854D01*
X-12925269Y-20786527D01*
X-12929729Y-20770198D01*
X-12976129Y-20674235D01*
X-13052908Y-20617666D01*
X-13163478Y-20598054D01*
X-13170800Y-20598000D01*
X-13255594Y-20608532D01*
X-13319291Y-20647472D01*
X-13339676Y-20667850D01*
X-13405644Y-20768202D01*
X-13425819Y-20869910D01*
X-13565113Y-20869910D01*
X-13563801Y-20794884D01*
X-13563600Y-20707872D01*
X-13563600Y-20394800D01*
X-12090400Y-20394800D01*
X-12090400Y-21131400D01*
X-12026900Y-21131400D01*
X-11987716Y-21126662D01*
X-11969151Y-21103375D01*
X-11963643Y-21047929D01*
X-11963400Y-21017100D01*
X-11963400Y-20902800D01*
X-11821747Y-20902800D01*
X-11733253Y-20898929D01*
X-11674428Y-20882539D01*
X-11624422Y-20846458D01*
X-11605847Y-20828553D01*
X-11544967Y-20736570D01*
X-11533199Y-20631996D01*
X-11543150Y-20598000D01*
X-11404600Y-20598000D01*
X-11404600Y-21131400D01*
X-11277600Y-21131400D01*
X-11277600Y-20672251D01*
X-11125200Y-20672251D01*
X-11106756Y-20746894D01*
X-11059308Y-20824782D01*
X-11057232Y-20827278D01*
X-11022507Y-20869610D01*
X-11006656Y-20901981D01*
X-11011635Y-20937578D01*
X-11039401Y-20989586D01*
X-11091914Y-21071189D01*
X-11093904Y-21074250D01*
X-11116674Y-21115557D01*
X-11103301Y-21129856D01*
X-11067997Y-21131400D01*
X-11013051Y-21114552D01*
X-10958121Y-21058902D01*
X-10937715Y-21029800D01*
X-10892526Y-20970059D01*
X-10853996Y-20933533D01*
X-10841090Y-20928200D01*
X-10788898Y-20949722D01*
X-10742695Y-21001116D01*
X-10719303Y-21062622D01*
X-10718800Y-21071836D01*
X-10707289Y-21117468D01*
X-10663532Y-21131267D01*
X-10655300Y-21131400D01*
X-10603922Y-21117921D01*
X-10591800Y-21092484D01*
X-10605457Y-21024230D01*
X-10639065Y-20946606D01*
X-10681581Y-20881691D01*
X-10710071Y-20856003D01*
X-10733901Y-20840285D01*
X-10734850Y-20838046D01*
X-10486896Y-20838046D01*
X-10474678Y-20945558D01*
X-10435892Y-21015790D01*
X-10373066Y-21078682D01*
X-10297867Y-21114129D01*
X-10194362Y-21128568D01*
X-10153650Y-21129789D01*
X-10079932Y-21127891D01*
X-10044055Y-21116146D01*
X-10033271Y-21089357D01*
X-10033000Y-21080600D01*
X-10040479Y-21048854D01*
X-10071533Y-21033842D01*
X-10139089Y-21029819D01*
X-10147300Y-21029800D01*
X-10239705Y-21019904D01*
X-10304513Y-20985755D01*
X-10318750Y-20972650D01*
X-10375900Y-20915500D01*
X-10179050Y-20908081D01*
X-10080191Y-20903551D01*
X-10021595Y-20896644D01*
X-9992745Y-20883542D01*
X-9983125Y-20860421D01*
X-9982200Y-20836561D01*
X-10003678Y-20727911D01*
X-10064197Y-20648900D01*
X-10157889Y-20605424D01*
X-10218820Y-20598807D01*
X-10326770Y-20611227D01*
X-10402419Y-20654946D01*
X-10451838Y-20724491D01*
X-10486896Y-20838046D01*
X-10734850Y-20838046D01*
X-10741981Y-20821239D01*
X-10731220Y-20788785D01*
X-10698529Y-20732843D01*
X-10648497Y-20655150D01*
X-10625727Y-20613842D01*
X-10639100Y-20599543D01*
X-10674404Y-20598000D01*
X-10729350Y-20614847D01*
X-10784280Y-20670497D01*
X-10804686Y-20699600D01*
X-10851477Y-20759520D01*
X-10893735Y-20796011D01*
X-10908767Y-20801200D01*
X-10951144Y-20778737D01*
X-10984429Y-20723068D01*
X-10998196Y-20651765D01*
X-10998200Y-20650469D01*
X-11012279Y-20609561D01*
X-11061700Y-20598000D01*
X-11107501Y-20606497D01*
X-11123902Y-20642258D01*
X-11125200Y-20672251D01*
X-11277600Y-20672251D01*
X-11277600Y-20598000D01*
X-11404600Y-20598000D01*
X-11543150Y-20598000D01*
X-11561946Y-20533790D01*
X-11613294Y-20464707D01*
X-11696387Y-20420333D01*
X-11729881Y-20414222D01*
X-11417145Y-20414222D01*
X-11415021Y-20455080D01*
X-11381877Y-20485929D01*
X-11330158Y-20495594D01*
X-11284350Y-20482454D01*
X-11270449Y-20464650D01*
X-11271995Y-20413736D01*
X-11297100Y-20369400D01*
X-9855200Y-20369400D01*
X-9855200Y-21131400D01*
X-9728200Y-21131400D01*
X-9728200Y-20369400D01*
X-9855200Y-20369400D01*
X-11297100Y-20369400D01*
X-11299298Y-20365519D01*
X-11338746Y-20344000D01*
X-11338884Y-20344000D01*
X-11388625Y-20365406D01*
X-11417145Y-20414222D01*
X-11729881Y-20414222D01*
X-11817194Y-20398292D01*
X-11911339Y-20394800D01*
X-12090400Y-20394800D01*
X-13563600Y-20394800D01*
X-13689037Y-20394800D01*
X-13696169Y-20705640D01*
X-13699805Y-20836498D01*
X-13704611Y-20925103D01*
X-13712088Y-20980003D01*
X-13723736Y-21009745D01*
X-13741057Y-21022875D01*
X-13752422Y-21025902D01*
X-13803519Y-21020312D01*
X-13838781Y-20978029D01*
X-13859786Y-20895040D01*
X-13868113Y-20767333D01*
X-13868400Y-20731175D01*
X-13871273Y-20626853D01*
X-13878905Y-20538153D01*
X-13889818Y-20480493D01*
X-13893264Y-20472001D01*
X-13945864Y-20420858D01*
X-14025516Y-20390930D01*
X-14110632Y-20388791D01*
X-14140331Y-20396788D01*
X-14192497Y-20421268D01*
X-14229049Y-20454208D01*
X-14252732Y-20504309D01*
X-14266294Y-20580270D01*
X-14272479Y-20690791D01*
X-14273993Y-20820250D01*
X-14274800Y-21131400D01*
X-14528800Y-21131400D01*
X-14528800Y-20115153D01*
X-12007850Y-20121626D01*
G37*
X-12007850Y-20121626D02*
X-9486900Y-20128100D01*
X-9480099Y-20744050D01*
X-9473297Y-21360000D01*
X-14528800Y-21360000D01*
X-14528800Y-21131400D01*
X-14274800Y-21131400D01*
X-14149364Y-21131400D01*
X-14135100Y-20509100D01*
X-14071600Y-20509100D01*
X-14043253Y-20510936D01*
X-14024252Y-20522464D01*
X-14011910Y-20552711D01*
X-14003538Y-20610703D01*
X-13996447Y-20705469D01*
X-13992163Y-20775800D01*
X-13985331Y-20886085D01*
X-13979335Y-20975500D01*
X-13974930Y-21033220D01*
X-13973113Y-21049223D01*
X-13951714Y-21065522D01*
X-13902535Y-21097531D01*
X-13887450Y-21106928D01*
X-13791859Y-21143015D01*
X-13700614Y-21129022D01*
X-13620750Y-21074289D01*
X-13596734Y-21048454D01*
X-13580574Y-21017484D01*
X-13570726Y-20971490D01*
X-13565649Y-20900586D01*
X-13565113Y-20869910D01*
X-13425819Y-20869910D01*
X-13404340Y-20964973D01*
X-13345345Y-21045385D01*
X-13252971Y-21103145D01*
X-13131356Y-21130249D01*
X-13100050Y-21131305D01*
X-13026230Y-21128396D01*
X-12990328Y-21115959D01*
X-12979633Y-21088650D01*
X-12979400Y-21080600D01*
X-12987765Y-21047575D01*
X-13021707Y-21032833D01*
X-13082670Y-21029800D01*
X-13183929Y-21019348D01*
X-13253794Y-20990540D01*
X-13283692Y-20947197D01*
X-13284200Y-20940006D01*
X-13273490Y-20920277D01*
X-13235411Y-20908704D01*
X-13161045Y-20903543D01*
X-13093700Y-20902800D01*
X-13002666Y-20900467D01*
X-12935353Y-20894298D01*
X-12904163Y-20885533D01*
X-12903342Y-20883750D01*
X-12907111Y-20863070D01*
X-12806456Y-20863070D01*
X-12787999Y-20965147D01*
X-12732430Y-21054716D01*
X-12642080Y-21119205D01*
X-12639592Y-21120302D01*
X-12563962Y-21148362D01*
X-12504513Y-21151996D01*
X-12434698Y-21131250D01*
X-12408772Y-21120700D01*
X-12322920Y-21061365D01*
X-12268384Y-20976308D01*
X-12246073Y-20878095D01*
X-12256900Y-20779294D01*
X-12301776Y-20692469D01*
X-12373484Y-20634195D01*
X-12490073Y-20598571D01*
X-12605845Y-20607135D01*
X-12707423Y-20658449D01*
X-12722714Y-20671690D01*
X-12785471Y-20761060D01*
X-12806456Y-20863070D01*
X-12907111Y-20863070D01*
X-12909703Y-20848854D01*
X-12925269Y-20786527D01*
X-12929729Y-20770198D01*
X-12976129Y-20674235D01*
X-13052908Y-20617666D01*
X-13163478Y-20598054D01*
X-13170800Y-20598000D01*
X-13255594Y-20608532D01*
X-13319291Y-20647472D01*
X-13339676Y-20667850D01*
X-13405644Y-20768202D01*
X-13425819Y-20869910D01*
X-13565113Y-20869910D01*
X-13563801Y-20794884D01*
X-13563600Y-20707872D01*
X-13563600Y-20394800D01*
X-12090400Y-20394800D01*
X-12090400Y-21131400D01*
X-12026900Y-21131400D01*
X-11987716Y-21126662D01*
X-11969151Y-21103375D01*
X-11963643Y-21047929D01*
X-11963400Y-21017100D01*
X-11963400Y-20902800D01*
X-11821747Y-20902800D01*
X-11733253Y-20898929D01*
X-11674428Y-20882539D01*
X-11624422Y-20846458D01*
X-11605847Y-20828553D01*
X-11544967Y-20736570D01*
X-11533199Y-20631996D01*
X-11543150Y-20598000D01*
X-11404600Y-20598000D01*
X-11404600Y-21131400D01*
X-11277600Y-21131400D01*
X-11277600Y-20672251D01*
X-11125200Y-20672251D01*
X-11106756Y-20746894D01*
X-11059308Y-20824782D01*
X-11057232Y-20827278D01*
X-11022507Y-20869610D01*
X-11006656Y-20901981D01*
X-11011635Y-20937578D01*
X-11039401Y-20989586D01*
X-11091914Y-21071189D01*
X-11093904Y-21074250D01*
X-11116674Y-21115557D01*
X-11103301Y-21129856D01*
X-11067997Y-21131400D01*
X-11013051Y-21114552D01*
X-10958121Y-21058902D01*
X-10937715Y-21029800D01*
X-10892526Y-20970059D01*
X-10853996Y-20933533D01*
X-10841090Y-20928200D01*
X-10788898Y-20949722D01*
X-10742695Y-21001116D01*
X-10719303Y-21062622D01*
X-10718800Y-21071836D01*
X-10707289Y-21117468D01*
X-10663532Y-21131267D01*
X-10655300Y-21131400D01*
X-10603922Y-21117921D01*
X-10591800Y-21092484D01*
X-10605457Y-21024230D01*
X-10639065Y-20946606D01*
X-10681581Y-20881691D01*
X-10710071Y-20856003D01*
X-10733901Y-20840285D01*
X-10734850Y-20838046D01*
X-10486896Y-20838046D01*
X-10474678Y-20945558D01*
X-10435892Y-21015790D01*
X-10373066Y-21078682D01*
X-10297867Y-21114129D01*
X-10194362Y-21128568D01*
X-10153650Y-21129789D01*
X-10079932Y-21127891D01*
X-10044055Y-21116146D01*
X-10033271Y-21089357D01*
X-10033000Y-21080600D01*
X-10040479Y-21048854D01*
X-10071533Y-21033842D01*
X-10139089Y-21029819D01*
X-10147300Y-21029800D01*
X-10239705Y-21019904D01*
X-10304513Y-20985755D01*
X-10318750Y-20972650D01*
X-10375900Y-20915500D01*
X-10179050Y-20908081D01*
X-10080191Y-20903551D01*
X-10021595Y-20896644D01*
X-9992745Y-20883542D01*
X-9983125Y-20860421D01*
X-9982200Y-20836561D01*
X-10003678Y-20727911D01*
X-10064197Y-20648900D01*
X-10157889Y-20605424D01*
X-10218820Y-20598807D01*
X-10326770Y-20611227D01*
X-10402419Y-20654946D01*
X-10451838Y-20724491D01*
X-10486896Y-20838046D01*
X-10734850Y-20838046D01*
X-10741981Y-20821239D01*
X-10731220Y-20788785D01*
X-10698529Y-20732843D01*
X-10648497Y-20655150D01*
X-10625727Y-20613842D01*
X-10639100Y-20599543D01*
X-10674404Y-20598000D01*
X-10729350Y-20614847D01*
X-10784280Y-20670497D01*
X-10804686Y-20699600D01*
X-10851477Y-20759520D01*
X-10893735Y-20796011D01*
X-10908767Y-20801200D01*
X-10951144Y-20778737D01*
X-10984429Y-20723068D01*
X-10998196Y-20651765D01*
X-10998200Y-20650469D01*
X-11012279Y-20609561D01*
X-11061700Y-20598000D01*
X-11107501Y-20606497D01*
X-11123902Y-20642258D01*
X-11125200Y-20672251D01*
X-11277600Y-20672251D01*
X-11277600Y-20598000D01*
X-11404600Y-20598000D01*
X-11543150Y-20598000D01*
X-11561946Y-20533790D01*
X-11613294Y-20464707D01*
X-11696387Y-20420333D01*
X-11729881Y-20414222D01*
X-11417145Y-20414222D01*
X-11415021Y-20455080D01*
X-11381877Y-20485929D01*
X-11330158Y-20495594D01*
X-11284350Y-20482454D01*
X-11270449Y-20464650D01*
X-11271995Y-20413736D01*
X-11297100Y-20369400D01*
X-9855200Y-20369400D01*
X-9855200Y-21131400D01*
X-9728200Y-21131400D01*
X-9728200Y-20369400D01*
X-9855200Y-20369400D01*
X-11297100Y-20369400D01*
X-11299298Y-20365519D01*
X-11338746Y-20344000D01*
X-11338884Y-20344000D01*
X-11388625Y-20365406D01*
X-11417145Y-20414222D01*
X-11729881Y-20414222D01*
X-11817194Y-20398292D01*
X-11911339Y-20394800D01*
X-12090400Y-20394800D01*
X-13563600Y-20394800D01*
X-13689037Y-20394800D01*
X-13696169Y-20705640D01*
X-13699805Y-20836498D01*
X-13704611Y-20925103D01*
X-13712088Y-20980003D01*
X-13723736Y-21009745D01*
X-13741057Y-21022875D01*
X-13752422Y-21025902D01*
X-13803519Y-21020312D01*
X-13838781Y-20978029D01*
X-13859786Y-20895040D01*
X-13868113Y-20767333D01*
X-13868400Y-20731175D01*
X-13871273Y-20626853D01*
X-13878905Y-20538153D01*
X-13889818Y-20480493D01*
X-13893264Y-20472001D01*
X-13945864Y-20420858D01*
X-14025516Y-20390930D01*
X-14110632Y-20388791D01*
X-14140331Y-20396788D01*
X-14192497Y-20421268D01*
X-14229049Y-20454208D01*
X-14252732Y-20504309D01*
X-14266294Y-20580270D01*
X-14272479Y-20690791D01*
X-14273993Y-20820250D01*
X-14274800Y-21131400D01*
X-14528800Y-21131400D01*
X-14528800Y-20115153D01*
X-12007850Y-20121626D01*
G36*
X-16611600Y-20572600D02*
G01*
X-16357600Y-20572600D01*
X-16357600Y-21029800D01*
X-16611600Y-21029800D01*
X-16611600Y-21258400D01*
X-16840200Y-21258400D01*
X-16840200Y-21029800D01*
X-17068800Y-21029800D01*
X-17068800Y-20801200D01*
X-16840200Y-20801200D01*
X-16840200Y-21029800D01*
X-16611600Y-21029800D01*
X-16611600Y-20801200D01*
X-16840200Y-20801200D01*
X-17068800Y-20801200D01*
X-17068800Y-20572600D01*
X-16840200Y-20572600D01*
X-16840200Y-20318600D01*
X-16611600Y-20318600D01*
X-16611600Y-20572600D01*
G37*
X-16611600Y-20572600D02*
X-16357600Y-20572600D01*
X-16357600Y-21029800D01*
X-16611600Y-21029800D01*
X-16611600Y-21258400D01*
X-16840200Y-21258400D01*
X-16840200Y-21029800D01*
X-17068800Y-21029800D01*
X-17068800Y-20801200D01*
X-16840200Y-20801200D01*
X-16840200Y-21029800D01*
X-16611600Y-21029800D01*
X-16611600Y-20801200D01*
X-16840200Y-20801200D01*
X-17068800Y-20801200D01*
X-17068800Y-20572600D01*
X-16840200Y-20572600D01*
X-16840200Y-20318600D01*
X-16611600Y-20318600D01*
X-16611600Y-20572600D01*
G36*
X-17729200Y-16737200D02*
G01*
X-17475200Y-16737200D01*
X-17475200Y-18058000D01*
X-17729200Y-18058000D01*
X-17729200Y-19912200D01*
X-18008600Y-19912200D01*
X-18008600Y-18058000D01*
X-18262600Y-18058000D01*
X-18262600Y-19124800D01*
X-18542000Y-19124800D01*
X-18542000Y-18058000D01*
X-18821400Y-18058000D01*
X-18821400Y-16737200D01*
X-18542000Y-16737200D01*
X-18542000Y-17778600D01*
X-17729200Y-17778600D01*
X-17729200Y-16991200D01*
X-18008600Y-16991200D01*
X-18008600Y-16737200D01*
X-18542000Y-16737200D01*
X-18542000Y-16457800D01*
X-17729200Y-16457800D01*
X-17729200Y-16737200D01*
G37*
X-17729200Y-16737200D02*
X-17475200Y-16737200D01*
X-17475200Y-18058000D01*
X-17729200Y-18058000D01*
X-17729200Y-19912200D01*
X-18008600Y-19912200D01*
X-18008600Y-18058000D01*
X-18262600Y-18058000D01*
X-18262600Y-19124800D01*
X-18542000Y-19124800D01*
X-18542000Y-18058000D01*
X-18821400Y-18058000D01*
X-18821400Y-16737200D01*
X-18542000Y-16737200D01*
X-18542000Y-17778600D01*
X-17729200Y-17778600D01*
X-17729200Y-16991200D01*
X-18008600Y-16991200D01*
X-18008600Y-16737200D01*
X-18542000Y-16737200D01*
X-18542000Y-16457800D01*
X-17729200Y-16457800D01*
X-17729200Y-16737200D01*
G36*
X19126200Y-18413600D02*
G01*
X19380200Y-18413600D01*
X19380200Y-18921600D01*
X19126200Y-18921600D01*
X19126200Y-19175600D01*
X18872200Y-19175600D01*
X18872200Y-18921600D01*
X18618200Y-18921600D01*
X18618200Y-18667600D01*
X18872200Y-18667600D01*
X18872200Y-18921600D01*
X19126200Y-18921600D01*
X19126200Y-18667600D01*
X18872200Y-18667600D01*
X18618200Y-18667600D01*
X18618200Y-18413600D01*
X18872200Y-18413600D01*
X18872200Y-18134200D01*
X19126200Y-18134200D01*
X19126200Y-18413600D01*
G37*
X19126200Y-18413600D02*
X19380200Y-18413600D01*
X19380200Y-18921600D01*
X19126200Y-18921600D01*
X19126200Y-19175600D01*
X18872200Y-19175600D01*
X18872200Y-18921600D01*
X18618200Y-18921600D01*
X18618200Y-18667600D01*
X18872200Y-18667600D01*
X18872200Y-18921600D01*
X19126200Y-18921600D01*
X19126200Y-18667600D01*
X18872200Y-18667600D01*
X18618200Y-18667600D01*
X18618200Y-18413600D01*
X18872200Y-18413600D01*
X18872200Y-18134200D01*
X19126200Y-18134200D01*
X19126200Y-18413600D01*
G36*
X-4140200Y-18362800D02*
G01*
X-4394200Y-18362800D01*
X-4394200Y-18108800D01*
X-4140200Y-18108800D01*
X-4140200Y-18362800D01*
G37*
X-4140200Y-18362800D02*
X-4394200Y-18362800D01*
X-4394200Y-18108800D01*
X-4140200Y-18108800D01*
X-4140200Y-18362800D01*
G36*
X-7162800Y-17854800D02*
G01*
X-6172200Y-17854800D01*
X-6172200Y-18108800D01*
X-5410200Y-18108800D01*
X-5410200Y-17854800D01*
X-5664200Y-17854800D01*
X-5664200Y-17600800D01*
X-5918200Y-17600800D01*
X-5918200Y-17854800D01*
X-6172200Y-17854800D01*
X-7162800Y-17854800D01*
X-7670800Y-17854800D01*
X-7670800Y-17600800D01*
X-7416800Y-17600800D01*
X-7416800Y-17092800D01*
X-6654800Y-17092800D01*
X-6654800Y-17600800D01*
X-6400800Y-17600800D01*
X-6400800Y-17092800D01*
X-5156200Y-17092800D01*
X-5156200Y-17600800D01*
X-4902200Y-17600800D01*
X-4902200Y-17092800D01*
X-5156200Y-17092800D01*
X-6400800Y-17092800D01*
X-6654800Y-17092800D01*
X-7416800Y-17092800D01*
X-7416800Y-16838800D01*
X-7162800Y-16838800D01*
X-7162800Y-15822800D01*
X-6908800Y-15822800D01*
X-6908800Y-16102200D01*
X-6654800Y-16102200D01*
X-6654800Y-16330800D01*
X-4902200Y-16330800D01*
X-4902200Y-16102200D01*
X-4648200Y-16102200D01*
X-4648200Y-15822800D01*
X-4394200Y-15822800D01*
X-4394200Y-16838800D01*
X-4140200Y-16838800D01*
X-4140200Y-17600800D01*
X-3886200Y-17600800D01*
X-3886200Y-17854800D01*
X-4394200Y-17854800D01*
X-4394200Y-18108800D01*
X-4648200Y-18108800D01*
X-4648200Y-18362800D01*
X-6908800Y-18362800D01*
X-6908800Y-18108800D01*
X-7162800Y-18108800D01*
X-7162800Y-17854800D01*
G37*
X-7162800Y-17854800D02*
X-6172200Y-17854800D01*
X-6172200Y-18108800D01*
X-5410200Y-18108800D01*
X-5410200Y-17854800D01*
X-5664200Y-17854800D01*
X-5664200Y-17600800D01*
X-5918200Y-17600800D01*
X-5918200Y-17854800D01*
X-6172200Y-17854800D01*
X-7162800Y-17854800D01*
X-7670800Y-17854800D01*
X-7670800Y-17600800D01*
X-7416800Y-17600800D01*
X-7416800Y-17092800D01*
X-6654800Y-17092800D01*
X-6654800Y-17600800D01*
X-6400800Y-17600800D01*
X-6400800Y-17092800D01*
X-5156200Y-17092800D01*
X-5156200Y-17600800D01*
X-4902200Y-17600800D01*
X-4902200Y-17092800D01*
X-5156200Y-17092800D01*
X-6400800Y-17092800D01*
X-6654800Y-17092800D01*
X-7416800Y-17092800D01*
X-7416800Y-16838800D01*
X-7162800Y-16838800D01*
X-7162800Y-15822800D01*
X-6908800Y-15822800D01*
X-6908800Y-16102200D01*
X-6654800Y-16102200D01*
X-6654800Y-16330800D01*
X-4902200Y-16330800D01*
X-4902200Y-16102200D01*
X-4648200Y-16102200D01*
X-4648200Y-15822800D01*
X-4394200Y-15822800D01*
X-4394200Y-16838800D01*
X-4140200Y-16838800D01*
X-4140200Y-17600800D01*
X-3886200Y-17600800D01*
X-3886200Y-17854800D01*
X-4394200Y-17854800D01*
X-4394200Y-18108800D01*
X-4648200Y-18108800D01*
X-4648200Y-18362800D01*
X-6908800Y-18362800D01*
X-6908800Y-18108800D01*
X-7162800Y-18108800D01*
X-7162800Y-17854800D01*
G36*
X-7162800Y-18362800D02*
G01*
X-7416800Y-18362800D01*
X-7416800Y-18108800D01*
X-7162800Y-18108800D01*
X-7162800Y-18362800D01*
G37*
X-7162800Y-18362800D02*
X-7416800Y-18362800D01*
X-7416800Y-18108800D01*
X-7162800Y-18108800D01*
X-7162800Y-18362800D01*
G36*
X15494000Y-17981800D02*
G01*
X17322800Y-17981800D01*
X17322800Y-18261200D01*
X12852400Y-18261200D01*
X12852400Y-17981800D01*
X14706600Y-17981800D01*
X14706600Y-17702400D01*
X15494000Y-17702400D01*
X15494000Y-17981800D01*
G37*
X15494000Y-17981800D02*
X17322800Y-17981800D01*
X17322800Y-18261200D01*
X12852400Y-18261200D01*
X12852400Y-17981800D01*
X14706600Y-17981800D01*
X14706600Y-17702400D01*
X15494000Y-17702400D01*
X15494000Y-17981800D01*
G36*
X12852400Y-17981800D02*
G01*
X12573000Y-17981800D01*
X12573000Y-17448400D01*
X12852400Y-17448400D01*
X12852400Y-17981800D01*
G37*
X12852400Y-17981800D02*
X12573000Y-17981800D01*
X12573000Y-17448400D01*
X12852400Y-17448400D01*
X12852400Y-17981800D01*
G36*
X17602200Y-17981800D02*
G01*
X17322800Y-17981800D01*
X17322800Y-17448400D01*
X17602200Y-17448400D01*
X17602200Y-17981800D01*
G37*
X17602200Y-17981800D02*
X17322800Y-17981800D01*
X17322800Y-17448400D01*
X17602200Y-17448400D01*
X17602200Y-17981800D01*
G36*
X13106400Y-17448400D02*
G01*
X12852400Y-17448400D01*
X12852400Y-17194400D01*
X13106400Y-17194400D01*
X13106400Y-17448400D01*
G37*
X13106400Y-17448400D02*
X12852400Y-17448400D01*
X12852400Y-17194400D01*
X13106400Y-17194400D01*
X13106400Y-17448400D01*
G36*
X17322800Y-17448400D02*
G01*
X17068800Y-17448400D01*
X17068800Y-17194400D01*
X17322800Y-17194400D01*
X17322800Y-17448400D01*
G37*
X17322800Y-17448400D02*
X17068800Y-17448400D01*
X17068800Y-17194400D01*
X17322800Y-17194400D01*
X17322800Y-17448400D01*
G36*
X17068800Y-17194400D02*
G01*
X16814800Y-17194400D01*
X16814800Y-16915000D01*
X17068800Y-16915000D01*
X17068800Y-17194400D01*
G37*
X17068800Y-17194400D02*
X16814800Y-17194400D01*
X16814800Y-16915000D01*
X17068800Y-16915000D01*
X17068800Y-17194400D01*
G36*
X13385800Y-17194400D02*
G01*
X13106400Y-17194400D01*
X13106400Y-16915000D01*
X13385800Y-16915000D01*
X13385800Y-17194400D01*
G37*
X13385800Y-17194400D02*
X13106400Y-17194400D01*
X13106400Y-16915000D01*
X13385800Y-16915000D01*
X13385800Y-17194400D01*
G36*
X13385800Y-16661000D02*
G01*
X13106400Y-16661000D01*
X13106400Y-14806800D01*
X13385800Y-14806800D01*
X13385800Y-16661000D01*
X16814800Y-16661000D01*
X16814800Y-14806800D01*
X13385800Y-14806800D01*
X13385800Y-14527400D01*
X16814800Y-14527400D01*
X16814800Y-14806800D01*
X17068800Y-14806800D01*
X17068800Y-16661000D01*
X16814800Y-16661000D01*
X16814800Y-16915000D01*
X16535400Y-16915000D01*
X16535400Y-17194400D01*
X16281400Y-17194400D01*
X16281400Y-16915000D01*
X16002000Y-16915000D01*
X16002000Y-17194400D01*
X15748000Y-17194400D01*
X15748000Y-16915000D01*
X15494000Y-16915000D01*
X15494000Y-17194400D01*
X15214600Y-17194400D01*
X15214600Y-16915000D01*
X14960600Y-16915000D01*
X14960600Y-17194400D01*
X14706600Y-17194400D01*
X14706600Y-16915000D01*
X14427200Y-16915000D01*
X14427200Y-17194400D01*
X14173200Y-17194400D01*
X14173200Y-16915000D01*
X13919200Y-16915000D01*
X13919200Y-17194400D01*
X13639800Y-17194400D01*
X13639800Y-16915000D01*
X13385800Y-16915000D01*
X13385800Y-16661000D01*
G37*
X13385800Y-16661000D02*
X13106400Y-16661000D01*
X13106400Y-14806800D01*
X13385800Y-14806800D01*
X13385800Y-16661000D01*
X16814800Y-16661000D01*
X16814800Y-14806800D01*
X13385800Y-14806800D01*
X13385800Y-14527400D01*
X16814800Y-14527400D01*
X16814800Y-14806800D01*
X17068800Y-14806800D01*
X17068800Y-16661000D01*
X16814800Y-16661000D01*
X16814800Y-16915000D01*
X16535400Y-16915000D01*
X16535400Y-17194400D01*
X16281400Y-17194400D01*
X16281400Y-16915000D01*
X16002000Y-16915000D01*
X16002000Y-17194400D01*
X15748000Y-17194400D01*
X15748000Y-16915000D01*
X15494000Y-16915000D01*
X15494000Y-17194400D01*
X15214600Y-17194400D01*
X15214600Y-16915000D01*
X14960600Y-16915000D01*
X14960600Y-17194400D01*
X14706600Y-17194400D01*
X14706600Y-16915000D01*
X14427200Y-16915000D01*
X14427200Y-17194400D01*
X14173200Y-17194400D01*
X14173200Y-16915000D01*
X13919200Y-16915000D01*
X13919200Y-17194400D01*
X13639800Y-17194400D01*
X13639800Y-16915000D01*
X13385800Y-16915000D01*
X13385800Y-16661000D01*
G36*
X6680200Y-17753200D02*
G01*
X4267200Y-17753200D01*
X4267200Y-17423000D01*
X4648200Y-17423000D01*
X4832350Y-17422858D01*
X4940878Y-17418886D01*
X5044001Y-17408647D01*
X5114965Y-17395376D01*
X5244588Y-17335344D01*
X5346189Y-17240967D01*
X5416082Y-17122197D01*
X5423522Y-17093471D01*
X5593104Y-17093471D01*
X5596003Y-17151538D01*
X5631031Y-17255312D01*
X5698787Y-17344898D01*
X5778500Y-17398767D01*
X5874157Y-17419763D01*
X5989328Y-17419510D01*
X6099760Y-17399704D01*
X6167378Y-17371548D01*
X6249527Y-17294935D01*
X6302098Y-17192076D01*
X6316750Y-17081220D01*
X6313169Y-17052534D01*
X6272081Y-16958523D01*
X6195455Y-16879301D01*
X6098496Y-16827226D01*
X6018916Y-16813400D01*
X5955604Y-16809036D01*
X5920625Y-16798146D01*
X5918200Y-16793896D01*
X5931231Y-16762345D01*
X5963829Y-16707007D01*
X5977619Y-16685946D01*
X6028519Y-16609491D01*
X6076146Y-16536906D01*
X6082140Y-16527650D01*
X6127242Y-16457800D01*
X6025923Y-16457800D01*
X5977026Y-16459823D01*
X5939763Y-16471317D01*
X5904614Y-16500417D01*
X5862060Y-16555259D01*
X5802580Y-16643979D01*
X5795583Y-16654650D01*
X5704056Y-16800746D01*
X5642104Y-16916848D01*
X5606272Y-17011556D01*
X5593104Y-17093471D01*
X5423522Y-17093471D01*
X5450584Y-16988988D01*
X5446009Y-16851294D01*
X5398675Y-16719069D01*
X5377831Y-16685224D01*
X5297342Y-16589460D01*
X5201566Y-16522759D01*
X5081259Y-16481364D01*
X4927178Y-16461518D01*
X4819650Y-16458405D01*
X4648200Y-16457800D01*
X4648200Y-17423000D01*
X4267200Y-17423000D01*
X4267200Y-16153000D01*
X6680200Y-16153000D01*
X6680200Y-17753200D01*
G37*
X6680200Y-17753200D02*
X4267200Y-17753200D01*
X4267200Y-17423000D01*
X4648200Y-17423000D01*
X4832350Y-17422858D01*
X4940878Y-17418886D01*
X5044001Y-17408647D01*
X5114965Y-17395376D01*
X5244588Y-17335344D01*
X5346189Y-17240967D01*
X5416082Y-17122197D01*
X5423522Y-17093471D01*
X5593104Y-17093471D01*
X5596003Y-17151538D01*
X5631031Y-17255312D01*
X5698787Y-17344898D01*
X5778500Y-17398767D01*
X5874157Y-17419763D01*
X5989328Y-17419510D01*
X6099760Y-17399704D01*
X6167378Y-17371548D01*
X6249527Y-17294935D01*
X6302098Y-17192076D01*
X6316750Y-17081220D01*
X6313169Y-17052534D01*
X6272081Y-16958523D01*
X6195455Y-16879301D01*
X6098496Y-16827226D01*
X6018916Y-16813400D01*
X5955604Y-16809036D01*
X5920625Y-16798146D01*
X5918200Y-16793896D01*
X5931231Y-16762345D01*
X5963829Y-16707007D01*
X5977619Y-16685946D01*
X6028519Y-16609491D01*
X6076146Y-16536906D01*
X6082140Y-16527650D01*
X6127242Y-16457800D01*
X6025923Y-16457800D01*
X5977026Y-16459823D01*
X5939763Y-16471317D01*
X5904614Y-16500417D01*
X5862060Y-16555259D01*
X5802580Y-16643979D01*
X5795583Y-16654650D01*
X5704056Y-16800746D01*
X5642104Y-16916848D01*
X5606272Y-17011556D01*
X5593104Y-17093471D01*
X5423522Y-17093471D01*
X5450584Y-16988988D01*
X5446009Y-16851294D01*
X5398675Y-16719069D01*
X5377831Y-16685224D01*
X5297342Y-16589460D01*
X5201566Y-16522759D01*
X5081259Y-16481364D01*
X4927178Y-16461518D01*
X4819650Y-16458405D01*
X4648200Y-16457800D01*
X4648200Y-17423000D01*
X4267200Y-17423000D01*
X4267200Y-16153000D01*
X6680200Y-16153000D01*
X6680200Y-17753200D01*
G36*
X-16408400Y-16991200D02*
G01*
X-16687800Y-16991200D01*
X-16687800Y-15949800D01*
X-16408400Y-15949800D01*
X-16408400Y-16991200D01*
G37*
X-16408400Y-16991200D02*
X-16687800Y-16991200D01*
X-16687800Y-15949800D01*
X-16408400Y-15949800D01*
X-16408400Y-16991200D01*
G36*
X-16687800Y-15949800D02*
G01*
X-16941800Y-15949800D01*
X-16941800Y-15670400D01*
X-16687800Y-15670400D01*
X-16687800Y-15949800D01*
G37*
X-16687800Y-15949800D02*
X-16941800Y-15949800D01*
X-16941800Y-15670400D01*
X-16687800Y-15670400D01*
X-16687800Y-15949800D01*
G36*
X-16941800Y-15670400D02*
G01*
X-17221200Y-15670400D01*
X-17221200Y-15416400D01*
X-16941800Y-15416400D01*
X-16941800Y-15670400D01*
G37*
X-16941800Y-15670400D02*
X-17221200Y-15670400D01*
X-17221200Y-15416400D01*
X-16941800Y-15416400D01*
X-16941800Y-15670400D01*
G36*
X-17221200Y-15416400D02*
G01*
X-18262600Y-15416400D01*
X-18262600Y-15137000D01*
X-17221200Y-15137000D01*
X-17221200Y-15416400D01*
G37*
X-17221200Y-15416400D02*
X-18262600Y-15416400D01*
X-18262600Y-15137000D01*
X-17221200Y-15137000D01*
X-17221200Y-15416400D01*
G36*
X-9525000Y-16280000D02*
G01*
X-9271000Y-16280000D01*
X-9271000Y-16534000D01*
X-9525000Y-16534000D01*
X-9525000Y-16788000D01*
X-9753600Y-16788000D01*
X-9753600Y-16534000D01*
X-10007600Y-16534000D01*
X-10007600Y-16280000D01*
X-9753600Y-16280000D01*
X-9753600Y-16051400D01*
X-9525000Y-16051400D01*
X-9525000Y-16280000D01*
G37*
X-9525000Y-16280000D02*
X-9271000Y-16280000D01*
X-9271000Y-16534000D01*
X-9525000Y-16534000D01*
X-9525000Y-16788000D01*
X-9753600Y-16788000D01*
X-9753600Y-16534000D01*
X-10007600Y-16534000D01*
X-10007600Y-16280000D01*
X-9753600Y-16280000D01*
X-9753600Y-16051400D01*
X-9525000Y-16051400D01*
X-9525000Y-16280000D01*
G36*
X-16941800Y-16737200D02*
G01*
X-17221200Y-16737200D01*
X-17221200Y-16203800D01*
X-16941800Y-16203800D01*
X-16941800Y-16737200D01*
G37*
X-16941800Y-16737200D02*
X-17221200Y-16737200D01*
X-17221200Y-16203800D01*
X-16941800Y-16203800D01*
X-16941800Y-16737200D01*
G36*
X-17221200Y-16203800D02*
G01*
X-17475200Y-16203800D01*
X-17475200Y-15949800D01*
X-17221200Y-15949800D01*
X-17221200Y-16203800D01*
G37*
X-17221200Y-16203800D02*
X-17475200Y-16203800D01*
X-17475200Y-15949800D01*
X-17221200Y-15949800D01*
X-17221200Y-16203800D01*
G36*
X-17475200Y-15949800D02*
G01*
X-18008600Y-15949800D01*
X-18008600Y-15670400D01*
X-17475200Y-15670400D01*
X-17475200Y-15949800D01*
G37*
X-17475200Y-15949800D02*
X-18008600Y-15949800D01*
X-18008600Y-15670400D01*
X-17475200Y-15670400D01*
X-17475200Y-15949800D01*
G36*
X-11074400Y-16610200D02*
G01*
X-14376400Y-16610200D01*
X-14376400Y-14502000D01*
X-14071600Y-14502000D01*
X-14071600Y-16280000D01*
X-13182600Y-16280000D01*
X-13182600Y-16000600D01*
X-13766800Y-16000600D01*
X-13766800Y-14806800D01*
X-13462000Y-14806800D01*
X-13462000Y-15111600D01*
X-13182600Y-15111600D01*
X-13182600Y-14806800D01*
X-12877800Y-14806800D01*
X-12877800Y-15111600D01*
X-12573000Y-15111600D01*
X-12573000Y-14806800D01*
X-12293600Y-14806800D01*
X-12293600Y-15111600D01*
X-11988800Y-15111600D01*
X-11988800Y-14806800D01*
X-11684000Y-14806800D01*
X-11684000Y-16000600D01*
X-12293600Y-16000600D01*
X-12293600Y-16280000D01*
X-11379200Y-16280000D01*
X-11379200Y-14502000D01*
X-14071600Y-14502000D01*
X-14376400Y-14502000D01*
X-14376400Y-14197200D01*
X-11074400Y-14197200D01*
X-11074400Y-16610200D01*
G37*
X-11074400Y-16610200D02*
X-14376400Y-16610200D01*
X-14376400Y-14502000D01*
X-14071600Y-14502000D01*
X-14071600Y-16280000D01*
X-13182600Y-16280000D01*
X-13182600Y-16000600D01*
X-13766800Y-16000600D01*
X-13766800Y-14806800D01*
X-13462000Y-14806800D01*
X-13462000Y-15111600D01*
X-13182600Y-15111600D01*
X-13182600Y-14806800D01*
X-12877800Y-14806800D01*
X-12877800Y-15111600D01*
X-12573000Y-15111600D01*
X-12573000Y-14806800D01*
X-12293600Y-14806800D01*
X-12293600Y-15111600D01*
X-11988800Y-15111600D01*
X-11988800Y-14806800D01*
X-11684000Y-14806800D01*
X-11684000Y-16000600D01*
X-12293600Y-16000600D01*
X-12293600Y-16280000D01*
X-11379200Y-16280000D01*
X-11379200Y-14502000D01*
X-14071600Y-14502000D01*
X-14376400Y-14502000D01*
X-14376400Y-14197200D01*
X-11074400Y-14197200D01*
X-11074400Y-16610200D01*
G36*
X1651000Y-15441800D02*
G01*
X1422400Y-15441800D01*
X1422400Y-14730600D01*
X1651000Y-14730600D01*
X1651000Y-15441800D01*
G37*
X1651000Y-15441800D02*
X1422400Y-15441800D01*
X1422400Y-14730600D01*
X1651000Y-14730600D01*
X1651000Y-15441800D01*
G36*
X-1828800Y-14502000D02*
G01*
X-889000Y-14502000D01*
X-889000Y-14730600D01*
X-660400Y-14730600D01*
X-660400Y-14502000D01*
X-431800Y-14502000D01*
X-431800Y-14730600D01*
X-203200Y-14730600D01*
X-203200Y-14502000D01*
X25400Y-14502000D01*
X25400Y-14730600D01*
X254000Y-14730600D01*
X254000Y-14502000D01*
X25400Y-14502000D01*
X-203200Y-14502000D01*
X-431800Y-14502000D01*
X-660400Y-14502000D01*
X-889000Y-14502000D01*
X-889000Y-14273400D01*
X482600Y-14273400D01*
X482600Y-14502000D01*
X1422400Y-14502000D01*
X1422400Y-14730600D01*
X482600Y-14730600D01*
X482600Y-14984600D01*
X-889000Y-14984600D01*
X-889000Y-14730600D01*
X-1828800Y-14730600D01*
X-1828800Y-14502000D01*
G37*
X-1828800Y-14502000D02*
X-889000Y-14502000D01*
X-889000Y-14730600D01*
X-660400Y-14730600D01*
X-660400Y-14502000D01*
X-431800Y-14502000D01*
X-431800Y-14730600D01*
X-203200Y-14730600D01*
X-203200Y-14502000D01*
X25400Y-14502000D01*
X25400Y-14730600D01*
X254000Y-14730600D01*
X254000Y-14502000D01*
X25400Y-14502000D01*
X-203200Y-14502000D01*
X-431800Y-14502000D01*
X-660400Y-14502000D01*
X-889000Y-14502000D01*
X-889000Y-14273400D01*
X482600Y-14273400D01*
X482600Y-14502000D01*
X1422400Y-14502000D01*
X1422400Y-14730600D01*
X482600Y-14730600D01*
X482600Y-14984600D01*
X-889000Y-14984600D01*
X-889000Y-14730600D01*
X-1828800Y-14730600D01*
X-1828800Y-14502000D01*
G36*
X-1828800Y-15441800D02*
G01*
X-2057400Y-15441800D01*
X-2057400Y-14730600D01*
X-1828800Y-14730600D01*
X-1828800Y-15441800D01*
G37*
X-1828800Y-15441800D02*
X-2057400Y-15441800D01*
X-2057400Y-14730600D01*
X-1828800Y-14730600D01*
X-1828800Y-15441800D01*
G36*
X-8610600Y-14349600D02*
G01*
X-7188200Y-14349600D01*
X-7188200Y-13790800D01*
X-7086600Y-13790800D01*
X-7021454Y-13793809D01*
X-6992493Y-13810115D01*
X-6985161Y-13850637D01*
X-6985000Y-13867000D01*
X-6985000Y-13943200D01*
X-6553200Y-13943200D01*
X-6553200Y-14146400D01*
X-6985000Y-14146400D01*
X-6985000Y-14248000D01*
X-6987445Y-14313032D01*
X-7004553Y-14341929D01*
X-7050992Y-14349355D01*
X-7086600Y-14349600D01*
X-7151633Y-14352044D01*
X-7180530Y-14369152D01*
X-7187956Y-14415591D01*
X-7188200Y-14451200D01*
X-7190645Y-14516232D01*
X-7207753Y-14545129D01*
X-7254192Y-14552555D01*
X-7289800Y-14552800D01*
X-7391400Y-14552800D01*
X-7391400Y-14984600D01*
X-7594600Y-14984600D01*
X-7594600Y-14552800D01*
X-7797800Y-14552800D01*
X-7797800Y-14984600D01*
X-8001000Y-14984600D01*
X-8001000Y-14552800D01*
X-8204200Y-14552800D01*
X-8204200Y-14984600D01*
X-8407400Y-14984600D01*
X-8407400Y-14552800D01*
X-8509000Y-14552800D01*
X-8574033Y-14550355D01*
X-8602930Y-14533247D01*
X-8610356Y-14486808D01*
X-8610600Y-14451200D01*
X-8613045Y-14386167D01*
X-8630153Y-14357270D01*
X-8676592Y-14349844D01*
X-8712200Y-14349600D01*
X-8777233Y-14347155D01*
X-8806130Y-14330047D01*
X-8813556Y-14283608D01*
X-8813800Y-14248000D01*
X-8813800Y-14146400D01*
X-9220200Y-14146400D01*
X-9220200Y-13943200D01*
X-8813800Y-13943200D01*
X-8813800Y-13867000D01*
X-8809788Y-13818139D01*
X-8788047Y-13796419D01*
X-8734017Y-13790920D01*
X-8712200Y-13790800D01*
X-8610600Y-13790800D01*
X-8610600Y-14349600D01*
G37*
X-8610600Y-14349600D02*
X-7188200Y-14349600D01*
X-7188200Y-13790800D01*
X-7086600Y-13790800D01*
X-7021454Y-13793809D01*
X-6992493Y-13810115D01*
X-6985161Y-13850637D01*
X-6985000Y-13867000D01*
X-6985000Y-13943200D01*
X-6553200Y-13943200D01*
X-6553200Y-14146400D01*
X-6985000Y-14146400D01*
X-6985000Y-14248000D01*
X-6987445Y-14313032D01*
X-7004553Y-14341929D01*
X-7050992Y-14349355D01*
X-7086600Y-14349600D01*
X-7151633Y-14352044D01*
X-7180530Y-14369152D01*
X-7187956Y-14415591D01*
X-7188200Y-14451200D01*
X-7190645Y-14516232D01*
X-7207753Y-14545129D01*
X-7254192Y-14552555D01*
X-7289800Y-14552800D01*
X-7391400Y-14552800D01*
X-7391400Y-14984600D01*
X-7594600Y-14984600D01*
X-7594600Y-14552800D01*
X-7797800Y-14552800D01*
X-7797800Y-14984600D01*
X-8001000Y-14984600D01*
X-8001000Y-14552800D01*
X-8204200Y-14552800D01*
X-8204200Y-14984600D01*
X-8407400Y-14984600D01*
X-8407400Y-14552800D01*
X-8509000Y-14552800D01*
X-8574033Y-14550355D01*
X-8602930Y-14533247D01*
X-8610356Y-14486808D01*
X-8610600Y-14451200D01*
X-8613045Y-14386167D01*
X-8630153Y-14357270D01*
X-8676592Y-14349844D01*
X-8712200Y-14349600D01*
X-8777233Y-14347155D01*
X-8806130Y-14330047D01*
X-8813556Y-14283608D01*
X-8813800Y-14248000D01*
X-8813800Y-14146400D01*
X-9220200Y-14146400D01*
X-9220200Y-13943200D01*
X-8813800Y-13943200D01*
X-8813800Y-13867000D01*
X-8809788Y-13818139D01*
X-8788047Y-13796419D01*
X-8734017Y-13790920D01*
X-8712200Y-13790800D01*
X-8610600Y-13790800D01*
X-8610600Y-14349600D01*
G36*
X-15646400Y-14629000D02*
G01*
X-15875000Y-14629000D01*
X-15875000Y-14857600D01*
X-16332200Y-14857600D01*
X-16332200Y-14629000D01*
X-16103600Y-14629000D01*
X-16103600Y-14400400D01*
X-15646400Y-14400400D01*
X-15646400Y-14629000D01*
G37*
X-15646400Y-14629000D02*
X-15875000Y-14629000D01*
X-15875000Y-14857600D01*
X-16332200Y-14857600D01*
X-16332200Y-14629000D01*
X-16103600Y-14629000D01*
X-16103600Y-14400400D01*
X-15646400Y-14400400D01*
X-15646400Y-14629000D01*
G36*
X-16103600Y-14400400D02*
G01*
X-16332200Y-14400400D01*
X-16332200Y-14171800D01*
X-16103600Y-14171800D01*
X-16103600Y-14400400D01*
G37*
X-16103600Y-14400400D02*
X-16332200Y-14400400D01*
X-16332200Y-14171800D01*
X-16103600Y-14171800D01*
X-16103600Y-14400400D01*
G36*
X-4267200Y-14654400D02*
G01*
X-4978400Y-14654400D01*
X-4978400Y-14425800D01*
X-4495800Y-14425800D01*
X-4495800Y-14197200D01*
X-4267200Y-14197200D01*
X-4267200Y-14654400D01*
G37*
X-4267200Y-14654400D02*
X-4978400Y-14654400D01*
X-4978400Y-14425800D01*
X-4495800Y-14425800D01*
X-4495800Y-14197200D01*
X-4267200Y-14197200D01*
X-4267200Y-14654400D01*
G36*
X-4495800Y-14197200D02*
G01*
X-4724400Y-14197200D01*
X-4724400Y-13943200D01*
X-4495800Y-13943200D01*
X-4495800Y-14197200D01*
G37*
X-4495800Y-14197200D02*
X-4724400Y-14197200D01*
X-4724400Y-13943200D01*
X-4495800Y-13943200D01*
X-4495800Y-14197200D01*
G36*
X6534584Y-13793008D02*
G01*
X6567874Y-13805762D01*
X6577953Y-13838252D01*
X6578600Y-13867000D01*
X6581913Y-13913856D01*
X6601044Y-13936049D01*
X6649779Y-13942769D01*
X6692900Y-13943200D01*
X6807200Y-13943200D01*
X6807200Y-14400400D01*
X6578600Y-14400400D01*
X6578600Y-14629000D01*
X6350000Y-14629000D01*
X6350000Y-14400400D01*
X6096000Y-14400400D01*
X6096000Y-14171800D01*
X6350000Y-14171800D01*
X6350000Y-14400400D01*
X6578600Y-14400400D01*
X6578600Y-14171800D01*
X6350000Y-14171800D01*
X6096000Y-14171800D01*
X6096000Y-13943200D01*
X6223000Y-13943200D01*
X6298180Y-13941535D01*
X6335670Y-13931299D01*
X6348573Y-13904629D01*
X6350000Y-13867000D01*
X6353313Y-13820143D01*
X6372444Y-13797950D01*
X6421179Y-13791230D01*
X6464300Y-13790800D01*
X6534584Y-13793008D01*
G37*
X6534584Y-13793008D02*
X6567874Y-13805762D01*
X6577953Y-13838252D01*
X6578600Y-13867000D01*
X6581913Y-13913856D01*
X6601044Y-13936049D01*
X6649779Y-13942769D01*
X6692900Y-13943200D01*
X6807200Y-13943200D01*
X6807200Y-14400400D01*
X6578600Y-14400400D01*
X6578600Y-14629000D01*
X6350000Y-14629000D01*
X6350000Y-14400400D01*
X6096000Y-14400400D01*
X6096000Y-14171800D01*
X6350000Y-14171800D01*
X6350000Y-14400400D01*
X6578600Y-14400400D01*
X6578600Y-14171800D01*
X6350000Y-14171800D01*
X6096000Y-14171800D01*
X6096000Y-13943200D01*
X6223000Y-13943200D01*
X6298180Y-13941535D01*
X6335670Y-13931299D01*
X6348573Y-13904629D01*
X6350000Y-13867000D01*
X6353313Y-13820143D01*
X6372444Y-13797950D01*
X6421179Y-13791230D01*
X6464300Y-13790800D01*
X6534584Y-13793008D01*
G36*
X-17830800Y-7186800D02*
G01*
X-17830800Y-7999600D01*
X-18110200Y-7999600D01*
X-18110200Y-8279000D01*
X-18389600Y-8279000D01*
X-18389600Y-7999600D01*
X-18669000Y-7999600D01*
X-18669000Y-7186800D01*
X-18389600Y-7186800D01*
X-18389600Y-7999600D01*
X-18110200Y-7999600D01*
X-18110200Y-7186800D01*
X-18389600Y-7186800D01*
X-18389600Y-6907400D01*
X-18110200Y-6907400D01*
X-18110200Y-7186800D01*
X-17830800Y-7186800D01*
G37*
X-17830800Y-7186800D02*
X-17830800Y-7999600D01*
X-18110200Y-7999600D01*
X-18110200Y-8279000D01*
X-18389600Y-8279000D01*
X-18389600Y-7999600D01*
X-18669000Y-7999600D01*
X-18669000Y-7186800D01*
X-18389600Y-7186800D01*
X-18389600Y-7999600D01*
X-18110200Y-7999600D01*
X-18110200Y-7186800D01*
X-18389600Y-7186800D01*
X-18389600Y-6907400D01*
X-18110200Y-6907400D01*
X-18110200Y-7186800D01*
X-17830800Y-7186800D01*
G36*
X19913600Y-8177400D02*
G01*
X19202400Y-8177400D01*
X19202400Y-7948800D01*
X19685000Y-7948800D01*
X19685000Y-7720200D01*
X19913600Y-7720200D01*
X19913600Y-8177400D01*
G37*
X19913600Y-8177400D02*
X19202400Y-8177400D01*
X19202400Y-7948800D01*
X19685000Y-7948800D01*
X19685000Y-7720200D01*
X19913600Y-7720200D01*
X19913600Y-8177400D01*
G36*
X19685000Y-7720200D02*
G01*
X19456400Y-7720200D01*
X19456400Y-7466200D01*
X19685000Y-7466200D01*
X19685000Y-7720200D01*
G37*
X19685000Y-7720200D02*
X19456400Y-7720200D01*
X19456400Y-7466200D01*
X19685000Y-7466200D01*
X19685000Y-7720200D01*
G36*
X18897600Y-3427600D02*
G01*
X19151600Y-3427600D01*
X19151600Y-4748400D01*
X18897600Y-4748400D01*
X18897600Y-6628000D01*
X18618200Y-6628000D01*
X18618200Y-4748400D01*
X18364200Y-4748400D01*
X18364200Y-5815200D01*
X18084800Y-5815200D01*
X18084800Y-4748400D01*
X17830800Y-4748400D01*
X17830800Y-3427600D01*
X18084800Y-3427600D01*
X18084800Y-4494400D01*
X18897600Y-4494400D01*
X18897600Y-3707000D01*
X18618200Y-3707000D01*
X18618200Y-3427600D01*
X18084800Y-3427600D01*
X18084800Y-3173600D01*
X18897600Y-3173600D01*
X18897600Y-3427600D01*
G37*
X18897600Y-3427600D02*
X19151600Y-3427600D01*
X19151600Y-4748400D01*
X18897600Y-4748400D01*
X18897600Y-6628000D01*
X18618200Y-6628000D01*
X18618200Y-4748400D01*
X18364200Y-4748400D01*
X18364200Y-5815200D01*
X18084800Y-5815200D01*
X18084800Y-4748400D01*
X17830800Y-4748400D01*
X17830800Y-3427600D01*
X18084800Y-3427600D01*
X18084800Y-4494400D01*
X18897600Y-4494400D01*
X18897600Y-3707000D01*
X18618200Y-3707000D01*
X18618200Y-3427600D01*
X18084800Y-3427600D01*
X18084800Y-3173600D01*
X18897600Y-3173600D01*
X18897600Y-3427600D01*
G36*
X-18542000Y-5815200D02*
G01*
X-19050000Y-5815200D01*
X-19050000Y-5307200D01*
X-18542000Y-5307200D01*
X-18542000Y-5815200D01*
G37*
X-18542000Y-5815200D02*
X-19050000Y-5815200D01*
X-19050000Y-5307200D01*
X-18542000Y-5307200D01*
X-18542000Y-5815200D01*
G36*
X-17780000Y-5307200D02*
G01*
X-18034000Y-5307200D01*
X-18034000Y-5053200D01*
X-17780000Y-5053200D01*
X-17780000Y-5307200D01*
G37*
X-17780000Y-5307200D02*
X-18034000Y-5307200D01*
X-18034000Y-5053200D01*
X-17780000Y-5053200D01*
X-17780000Y-5307200D01*
G36*
X-19558000Y-5307200D02*
G01*
X-19812000Y-5307200D01*
X-19812000Y-5053200D01*
X-19558000Y-5053200D01*
X-19558000Y-5307200D01*
G37*
X-19558000Y-5307200D02*
X-19812000Y-5307200D01*
X-19812000Y-5053200D01*
X-19558000Y-5053200D01*
X-19558000Y-5307200D01*
G36*
X-18034000Y-5053200D02*
G01*
X-19558000Y-5053200D01*
X-19558000Y-4799200D01*
X-18034000Y-4799200D01*
X-18034000Y-5053200D01*
G37*
X-18034000Y-5053200D02*
X-19558000Y-5053200D01*
X-19558000Y-4799200D01*
X-18034000Y-4799200D01*
X-18034000Y-5053200D01*
G36*
X-20066000Y-4799200D02*
G01*
X-20345400Y-4799200D01*
X-20345400Y-4545200D01*
X-20066000Y-4545200D01*
X-20066000Y-4799200D01*
G37*
X-20066000Y-4799200D02*
X-20345400Y-4799200D01*
X-20345400Y-4545200D01*
X-20066000Y-4545200D01*
X-20066000Y-4799200D01*
G36*
X-19812000Y-4011800D02*
G01*
X-17780000Y-4011800D01*
X-17780000Y-4151500D01*
X-17776580Y-4235747D01*
X-17764578Y-4279121D01*
X-17741900Y-4291200D01*
X-17717941Y-4304795D01*
X-17706239Y-4351868D01*
X-17703800Y-4418200D01*
X-17707879Y-4498065D01*
X-17722001Y-4537073D01*
X-17741900Y-4545200D01*
X-17765860Y-4531604D01*
X-17777562Y-4484531D01*
X-17780000Y-4418200D01*
X-17780000Y-4291200D01*
X-19812000Y-4291200D01*
X-19812000Y-4011800D01*
G37*
X-19812000Y-4011800D02*
X-17780000Y-4011800D01*
X-17780000Y-4151500D01*
X-17776580Y-4235747D01*
X-17764578Y-4279121D01*
X-17741900Y-4291200D01*
X-17717941Y-4304795D01*
X-17706239Y-4351868D01*
X-17703800Y-4418200D01*
X-17707879Y-4498065D01*
X-17722001Y-4537073D01*
X-17741900Y-4545200D01*
X-17765860Y-4531604D01*
X-17777562Y-4484531D01*
X-17780000Y-4418200D01*
X-17780000Y-4291200D01*
X-19812000Y-4291200D01*
X-19812000Y-4011800D01*
G36*
X-19812000Y-4545200D02*
G01*
X-20066000Y-4545200D01*
X-20066000Y-4291200D01*
X-19812000Y-4291200D01*
X-19812000Y-4545200D01*
G37*
X-19812000Y-4545200D02*
X-20066000Y-4545200D01*
X-20066000Y-4291200D01*
X-19812000Y-4291200D01*
X-19812000Y-4545200D01*
G36*
X20218400Y-3707000D02*
G01*
X19939000Y-3707000D01*
X19939000Y-2640200D01*
X20218400Y-2640200D01*
X20218400Y-3707000D01*
G37*
X20218400Y-3707000D02*
X19939000Y-3707000D01*
X19939000Y-2640200D01*
X20218400Y-2640200D01*
X20218400Y-3707000D01*
G36*
X19939000Y-2640200D02*
G01*
X19685000Y-2640200D01*
X19685000Y-2386200D01*
X19939000Y-2386200D01*
X19939000Y-2640200D01*
G37*
X19939000Y-2640200D02*
X19685000Y-2640200D01*
X19685000Y-2386200D01*
X19939000Y-2386200D01*
X19939000Y-2640200D01*
G36*
X19685000Y-2386200D02*
G01*
X19405600Y-2386200D01*
X19405600Y-2106800D01*
X19685000Y-2106800D01*
X19685000Y-2386200D01*
G37*
X19685000Y-2386200D02*
X19405600Y-2386200D01*
X19405600Y-2106800D01*
X19685000Y-2106800D01*
X19685000Y-2386200D01*
G36*
X19405600Y-2106800D02*
G01*
X18364200Y-2106800D01*
X18364200Y-1827400D01*
X19405600Y-1827400D01*
X19405600Y-2106800D01*
G37*
X19405600Y-2106800D02*
X18364200Y-2106800D01*
X18364200Y-1827400D01*
X19405600Y-1827400D01*
X19405600Y-2106800D01*
G36*
X19685000Y-3427600D02*
G01*
X19405600Y-3427600D01*
X19405600Y-2894200D01*
X19685000Y-2894200D01*
X19685000Y-3427600D01*
G37*
X19685000Y-3427600D02*
X19405600Y-3427600D01*
X19405600Y-2894200D01*
X19685000Y-2894200D01*
X19685000Y-3427600D01*
G36*
X19405600Y-2894200D02*
G01*
X19151600Y-2894200D01*
X19151600Y-2640200D01*
X19405600Y-2640200D01*
X19405600Y-2894200D01*
G37*
X19405600Y-2894200D02*
X19151600Y-2894200D01*
X19151600Y-2640200D01*
X19405600Y-2640200D01*
X19405600Y-2894200D01*
G36*
X19151600Y-2640200D02*
G01*
X18618200Y-2640200D01*
X18618200Y-2386200D01*
X19151600Y-2386200D01*
X19151600Y-2640200D01*
G37*
X19151600Y-2640200D02*
X18618200Y-2640200D01*
X18618200Y-2386200D01*
X19151600Y-2386200D01*
X19151600Y-2640200D01*
G36*
X-17703800Y-2894200D02*
G01*
X-18110200Y-2894200D01*
X-18110200Y-2691000D01*
X-18338800Y-2691000D01*
X-18338800Y-2487800D01*
X-18110200Y-2487800D01*
X-18110200Y-2589400D01*
X-18107509Y-2654450D01*
X-18090892Y-2683359D01*
X-18047533Y-2690772D01*
X-18021300Y-2691000D01*
X-17932400Y-2691000D01*
X-17932400Y-2284600D01*
X-17703800Y-2284600D01*
X-17703800Y-2894200D01*
G37*
X-17703800Y-2894200D02*
X-18110200Y-2894200D01*
X-18110200Y-2691000D01*
X-18338800Y-2691000D01*
X-18338800Y-2487800D01*
X-18110200Y-2487800D01*
X-18110200Y-2589400D01*
X-18107509Y-2654450D01*
X-18090892Y-2683359D01*
X-18047533Y-2690772D01*
X-18021300Y-2691000D01*
X-17932400Y-2691000D01*
X-17932400Y-2284600D01*
X-17703800Y-2284600D01*
X-17703800Y-2894200D01*
G36*
X-19964400Y-1090800D02*
G01*
X-19710400Y-1090800D01*
X-19710400Y-1319400D01*
X-19964400Y-1319400D01*
X-19964400Y-1573400D01*
X-20193000Y-1573400D01*
X-20193000Y-1319400D01*
X-20447000Y-1319400D01*
X-20447000Y-1090800D01*
X-20193000Y-1090800D01*
X-20193000Y-836800D01*
X-19964400Y-836800D01*
X-19964400Y-1090800D01*
G37*
X-19964400Y-1090800D02*
X-19710400Y-1090800D01*
X-19710400Y-1319400D01*
X-19964400Y-1319400D01*
X-19964400Y-1573400D01*
X-20193000Y-1573400D01*
X-20193000Y-1319400D01*
X-20447000Y-1319400D01*
X-20447000Y-1090800D01*
X-20193000Y-1090800D01*
X-20193000Y-836800D01*
X-19964400Y-836800D01*
X-19964400Y-1090800D01*
G36*
X-18973800Y738000D02*
G01*
X-19456400Y738000D01*
X-19456400Y966600D01*
X-18973800Y966600D01*
X-18973800Y738000D01*
G37*
X-18973800Y738000D02*
X-19456400Y738000D01*
X-19456400Y966600D01*
X-18973800Y966600D01*
X-18973800Y738000D01*
G36*
X-19227800Y1195200D02*
G01*
X-19456400Y1195200D01*
X-19456400Y966600D01*
X-19685000Y966600D01*
X-19685000Y1195200D01*
X-19939000Y1195200D01*
X-19939000Y1677800D01*
X-19685000Y1677800D01*
X-19685000Y1449200D01*
X-19456400Y1449200D01*
X-19456400Y1677800D01*
X-19685000Y1677800D01*
X-19939000Y1677800D01*
X-19939000Y1906400D01*
X-19227800Y1906400D01*
X-19227800Y1195200D01*
G37*
X-19227800Y1195200D02*
X-19456400Y1195200D01*
X-19456400Y966600D01*
X-19685000Y966600D01*
X-19685000Y1195200D01*
X-19939000Y1195200D01*
X-19939000Y1677800D01*
X-19685000Y1677800D01*
X-19685000Y1449200D01*
X-19456400Y1449200D01*
X-19456400Y1677800D01*
X-19685000Y1677800D01*
X-19939000Y1677800D01*
X-19939000Y1906400D01*
X-19227800Y1906400D01*
X-19227800Y1195200D01*
G36*
X-17703800Y2033400D02*
G01*
X-17707879Y1953535D01*
X-17722001Y1914527D01*
X-17741900Y1906400D01*
X-17767013Y1891442D01*
X-17778451Y1840580D01*
X-17780000Y1792100D01*
X-17775014Y1716764D01*
X-17758060Y1682448D01*
X-17741900Y1677800D01*
X-17723739Y1669165D01*
X-17712245Y1637579D01*
X-17706075Y1574529D01*
X-17703884Y1471497D01*
X-17703800Y1436500D01*
X-17705164Y1321475D01*
X-17710151Y1248682D01*
X-17720107Y1209606D01*
X-17736375Y1195731D01*
X-17741900Y1195200D01*
X-17767013Y1180242D01*
X-17778451Y1129380D01*
X-17780000Y1080900D01*
X-17780000Y966600D01*
X-18262600Y966600D01*
X-18262600Y1195200D01*
X-17780000Y1195200D01*
X-17780000Y1449200D01*
X-18034000Y1449200D01*
X-18034000Y2160400D01*
X-17703800Y2160400D01*
X-17703800Y2033400D01*
G37*
X-17703800Y2033400D02*
X-17707879Y1953535D01*
X-17722001Y1914527D01*
X-17741900Y1906400D01*
X-17767013Y1891442D01*
X-17778451Y1840580D01*
X-17780000Y1792100D01*
X-17775014Y1716764D01*
X-17758060Y1682448D01*
X-17741900Y1677800D01*
X-17723739Y1669165D01*
X-17712245Y1637579D01*
X-17706075Y1574529D01*
X-17703884Y1471497D01*
X-17703800Y1436500D01*
X-17705164Y1321475D01*
X-17710151Y1248682D01*
X-17720107Y1209606D01*
X-17736375Y1195731D01*
X-17741900Y1195200D01*
X-17767013Y1180242D01*
X-17778451Y1129380D01*
X-17780000Y1080900D01*
X-17780000Y966600D01*
X-18262600Y966600D01*
X-18262600Y1195200D01*
X-17780000Y1195200D01*
X-17780000Y1449200D01*
X-18034000Y1449200D01*
X-18034000Y2160400D01*
X-17703800Y2160400D01*
X-17703800Y2033400D01*
G36*
X-18262600Y2643000D02*
G01*
X-18262600Y2160400D01*
X-18491200Y2160400D01*
X-18491200Y966600D01*
X-18262600Y966600D01*
X-18262600Y738000D01*
X-18491200Y738000D01*
X-18491200Y26800D01*
X-18262600Y26800D01*
X-18262600Y-709800D01*
X-18973800Y-709800D01*
X-18973800Y-227200D01*
X-18745200Y-227200D01*
X-18745200Y-455800D01*
X-18491200Y-455800D01*
X-18491200Y-227200D01*
X-18745200Y-227200D01*
X-18973800Y-227200D01*
X-18973800Y26800D01*
X-18745200Y26800D01*
X-18745200Y484000D01*
X-18973800Y484000D01*
X-18973800Y738000D01*
X-18745200Y738000D01*
X-18745200Y2160400D01*
X-18973800Y2160400D01*
X-18973800Y2643000D01*
X-18745200Y2643000D01*
X-18745200Y2389000D01*
X-18491200Y2389000D01*
X-18491200Y2643000D01*
X-18745200Y2643000D01*
X-18745200Y2871600D01*
X-18491200Y2871600D01*
X-18491200Y2643000D01*
X-18262600Y2643000D01*
G37*
X-18262600Y2643000D02*
X-18262600Y2160400D01*
X-18491200Y2160400D01*
X-18491200Y966600D01*
X-18262600Y966600D01*
X-18262600Y738000D01*
X-18491200Y738000D01*
X-18491200Y26800D01*
X-18262600Y26800D01*
X-18262600Y-709800D01*
X-18973800Y-709800D01*
X-18973800Y-227200D01*
X-18745200Y-227200D01*
X-18745200Y-455800D01*
X-18491200Y-455800D01*
X-18491200Y-227200D01*
X-18745200Y-227200D01*
X-18973800Y-227200D01*
X-18973800Y26800D01*
X-18745200Y26800D01*
X-18745200Y484000D01*
X-18973800Y484000D01*
X-18973800Y738000D01*
X-18745200Y738000D01*
X-18745200Y2160400D01*
X-18973800Y2160400D01*
X-18973800Y2643000D01*
X-18745200Y2643000D01*
X-18745200Y2389000D01*
X-18491200Y2389000D01*
X-18491200Y2643000D01*
X-18745200Y2643000D01*
X-18745200Y2871600D01*
X-18491200Y2871600D01*
X-18491200Y2643000D01*
X-18262600Y2643000D01*
G36*
X-5973904Y667202D02*
G01*
X-5875669Y641322D01*
X-5863417Y636097D01*
X-5817335Y608012D01*
X-5809754Y571769D01*
X-5820742Y533839D01*
X-5839865Y488170D01*
X-5864548Y475761D01*
X-5912906Y490889D01*
X-5931859Y498738D01*
X-6011887Y521030D01*
X-6109089Y533700D01*
X-6142048Y534800D01*
X-6249004Y520144D01*
X-6318532Y478115D01*
X-6346848Y411624D01*
X-6345692Y378145D01*
X-6335013Y348234D01*
X-6306541Y321935D01*
X-6251446Y294295D01*
X-6160899Y260364D01*
X-6096743Y238546D01*
X-5959094Y188107D01*
X-5864303Y140479D01*
X-5805244Y89413D01*
X-5774790Y28653D01*
X-5765814Y-48051D01*
X-5765800Y-51813D01*
X-5788593Y-158932D01*
X-5852060Y-245774D01*
X-5948839Y-308580D01*
X-6071567Y-343595D01*
X-6212881Y-347060D01*
X-6311900Y-330449D01*
X-6389247Y-304978D01*
X-6469734Y-269373D01*
X-6471077Y-268676D01*
X-6524265Y-236546D01*
X-6539014Y-208033D01*
X-6524786Y-169177D01*
X-6500563Y-123917D01*
X-6490042Y-106098D01*
X-6466007Y-111616D01*
X-6410905Y-133265D01*
X-6372832Y-149990D01*
X-6256578Y-187794D01*
X-6142648Y-199008D01*
X-6042267Y-185065D01*
X-5966656Y-147394D01*
X-5928730Y-93360D01*
X-5931059Y-38120D01*
X-5976736Y12387D01*
X-6068334Y60077D01*
X-6190997Y101831D01*
X-6331487Y150275D01*
X-6427559Y202645D01*
X-6485564Y264603D01*
X-6511854Y341815D01*
X-6515100Y390855D01*
X-6493396Y507062D01*
X-6428665Y596453D01*
X-6321486Y658281D01*
X-6304462Y664255D01*
X-6211397Y680143D01*
X-6093512Y680634D01*
X-5973904Y667202D01*
G37*
X-5973904Y667202D02*
X-5875669Y641322D01*
X-5863417Y636097D01*
X-5817335Y608012D01*
X-5809754Y571769D01*
X-5820742Y533839D01*
X-5839865Y488170D01*
X-5864548Y475761D01*
X-5912906Y490889D01*
X-5931859Y498738D01*
X-6011887Y521030D01*
X-6109089Y533700D01*
X-6142048Y534800D01*
X-6249004Y520144D01*
X-6318532Y478115D01*
X-6346848Y411624D01*
X-6345692Y378145D01*
X-6335013Y348234D01*
X-6306541Y321935D01*
X-6251446Y294295D01*
X-6160899Y260364D01*
X-6096743Y238546D01*
X-5959094Y188107D01*
X-5864303Y140479D01*
X-5805244Y89413D01*
X-5774790Y28653D01*
X-5765814Y-48051D01*
X-5765800Y-51813D01*
X-5788593Y-158932D01*
X-5852060Y-245774D01*
X-5948839Y-308580D01*
X-6071567Y-343595D01*
X-6212881Y-347060D01*
X-6311900Y-330449D01*
X-6389247Y-304978D01*
X-6469734Y-269373D01*
X-6471077Y-268676D01*
X-6524265Y-236546D01*
X-6539014Y-208033D01*
X-6524786Y-169177D01*
X-6500563Y-123917D01*
X-6490042Y-106098D01*
X-6466007Y-111616D01*
X-6410905Y-133265D01*
X-6372832Y-149990D01*
X-6256578Y-187794D01*
X-6142648Y-199008D01*
X-6042267Y-185065D01*
X-5966656Y-147394D01*
X-5928730Y-93360D01*
X-5931059Y-38120D01*
X-5976736Y12387D01*
X-6068334Y60077D01*
X-6190997Y101831D01*
X-6331487Y150275D01*
X-6427559Y202645D01*
X-6485564Y264603D01*
X-6511854Y341815D01*
X-6515100Y390855D01*
X-6493396Y507062D01*
X-6428665Y596453D01*
X-6321486Y658281D01*
X-6304462Y664255D01*
X-6211397Y680143D01*
X-6093512Y680634D01*
X-5973904Y667202D01*
G36*
X-5172512Y427319D02*
G01*
X-5056485Y387351D01*
X-4960921Y312947D01*
X-4928001Y268748D01*
X-4888177Y164295D01*
X-4876153Y39472D01*
X-4892001Y-83576D01*
X-4926572Y-168816D01*
X-5008278Y-256889D01*
X-5121272Y-315693D01*
X-5252409Y-340585D01*
X-5380110Y-329002D01*
X-5492438Y-278502D01*
X-5580265Y-192641D01*
X-5639001Y-82793D01*
X-5664053Y39667D01*
X-5662035Y58551D01*
X-5502295Y58551D01*
X-5485468Y-39524D01*
X-5433087Y-128435D01*
X-5353989Y-182356D01*
X-5260858Y-198365D01*
X-5166378Y-173538D01*
X-5103447Y-127553D01*
X-5045273Y-42389D01*
X-5026817Y47608D01*
X-5041781Y134586D01*
X-5083867Y210694D01*
X-5146780Y268080D01*
X-5224222Y298893D01*
X-5309896Y295282D01*
X-5397504Y249396D01*
X-5402483Y245296D01*
X-5476940Y157484D01*
X-5502295Y58551D01*
X-5662035Y58551D01*
X-5650830Y163365D01*
X-5613538Y249283D01*
X-5529517Y343831D01*
X-5420414Y405236D01*
X-5297618Y433173D01*
X-5172512Y427319D01*
G37*
X-5172512Y427319D02*
X-5056485Y387351D01*
X-4960921Y312947D01*
X-4928001Y268748D01*
X-4888177Y164295D01*
X-4876153Y39472D01*
X-4892001Y-83576D01*
X-4926572Y-168816D01*
X-5008278Y-256889D01*
X-5121272Y-315693D01*
X-5252409Y-340585D01*
X-5380110Y-329002D01*
X-5492438Y-278502D01*
X-5580265Y-192641D01*
X-5639001Y-82793D01*
X-5664053Y39667D01*
X-5662035Y58551D01*
X-5502295Y58551D01*
X-5485468Y-39524D01*
X-5433087Y-128435D01*
X-5353989Y-182356D01*
X-5260858Y-198365D01*
X-5166378Y-173538D01*
X-5103447Y-127553D01*
X-5045273Y-42389D01*
X-5026817Y47608D01*
X-5041781Y134586D01*
X-5083867Y210694D01*
X-5146780Y268080D01*
X-5224222Y298893D01*
X-5309896Y295282D01*
X-5397504Y249396D01*
X-5402483Y245296D01*
X-5476940Y157484D01*
X-5502295Y58551D01*
X-5662035Y58551D01*
X-5650830Y163365D01*
X-5613538Y249283D01*
X-5529517Y343831D01*
X-5420414Y405236D01*
X-5297618Y433173D01*
X-5172512Y427319D01*
G36*
X-3581400Y-328800D02*
G01*
X-3657600Y-328800D01*
X-3717688Y-317721D01*
X-3733800Y-290114D01*
X-3739397Y-265512D01*
X-3765211Y-272137D01*
X-3790950Y-287621D01*
X-3900805Y-330997D01*
X-4024747Y-339271D01*
X-4076700Y-330858D01*
X-4153695Y-306209D01*
X-4211410Y-280789D01*
X-4292128Y-210824D01*
X-4343888Y-111359D01*
X-4366793Y5439D01*
X-4363376Y76706D01*
X-4213106Y76706D01*
X-4201945Y-19355D01*
X-4176971Y-77371D01*
X-4110737Y-157764D01*
X-4022170Y-195429D01*
X-3919861Y-187940D01*
X-3864484Y-165604D01*
X-3791033Y-102113D01*
X-3744072Y-11274D01*
X-3733800Y54657D01*
X-3755909Y146812D01*
X-3813416Y228626D01*
X-3893090Y286305D01*
X-3975100Y306200D01*
X-4057173Y285282D01*
X-4135311Y232545D01*
X-4180205Y175517D01*
X-4213106Y76706D01*
X-4363376Y76706D01*
X-4360945Y127406D01*
X-4326450Y242376D01*
X-4263411Y338182D01*
X-4205733Y385304D01*
X-4108883Y421000D01*
X-3990625Y432166D01*
X-3874327Y418263D01*
X-3808739Y394448D01*
X-3733800Y355696D01*
X-3733800Y738000D01*
X-3581400Y738000D01*
X-3581400Y-328800D01*
G37*
X-3581400Y-328800D02*
X-3657600Y-328800D01*
X-3717688Y-317721D01*
X-3733800Y-290114D01*
X-3739397Y-265512D01*
X-3765211Y-272137D01*
X-3790950Y-287621D01*
X-3900805Y-330997D01*
X-4024747Y-339271D01*
X-4076700Y-330858D01*
X-4153695Y-306209D01*
X-4211410Y-280789D01*
X-4292128Y-210824D01*
X-4343888Y-111359D01*
X-4366793Y5439D01*
X-4363376Y76706D01*
X-4213106Y76706D01*
X-4201945Y-19355D01*
X-4176971Y-77371D01*
X-4110737Y-157764D01*
X-4022170Y-195429D01*
X-3919861Y-187940D01*
X-3864484Y-165604D01*
X-3791033Y-102113D01*
X-3744072Y-11274D01*
X-3733800Y54657D01*
X-3755909Y146812D01*
X-3813416Y228626D01*
X-3893090Y286305D01*
X-3975100Y306200D01*
X-4057173Y285282D01*
X-4135311Y232545D01*
X-4180205Y175517D01*
X-4213106Y76706D01*
X-4363376Y76706D01*
X-4360945Y127406D01*
X-4326450Y242376D01*
X-4263411Y338182D01*
X-4205733Y385304D01*
X-4108883Y421000D01*
X-3990625Y432166D01*
X-3874327Y418263D01*
X-3808739Y394448D01*
X-3733800Y355696D01*
X-3733800Y738000D01*
X-3581400Y738000D01*
X-3581400Y-328800D01*
G36*
X-2896334Y415850D02*
G01*
X-2829360Y391423D01*
X-2771375Y346940D01*
X-2768414Y344122D01*
X-2698000Y248194D01*
X-2652624Y129743D01*
X-2641742Y45850D01*
X-2646354Y26983D01*
X-2665840Y14316D01*
X-2708462Y6644D01*
X-2782483Y2763D01*
X-2896165Y1467D01*
X-2946400Y1400D01*
X-3069584Y-485D01*
X-3167155Y-5689D01*
X-3230515Y-13536D01*
X-3251200Y-22583D01*
X-3235902Y-56481D01*
X-3198612Y-107015D01*
X-3194050Y-112341D01*
X-3109002Y-173948D01*
X-3003020Y-195542D01*
X-2888760Y-175217D01*
X-2859119Y-162765D01*
X-2796519Y-136155D01*
X-2759624Y-133377D01*
X-2729676Y-153699D01*
X-2725767Y-157548D01*
X-2700840Y-201390D01*
X-2720952Y-243134D01*
X-2788624Y-287917D01*
X-2790139Y-288703D01*
X-2908966Y-329650D01*
X-3036736Y-341275D01*
X-3111500Y-331385D01*
X-3243802Y-279491D01*
X-3335012Y-199057D01*
X-3387435Y-87054D01*
X-3403411Y52200D01*
X-3393547Y130354D01*
X-3251200Y130354D01*
X-3226525Y115925D01*
X-3154954Y106671D01*
X-3040173Y103038D01*
X-3024978Y103000D01*
X-2917593Y103698D01*
X-2851851Y107265D01*
X-2818600Y115912D01*
X-2808690Y131851D01*
X-2812201Y154413D01*
X-2852228Y221326D01*
X-2923471Y276007D01*
X-3006371Y304696D01*
X-3027980Y306200D01*
X-3088520Y289719D01*
X-3156332Y248843D01*
X-3215101Y196424D01*
X-3248514Y145312D01*
X-3251200Y130354D01*
X-3393547Y130354D01*
X-3384825Y199459D01*
X-3329862Y311432D01*
X-3239713Y387028D01*
X-3115571Y425156D01*
X-2993102Y427986D01*
X-2896334Y415850D01*
G37*
X-2896334Y415850D02*
X-2829360Y391423D01*
X-2771375Y346940D01*
X-2768414Y344122D01*
X-2698000Y248194D01*
X-2652624Y129743D01*
X-2641742Y45850D01*
X-2646354Y26983D01*
X-2665840Y14316D01*
X-2708462Y6644D01*
X-2782483Y2763D01*
X-2896165Y1467D01*
X-2946400Y1400D01*
X-3069584Y-485D01*
X-3167155Y-5689D01*
X-3230515Y-13536D01*
X-3251200Y-22583D01*
X-3235902Y-56481D01*
X-3198612Y-107015D01*
X-3194050Y-112341D01*
X-3109002Y-173948D01*
X-3003020Y-195542D01*
X-2888760Y-175217D01*
X-2859119Y-162765D01*
X-2796519Y-136155D01*
X-2759624Y-133377D01*
X-2729676Y-153699D01*
X-2725767Y-157548D01*
X-2700840Y-201390D01*
X-2720952Y-243134D01*
X-2788624Y-287917D01*
X-2790139Y-288703D01*
X-2908966Y-329650D01*
X-3036736Y-341275D01*
X-3111500Y-331385D01*
X-3243802Y-279491D01*
X-3335012Y-199057D01*
X-3387435Y-87054D01*
X-3403411Y52200D01*
X-3393547Y130354D01*
X-3251200Y130354D01*
X-3226525Y115925D01*
X-3154954Y106671D01*
X-3040173Y103038D01*
X-3024978Y103000D01*
X-2917593Y103698D01*
X-2851851Y107265D01*
X-2818600Y115912D01*
X-2808690Y131851D01*
X-2812201Y154413D01*
X-2852228Y221326D01*
X-2923471Y276007D01*
X-3006371Y304696D01*
X-3027980Y306200D01*
X-3088520Y289719D01*
X-3156332Y248843D01*
X-3215101Y196424D01*
X-3248514Y145312D01*
X-3251200Y130354D01*
X-3393547Y130354D01*
X-3384825Y199459D01*
X-3329862Y311432D01*
X-3239713Y387028D01*
X-3115571Y425156D01*
X-2993102Y427986D01*
X-2896334Y415850D01*
G36*
X450070Y409134D02*
G01*
X497332Y386778D01*
X577406Y310435D01*
X635334Y205148D01*
X660159Y91525D01*
X660400Y80112D01*
X660400Y1400D01*
X51889Y1400D01*
X81689Y-64004D01*
X142283Y-140989D01*
X231319Y-186661D01*
X334686Y-197449D01*
X438271Y-169783D01*
X457965Y-159207D01*
X513758Y-132690D01*
X551446Y-136814D01*
X569834Y-149617D01*
X605784Y-196785D01*
X592918Y-241310D01*
X539750Y-281944D01*
X411133Y-329049D01*
X265907Y-337113D01*
X191341Y-325435D01*
X68603Y-274095D01*
X-22606Y-190636D01*
X-80172Y-84355D01*
X-101984Y35451D01*
X-89749Y129967D01*
X65676Y129967D01*
X77407Y114814D01*
X113345Y106743D01*
X182642Y103543D01*
X281777Y103000D01*
X394101Y104717D01*
X463825Y110724D01*
X499064Y122307D01*
X508000Y138843D01*
X486789Y184946D01*
X434080Y235948D01*
X366255Y279779D01*
X299696Y304367D01*
X280876Y306200D01*
X200595Y286583D01*
X125481Y237307D01*
X75582Y172733D01*
X69000Y154413D01*
X65676Y129967D01*
X-89749Y129967D01*
X-85927Y159486D01*
X-29890Y278452D01*
X36507Y355849D01*
X117560Y402492D01*
X226212Y427773D01*
X343403Y430413D01*
X450070Y409134D01*
G37*
X450070Y409134D02*
X497332Y386778D01*
X577406Y310435D01*
X635334Y205148D01*
X660159Y91525D01*
X660400Y80112D01*
X660400Y1400D01*
X51889Y1400D01*
X81689Y-64004D01*
X142283Y-140989D01*
X231319Y-186661D01*
X334686Y-197449D01*
X438271Y-169783D01*
X457965Y-159207D01*
X513758Y-132690D01*
X551446Y-136814D01*
X569834Y-149617D01*
X605784Y-196785D01*
X592918Y-241310D01*
X539750Y-281944D01*
X411133Y-329049D01*
X265907Y-337113D01*
X191341Y-325435D01*
X68603Y-274095D01*
X-22606Y-190636D01*
X-80172Y-84355D01*
X-101984Y35451D01*
X-89749Y129967D01*
X65676Y129967D01*
X77407Y114814D01*
X113345Y106743D01*
X182642Y103543D01*
X281777Y103000D01*
X394101Y104717D01*
X463825Y110724D01*
X499064Y122307D01*
X508000Y138843D01*
X486789Y184946D01*
X434080Y235948D01*
X366255Y279779D01*
X299696Y304367D01*
X280876Y306200D01*
X200595Y286583D01*
X125481Y237307D01*
X75582Y172733D01*
X69000Y154413D01*
X65676Y129967D01*
X-89749Y129967D01*
X-85927Y159486D01*
X-29890Y278452D01*
X36507Y355849D01*
X117560Y402492D01*
X226212Y427773D01*
X343403Y430413D01*
X450070Y409134D01*
G36*
X1543742Y427766D02*
G01*
X1635264Y413507D01*
X1707562Y393489D01*
X1747672Y370778D01*
X1751792Y360866D01*
X1737424Y329542D01*
X1716720Y299138D01*
X1689412Y272632D01*
X1652523Y266566D01*
X1588666Y279153D01*
X1569978Y284059D01*
X1465159Y300427D01*
X1377160Y292464D01*
X1318132Y262166D01*
X1303639Y240236D01*
X1299797Y202241D01*
X1325519Y171042D01*
X1387408Y142430D01*
X1492065Y112194D01*
X1512345Y107139D01*
X1644811Y63266D01*
X1729522Y7381D01*
X1768559Y-62680D01*
X1764005Y-149085D01*
X1762771Y-153521D01*
X1712363Y-243172D01*
X1624251Y-304999D01*
X1504671Y-336675D01*
X1359855Y-335876D01*
X1299041Y-326485D01*
X1204141Y-299994D01*
X1140359Y-265444D01*
X1117600Y-228944D01*
X1130998Y-196496D01*
X1149849Y-167406D01*
X1175052Y-140819D01*
X1206527Y-137565D01*
X1262499Y-156943D01*
X1276033Y-162551D01*
X1378895Y-193920D01*
X1471981Y-201818D01*
X1545422Y-187869D01*
X1589347Y-153700D01*
X1596081Y-109856D01*
X1576432Y-79117D01*
X1524752Y-52138D01*
X1432456Y-24683D01*
X1414224Y-20176D01*
X1289154Y16434D01*
X1207390Y57999D01*
X1161453Y110764D01*
X1143866Y180971D01*
X1143000Y206279D01*
X1164541Y305977D01*
X1227456Y378256D01*
X1329185Y421198D01*
X1445958Y433200D01*
X1543742Y427766D01*
G37*
X1543742Y427766D02*
X1635264Y413507D01*
X1707562Y393489D01*
X1747672Y370778D01*
X1751792Y360866D01*
X1737424Y329542D01*
X1716720Y299138D01*
X1689412Y272632D01*
X1652523Y266566D01*
X1588666Y279153D01*
X1569978Y284059D01*
X1465159Y300427D01*
X1377160Y292464D01*
X1318132Y262166D01*
X1303639Y240236D01*
X1299797Y202241D01*
X1325519Y171042D01*
X1387408Y142430D01*
X1492065Y112194D01*
X1512345Y107139D01*
X1644811Y63266D01*
X1729522Y7381D01*
X1768559Y-62680D01*
X1764005Y-149085D01*
X1762771Y-153521D01*
X1712363Y-243172D01*
X1624251Y-304999D01*
X1504671Y-336675D01*
X1359855Y-335876D01*
X1299041Y-326485D01*
X1204141Y-299994D01*
X1140359Y-265444D01*
X1117600Y-228944D01*
X1130998Y-196496D01*
X1149849Y-167406D01*
X1175052Y-140819D01*
X1206527Y-137565D01*
X1262499Y-156943D01*
X1276033Y-162551D01*
X1378895Y-193920D01*
X1471981Y-201818D01*
X1545422Y-187869D01*
X1589347Y-153700D01*
X1596081Y-109856D01*
X1576432Y-79117D01*
X1524752Y-52138D01*
X1432456Y-24683D01*
X1414224Y-20176D01*
X1289154Y16434D01*
X1207390Y57999D01*
X1161453Y110764D01*
X1143866Y180971D01*
X1143000Y206279D01*
X1164541Y305977D01*
X1227456Y378256D01*
X1329185Y421198D01*
X1445958Y433200D01*
X1543742Y427766D01*
G36*
X2357462Y420926D02*
G01*
X2441370Y389305D01*
X2508204Y327851D01*
X2567010Y236632D01*
X2606349Y136570D01*
X2616200Y69581D01*
X2616200Y1400D01*
X2311400Y1400D01*
X2193732Y280D01*
X2097168Y-2772D01*
X2031524Y-7294D01*
X2006615Y-12822D01*
X2006600Y-12969D01*
X2026935Y-66985D01*
X2077769Y-124916D01*
X2133091Y-163437D01*
X2227484Y-197010D01*
X2319471Y-192009D01*
X2404539Y-159985D01*
X2464536Y-134674D01*
X2499967Y-133534D01*
X2530838Y-156368D01*
X2533196Y-158710D01*
X2555954Y-207018D01*
X2533817Y-254441D01*
X2472534Y-296094D01*
X2377852Y-327088D01*
X2324100Y-336496D01*
X2236294Y-340696D01*
X2154704Y-333122D01*
X2145768Y-331144D01*
X2016899Y-276252D01*
X1923364Y-186213D01*
X1868345Y-65211D01*
X1854200Y52200D01*
X1866026Y130354D01*
X2006600Y130354D01*
X2031294Y115965D01*
X2102998Y106719D01*
X2218137Y103047D01*
X2235200Y103000D01*
X2355457Y105955D01*
X2432719Y114535D01*
X2463415Y128313D01*
X2463800Y130354D01*
X2442579Y179430D01*
X2389727Y233107D01*
X2321456Y278916D01*
X2253979Y304384D01*
X2235200Y306200D01*
X2171402Y289877D01*
X2101621Y249222D01*
X2042070Y196706D01*
X2008961Y144800D01*
X2006600Y130354D01*
X1866026Y130354D01*
X1874811Y188408D01*
X1933007Y302934D01*
X2018652Y382000D01*
X2118440Y420250D01*
X2238835Y433354D01*
X2357462Y420926D01*
G37*
X2357462Y420926D02*
X2441370Y389305D01*
X2508204Y327851D01*
X2567010Y236632D01*
X2606349Y136570D01*
X2616200Y69581D01*
X2616200Y1400D01*
X2311400Y1400D01*
X2193732Y280D01*
X2097168Y-2772D01*
X2031524Y-7294D01*
X2006615Y-12822D01*
X2006600Y-12969D01*
X2026935Y-66985D01*
X2077769Y-124916D01*
X2133091Y-163437D01*
X2227484Y-197010D01*
X2319471Y-192009D01*
X2404539Y-159985D01*
X2464536Y-134674D01*
X2499967Y-133534D01*
X2530838Y-156368D01*
X2533196Y-158710D01*
X2555954Y-207018D01*
X2533817Y-254441D01*
X2472534Y-296094D01*
X2377852Y-327088D01*
X2324100Y-336496D01*
X2236294Y-340696D01*
X2154704Y-333122D01*
X2145768Y-331144D01*
X2016899Y-276252D01*
X1923364Y-186213D01*
X1868345Y-65211D01*
X1854200Y52200D01*
X1866026Y130354D01*
X2006600Y130354D01*
X2031294Y115965D01*
X2102998Y106719D01*
X2218137Y103047D01*
X2235200Y103000D01*
X2355457Y105955D01*
X2432719Y114535D01*
X2463415Y128313D01*
X2463800Y130354D01*
X2442579Y179430D01*
X2389727Y233107D01*
X2321456Y278916D01*
X2253979Y304384D01*
X2235200Y306200D01*
X2171402Y289877D01*
X2101621Y249222D01*
X2042070Y196706D01*
X2008961Y144800D01*
X2006600Y130354D01*
X1866026Y130354D01*
X1874811Y188408D01*
X1933007Y302934D01*
X2018652Y382000D01*
X2118440Y420250D01*
X2238835Y433354D01*
X2357462Y420926D01*
G36*
X3251484Y426212D02*
G01*
X3298189Y407253D01*
X3346488Y371112D01*
X3347781Y370025D01*
X3406962Y314338D01*
X3425234Y276204D01*
X3404727Y246193D01*
X3379308Y230594D01*
X3332106Y219102D01*
X3274633Y238602D01*
X3245958Y255005D01*
X3158346Y296862D01*
X3082474Y300881D01*
X3000883Y270005D01*
X2921141Y202989D01*
X2879594Y110902D01*
X2879468Y5524D01*
X2907102Y-72483D01*
X2971066Y-146261D01*
X3060017Y-186515D01*
X3158699Y-190723D01*
X3251852Y-156361D01*
X3280837Y-134296D01*
X3326858Y-109804D01*
X3376087Y-124469D01*
X3417280Y-154840D01*
X3429000Y-175035D01*
X3409448Y-208638D01*
X3361956Y-253424D01*
X3303269Y-296413D01*
X3250130Y-324625D01*
X3230201Y-329146D01*
X3168525Y-334532D01*
X3136900Y-339801D01*
X3075292Y-341285D01*
X3009368Y-331153D01*
X2879599Y-277069D01*
X2787446Y-189531D01*
X2734470Y-70867D01*
X2722233Y76590D01*
X2723535Y95622D01*
X2736539Y186900D01*
X2764362Y252337D01*
X2818206Y316760D01*
X2827559Y326213D01*
X2882058Y376472D01*
X2931354Y405515D01*
X2993828Y420420D01*
X3087859Y428265D01*
X3093350Y428579D01*
X3188996Y431988D01*
X3251484Y426212D01*
G37*
X3251484Y426212D02*
X3298189Y407253D01*
X3346488Y371112D01*
X3347781Y370025D01*
X3406962Y314338D01*
X3425234Y276204D01*
X3404727Y246193D01*
X3379308Y230594D01*
X3332106Y219102D01*
X3274633Y238602D01*
X3245958Y255005D01*
X3158346Y296862D01*
X3082474Y300881D01*
X3000883Y270005D01*
X2921141Y202989D01*
X2879594Y110902D01*
X2879468Y5524D01*
X2907102Y-72483D01*
X2971066Y-146261D01*
X3060017Y-186515D01*
X3158699Y-190723D01*
X3251852Y-156361D01*
X3280837Y-134296D01*
X3326858Y-109804D01*
X3376087Y-124469D01*
X3417280Y-154840D01*
X3429000Y-175035D01*
X3409448Y-208638D01*
X3361956Y-253424D01*
X3303269Y-296413D01*
X3250130Y-324625D01*
X3230201Y-329146D01*
X3168525Y-334532D01*
X3136900Y-339801D01*
X3075292Y-341285D01*
X3009368Y-331153D01*
X2879599Y-277069D01*
X2787446Y-189531D01*
X2734470Y-70867D01*
X2722233Y76590D01*
X2723535Y95622D01*
X2736539Y186900D01*
X2764362Y252337D01*
X2818206Y316760D01*
X2827559Y326213D01*
X2882058Y376472D01*
X2931354Y405515D01*
X2993828Y420420D01*
X3087859Y428265D01*
X3093350Y428579D01*
X3188996Y431988D01*
X3251484Y426212D01*
G36*
X4053575Y413234D02*
G01*
X4168821Y355043D01*
X4249131Y261187D01*
X4291891Y134226D01*
X4298461Y48809D01*
X4276089Y-88199D01*
X4213744Y-200938D01*
X4118581Y-284098D01*
X3997758Y-332368D01*
X3858430Y-340440D01*
X3789290Y-329002D01*
X3675963Y-278289D01*
X3588323Y-192163D01*
X3531013Y-81447D01*
X3508676Y43034D01*
X3510501Y56496D01*
X3667125Y56496D01*
X3692371Y-51341D01*
X3695278Y-57623D01*
X3760279Y-145932D01*
X3845397Y-193144D01*
X3939802Y-197218D01*
X4032661Y-156109D01*
X4065953Y-127553D01*
X4124314Y-42195D01*
X4142829Y47881D01*
X4127817Y134838D01*
X4085594Y210841D01*
X4022476Y268052D01*
X3944780Y298636D01*
X3858823Y294757D01*
X3770922Y248579D01*
X3766012Y244535D01*
X3691798Y155663D01*
X3667125Y56496D01*
X3510501Y56496D01*
X3525956Y170458D01*
X3549689Y229494D01*
X3629830Y337248D01*
X3741116Y405358D01*
X3881563Y432688D01*
X3906008Y433200D01*
X4053575Y413234D01*
G37*
X4053575Y413234D02*
X4168821Y355043D01*
X4249131Y261187D01*
X4291891Y134226D01*
X4298461Y48809D01*
X4276089Y-88199D01*
X4213744Y-200938D01*
X4118581Y-284098D01*
X3997758Y-332368D01*
X3858430Y-340440D01*
X3789290Y-329002D01*
X3675963Y-278289D01*
X3588323Y-192163D01*
X3531013Y-81447D01*
X3508676Y43034D01*
X3510501Y56496D01*
X3667125Y56496D01*
X3692371Y-51341D01*
X3695278Y-57623D01*
X3760279Y-145932D01*
X3845397Y-193144D01*
X3939802Y-197218D01*
X4032661Y-156109D01*
X4065953Y-127553D01*
X4124314Y-42195D01*
X4142829Y47881D01*
X4127817Y134838D01*
X4085594Y210841D01*
X4022476Y268052D01*
X3944780Y298636D01*
X3858823Y294757D01*
X3770922Y248579D01*
X3766012Y244535D01*
X3691798Y155663D01*
X3667125Y56496D01*
X3510501Y56496D01*
X3525956Y170458D01*
X3549689Y229494D01*
X3629830Y337248D01*
X3741116Y405358D01*
X3881563Y432688D01*
X3906008Y433200D01*
X4053575Y413234D01*
G36*
X6172200Y-328800D02*
G01*
X6085416Y-328800D01*
X6024775Y-322332D01*
X5991395Y-306521D01*
X5990166Y-304128D01*
X5962578Y-295663D01*
X5900751Y-308786D01*
X5880100Y-315713D01*
X5808055Y-339856D01*
X5757005Y-348228D01*
X5701656Y-342141D01*
X5639204Y-328192D01*
X5563000Y-294226D01*
X5485757Y-235301D01*
X5469289Y-218540D01*
X5392967Y-100933D01*
X5362353Y28740D01*
X5365033Y52200D01*
X5530272Y52200D01*
X5537596Y-28777D01*
X5567377Y-86794D01*
X5610337Y-130262D01*
X5704675Y-189851D01*
X5797053Y-198773D01*
X5886659Y-157035D01*
X5920153Y-127553D01*
X5979539Y-37816D01*
X5996786Y60205D01*
X5975549Y154738D01*
X5919482Y234010D01*
X5832238Y286249D01*
X5788336Y297116D01*
X5720720Y300502D01*
X5665733Y279034D01*
X5613423Y237421D01*
X5557988Y178349D01*
X5534377Y117874D01*
X5530272Y52200D01*
X5365033Y52200D01*
X5377406Y160465D01*
X5438085Y284228D01*
X5471554Y325412D01*
X5524769Y377704D01*
X5575522Y407012D01*
X5643609Y421812D01*
X5711138Y428003D01*
X5817231Y430409D01*
X5889866Y417657D01*
X5930719Y397555D01*
X5994400Y355829D01*
X5994400Y738000D01*
X6172200Y738000D01*
X6172200Y-328800D01*
G37*
X6172200Y-328800D02*
X6085416Y-328800D01*
X6024775Y-322332D01*
X5991395Y-306521D01*
X5990166Y-304128D01*
X5962578Y-295663D01*
X5900751Y-308786D01*
X5880100Y-315713D01*
X5808055Y-339856D01*
X5757005Y-348228D01*
X5701656Y-342141D01*
X5639204Y-328192D01*
X5563000Y-294226D01*
X5485757Y-235301D01*
X5469289Y-218540D01*
X5392967Y-100933D01*
X5362353Y28740D01*
X5365033Y52200D01*
X5530272Y52200D01*
X5537596Y-28777D01*
X5567377Y-86794D01*
X5610337Y-130262D01*
X5704675Y-189851D01*
X5797053Y-198773D01*
X5886659Y-157035D01*
X5920153Y-127553D01*
X5979539Y-37816D01*
X5996786Y60205D01*
X5975549Y154738D01*
X5919482Y234010D01*
X5832238Y286249D01*
X5788336Y297116D01*
X5720720Y300502D01*
X5665733Y279034D01*
X5613423Y237421D01*
X5557988Y178349D01*
X5534377Y117874D01*
X5530272Y52200D01*
X5365033Y52200D01*
X5377406Y160465D01*
X5438085Y284228D01*
X5471554Y325412D01*
X5524769Y377704D01*
X5575522Y407012D01*
X5643609Y421812D01*
X5711138Y428003D01*
X5817231Y430409D01*
X5889866Y417657D01*
X5930719Y397555D01*
X5994400Y355829D01*
X5994400Y738000D01*
X6172200Y738000D01*
X6172200Y-328800D01*
G36*
X6533997Y-174596D02*
G01*
X6548616Y-192707D01*
X6564713Y-258349D01*
X6543118Y-309033D01*
X6496613Y-335556D01*
X6437981Y-328712D01*
X6398332Y-300932D01*
X6365175Y-254327D01*
X6371784Y-208973D01*
X6375711Y-201217D01*
X6420118Y-161953D01*
X6480468Y-152705D01*
X6533997Y-174596D01*
G37*
X6533997Y-174596D02*
X6548616Y-192707D01*
X6564713Y-258349D01*
X6543118Y-309033D01*
X6496613Y-335556D01*
X6437981Y-328712D01*
X6398332Y-300932D01*
X6365175Y-254327D01*
X6371784Y-208973D01*
X6375711Y-201217D01*
X6420118Y-161953D01*
X6480468Y-152705D01*
X6533997Y-174596D01*
G36*
X-4546600Y-328800D02*
G01*
X-4699000Y-328800D01*
X-4699000Y738000D01*
X-4546600Y738000D01*
X-4546600Y-328800D01*
G37*
X-4546600Y-328800D02*
X-4699000Y-328800D01*
X-4699000Y738000D01*
X-4546600Y738000D01*
X-4546600Y-328800D01*
G36*
X-2352958Y422153D02*
G01*
X-2336800Y394448D01*
X-2331706Y370717D01*
X-2307507Y372628D01*
X-2261862Y394448D01*
X-2188153Y422301D01*
X-2122162Y433200D01*
X-2075939Y425243D01*
X-2059006Y391032D01*
X-2057400Y357000D01*
X-2063844Y302906D01*
X-2093225Y282996D01*
X-2129173Y280800D01*
X-2205326Y259927D01*
X-2256173Y222013D01*
X-2282186Y188769D01*
X-2298542Y148267D01*
X-2307404Y88568D01*
X-2310937Y-2273D01*
X-2311400Y-82787D01*
X-2311400Y-328800D01*
X-2489200Y-328800D01*
X-2489200Y433200D01*
X-2413000Y433200D01*
X-2352958Y422153D01*
G37*
X-2352958Y422153D02*
X-2336800Y394448D01*
X-2331706Y370717D01*
X-2307507Y372628D01*
X-2261862Y394448D01*
X-2188153Y422301D01*
X-2122162Y433200D01*
X-2075939Y425243D01*
X-2059006Y391032D01*
X-2057400Y357000D01*
X-2063844Y302906D01*
X-2093225Y282996D01*
X-2129173Y280800D01*
X-2205326Y259927D01*
X-2256173Y222013D01*
X-2282186Y188769D01*
X-2298542Y148267D01*
X-2307404Y88568D01*
X-2310937Y-2273D01*
X-2311400Y-82787D01*
X-2311400Y-328800D01*
X-2489200Y-328800D01*
X-2489200Y433200D01*
X-2413000Y433200D01*
X-2352958Y422153D01*
G36*
X-1025447Y421274D02*
G01*
X-940204Y387375D01*
X-929289Y379584D01*
X-881073Y345212D01*
X-850034Y341939D01*
X-814348Y368311D01*
X-810611Y371682D01*
X-742190Y406060D01*
X-631864Y426385D01*
X-608830Y428338D01*
X-487576Y426848D01*
X-395506Y399497D01*
X-329369Y341683D01*
X-285912Y248801D01*
X-261882Y116248D01*
X-254029Y-60581D01*
X-254000Y-73984D01*
X-254000Y-328800D01*
X-406400Y-328800D01*
X-406542Y-131950D01*
X-414509Y40990D01*
X-439045Y167843D01*
X-481523Y250999D01*
X-543320Y292844D01*
X-625810Y295768D01*
X-649865Y290688D01*
X-719970Y260585D01*
X-768128Y206669D01*
X-797428Y121705D01*
X-810959Y-1541D01*
X-812800Y-90925D01*
X-812800Y-328800D01*
X-960576Y-328800D01*
X-969238Y-62948D01*
X-975186Y65337D01*
X-984227Y152586D01*
X-998019Y208541D01*
X-1018220Y242946D01*
X-1021988Y246932D01*
X-1091173Y283899D01*
X-1178337Y289110D01*
X-1262574Y263497D01*
X-1302315Y234426D01*
X-1328943Y202024D01*
X-1346527Y160973D01*
X-1357505Y99706D01*
X-1364315Y6655D01*
X-1367631Y-75454D01*
X-1376361Y-328800D01*
X-1524000Y-328800D01*
X-1524000Y433200D01*
X-1447800Y433200D01*
X-1388257Y422497D01*
X-1371600Y393660D01*
X-1367009Y368319D01*
X-1344244Y374284D01*
X-1315149Y393660D01*
X-1234669Y425210D01*
X-1130852Y434150D01*
X-1025447Y421274D01*
G37*
X-1025447Y421274D02*
X-940204Y387375D01*
X-929289Y379584D01*
X-881073Y345212D01*
X-850034Y341939D01*
X-814348Y368311D01*
X-810611Y371682D01*
X-742190Y406060D01*
X-631864Y426385D01*
X-608830Y428338D01*
X-487576Y426848D01*
X-395506Y399497D01*
X-329369Y341683D01*
X-285912Y248801D01*
X-261882Y116248D01*
X-254029Y-60581D01*
X-254000Y-73984D01*
X-254000Y-328800D01*
X-406400Y-328800D01*
X-406542Y-131950D01*
X-414509Y40990D01*
X-439045Y167843D01*
X-481523Y250999D01*
X-543320Y292844D01*
X-625810Y295768D01*
X-649865Y290688D01*
X-719970Y260585D01*
X-768128Y206669D01*
X-797428Y121705D01*
X-810959Y-1541D01*
X-812800Y-90925D01*
X-812800Y-328800D01*
X-960576Y-328800D01*
X-969238Y-62948D01*
X-975186Y65337D01*
X-984227Y152586D01*
X-998019Y208541D01*
X-1018220Y242946D01*
X-1021988Y246932D01*
X-1091173Y283899D01*
X-1178337Y289110D01*
X-1262574Y263497D01*
X-1302315Y234426D01*
X-1328943Y202024D01*
X-1346527Y160973D01*
X-1357505Y99706D01*
X-1364315Y6655D01*
X-1367631Y-75454D01*
X-1376361Y-328800D01*
X-1524000Y-328800D01*
X-1524000Y433200D01*
X-1447800Y433200D01*
X-1388257Y422497D01*
X-1371600Y393660D01*
X-1367009Y368319D01*
X-1344244Y374284D01*
X-1315149Y393660D01*
X-1234669Y425210D01*
X-1130852Y434150D01*
X-1025447Y421274D01*
G36*
X4606143Y422497D02*
G01*
X4622800Y393660D01*
X4627391Y368319D01*
X4650156Y374284D01*
X4679251Y393660D01*
X4747626Y420192D01*
X4848989Y432668D01*
X4876800Y433200D01*
X4992378Y423155D01*
X5079208Y389539D01*
X5140687Y327137D01*
X5180210Y230729D01*
X5201177Y95099D01*
X5207000Y-73984D01*
X5207000Y-328800D01*
X5054600Y-328800D01*
X5054600Y-116690D01*
X5051359Y-7039D01*
X5042774Y92309D01*
X5030547Y163115D01*
X5027551Y173012D01*
X4978286Y247374D01*
X4902686Y288772D01*
X4814777Y295093D01*
X4728583Y264224D01*
X4681819Y225110D01*
X4658781Y188953D01*
X4643226Y133953D01*
X4633226Y49527D01*
X4626856Y-74910D01*
X4626769Y-77405D01*
X4618039Y-328800D01*
X4470400Y-328800D01*
X4470400Y433200D01*
X4546600Y433200D01*
X4606143Y422497D01*
G37*
X4606143Y422497D02*
X4622800Y393660D01*
X4627391Y368319D01*
X4650156Y374284D01*
X4679251Y393660D01*
X4747626Y420192D01*
X4848989Y432668D01*
X4876800Y433200D01*
X4992378Y423155D01*
X5079208Y389539D01*
X5140687Y327137D01*
X5180210Y230729D01*
X5201177Y95099D01*
X5207000Y-73984D01*
X5207000Y-328800D01*
X5054600Y-328800D01*
X5054600Y-116690D01*
X5051359Y-7039D01*
X5042774Y92309D01*
X5030547Y163115D01*
X5027551Y173012D01*
X4978286Y247374D01*
X4902686Y288772D01*
X4814777Y295093D01*
X4728583Y264224D01*
X4681819Y225110D01*
X4658781Y188953D01*
X4643226Y133953D01*
X4633226Y49527D01*
X4626856Y-74910D01*
X4626769Y-77405D01*
X4618039Y-328800D01*
X4470400Y-328800D01*
X4470400Y433200D01*
X4546600Y433200D01*
X4606143Y422497D01*
G36*
X6553019Y503050D02*
G01*
X6550369Y377066D01*
X6543691Y240208D01*
X6536646Y147450D01*
X6526429Y56104D01*
X6514376Y4440D01*
X6495839Y-18579D01*
X6466171Y-23993D01*
X6464457Y-24000D01*
X6438532Y-20799D01*
X6421135Y-4988D01*
X6409544Y32753D01*
X6401035Y101740D01*
X6392884Y211290D01*
X6392062Y223650D01*
X6384763Y344977D01*
X6379103Y460144D01*
X6375926Y551003D01*
X6375531Y579250D01*
X6377697Y646924D01*
X6392211Y678022D01*
X6430767Y686767D01*
X6464300Y687200D01*
X6553200Y687200D01*
X6553019Y503050D01*
G37*
X6553019Y503050D02*
X6550369Y377066D01*
X6543691Y240208D01*
X6536646Y147450D01*
X6526429Y56104D01*
X6514376Y4440D01*
X6495839Y-18579D01*
X6466171Y-23993D01*
X6464457Y-24000D01*
X6438532Y-20799D01*
X6421135Y-4988D01*
X6409544Y32753D01*
X6401035Y101740D01*
X6392884Y211290D01*
X6392062Y223650D01*
X6384763Y344977D01*
X6379103Y460144D01*
X6375926Y551003D01*
X6375531Y579250D01*
X6377697Y646924D01*
X6392211Y678022D01*
X6430767Y686767D01*
X6464300Y687200D01*
X6553200Y687200D01*
X6553019Y503050D01*
G36*
X11455400Y2211200D02*
G01*
X-11430000Y2211200D01*
X-11430000Y3734040D01*
X-10647189Y3734040D01*
X-10615301Y3605061D01*
X-10606350Y3586378D01*
X-10550322Y3503361D01*
X-10476117Y3444849D01*
X-10374546Y3406551D01*
X-10236417Y3384177D01*
X-10160333Y3378188D01*
X-10025149Y3368212D01*
X-9931964Y3355701D01*
X-9871982Y3337575D01*
X-9836404Y3310755D01*
X-9816435Y3272160D01*
X-9811728Y3256149D01*
X-9800548Y3152569D01*
X-9830371Y3073907D01*
X-9859543Y3043050D01*
X-9888504Y3024533D01*
X-9930389Y3011860D01*
X-9994281Y3004004D01*
X-10089259Y2999935D01*
X-10224406Y2998623D01*
X-10251714Y2998600D01*
X-10591800Y2998600D01*
X-10591800Y2770000D01*
X-10208289Y2770000D01*
X-10046735Y2771238D01*
X-9927163Y2775464D01*
X-9840803Y2783450D01*
X-9778886Y2795967D01*
X-9737523Y2811406D01*
X-9644368Y2881763D01*
X-9575348Y2985150D01*
X-9533805Y3108247D01*
X-9523080Y3237733D01*
X-9546517Y3360289D01*
X-9582150Y3430659D01*
X-9643474Y3510920D01*
X-9706402Y3565530D01*
X-9783080Y3599846D01*
X-9885655Y3619228D01*
X-10026273Y3629032D01*
X-10032387Y3629282D01*
X-10172570Y3638596D01*
X-10269154Y3656321D01*
X-10329187Y3686934D01*
X-10359718Y3734913D01*
X-10367795Y3804736D01*
X-10366210Y3841336D01*
X-10356842Y3887403D01*
X-10331550Y3920490D01*
X-10283283Y3942635D01*
X-10204986Y3955876D01*
X-10089608Y3962250D01*
X-9942286Y3963800D01*
X-9601200Y3963800D01*
X-9601200Y4217800D01*
X-9271000Y4217800D01*
X-9271000Y2770000D01*
X-8991600Y2770000D01*
X-8991600Y3379600D01*
X-8305800Y3379600D01*
X-8305800Y2770000D01*
X-8051800Y2770000D01*
X-8051800Y2998600D01*
X-7772400Y2998600D01*
X-7772400Y2770000D01*
X-6959600Y2770000D01*
X-6959600Y2998600D01*
X-6756400Y2998600D01*
X-6756400Y2770000D01*
X-5943600Y2770000D01*
X-5943600Y2998600D01*
X-6172200Y2998600D01*
X-6172200Y3589752D01*
X-5713129Y3589752D01*
X-5710887Y3431423D01*
X-5706043Y3293883D01*
X-5699233Y3195428D01*
X-5688488Y3124342D01*
X-5671835Y3068908D01*
X-5647305Y3017412D01*
X-5638624Y3001871D01*
X-5546370Y2888635D01*
X-5422074Y2805343D01*
X-5277068Y2755498D01*
X-5122686Y2742603D01*
X-4970262Y2770163D01*
X-4933481Y2783913D01*
X-4803061Y2860792D01*
X-4704163Y2972542D01*
X-4669376Y3032774D01*
X-4649938Y3075823D01*
X-4636621Y3122557D01*
X-4628589Y3182623D01*
X-4628491Y3184914D01*
X-4364031Y3184914D01*
X-4339930Y3082208D01*
X-4329488Y3055281D01*
X-4249041Y2919755D01*
X-4136882Y2823303D01*
X-3992216Y2765450D01*
X-3814250Y2745725D01*
X-3810000Y2745716D01*
X-3654995Y2758906D01*
X-3543300Y2792755D01*
X-3411833Y2877445D01*
X-3317966Y2987164D01*
X-3313000Y2998600D01*
X-2463800Y2998600D01*
X-2463800Y2770000D01*
X-1651000Y2770000D01*
X-1651000Y2998600D01*
X-1905000Y2998600D01*
X-1905000Y3024000D01*
X-1498600Y3024000D01*
X-1482568Y2948621D01*
X-1443010Y2868591D01*
X-1392741Y2807971D01*
X-1377951Y2797435D01*
X-1337497Y2788355D01*
X-1254946Y2780671D01*
X-1138993Y2774877D01*
X-998332Y2771466D01*
X-908050Y2770773D01*
X-482600Y2770000D01*
X-482600Y2998600D01*
X-850900Y2998600D01*
X-1000138Y2999538D01*
X-1105094Y3002753D01*
X-1172259Y3008849D01*
X-1208125Y3018427D01*
X-1219182Y3032092D01*
X-1219200Y3032811D01*
X-1199334Y3059536D01*
X-1145139Y3107545D01*
X-1064727Y3170200D01*
X-1033231Y3192791D01*
X-257806Y3192791D01*
X-243231Y3066852D01*
X-186039Y2950271D01*
X-88238Y2851051D01*
X11649Y2792344D01*
X121252Y2760452D01*
X256812Y2746177D01*
X396515Y2749856D01*
X518546Y2771824D01*
X553265Y2783988D01*
X582848Y2801445D01*
X1112481Y2801445D01*
X1118549Y2779150D01*
X1150215Y2770972D01*
X1206717Y2769951D01*
X1227804Y2770000D01*
X1365195Y2770000D01*
X1498600Y2973200D01*
X1572963Y3080379D01*
X1631394Y3145612D01*
X1681365Y3172043D01*
X1730349Y3162811D01*
X1785821Y3121060D01*
X1805353Y3102154D01*
X1852114Y3046294D01*
X1874035Y2987255D01*
X1879597Y2901828D01*
X1879600Y2898954D01*
X1879600Y2770000D01*
X2159000Y2770000D01*
X2158858Y2865250D01*
X2137025Y3033904D01*
X2073054Y3177261D01*
X2010160Y3254456D01*
X1962504Y3298165D01*
X2371984Y3298165D01*
X2375281Y3146316D01*
X2424120Y3006408D01*
X2513313Y2887773D01*
X2637670Y2799747D01*
X2653249Y2792344D01*
X2773569Y2757547D01*
X2916391Y2745521D01*
X3059562Y2756250D01*
X3180928Y2789717D01*
X3187700Y2792755D01*
X3319167Y2877445D01*
X3413034Y2987164D01*
X3467883Y3113449D01*
X3482297Y3247835D01*
X3460683Y3353411D01*
X3683000Y3353411D01*
X3704339Y3262851D01*
X3759122Y3175696D01*
X3833494Y3113891D01*
X3834568Y3113330D01*
X3906450Y3090755D01*
X4018256Y3078157D01*
X4151638Y3074800D01*
X4394200Y3074800D01*
X4394200Y2770000D01*
X4673600Y2770000D01*
X4673600Y3074800D01*
X4851400Y3074800D01*
X4851400Y3328800D01*
X4673600Y3328800D01*
X4673600Y3565868D01*
X5602803Y3565868D01*
X5606792Y3382769D01*
X5654079Y3202834D01*
X5745421Y3034600D01*
X5752120Y3025335D01*
X5871553Y2903535D01*
X6021847Y2813423D01*
X6192442Y2757277D01*
X6372779Y2737376D01*
X6552297Y2755996D01*
X6578741Y2765341D01*
X9575800Y2765341D01*
X9950450Y2774520D01*
X10102030Y2779089D01*
X10212911Y2785115D01*
X10293196Y2793963D01*
X10352985Y2806997D01*
X10402380Y2825582D01*
X10429956Y2839288D01*
X10574810Y2943106D01*
X10690638Y3080572D01*
X10771739Y3241142D01*
X10812410Y3414273D01*
X10812826Y3547239D01*
X10770534Y3741251D01*
X10687512Y3906215D01*
X10565196Y4039992D01*
X10419392Y4133588D01*
X10356466Y4162512D01*
X10298435Y4182757D01*
X10233553Y4196236D01*
X10150075Y4204858D01*
X10036259Y4210533D01*
X9925258Y4213968D01*
X9575800Y4223565D01*
X9575800Y2765341D01*
X6578741Y2765341D01*
X6720438Y2815415D01*
X6721910Y2816163D01*
X6825399Y2886686D01*
X6930005Y2987394D01*
X7018904Y3100950D01*
X7051529Y3155833D01*
X7078918Y3236406D01*
X7098857Y3353114D01*
X7106767Y3445938D01*
X7110624Y3556858D01*
X7105474Y3637922D01*
X7087941Y3709761D01*
X7054652Y3793007D01*
X7047310Y3809495D01*
X6951153Y3966441D01*
X6823360Y4089883D01*
X6671798Y4178257D01*
X6543820Y4217800D01*
X7337990Y4217800D01*
X7345645Y3622695D01*
X7348558Y3421392D01*
X7352631Y3264041D01*
X7359565Y3143797D01*
X7371065Y3053814D01*
X7388832Y2987248D01*
X7414570Y2937252D01*
X7449980Y2896983D01*
X7496767Y2859594D01*
X7543541Y2827150D01*
X7588258Y2800734D01*
X7637062Y2783884D01*
X7702501Y2774534D01*
X7797118Y2770617D01*
X7890456Y2770000D01*
X8153400Y2770000D01*
X8153400Y2998600D01*
X7933150Y2998600D01*
X7837691Y2998376D01*
X7763866Y3001548D01*
X7708903Y3013885D01*
X7670029Y3041156D01*
X7644473Y3089131D01*
X7631043Y3155738D01*
X8303627Y3155738D01*
X8337411Y3028150D01*
X8411293Y2912088D01*
X8507010Y2827755D01*
X8544563Y2804884D01*
X8584271Y2788980D01*
X8635893Y2778791D01*
X8709186Y2773066D01*
X8813906Y2770553D01*
X8957256Y2770000D01*
X9321800Y2770000D01*
X9321800Y2998600D01*
X9007113Y2998600D01*
X8849238Y3001036D01*
X8735175Y3010376D01*
X8658082Y3029675D01*
X8611118Y3061983D01*
X8587441Y3110354D01*
X8580209Y3177840D01*
X8580120Y3189100D01*
X8586650Y3262715D01*
X8610900Y3315003D01*
X8659862Y3349388D01*
X8740524Y3369295D01*
X8859877Y3378147D01*
X8969013Y3379600D01*
X9245600Y3379600D01*
X9245600Y3633600D01*
X8955314Y3633600D01*
X8821279Y3635082D01*
X8729023Y3640250D01*
X8669589Y3650185D01*
X8634022Y3665971D01*
X8625114Y3673515D01*
X8584617Y3746568D01*
X8584468Y3832394D01*
X8624348Y3913315D01*
X8629529Y3919350D01*
X8652961Y3938061D01*
X8689774Y3950767D01*
X8748959Y3958561D01*
X8839510Y3962535D01*
X8970419Y3963781D01*
X8995536Y3963800D01*
X9321800Y3963800D01*
X9321800Y4221460D01*
X8945073Y4213280D01*
X8798880Y4209754D01*
X8693902Y4205480D01*
X8620562Y4198841D01*
X8569282Y4188219D01*
X8530485Y4171998D01*
X8494593Y4148560D01*
X8475146Y4133937D01*
X8375809Y4035901D01*
X8321329Y3922873D01*
X8305800Y3792895D01*
X8320676Y3675416D01*
X8366061Y3582321D01*
X8426323Y3494374D01*
X8366061Y3405691D01*
X8312368Y3284903D01*
X8303627Y3155738D01*
X7631043Y3155738D01*
X7629462Y3163576D01*
X7622224Y3270263D01*
X7619987Y3414958D01*
X7619978Y3603431D01*
X7620000Y3650237D01*
X7620000Y4217800D01*
X7337990Y4217800D01*
X6543820Y4217800D01*
X6504332Y4230001D01*
X6328829Y4243550D01*
X6153155Y4217341D01*
X5985176Y4149813D01*
X5843039Y4048811D01*
X5721685Y3907425D01*
X5641353Y3743599D01*
X5602803Y3565868D01*
X4673600Y3565868D01*
X4673600Y3811400D01*
X4394200Y3811400D01*
X4394200Y3328800D01*
X4178300Y3328800D01*
X4080739Y3331369D01*
X4006122Y3338224D01*
X3966108Y3348088D01*
X3962400Y3352452D01*
X3973973Y3381319D01*
X4006150Y3447286D01*
X4055119Y3542902D01*
X4117066Y3660721D01*
X4186719Y3790602D01*
X4411039Y4205100D01*
X4271565Y4212839D01*
X4168225Y4211239D01*
X4107664Y4193226D01*
X4100828Y4187439D01*
X4073335Y4147714D01*
X4030197Y4073179D01*
X3976120Y3973228D01*
X3915812Y3857255D01*
X3853977Y3734653D01*
X3795322Y3614817D01*
X3744554Y3507141D01*
X3706377Y3421018D01*
X3685499Y3365842D01*
X3683000Y3353411D01*
X3460683Y3353411D01*
X3454858Y3381858D01*
X3384149Y3507055D01*
X3318816Y3575779D01*
X3209742Y3647828D01*
X3084970Y3693501D01*
X2964720Y3705965D01*
X2940732Y3703551D01*
X2905038Y3699577D01*
X2885481Y3704560D01*
X2884255Y3724908D01*
X2903551Y3767030D01*
X2945562Y3837333D01*
X3012479Y3942227D01*
X3033552Y3974908D01*
X3092433Y4067260D01*
X3139317Y4142848D01*
X3168379Y4192157D01*
X3175000Y4205985D01*
X3151913Y4212210D01*
X3091895Y4216491D01*
X3022173Y4217800D01*
X2869346Y4217800D01*
X2688449Y3944750D01*
X2573704Y3765766D01*
X2488199Y3618052D01*
X2428290Y3494161D01*
X2390332Y3386645D01*
X2371984Y3298165D01*
X1962504Y3298165D01*
X1949459Y3310129D01*
X1897996Y3349411D01*
X1879600Y3359230D01*
X1867298Y3375122D01*
X1877961Y3411801D01*
X1914581Y3475871D01*
X1970550Y3560002D01*
X2030379Y3647627D01*
X2080095Y3721388D01*
X2111939Y3769734D01*
X2118099Y3779650D01*
X2115923Y3798680D01*
X2076653Y3808653D01*
X1998601Y3811400D01*
X1860604Y3811400D01*
X1727200Y3608200D01*
X1667381Y3520694D01*
X1615979Y3452095D01*
X1580249Y3411759D01*
X1569643Y3405000D01*
X1537950Y3421541D01*
X1488253Y3462838D01*
X1471246Y3479247D01*
X1424485Y3535107D01*
X1402564Y3594146D01*
X1397002Y3679573D01*
X1397000Y3682447D01*
X1397000Y3811400D01*
X1117600Y3811400D01*
X1118157Y3690750D01*
X1140272Y3541614D01*
X1200513Y3405233D01*
X1291785Y3297640D01*
X1341874Y3250572D01*
X1369629Y3214931D01*
X1371600Y3208401D01*
X1357811Y3178552D01*
X1321252Y3119236D01*
X1269136Y3041991D01*
X1255500Y3022611D01*
X1180194Y2916217D01*
X1132775Y2844814D01*
X1112481Y2801445D01*
X582848Y2801445D01*
X677343Y2857205D01*
X773462Y2956764D01*
X835355Y3072656D01*
X856756Y3194873D01*
X849806Y3257581D01*
X822488Y3322610D01*
X772895Y3398318D01*
X746571Y3430076D01*
X697093Y3488277D01*
X679241Y3523367D01*
X688476Y3547910D01*
X700091Y3558721D01*
X767962Y3645431D01*
X804925Y3757542D01*
X808030Y3878042D01*
X774726Y3989149D01*
X695457Y4095751D01*
X589755Y4171504D01*
X465778Y4217749D01*
X331682Y4235829D01*
X195625Y4227085D01*
X65764Y4192859D01*
X-49745Y4134493D01*
X-142743Y4053328D01*
X-205074Y3950708D01*
X-228580Y3827973D01*
X-228600Y3824100D01*
X-210592Y3713198D01*
X-163004Y3612326D01*
X-116033Y3558838D01*
X-95195Y3533987D01*
X-100972Y3504484D01*
X-137514Y3456332D01*
X-151072Y3440732D01*
X-227756Y3320085D01*
X-257806Y3192791D01*
X-1033231Y3192791D01*
X-966208Y3240863D01*
X-958850Y3245932D01*
X-832360Y3333982D01*
X-740843Y3401645D01*
X-676695Y3456242D01*
X-632309Y3505095D01*
X-600081Y3555522D01*
X-572404Y3614846D01*
X-570257Y3619959D01*
X-540576Y3752393D01*
X-556402Y3885174D01*
X-613583Y4007933D01*
X-707971Y4110299D01*
X-786638Y4160650D01*
X-848620Y4187905D01*
X-913241Y4205030D01*
X-994730Y4214198D01*
X-1107317Y4217580D01*
X-1161082Y4217800D01*
X-1422400Y4217800D01*
X-1422400Y3963800D01*
X-1170244Y3963800D01*
X-1054389Y3963091D01*
X-977957Y3959299D01*
X-929575Y3949925D01*
X-897869Y3932474D01*
X-871466Y3904448D01*
X-865444Y3896875D01*
X-823783Y3829429D01*
X-811820Y3764865D01*
X-832531Y3698105D01*
X-888893Y3624070D01*
X-983881Y3537681D01*
X-1120472Y3433861D01*
X-1148596Y3413720D01*
X-1286994Y3311257D01*
X-1386008Y3227419D01*
X-1450815Y3156441D01*
X-1486593Y3092556D01*
X-1498520Y3030001D01*
X-1498600Y3024000D01*
X-1905000Y3024000D01*
X-1905000Y4217800D01*
X-2438400Y4217800D01*
X-2438400Y3963800D01*
X-2184400Y3963800D01*
X-2184400Y2998600D01*
X-2463800Y2998600D01*
X-3313000Y2998600D01*
X-3263117Y3113449D01*
X-3248703Y3247835D01*
X-3276142Y3381858D01*
X-3346851Y3507055D01*
X-3412184Y3575779D01*
X-3520446Y3647393D01*
X-3644373Y3693153D01*
X-3763706Y3706183D01*
X-3789177Y3703711D01*
X-3840365Y3700848D01*
X-3860800Y3708583D01*
X-3847805Y3734877D01*
X-3812581Y3794349D01*
X-3760770Y3877706D01*
X-3708400Y3959628D01*
X-3647072Y4055420D01*
X-3597537Y4134611D01*
X-3565416Y4188099D01*
X-3556000Y4206544D01*
X-3579087Y4212475D01*
X-3639104Y4216554D01*
X-3708791Y4217800D01*
X-3861582Y4217800D01*
X-4062037Y3914415D01*
X-4185084Y3719434D01*
X-4274912Y3555078D01*
X-4333417Y3415263D01*
X-4362492Y3293904D01*
X-4364031Y3184914D01*
X-4628491Y3184914D01*
X-4625009Y3265670D01*
X-4625043Y3381344D01*
X-4627398Y3517656D01*
X-4630881Y3666442D01*
X-4635132Y3774015D01*
X-4641686Y3849955D01*
X-4652081Y3903843D01*
X-4667851Y3945261D01*
X-4690532Y3983789D01*
X-4705700Y4006052D01*
X-4814365Y4121581D01*
X-4947082Y4198242D01*
X-5094283Y4235252D01*
X-5246401Y4231828D01*
X-5393868Y4187185D01*
X-5527118Y4100540D01*
X-5553827Y4075510D01*
X-5616784Y4004362D01*
X-5661839Y3929866D01*
X-5691345Y3842368D01*
X-5707657Y3732215D01*
X-5713129Y3589752D01*
X-6172200Y3589752D01*
X-6172200Y4217800D01*
X-6731000Y4217800D01*
X-6731000Y3963800D01*
X-6477000Y3963800D01*
X-6477000Y2998600D01*
X-6756400Y2998600D01*
X-6959600Y2998600D01*
X-7188200Y2998600D01*
X-7188200Y4217800D01*
X-7747000Y4217800D01*
X-7747000Y3963800D01*
X-7493000Y3963800D01*
X-7493000Y2998600D01*
X-7772400Y2998600D01*
X-8051800Y2998600D01*
X-8051800Y4217800D01*
X-8305800Y4217800D01*
X-8305800Y3633600D01*
X-8991600Y3633600D01*
X-8991600Y4217800D01*
X-9271000Y4217800D01*
X-9601200Y4217800D01*
X-9955147Y4217800D01*
X-10123369Y4215937D01*
X-10250021Y4209147D01*
X-10344239Y4195630D01*
X-10415156Y4173587D01*
X-10471907Y4141219D01*
X-10511664Y4108159D01*
X-10592572Y4001007D01*
X-10638680Y3871161D01*
X-10647189Y3734040D01*
X-11430000Y3734040D01*
X-11430000Y4776600D01*
X11455400Y4776600D01*
X11455400Y2211200D01*
G37*
X11455400Y2211200D02*
X-11430000Y2211200D01*
X-11430000Y3734040D01*
X-10647189Y3734040D01*
X-10615301Y3605061D01*
X-10606350Y3586378D01*
X-10550322Y3503361D01*
X-10476117Y3444849D01*
X-10374546Y3406551D01*
X-10236417Y3384177D01*
X-10160333Y3378188D01*
X-10025149Y3368212D01*
X-9931964Y3355701D01*
X-9871982Y3337575D01*
X-9836404Y3310755D01*
X-9816435Y3272160D01*
X-9811728Y3256149D01*
X-9800548Y3152569D01*
X-9830371Y3073907D01*
X-9859543Y3043050D01*
X-9888504Y3024533D01*
X-9930389Y3011860D01*
X-9994281Y3004004D01*
X-10089259Y2999935D01*
X-10224406Y2998623D01*
X-10251714Y2998600D01*
X-10591800Y2998600D01*
X-10591800Y2770000D01*
X-10208289Y2770000D01*
X-10046735Y2771238D01*
X-9927163Y2775464D01*
X-9840803Y2783450D01*
X-9778886Y2795967D01*
X-9737523Y2811406D01*
X-9644368Y2881763D01*
X-9575348Y2985150D01*
X-9533805Y3108247D01*
X-9523080Y3237733D01*
X-9546517Y3360289D01*
X-9582150Y3430659D01*
X-9643474Y3510920D01*
X-9706402Y3565530D01*
X-9783080Y3599846D01*
X-9885655Y3619228D01*
X-10026273Y3629032D01*
X-10032387Y3629282D01*
X-10172570Y3638596D01*
X-10269154Y3656321D01*
X-10329187Y3686934D01*
X-10359718Y3734913D01*
X-10367795Y3804736D01*
X-10366210Y3841336D01*
X-10356842Y3887403D01*
X-10331550Y3920490D01*
X-10283283Y3942635D01*
X-10204986Y3955876D01*
X-10089608Y3962250D01*
X-9942286Y3963800D01*
X-9601200Y3963800D01*
X-9601200Y4217800D01*
X-9271000Y4217800D01*
X-9271000Y2770000D01*
X-8991600Y2770000D01*
X-8991600Y3379600D01*
X-8305800Y3379600D01*
X-8305800Y2770000D01*
X-8051800Y2770000D01*
X-8051800Y2998600D01*
X-7772400Y2998600D01*
X-7772400Y2770000D01*
X-6959600Y2770000D01*
X-6959600Y2998600D01*
X-6756400Y2998600D01*
X-6756400Y2770000D01*
X-5943600Y2770000D01*
X-5943600Y2998600D01*
X-6172200Y2998600D01*
X-6172200Y3589752D01*
X-5713129Y3589752D01*
X-5710887Y3431423D01*
X-5706043Y3293883D01*
X-5699233Y3195428D01*
X-5688488Y3124342D01*
X-5671835Y3068908D01*
X-5647305Y3017412D01*
X-5638624Y3001871D01*
X-5546370Y2888635D01*
X-5422074Y2805343D01*
X-5277068Y2755498D01*
X-5122686Y2742603D01*
X-4970262Y2770163D01*
X-4933481Y2783913D01*
X-4803061Y2860792D01*
X-4704163Y2972542D01*
X-4669376Y3032774D01*
X-4649938Y3075823D01*
X-4636621Y3122557D01*
X-4628589Y3182623D01*
X-4628491Y3184914D01*
X-4364031Y3184914D01*
X-4339930Y3082208D01*
X-4329488Y3055281D01*
X-4249041Y2919755D01*
X-4136882Y2823303D01*
X-3992216Y2765450D01*
X-3814250Y2745725D01*
X-3810000Y2745716D01*
X-3654995Y2758906D01*
X-3543300Y2792755D01*
X-3411833Y2877445D01*
X-3317966Y2987164D01*
X-3313000Y2998600D01*
X-2463800Y2998600D01*
X-2463800Y2770000D01*
X-1651000Y2770000D01*
X-1651000Y2998600D01*
X-1905000Y2998600D01*
X-1905000Y3024000D01*
X-1498600Y3024000D01*
X-1482568Y2948621D01*
X-1443010Y2868591D01*
X-1392741Y2807971D01*
X-1377951Y2797435D01*
X-1337497Y2788355D01*
X-1254946Y2780671D01*
X-1138993Y2774877D01*
X-998332Y2771466D01*
X-908050Y2770773D01*
X-482600Y2770000D01*
X-482600Y2998600D01*
X-850900Y2998600D01*
X-1000138Y2999538D01*
X-1105094Y3002753D01*
X-1172259Y3008849D01*
X-1208125Y3018427D01*
X-1219182Y3032092D01*
X-1219200Y3032811D01*
X-1199334Y3059536D01*
X-1145139Y3107545D01*
X-1064727Y3170200D01*
X-1033231Y3192791D01*
X-257806Y3192791D01*
X-243231Y3066852D01*
X-186039Y2950271D01*
X-88238Y2851051D01*
X11649Y2792344D01*
X121252Y2760452D01*
X256812Y2746177D01*
X396515Y2749856D01*
X518546Y2771824D01*
X553265Y2783988D01*
X582848Y2801445D01*
X1112481Y2801445D01*
X1118549Y2779150D01*
X1150215Y2770972D01*
X1206717Y2769951D01*
X1227804Y2770000D01*
X1365195Y2770000D01*
X1498600Y2973200D01*
X1572963Y3080379D01*
X1631394Y3145612D01*
X1681365Y3172043D01*
X1730349Y3162811D01*
X1785821Y3121060D01*
X1805353Y3102154D01*
X1852114Y3046294D01*
X1874035Y2987255D01*
X1879597Y2901828D01*
X1879600Y2898954D01*
X1879600Y2770000D01*
X2159000Y2770000D01*
X2158858Y2865250D01*
X2137025Y3033904D01*
X2073054Y3177261D01*
X2010160Y3254456D01*
X1962504Y3298165D01*
X2371984Y3298165D01*
X2375281Y3146316D01*
X2424120Y3006408D01*
X2513313Y2887773D01*
X2637670Y2799747D01*
X2653249Y2792344D01*
X2773569Y2757547D01*
X2916391Y2745521D01*
X3059562Y2756250D01*
X3180928Y2789717D01*
X3187700Y2792755D01*
X3319167Y2877445D01*
X3413034Y2987164D01*
X3467883Y3113449D01*
X3482297Y3247835D01*
X3460683Y3353411D01*
X3683000Y3353411D01*
X3704339Y3262851D01*
X3759122Y3175696D01*
X3833494Y3113891D01*
X3834568Y3113330D01*
X3906450Y3090755D01*
X4018256Y3078157D01*
X4151638Y3074800D01*
X4394200Y3074800D01*
X4394200Y2770000D01*
X4673600Y2770000D01*
X4673600Y3074800D01*
X4851400Y3074800D01*
X4851400Y3328800D01*
X4673600Y3328800D01*
X4673600Y3565868D01*
X5602803Y3565868D01*
X5606792Y3382769D01*
X5654079Y3202834D01*
X5745421Y3034600D01*
X5752120Y3025335D01*
X5871553Y2903535D01*
X6021847Y2813423D01*
X6192442Y2757277D01*
X6372779Y2737376D01*
X6552297Y2755996D01*
X6578741Y2765341D01*
X9575800Y2765341D01*
X9950450Y2774520D01*
X10102030Y2779089D01*
X10212911Y2785115D01*
X10293196Y2793963D01*
X10352985Y2806997D01*
X10402380Y2825582D01*
X10429956Y2839288D01*
X10574810Y2943106D01*
X10690638Y3080572D01*
X10771739Y3241142D01*
X10812410Y3414273D01*
X10812826Y3547239D01*
X10770534Y3741251D01*
X10687512Y3906215D01*
X10565196Y4039992D01*
X10419392Y4133588D01*
X10356466Y4162512D01*
X10298435Y4182757D01*
X10233553Y4196236D01*
X10150075Y4204858D01*
X10036259Y4210533D01*
X9925258Y4213968D01*
X9575800Y4223565D01*
X9575800Y2765341D01*
X6578741Y2765341D01*
X6720438Y2815415D01*
X6721910Y2816163D01*
X6825399Y2886686D01*
X6930005Y2987394D01*
X7018904Y3100950D01*
X7051529Y3155833D01*
X7078918Y3236406D01*
X7098857Y3353114D01*
X7106767Y3445938D01*
X7110624Y3556858D01*
X7105474Y3637922D01*
X7087941Y3709761D01*
X7054652Y3793007D01*
X7047310Y3809495D01*
X6951153Y3966441D01*
X6823360Y4089883D01*
X6671798Y4178257D01*
X6543820Y4217800D01*
X7337990Y4217800D01*
X7345645Y3622695D01*
X7348558Y3421392D01*
X7352631Y3264041D01*
X7359565Y3143797D01*
X7371065Y3053814D01*
X7388832Y2987248D01*
X7414570Y2937252D01*
X7449980Y2896983D01*
X7496767Y2859594D01*
X7543541Y2827150D01*
X7588258Y2800734D01*
X7637062Y2783884D01*
X7702501Y2774534D01*
X7797118Y2770617D01*
X7890456Y2770000D01*
X8153400Y2770000D01*
X8153400Y2998600D01*
X7933150Y2998600D01*
X7837691Y2998376D01*
X7763866Y3001548D01*
X7708903Y3013885D01*
X7670029Y3041156D01*
X7644473Y3089131D01*
X7631043Y3155738D01*
X8303627Y3155738D01*
X8337411Y3028150D01*
X8411293Y2912088D01*
X8507010Y2827755D01*
X8544563Y2804884D01*
X8584271Y2788980D01*
X8635893Y2778791D01*
X8709186Y2773066D01*
X8813906Y2770553D01*
X8957256Y2770000D01*
X9321800Y2770000D01*
X9321800Y2998600D01*
X9007113Y2998600D01*
X8849238Y3001036D01*
X8735175Y3010376D01*
X8658082Y3029675D01*
X8611118Y3061983D01*
X8587441Y3110354D01*
X8580209Y3177840D01*
X8580120Y3189100D01*
X8586650Y3262715D01*
X8610900Y3315003D01*
X8659862Y3349388D01*
X8740524Y3369295D01*
X8859877Y3378147D01*
X8969013Y3379600D01*
X9245600Y3379600D01*
X9245600Y3633600D01*
X8955314Y3633600D01*
X8821279Y3635082D01*
X8729023Y3640250D01*
X8669589Y3650185D01*
X8634022Y3665971D01*
X8625114Y3673515D01*
X8584617Y3746568D01*
X8584468Y3832394D01*
X8624348Y3913315D01*
X8629529Y3919350D01*
X8652961Y3938061D01*
X8689774Y3950767D01*
X8748959Y3958561D01*
X8839510Y3962535D01*
X8970419Y3963781D01*
X8995536Y3963800D01*
X9321800Y3963800D01*
X9321800Y4221460D01*
X8945073Y4213280D01*
X8798880Y4209754D01*
X8693902Y4205480D01*
X8620562Y4198841D01*
X8569282Y4188219D01*
X8530485Y4171998D01*
X8494593Y4148560D01*
X8475146Y4133937D01*
X8375809Y4035901D01*
X8321329Y3922873D01*
X8305800Y3792895D01*
X8320676Y3675416D01*
X8366061Y3582321D01*
X8426323Y3494374D01*
X8366061Y3405691D01*
X8312368Y3284903D01*
X8303627Y3155738D01*
X7631043Y3155738D01*
X7629462Y3163576D01*
X7622224Y3270263D01*
X7619987Y3414958D01*
X7619978Y3603431D01*
X7620000Y3650237D01*
X7620000Y4217800D01*
X7337990Y4217800D01*
X6543820Y4217800D01*
X6504332Y4230001D01*
X6328829Y4243550D01*
X6153155Y4217341D01*
X5985176Y4149813D01*
X5843039Y4048811D01*
X5721685Y3907425D01*
X5641353Y3743599D01*
X5602803Y3565868D01*
X4673600Y3565868D01*
X4673600Y3811400D01*
X4394200Y3811400D01*
X4394200Y3328800D01*
X4178300Y3328800D01*
X4080739Y3331369D01*
X4006122Y3338224D01*
X3966108Y3348088D01*
X3962400Y3352452D01*
X3973973Y3381319D01*
X4006150Y3447286D01*
X4055119Y3542902D01*
X4117066Y3660721D01*
X4186719Y3790602D01*
X4411039Y4205100D01*
X4271565Y4212839D01*
X4168225Y4211239D01*
X4107664Y4193226D01*
X4100828Y4187439D01*
X4073335Y4147714D01*
X4030197Y4073179D01*
X3976120Y3973228D01*
X3915812Y3857255D01*
X3853977Y3734653D01*
X3795322Y3614817D01*
X3744554Y3507141D01*
X3706377Y3421018D01*
X3685499Y3365842D01*
X3683000Y3353411D01*
X3460683Y3353411D01*
X3454858Y3381858D01*
X3384149Y3507055D01*
X3318816Y3575779D01*
X3209742Y3647828D01*
X3084970Y3693501D01*
X2964720Y3705965D01*
X2940732Y3703551D01*
X2905038Y3699577D01*
X2885481Y3704560D01*
X2884255Y3724908D01*
X2903551Y3767030D01*
X2945562Y3837333D01*
X3012479Y3942227D01*
X3033552Y3974908D01*
X3092433Y4067260D01*
X3139317Y4142848D01*
X3168379Y4192157D01*
X3175000Y4205985D01*
X3151913Y4212210D01*
X3091895Y4216491D01*
X3022173Y4217800D01*
X2869346Y4217800D01*
X2688449Y3944750D01*
X2573704Y3765766D01*
X2488199Y3618052D01*
X2428290Y3494161D01*
X2390332Y3386645D01*
X2371984Y3298165D01*
X1962504Y3298165D01*
X1949459Y3310129D01*
X1897996Y3349411D01*
X1879600Y3359230D01*
X1867298Y3375122D01*
X1877961Y3411801D01*
X1914581Y3475871D01*
X1970550Y3560002D01*
X2030379Y3647627D01*
X2080095Y3721388D01*
X2111939Y3769734D01*
X2118099Y3779650D01*
X2115923Y3798680D01*
X2076653Y3808653D01*
X1998601Y3811400D01*
X1860604Y3811400D01*
X1727200Y3608200D01*
X1667381Y3520694D01*
X1615979Y3452095D01*
X1580249Y3411759D01*
X1569643Y3405000D01*
X1537950Y3421541D01*
X1488253Y3462838D01*
X1471246Y3479247D01*
X1424485Y3535107D01*
X1402564Y3594146D01*
X1397002Y3679573D01*
X1397000Y3682447D01*
X1397000Y3811400D01*
X1117600Y3811400D01*
X1118157Y3690750D01*
X1140272Y3541614D01*
X1200513Y3405233D01*
X1291785Y3297640D01*
X1341874Y3250572D01*
X1369629Y3214931D01*
X1371600Y3208401D01*
X1357811Y3178552D01*
X1321252Y3119236D01*
X1269136Y3041991D01*
X1255500Y3022611D01*
X1180194Y2916217D01*
X1132775Y2844814D01*
X1112481Y2801445D01*
X582848Y2801445D01*
X677343Y2857205D01*
X773462Y2956764D01*
X835355Y3072656D01*
X856756Y3194873D01*
X849806Y3257581D01*
X822488Y3322610D01*
X772895Y3398318D01*
X746571Y3430076D01*
X697093Y3488277D01*
X679241Y3523367D01*
X688476Y3547910D01*
X700091Y3558721D01*
X767962Y3645431D01*
X804925Y3757542D01*
X808030Y3878042D01*
X774726Y3989149D01*
X695457Y4095751D01*
X589755Y4171504D01*
X465778Y4217749D01*
X331682Y4235829D01*
X195625Y4227085D01*
X65764Y4192859D01*
X-49745Y4134493D01*
X-142743Y4053328D01*
X-205074Y3950708D01*
X-228580Y3827973D01*
X-228600Y3824100D01*
X-210592Y3713198D01*
X-163004Y3612326D01*
X-116033Y3558838D01*
X-95195Y3533987D01*
X-100972Y3504484D01*
X-137514Y3456332D01*
X-151072Y3440732D01*
X-227756Y3320085D01*
X-257806Y3192791D01*
X-1033231Y3192791D01*
X-966208Y3240863D01*
X-958850Y3245932D01*
X-832360Y3333982D01*
X-740843Y3401645D01*
X-676695Y3456242D01*
X-632309Y3505095D01*
X-600081Y3555522D01*
X-572404Y3614846D01*
X-570257Y3619959D01*
X-540576Y3752393D01*
X-556402Y3885174D01*
X-613583Y4007933D01*
X-707971Y4110299D01*
X-786638Y4160650D01*
X-848620Y4187905D01*
X-913241Y4205030D01*
X-994730Y4214198D01*
X-1107317Y4217580D01*
X-1161082Y4217800D01*
X-1422400Y4217800D01*
X-1422400Y3963800D01*
X-1170244Y3963800D01*
X-1054389Y3963091D01*
X-977957Y3959299D01*
X-929575Y3949925D01*
X-897869Y3932474D01*
X-871466Y3904448D01*
X-865444Y3896875D01*
X-823783Y3829429D01*
X-811820Y3764865D01*
X-832531Y3698105D01*
X-888893Y3624070D01*
X-983881Y3537681D01*
X-1120472Y3433861D01*
X-1148596Y3413720D01*
X-1286994Y3311257D01*
X-1386008Y3227419D01*
X-1450815Y3156441D01*
X-1486593Y3092556D01*
X-1498520Y3030001D01*
X-1498600Y3024000D01*
X-1905000Y3024000D01*
X-1905000Y4217800D01*
X-2438400Y4217800D01*
X-2438400Y3963800D01*
X-2184400Y3963800D01*
X-2184400Y2998600D01*
X-2463800Y2998600D01*
X-3313000Y2998600D01*
X-3263117Y3113449D01*
X-3248703Y3247835D01*
X-3276142Y3381858D01*
X-3346851Y3507055D01*
X-3412184Y3575779D01*
X-3520446Y3647393D01*
X-3644373Y3693153D01*
X-3763706Y3706183D01*
X-3789177Y3703711D01*
X-3840365Y3700848D01*
X-3860800Y3708583D01*
X-3847805Y3734877D01*
X-3812581Y3794349D01*
X-3760770Y3877706D01*
X-3708400Y3959628D01*
X-3647072Y4055420D01*
X-3597537Y4134611D01*
X-3565416Y4188099D01*
X-3556000Y4206544D01*
X-3579087Y4212475D01*
X-3639104Y4216554D01*
X-3708791Y4217800D01*
X-3861582Y4217800D01*
X-4062037Y3914415D01*
X-4185084Y3719434D01*
X-4274912Y3555078D01*
X-4333417Y3415263D01*
X-4362492Y3293904D01*
X-4364031Y3184914D01*
X-4628491Y3184914D01*
X-4625009Y3265670D01*
X-4625043Y3381344D01*
X-4627398Y3517656D01*
X-4630881Y3666442D01*
X-4635132Y3774015D01*
X-4641686Y3849955D01*
X-4652081Y3903843D01*
X-4667851Y3945261D01*
X-4690532Y3983789D01*
X-4705700Y4006052D01*
X-4814365Y4121581D01*
X-4947082Y4198242D01*
X-5094283Y4235252D01*
X-5246401Y4231828D01*
X-5393868Y4187185D01*
X-5527118Y4100540D01*
X-5553827Y4075510D01*
X-5616784Y4004362D01*
X-5661839Y3929866D01*
X-5691345Y3842368D01*
X-5707657Y3732215D01*
X-5713129Y3589752D01*
X-6172200Y3589752D01*
X-6172200Y4217800D01*
X-6731000Y4217800D01*
X-6731000Y3963800D01*
X-6477000Y3963800D01*
X-6477000Y2998600D01*
X-6756400Y2998600D01*
X-6959600Y2998600D01*
X-7188200Y2998600D01*
X-7188200Y4217800D01*
X-7747000Y4217800D01*
X-7747000Y3963800D01*
X-7493000Y3963800D01*
X-7493000Y2998600D01*
X-7772400Y2998600D01*
X-8051800Y2998600D01*
X-8051800Y4217800D01*
X-8305800Y4217800D01*
X-8305800Y3633600D01*
X-8991600Y3633600D01*
X-8991600Y4217800D01*
X-9271000Y4217800D01*
X-9601200Y4217800D01*
X-9955147Y4217800D01*
X-10123369Y4215937D01*
X-10250021Y4209147D01*
X-10344239Y4195630D01*
X-10415156Y4173587D01*
X-10471907Y4141219D01*
X-10511664Y4108159D01*
X-10592572Y4001007D01*
X-10638680Y3871161D01*
X-10647189Y3734040D01*
X-11430000Y3734040D01*
X-11430000Y4776600D01*
X11455400Y4776600D01*
X11455400Y2211200D01*
G36*
X-18059400Y4548000D02*
G01*
X-17805400Y4548000D01*
X-17805400Y4090800D01*
X-18059400Y4090800D01*
X-18059400Y3862200D01*
X-18288000Y3862200D01*
X-18288000Y4090800D01*
X-18516600Y4090800D01*
X-18516600Y4319400D01*
X-18288000Y4319400D01*
X-18288000Y4090800D01*
X-18059400Y4090800D01*
X-18059400Y4319400D01*
X-18288000Y4319400D01*
X-18516600Y4319400D01*
X-18516600Y4548000D01*
X-18288000Y4548000D01*
X-18288000Y4802000D01*
X-18059400Y4802000D01*
X-18059400Y4548000D01*
G37*
X-18059400Y4548000D02*
X-17805400Y4548000D01*
X-17805400Y4090800D01*
X-18059400Y4090800D01*
X-18059400Y3862200D01*
X-18288000Y3862200D01*
X-18288000Y4090800D01*
X-18516600Y4090800D01*
X-18516600Y4319400D01*
X-18288000Y4319400D01*
X-18288000Y4090800D01*
X-18059400Y4090800D01*
X-18059400Y4319400D01*
X-18288000Y4319400D01*
X-18516600Y4319400D01*
X-18516600Y4548000D01*
X-18288000Y4548000D01*
X-18288000Y4802000D01*
X-18059400Y4802000D01*
X-18059400Y4548000D01*
G36*
X-19761200Y7748400D02*
G01*
X-19558000Y7748400D01*
X-19558000Y8154800D01*
X-19354800Y8154800D01*
X-19354800Y7748400D01*
X-19151600Y7748400D01*
X-19151600Y8154800D01*
X-18948400Y8154800D01*
X-18948400Y7748400D01*
X-18846800Y7748400D01*
X-18781768Y7745956D01*
X-18752871Y7728848D01*
X-18745445Y7682409D01*
X-18745200Y7646800D01*
X-18742756Y7581768D01*
X-18725648Y7552871D01*
X-18679209Y7545445D01*
X-18643600Y7545200D01*
X-18578568Y7542756D01*
X-18549671Y7525648D01*
X-18542245Y7479209D01*
X-18542000Y7443600D01*
X-18542000Y7342000D01*
X-18110200Y7342000D01*
X-18110200Y7138800D01*
X-18542000Y7138800D01*
X-18542000Y6935600D01*
X-18110200Y6935600D01*
X-18110200Y6732400D01*
X-18542000Y6732400D01*
X-18542000Y6529200D01*
X-18110200Y6529200D01*
X-18110200Y6326000D01*
X-18542000Y6326000D01*
X-18542000Y6224400D01*
X-18544445Y6159368D01*
X-18561553Y6130471D01*
X-18607992Y6123045D01*
X-18643600Y6122800D01*
X-18708633Y6120356D01*
X-18737530Y6103248D01*
X-18744956Y6056809D01*
X-18745200Y6021200D01*
X-18747645Y5956168D01*
X-18764753Y5927271D01*
X-18811192Y5919845D01*
X-18846800Y5919600D01*
X-18948400Y5919600D01*
X-18948400Y5487800D01*
X-19151600Y5487800D01*
X-19151600Y5919600D01*
X-19354800Y5919600D01*
X-19354800Y5487800D01*
X-19558000Y5487800D01*
X-19558000Y5919600D01*
X-19761200Y5919600D01*
X-19761200Y5487800D01*
X-19964400Y5487800D01*
X-19964400Y5919600D01*
X-20066000Y5919600D01*
X-20131033Y5922045D01*
X-20159930Y5939153D01*
X-20167356Y5985592D01*
X-20167600Y6021200D01*
X-20170045Y6086233D01*
X-20187153Y6115130D01*
X-20233592Y6122556D01*
X-20269200Y6122800D01*
X-20334233Y6125245D01*
X-20363130Y6142353D01*
X-20370556Y6188792D01*
X-20370800Y6224400D01*
X-20375061Y6290871D01*
X-20392279Y6320248D01*
X-20421600Y6326000D01*
X-20454836Y6334521D01*
X-20469524Y6368957D01*
X-20472400Y6427600D01*
X-20468140Y6494071D01*
X-20450922Y6523448D01*
X-20421600Y6529200D01*
X-20388365Y6537721D01*
X-20373677Y6572157D01*
X-20370800Y6630800D01*
X-20375061Y6697271D01*
X-20392279Y6726648D01*
X-20421600Y6732400D01*
X-20454836Y6740921D01*
X-20469524Y6775357D01*
X-20472400Y6834000D01*
X-20468140Y6900471D01*
X-20450922Y6929848D01*
X-20421600Y6935600D01*
X-20388365Y6944121D01*
X-20373677Y6978557D01*
X-20370800Y7037200D01*
X-20375061Y7103671D01*
X-20392279Y7133048D01*
X-20421600Y7138800D01*
X-20454836Y7147321D01*
X-20469524Y7181757D01*
X-20472400Y7240400D01*
X-20468140Y7306871D01*
X-20450922Y7336248D01*
X-20421600Y7342000D01*
X-20388365Y7350521D01*
X-20373677Y7384957D01*
X-20370800Y7443600D01*
X-20368356Y7508633D01*
X-20351248Y7537530D01*
X-20304809Y7544956D01*
X-20269200Y7545200D01*
X-20167600Y7545200D01*
X-20167600Y6122800D01*
X-18745200Y6122800D01*
X-18745200Y7545200D01*
X-20167600Y7545200D01*
X-20269200Y7545200D01*
X-20204168Y7547645D01*
X-20175271Y7564753D01*
X-20167845Y7611192D01*
X-20167600Y7646800D01*
X-20165156Y7711833D01*
X-20148048Y7740730D01*
X-20101609Y7748156D01*
X-20066000Y7748400D01*
X-19964400Y7748400D01*
X-19964400Y8154800D01*
X-19761200Y8154800D01*
X-19761200Y7748400D01*
G37*
X-19761200Y7748400D02*
X-19558000Y7748400D01*
X-19558000Y8154800D01*
X-19354800Y8154800D01*
X-19354800Y7748400D01*
X-19151600Y7748400D01*
X-19151600Y8154800D01*
X-18948400Y8154800D01*
X-18948400Y7748400D01*
X-18846800Y7748400D01*
X-18781768Y7745956D01*
X-18752871Y7728848D01*
X-18745445Y7682409D01*
X-18745200Y7646800D01*
X-18742756Y7581768D01*
X-18725648Y7552871D01*
X-18679209Y7545445D01*
X-18643600Y7545200D01*
X-18578568Y7542756D01*
X-18549671Y7525648D01*
X-18542245Y7479209D01*
X-18542000Y7443600D01*
X-18542000Y7342000D01*
X-18110200Y7342000D01*
X-18110200Y7138800D01*
X-18542000Y7138800D01*
X-18542000Y6935600D01*
X-18110200Y6935600D01*
X-18110200Y6732400D01*
X-18542000Y6732400D01*
X-18542000Y6529200D01*
X-18110200Y6529200D01*
X-18110200Y6326000D01*
X-18542000Y6326000D01*
X-18542000Y6224400D01*
X-18544445Y6159368D01*
X-18561553Y6130471D01*
X-18607992Y6123045D01*
X-18643600Y6122800D01*
X-18708633Y6120356D01*
X-18737530Y6103248D01*
X-18744956Y6056809D01*
X-18745200Y6021200D01*
X-18747645Y5956168D01*
X-18764753Y5927271D01*
X-18811192Y5919845D01*
X-18846800Y5919600D01*
X-18948400Y5919600D01*
X-18948400Y5487800D01*
X-19151600Y5487800D01*
X-19151600Y5919600D01*
X-19354800Y5919600D01*
X-19354800Y5487800D01*
X-19558000Y5487800D01*
X-19558000Y5919600D01*
X-19761200Y5919600D01*
X-19761200Y5487800D01*
X-19964400Y5487800D01*
X-19964400Y5919600D01*
X-20066000Y5919600D01*
X-20131033Y5922045D01*
X-20159930Y5939153D01*
X-20167356Y5985592D01*
X-20167600Y6021200D01*
X-20170045Y6086233D01*
X-20187153Y6115130D01*
X-20233592Y6122556D01*
X-20269200Y6122800D01*
X-20334233Y6125245D01*
X-20363130Y6142353D01*
X-20370556Y6188792D01*
X-20370800Y6224400D01*
X-20375061Y6290871D01*
X-20392279Y6320248D01*
X-20421600Y6326000D01*
X-20454836Y6334521D01*
X-20469524Y6368957D01*
X-20472400Y6427600D01*
X-20468140Y6494071D01*
X-20450922Y6523448D01*
X-20421600Y6529200D01*
X-20388365Y6537721D01*
X-20373677Y6572157D01*
X-20370800Y6630800D01*
X-20375061Y6697271D01*
X-20392279Y6726648D01*
X-20421600Y6732400D01*
X-20454836Y6740921D01*
X-20469524Y6775357D01*
X-20472400Y6834000D01*
X-20468140Y6900471D01*
X-20450922Y6929848D01*
X-20421600Y6935600D01*
X-20388365Y6944121D01*
X-20373677Y6978557D01*
X-20370800Y7037200D01*
X-20375061Y7103671D01*
X-20392279Y7133048D01*
X-20421600Y7138800D01*
X-20454836Y7147321D01*
X-20469524Y7181757D01*
X-20472400Y7240400D01*
X-20468140Y7306871D01*
X-20450922Y7336248D01*
X-20421600Y7342000D01*
X-20388365Y7350521D01*
X-20373677Y7384957D01*
X-20370800Y7443600D01*
X-20368356Y7508633D01*
X-20351248Y7537530D01*
X-20304809Y7544956D01*
X-20269200Y7545200D01*
X-20167600Y7545200D01*
X-20167600Y6122800D01*
X-18745200Y6122800D01*
X-18745200Y7545200D01*
X-20167600Y7545200D01*
X-20269200Y7545200D01*
X-20204168Y7547645D01*
X-20175271Y7564753D01*
X-20167845Y7611192D01*
X-20167600Y7646800D01*
X-20165156Y7711833D01*
X-20148048Y7740730D01*
X-20101609Y7748156D01*
X-20066000Y7748400D01*
X-19964400Y7748400D01*
X-19964400Y8154800D01*
X-19761200Y8154800D01*
X-19761200Y7748400D01*
G36*
X-194149Y7057484D02*
G01*
X-121201Y7048789D01*
X-75205Y7034677D01*
X-66622Y7024500D01*
X-70953Y6986875D01*
X-78876Y6916256D01*
X-85894Y6853050D01*
X-102044Y6707000D01*
X177800Y6707000D01*
X177800Y6453000D01*
X25883Y6453000D01*
X-52110Y6452391D01*
X-100569Y6443908D01*
X-128434Y6417576D01*
X-144644Y6363416D01*
X-158139Y6271449D01*
X-161858Y6243450D01*
X-174607Y6148200D01*
X101600Y6148200D01*
X101600Y5894200D01*
X-199545Y5894200D01*
X-215914Y5748150D01*
X-228307Y5645766D01*
X-242537Y5583718D01*
X-266523Y5551906D01*
X-308182Y5540233D01*
X-375432Y5538600D01*
X-380203Y5538600D01*
X-445462Y5539228D01*
X-484593Y5547638D01*
X-502226Y5573619D01*
X-502991Y5626960D01*
X-491514Y5717449D01*
X-485300Y5760850D01*
X-466308Y5894200D01*
X-756845Y5894200D01*
X-774700Y5716400D01*
X-792556Y5538600D01*
X-1048695Y5538600D01*
X-1032171Y5716400D01*
X-1015646Y5894200D01*
X-1295400Y5894200D01*
X-1295400Y6148200D01*
X-1143484Y6148200D01*
X-1066983Y6148448D01*
X-1019256Y6155762D01*
X-991334Y6180001D01*
X-986749Y6193695D01*
X-710521Y6193695D01*
X-690410Y6161742D01*
X-644077Y6149897D01*
X-574824Y6148200D01*
X-438447Y6148200D01*
X-422703Y6243450D01*
X-407486Y6345489D01*
X-407080Y6407506D01*
X-427191Y6439459D01*
X-473524Y6451304D01*
X-542777Y6453000D01*
X-679154Y6453000D01*
X-694898Y6357750D01*
X-710115Y6255712D01*
X-710521Y6193695D01*
X-986749Y6193695D01*
X-974247Y6231024D01*
X-959023Y6318690D01*
X-952813Y6357750D01*
X-937499Y6453000D01*
X-1219200Y6453000D01*
X-1219200Y6707000D01*
X-917513Y6707000D01*
X-901870Y6827650D01*
X-887220Y6937256D01*
X-873343Y7006083D01*
X-853557Y7043604D01*
X-821180Y7059291D01*
X-769529Y7062615D01*
X-736117Y7062600D01*
X-671477Y7061955D01*
X-632733Y7053493D01*
X-615312Y7027425D01*
X-614642Y6973962D01*
X-626150Y6883317D01*
X-632301Y6840350D01*
X-651293Y6707000D01*
X-360756Y6707000D01*
X-342777Y6886034D01*
X-324797Y7065068D01*
X-194149Y7057484D01*
G37*
X-194149Y7057484D02*
X-121201Y7048789D01*
X-75205Y7034677D01*
X-66622Y7024500D01*
X-70953Y6986875D01*
X-78876Y6916256D01*
X-85894Y6853050D01*
X-102044Y6707000D01*
X177800Y6707000D01*
X177800Y6453000D01*
X25883Y6453000D01*
X-52110Y6452391D01*
X-100569Y6443908D01*
X-128434Y6417576D01*
X-144644Y6363416D01*
X-158139Y6271449D01*
X-161858Y6243450D01*
X-174607Y6148200D01*
X101600Y6148200D01*
X101600Y5894200D01*
X-199545Y5894200D01*
X-215914Y5748150D01*
X-228307Y5645766D01*
X-242537Y5583718D01*
X-266523Y5551906D01*
X-308182Y5540233D01*
X-375432Y5538600D01*
X-380203Y5538600D01*
X-445462Y5539228D01*
X-484593Y5547638D01*
X-502226Y5573619D01*
X-502991Y5626960D01*
X-491514Y5717449D01*
X-485300Y5760850D01*
X-466308Y5894200D01*
X-756845Y5894200D01*
X-774700Y5716400D01*
X-792556Y5538600D01*
X-1048695Y5538600D01*
X-1032171Y5716400D01*
X-1015646Y5894200D01*
X-1295400Y5894200D01*
X-1295400Y6148200D01*
X-1143484Y6148200D01*
X-1066983Y6148448D01*
X-1019256Y6155762D01*
X-991334Y6180001D01*
X-986749Y6193695D01*
X-710521Y6193695D01*
X-690410Y6161742D01*
X-644077Y6149897D01*
X-574824Y6148200D01*
X-438447Y6148200D01*
X-422703Y6243450D01*
X-407486Y6345489D01*
X-407080Y6407506D01*
X-427191Y6439459D01*
X-473524Y6451304D01*
X-542777Y6453000D01*
X-679154Y6453000D01*
X-694898Y6357750D01*
X-710115Y6255712D01*
X-710521Y6193695D01*
X-986749Y6193695D01*
X-974247Y6231024D01*
X-959023Y6318690D01*
X-952813Y6357750D01*
X-937499Y6453000D01*
X-1219200Y6453000D01*
X-1219200Y6707000D01*
X-917513Y6707000D01*
X-901870Y6827650D01*
X-887220Y6937256D01*
X-873343Y7006083D01*
X-853557Y7043604D01*
X-821180Y7059291D01*
X-769529Y7062615D01*
X-736117Y7062600D01*
X-671477Y7061955D01*
X-632733Y7053493D01*
X-615312Y7027425D01*
X-614642Y6973962D01*
X-626150Y6883317D01*
X-632301Y6840350D01*
X-651293Y6707000D01*
X-360756Y6707000D01*
X-342777Y6886034D01*
X-324797Y7065068D01*
X-194149Y7057484D01*
G36*
X642221Y7058022D02*
G01*
X775641Y7051423D01*
X871244Y7042033D01*
X942010Y7027470D01*
X1000920Y7005353D01*
X1040487Y6984976D01*
X1150728Y6897010D01*
X1225759Y6781906D01*
X1264351Y6650289D01*
X1265273Y6512785D01*
X1227293Y6380019D01*
X1149180Y6262618D01*
X1126766Y6240167D01*
X1075514Y6198207D01*
X993867Y6137803D01*
X894206Y6067910D01*
X814517Y6014277D01*
X574934Y5856100D01*
X1320800Y5842042D01*
X1320800Y5538600D01*
X920750Y5542060D01*
X779419Y5543904D01*
X652872Y5546714D01*
X551276Y5550177D01*
X484800Y5553978D01*
X467048Y5556068D01*
X414872Y5580850D01*
X354573Y5628552D01*
X343185Y5639903D01*
X286823Y5732919D01*
X269043Y5843925D01*
X291813Y5955695D01*
X304142Y5981872D01*
X337968Y6021510D01*
X404857Y6081983D01*
X495773Y6155692D01*
X601683Y6235037D01*
X624811Y6251582D01*
X730114Y6328327D01*
X820121Y6397774D01*
X886662Y6453334D01*
X921569Y6488416D01*
X924424Y6493289D01*
X939101Y6588744D01*
X913336Y6675439D01*
X889000Y6707000D01*
X857934Y6731301D01*
X816059Y6746481D01*
X751747Y6754562D01*
X653374Y6757566D01*
X596900Y6757800D01*
X355600Y6757800D01*
X355600Y7068993D01*
X642221Y7058022D01*
G37*
X642221Y7058022D02*
X775641Y7051423D01*
X871244Y7042033D01*
X942010Y7027470D01*
X1000920Y7005353D01*
X1040487Y6984976D01*
X1150728Y6897010D01*
X1225759Y6781906D01*
X1264351Y6650289D01*
X1265273Y6512785D01*
X1227293Y6380019D01*
X1149180Y6262618D01*
X1126766Y6240167D01*
X1075514Y6198207D01*
X993867Y6137803D01*
X894206Y6067910D01*
X814517Y6014277D01*
X574934Y5856100D01*
X1320800Y5842042D01*
X1320800Y5538600D01*
X920750Y5542060D01*
X779419Y5543904D01*
X652872Y5546714D01*
X551276Y5550177D01*
X484800Y5553978D01*
X467048Y5556068D01*
X414872Y5580850D01*
X354573Y5628552D01*
X343185Y5639903D01*
X286823Y5732919D01*
X269043Y5843925D01*
X291813Y5955695D01*
X304142Y5981872D01*
X337968Y6021510D01*
X404857Y6081983D01*
X495773Y6155692D01*
X601683Y6235037D01*
X624811Y6251582D01*
X730114Y6328327D01*
X820121Y6397774D01*
X886662Y6453334D01*
X921569Y6488416D01*
X924424Y6493289D01*
X939101Y6588744D01*
X913336Y6675439D01*
X889000Y6707000D01*
X857934Y6731301D01*
X816059Y6746481D01*
X751747Y6754562D01*
X653374Y6757566D01*
X596900Y6757800D01*
X355600Y6757800D01*
X355600Y7068993D01*
X642221Y7058022D01*
G36*
X-19456400Y10009000D02*
G01*
X-20167600Y10009000D01*
X-20167600Y10263000D01*
X-19710400Y10263000D01*
X-19710400Y10491600D01*
X-19456400Y10491600D01*
X-19456400Y10009000D01*
G37*
X-19456400Y10009000D02*
X-20167600Y10009000D01*
X-20167600Y10263000D01*
X-19710400Y10263000D01*
X-19710400Y10491600D01*
X-19456400Y10491600D01*
X-19456400Y10009000D01*
G36*
X-19710400Y10491600D02*
G01*
X-19939000Y10491600D01*
X-19939000Y10720200D01*
X-19710400Y10720200D01*
X-19710400Y10491600D01*
G37*
X-19710400Y10491600D02*
X-19939000Y10491600D01*
X-19939000Y10720200D01*
X-19710400Y10720200D01*
X-19710400Y10491600D01*
G36*
X-18592800Y12142600D02*
G01*
X-18338800Y12142600D01*
X-18338800Y12396600D01*
X-17856200Y12396600D01*
X-17856200Y12269600D01*
X-17854536Y12194420D01*
X-17844300Y12156930D01*
X-17817630Y12144027D01*
X-17780000Y12142600D01*
X-17703800Y12142600D01*
X-17703800Y11660000D01*
X-17780000Y11660000D01*
X-17826857Y11656687D01*
X-17849050Y11637556D01*
X-17855770Y11588821D01*
X-17856200Y11545700D01*
X-17856200Y11431400D01*
X-18110200Y11431400D01*
X-18110200Y11177400D01*
X-18338800Y11177400D01*
X-18338800Y10923400D01*
X-18592800Y10923400D01*
X-18592800Y11177400D01*
X-18821400Y11177400D01*
X-18821400Y11431400D01*
X-19075400Y11431400D01*
X-19075400Y11660000D01*
X-19329400Y11660000D01*
X-19329400Y12142600D01*
X-19075400Y12142600D01*
X-19075400Y11660000D01*
X-18821400Y11660000D01*
X-18821400Y11431400D01*
X-18592800Y11431400D01*
X-18592800Y11177400D01*
X-18338800Y11177400D01*
X-18338800Y11431400D01*
X-18110200Y11431400D01*
X-18110200Y11660000D01*
X-17856200Y11660000D01*
X-17856200Y12142600D01*
X-18338800Y12142600D01*
X-18338800Y11914000D01*
X-18592800Y11914000D01*
X-18592800Y12142600D01*
X-19075400Y12142600D01*
X-19075400Y12396600D01*
X-18592800Y12396600D01*
X-18592800Y12142600D01*
G37*
X-18592800Y12142600D02*
X-18338800Y12142600D01*
X-18338800Y12396600D01*
X-17856200Y12396600D01*
X-17856200Y12269600D01*
X-17854536Y12194420D01*
X-17844300Y12156930D01*
X-17817630Y12144027D01*
X-17780000Y12142600D01*
X-17703800Y12142600D01*
X-17703800Y11660000D01*
X-17780000Y11660000D01*
X-17826857Y11656687D01*
X-17849050Y11637556D01*
X-17855770Y11588821D01*
X-17856200Y11545700D01*
X-17856200Y11431400D01*
X-18110200Y11431400D01*
X-18110200Y11177400D01*
X-18338800Y11177400D01*
X-18338800Y10923400D01*
X-18592800Y10923400D01*
X-18592800Y11177400D01*
X-18821400Y11177400D01*
X-18821400Y11431400D01*
X-19075400Y11431400D01*
X-19075400Y11660000D01*
X-19329400Y11660000D01*
X-19329400Y12142600D01*
X-19075400Y12142600D01*
X-19075400Y11660000D01*
X-18821400Y11660000D01*
X-18821400Y11431400D01*
X-18592800Y11431400D01*
X-18592800Y11177400D01*
X-18338800Y11177400D01*
X-18338800Y11431400D01*
X-18110200Y11431400D01*
X-18110200Y11660000D01*
X-17856200Y11660000D01*
X-17856200Y12142600D01*
X-18338800Y12142600D01*
X-18338800Y11914000D01*
X-18592800Y11914000D01*
X-18592800Y12142600D01*
X-19075400Y12142600D01*
X-19075400Y12396600D01*
X-18592800Y12396600D01*
X-18592800Y12142600D01*
G36*
X-18110200Y13615800D02*
G01*
X-18516600Y13615800D01*
X-18516600Y13844400D01*
X-18618200Y13844400D01*
X-18683251Y13847092D01*
X-18712160Y13863709D01*
X-18719573Y13907068D01*
X-18719800Y13933300D01*
X-18716725Y13990220D01*
X-18697733Y14015515D01*
X-18648180Y14022002D01*
X-18618200Y14022200D01*
X-18553150Y14019509D01*
X-18524241Y14002892D01*
X-18516828Y13959533D01*
X-18516600Y13933300D01*
X-18513525Y13876381D01*
X-18494533Y13851086D01*
X-18444980Y13844599D01*
X-18415000Y13844400D01*
X-18313400Y13844400D01*
X-18313400Y14250800D01*
X-18110200Y14250800D01*
X-18110200Y13615800D01*
G37*
X-18110200Y13615800D02*
X-18516600Y13615800D01*
X-18516600Y13844400D01*
X-18618200Y13844400D01*
X-18683251Y13847092D01*
X-18712160Y13863709D01*
X-18719573Y13907068D01*
X-18719800Y13933300D01*
X-18716725Y13990220D01*
X-18697733Y14015515D01*
X-18648180Y14022002D01*
X-18618200Y14022200D01*
X-18553150Y14019509D01*
X-18524241Y14002892D01*
X-18516828Y13959533D01*
X-18516600Y13933300D01*
X-18513525Y13876381D01*
X-18494533Y13851086D01*
X-18444980Y13844599D01*
X-18415000Y13844400D01*
X-18313400Y13844400D01*
X-18313400Y14250800D01*
X-18110200Y14250800D01*
X-18110200Y13615800D01*
G36*
X-18821400Y17603600D02*
G01*
X-18821400Y15851000D01*
X-19050000Y15851000D01*
X-19050000Y15647800D01*
X-19278600Y15647800D01*
X-19278600Y14098400D01*
X-19507200Y14098400D01*
X-19507200Y15647800D01*
X-19710400Y15647800D01*
X-19710400Y14098400D01*
X-19939000Y14098400D01*
X-19939000Y15647800D01*
X-20167600Y15647800D01*
X-20167600Y15851000D01*
X-20396200Y15851000D01*
X-20396200Y17603600D01*
X-20167600Y17603600D01*
X-20167600Y15851000D01*
X-19050000Y15851000D01*
X-19050000Y16079600D01*
X-19278600Y16079600D01*
X-19278600Y16308200D01*
X-19050000Y16308200D01*
X-19050000Y16511400D01*
X-19278600Y16511400D01*
X-19278600Y17400400D01*
X-19050000Y17400400D01*
X-19050000Y17603600D01*
X-20167600Y17603600D01*
X-20167600Y17857600D01*
X-19050000Y17857600D01*
X-19050000Y17603600D01*
X-18821400Y17603600D01*
G37*
X-18821400Y17603600D02*
X-18821400Y15851000D01*
X-19050000Y15851000D01*
X-19050000Y15647800D01*
X-19278600Y15647800D01*
X-19278600Y14098400D01*
X-19507200Y14098400D01*
X-19507200Y15647800D01*
X-19710400Y15647800D01*
X-19710400Y14098400D01*
X-19939000Y14098400D01*
X-19939000Y15647800D01*
X-20167600Y15647800D01*
X-20167600Y15851000D01*
X-20396200Y15851000D01*
X-20396200Y17603600D01*
X-20167600Y17603600D01*
X-20167600Y15851000D01*
X-19050000Y15851000D01*
X-19050000Y16079600D01*
X-19278600Y16079600D01*
X-19278600Y16308200D01*
X-19050000Y16308200D01*
X-19050000Y16511400D01*
X-19278600Y16511400D01*
X-19278600Y17400400D01*
X-19050000Y17400400D01*
X-19050000Y17603600D01*
X-20167600Y17603600D01*
X-20167600Y17857600D01*
X-19050000Y17857600D01*
X-19050000Y17603600D01*
X-18821400Y17603600D01*
G36*
X-1928034Y16456961D02*
G01*
X-1869652Y16440401D01*
X-1817461Y16402459D01*
X-1788160Y16374240D01*
X-1701800Y16287881D01*
X-1701800Y15994681D01*
X-1702447Y15867851D01*
X-1705504Y15781950D01*
X-1712644Y15727113D01*
X-1725542Y15693474D01*
X-1745870Y15671166D01*
X-1758252Y15661941D01*
X-1845460Y15626981D01*
X-1945798Y15638190D01*
X-1975359Y15648780D01*
X-2027059Y15694373D01*
X-2048108Y15747389D01*
X-2074977Y15809153D01*
X-2100491Y15822058D01*
X-1896398Y15822058D01*
X-1892176Y15799999D01*
X-1868659Y15776194D01*
X-1856758Y15800835D01*
X-1854973Y15844650D01*
X-1858051Y15889762D01*
X-1869315Y15889191D01*
X-1881748Y15869849D01*
X-1896398Y15822058D01*
X-2100491Y15822058D01*
X-2131820Y15837904D01*
X-2133309Y15838237D01*
X-2228209Y15882162D01*
X-2296387Y15959068D01*
X-2335805Y16057532D01*
X-2343980Y16160562D01*
X-2182884Y16160562D01*
X-2170341Y16082394D01*
X-2133600Y16028800D01*
X-2068397Y15985194D01*
X-2002827Y15989047D01*
X-1930620Y16041035D01*
X-1919984Y16051817D01*
X-1873052Y16111922D01*
X-1862726Y16162825D01*
X-1867541Y16185167D01*
X-1902586Y16262571D01*
X-1954576Y16299950D01*
X-2020970Y16308200D01*
X-2102656Y16287214D01*
X-2158475Y16233418D01*
X-2182884Y16160562D01*
X-2343980Y16160562D01*
X-2344423Y16166133D01*
X-2320202Y16273450D01*
X-2261102Y16368062D01*
X-2232772Y16395246D01*
X-2172403Y16436283D01*
X-2104867Y16455855D01*
X-2014812Y16460600D01*
X-1928034Y16456961D01*
G37*
X-1928034Y16456961D02*
X-1869652Y16440401D01*
X-1817461Y16402459D01*
X-1788160Y16374240D01*
X-1701800Y16287881D01*
X-1701800Y15994681D01*
X-1702447Y15867851D01*
X-1705504Y15781950D01*
X-1712644Y15727113D01*
X-1725542Y15693474D01*
X-1745870Y15671166D01*
X-1758252Y15661941D01*
X-1845460Y15626981D01*
X-1945798Y15638190D01*
X-1975359Y15648780D01*
X-2027059Y15694373D01*
X-2048108Y15747389D01*
X-2074977Y15809153D01*
X-2100491Y15822058D01*
X-1896398Y15822058D01*
X-1892176Y15799999D01*
X-1868659Y15776194D01*
X-1856758Y15800835D01*
X-1854973Y15844650D01*
X-1858051Y15889762D01*
X-1869315Y15889191D01*
X-1881748Y15869849D01*
X-1896398Y15822058D01*
X-2100491Y15822058D01*
X-2131820Y15837904D01*
X-2133309Y15838237D01*
X-2228209Y15882162D01*
X-2296387Y15959068D01*
X-2335805Y16057532D01*
X-2343980Y16160562D01*
X-2182884Y16160562D01*
X-2170341Y16082394D01*
X-2133600Y16028800D01*
X-2068397Y15985194D01*
X-2002827Y15989047D01*
X-1930620Y16041035D01*
X-1919984Y16051817D01*
X-1873052Y16111922D01*
X-1862726Y16162825D01*
X-1867541Y16185167D01*
X-1902586Y16262571D01*
X-1954576Y16299950D01*
X-2020970Y16308200D01*
X-2102656Y16287214D01*
X-2158475Y16233418D01*
X-2182884Y16160562D01*
X-2343980Y16160562D01*
X-2344423Y16166133D01*
X-2320202Y16273450D01*
X-2261102Y16368062D01*
X-2232772Y16395246D01*
X-2172403Y16436283D01*
X-2104867Y16455855D01*
X-2014812Y16460600D01*
X-1928034Y16456961D01*
G36*
X-4192442Y16452745D02*
G01*
X-4191000Y16450584D01*
X-4199031Y16422924D01*
X-4220898Y16357262D01*
X-4253266Y16263406D01*
X-4292802Y16151165D01*
X-4293003Y16150601D01*
X-4346383Y16008118D01*
X-4391310Y15908333D01*
X-4432012Y15844755D01*
X-4472717Y15810889D01*
X-4517653Y15800244D01*
X-4521200Y15800200D01*
X-4575290Y15814913D01*
X-4604287Y15831950D01*
X-4624161Y15863150D01*
X-4656402Y15930668D01*
X-4696402Y16022943D01*
X-4739549Y16128414D01*
X-4781233Y16235522D01*
X-4816842Y16332706D01*
X-4841766Y16408406D01*
X-4851396Y16451060D01*
X-4851400Y16451545D01*
X-4829073Y16457489D01*
X-4773744Y16456986D01*
X-4757085Y16455784D01*
X-4709346Y16450025D01*
X-4677617Y16435538D01*
X-4653871Y16401862D01*
X-4630079Y16338532D01*
X-4605060Y16257646D01*
X-4575485Y16161796D01*
X-4549956Y16082001D01*
X-4533290Y16033262D01*
X-4531645Y16029046D01*
X-4518017Y16033420D01*
X-4494736Y16080643D01*
X-4464628Y16164324D01*
X-4447459Y16219300D01*
X-4378980Y16447900D01*
X-4284990Y16455784D01*
X-4224356Y16457763D01*
X-4192442Y16452745D01*
G37*
X-4192442Y16452745D02*
X-4191000Y16450584D01*
X-4199031Y16422924D01*
X-4220898Y16357262D01*
X-4253266Y16263406D01*
X-4292802Y16151165D01*
X-4293003Y16150601D01*
X-4346383Y16008118D01*
X-4391310Y15908333D01*
X-4432012Y15844755D01*
X-4472717Y15810889D01*
X-4517653Y15800244D01*
X-4521200Y15800200D01*
X-4575290Y15814913D01*
X-4604287Y15831950D01*
X-4624161Y15863150D01*
X-4656402Y15930668D01*
X-4696402Y16022943D01*
X-4739549Y16128414D01*
X-4781233Y16235522D01*
X-4816842Y16332706D01*
X-4841766Y16408406D01*
X-4851396Y16451060D01*
X-4851400Y16451545D01*
X-4829073Y16457489D01*
X-4773744Y16456986D01*
X-4757085Y16455784D01*
X-4709346Y16450025D01*
X-4677617Y16435538D01*
X-4653871Y16401862D01*
X-4630079Y16338532D01*
X-4605060Y16257646D01*
X-4575485Y16161796D01*
X-4549956Y16082001D01*
X-4533290Y16033262D01*
X-4531645Y16029046D01*
X-4518017Y16033420D01*
X-4494736Y16080643D01*
X-4464628Y16164324D01*
X-4447459Y16219300D01*
X-4378980Y16447900D01*
X-4284990Y16455784D01*
X-4224356Y16457763D01*
X-4192442Y16452745D01*
G36*
X-965200Y16196714D02*
G01*
X-968728Y16051444D01*
X-981766Y15948646D01*
X-1007999Y15880329D01*
X-1051111Y15838501D01*
X-1114785Y15815171D01*
X-1143587Y15809740D01*
X-1226523Y15809601D01*
X-1294606Y15845193D01*
X-1295987Y15846304D01*
X-1329022Y15879293D01*
X-1349820Y15921766D01*
X-1362528Y15987322D01*
X-1371290Y16089560D01*
X-1371600Y16094344D01*
X-1382905Y16207085D01*
X-1399121Y16278063D01*
X-1416050Y16301969D01*
X-1431544Y16293889D01*
X-1441421Y16253182D01*
X-1446542Y16173529D01*
X-1447800Y16069017D01*
X-1447800Y15825600D01*
X-1625600Y15825600D01*
X-1625600Y16076175D01*
X-1624151Y16196719D01*
X-1618458Y16278658D01*
X-1606509Y16334138D01*
X-1586290Y16375307D01*
X-1572957Y16393675D01*
X-1516935Y16443498D01*
X-1442889Y16460250D01*
X-1425412Y16460600D01*
X-1341280Y16453776D01*
X-1284467Y16427821D01*
X-1248950Y16374514D01*
X-1228710Y16285632D01*
X-1219200Y16178970D01*
X-1208140Y16059870D01*
X-1192388Y15985255D01*
X-1174750Y15958835D01*
X-1159589Y15966809D01*
X-1149784Y16006850D01*
X-1144525Y16085228D01*
X-1143000Y16204484D01*
X-1143000Y16460600D01*
X-965200Y16460600D01*
X-965200Y16196714D01*
G37*
X-965200Y16196714D02*
X-968728Y16051444D01*
X-981766Y15948646D01*
X-1007999Y15880329D01*
X-1051111Y15838501D01*
X-1114785Y15815171D01*
X-1143587Y15809740D01*
X-1226523Y15809601D01*
X-1294606Y15845193D01*
X-1295987Y15846304D01*
X-1329022Y15879293D01*
X-1349820Y15921766D01*
X-1362528Y15987322D01*
X-1371290Y16089560D01*
X-1371600Y16094344D01*
X-1382905Y16207085D01*
X-1399121Y16278063D01*
X-1416050Y16301969D01*
X-1431544Y16293889D01*
X-1441421Y16253182D01*
X-1446542Y16173529D01*
X-1447800Y16069017D01*
X-1447800Y15825600D01*
X-1625600Y15825600D01*
X-1625600Y16076175D01*
X-1624151Y16196719D01*
X-1618458Y16278658D01*
X-1606509Y16334138D01*
X-1586290Y16375307D01*
X-1572957Y16393675D01*
X-1516935Y16443498D01*
X-1442889Y16460250D01*
X-1425412Y16460600D01*
X-1341280Y16453776D01*
X-1284467Y16427821D01*
X-1248950Y16374514D01*
X-1228710Y16285632D01*
X-1219200Y16178970D01*
X-1208140Y16059870D01*
X-1192388Y15985255D01*
X-1174750Y15958835D01*
X-1159589Y15966809D01*
X-1149784Y16006850D01*
X-1144525Y16085228D01*
X-1143000Y16204484D01*
X-1143000Y16460600D01*
X-965200Y16460600D01*
X-965200Y16196714D01*
G36*
X-3763430Y16456451D02*
G01*
X-3738641Y16435312D01*
X-3733800Y16384400D01*
X-3739291Y16332031D01*
X-3766284Y16311466D01*
X-3817049Y16308200D01*
X-3917724Y16290281D01*
X-3984679Y16239414D01*
X-4012682Y16159933D01*
X-4013200Y16145597D01*
X-3991833Y16056005D01*
X-3928042Y15994095D01*
X-3825851Y15960891D01*
X-3763160Y15944628D01*
X-3737365Y15916115D01*
X-3733800Y15885777D01*
X-3738718Y15849319D01*
X-3762279Y15831587D01*
X-3817694Y15826001D01*
X-3854450Y15825695D01*
X-3965848Y15839326D01*
X-4053325Y15873491D01*
X-4135668Y15951842D01*
X-4180258Y16059055D01*
X-4183733Y16183651D01*
X-4144966Y16298881D01*
X-4066951Y16386605D01*
X-3955855Y16442081D01*
X-3823516Y16460600D01*
X-3763430Y16456451D01*
G37*
X-3763430Y16456451D02*
X-3738641Y16435312D01*
X-3733800Y16384400D01*
X-3739291Y16332031D01*
X-3766284Y16311466D01*
X-3817049Y16308200D01*
X-3917724Y16290281D01*
X-3984679Y16239414D01*
X-4012682Y16159933D01*
X-4013200Y16145597D01*
X-3991833Y16056005D01*
X-3928042Y15994095D01*
X-3825851Y15960891D01*
X-3763160Y15944628D01*
X-3737365Y15916115D01*
X-3733800Y15885777D01*
X-3738718Y15849319D01*
X-3762279Y15831587D01*
X-3817694Y15826001D01*
X-3854450Y15825695D01*
X-3965848Y15839326D01*
X-4053325Y15873491D01*
X-4135668Y15951842D01*
X-4180258Y16059055D01*
X-4183733Y16183651D01*
X-4144966Y16298881D01*
X-4066951Y16386605D01*
X-3955855Y16442081D01*
X-3823516Y16460600D01*
X-3763430Y16456451D01*
G36*
X-3299262Y16454474D02*
G01*
X-3279069Y16425433D01*
X-3276600Y16384400D01*
X-3283092Y16330265D01*
X-3312401Y16310351D01*
X-3347149Y16308200D01*
X-3441822Y16288631D01*
X-3505286Y16234164D01*
X-3530454Y16151165D01*
X-3530600Y16143475D01*
X-3512939Y16054208D01*
X-3457283Y15995349D01*
X-3364684Y15963471D01*
X-3303490Y15945024D01*
X-3279226Y15913209D01*
X-3276600Y15886274D01*
X-3282074Y15848046D01*
X-3307728Y15830686D01*
X-3367416Y15826537D01*
X-3384550Y15826617D01*
X-3471550Y15836400D01*
X-3549453Y15859285D01*
X-3562031Y15865361D01*
X-3640713Y15934634D01*
X-3690571Y16032224D01*
X-3708497Y16142636D01*
X-3691382Y16250378D01*
X-3653336Y16320553D01*
X-3564256Y16397649D01*
X-3448926Y16447333D01*
X-3353616Y16460600D01*
X-3299262Y16454474D01*
G37*
X-3299262Y16454474D02*
X-3279069Y16425433D01*
X-3276600Y16384400D01*
X-3283092Y16330265D01*
X-3312401Y16310351D01*
X-3347149Y16308200D01*
X-3441822Y16288631D01*
X-3505286Y16234164D01*
X-3530454Y16151165D01*
X-3530600Y16143475D01*
X-3512939Y16054208D01*
X-3457283Y15995349D01*
X-3364684Y15963471D01*
X-3303490Y15945024D01*
X-3279226Y15913209D01*
X-3276600Y15886274D01*
X-3282074Y15848046D01*
X-3307728Y15830686D01*
X-3367416Y15826537D01*
X-3384550Y15826617D01*
X-3471550Y15836400D01*
X-3549453Y15859285D01*
X-3562031Y15865361D01*
X-3640713Y15934634D01*
X-3690571Y16032224D01*
X-3708497Y16142636D01*
X-3691382Y16250378D01*
X-3653336Y16320553D01*
X-3564256Y16397649D01*
X-3448926Y16447333D01*
X-3353616Y16460600D01*
X-3299262Y16454474D01*
G36*
X-699789Y16456598D02*
G01*
X-557071Y16439833D01*
X-454645Y16403102D01*
X-384338Y16341667D01*
X-337979Y16250793D01*
X-336309Y16245886D01*
X-319555Y16121888D01*
X-348827Y16003307D01*
X-420530Y15903165D01*
X-434229Y15890955D01*
X-481705Y15856317D01*
X-531809Y15836533D01*
X-600750Y15827621D01*
X-700449Y15825600D01*
X-889000Y15825600D01*
X-889000Y16127683D01*
X-711200Y16127683D01*
X-709682Y16033578D01*
X-703629Y15980987D01*
X-690795Y15960678D01*
X-671023Y15962583D01*
X-614234Y15976539D01*
X-595409Y15978000D01*
X-557163Y15997455D01*
X-518486Y16041315D01*
X-491414Y16120906D01*
X-503323Y16200830D01*
X-547172Y16266748D01*
X-615920Y16304319D01*
X-649515Y16308200D01*
X-681563Y16305416D01*
X-700006Y16289743D01*
X-708593Y16250204D01*
X-711075Y16175822D01*
X-711200Y16127683D01*
X-889000Y16127683D01*
X-889000Y16466153D01*
X-699789Y16456598D01*
G37*
X-699789Y16456598D02*
X-557071Y16439833D01*
X-454645Y16403102D01*
X-384338Y16341667D01*
X-337979Y16250793D01*
X-336309Y16245886D01*
X-319555Y16121888D01*
X-348827Y16003307D01*
X-420530Y15903165D01*
X-434229Y15890955D01*
X-481705Y15856317D01*
X-531809Y15836533D01*
X-600750Y15827621D01*
X-700449Y15825600D01*
X-889000Y15825600D01*
X-889000Y16127683D01*
X-711200Y16127683D01*
X-709682Y16033578D01*
X-703629Y15980987D01*
X-690795Y15960678D01*
X-671023Y15962583D01*
X-614234Y15976539D01*
X-595409Y15978000D01*
X-557163Y15997455D01*
X-518486Y16041315D01*
X-491414Y16120906D01*
X-503323Y16200830D01*
X-547172Y16266748D01*
X-615920Y16304319D01*
X-649515Y16308200D01*
X-681563Y16305416D01*
X-700006Y16289743D01*
X-708593Y16250204D01*
X-711075Y16175822D01*
X-711200Y16127683D01*
X-889000Y16127683D01*
X-889000Y16466153D01*
X-699789Y16456598D01*
G36*
X838200Y16308200D02*
G01*
X683937Y16308200D01*
X598382Y16306306D01*
X553022Y16298484D01*
X537327Y16281523D01*
X538106Y16263750D01*
X559478Y16232826D01*
X615544Y16215866D01*
X660573Y16211182D01*
X766705Y16190906D01*
X831691Y16145147D01*
X860800Y16069069D01*
X863600Y16024864D01*
X853210Y15936743D01*
X817503Y15877544D01*
X749670Y15842623D01*
X642902Y15827334D01*
X571500Y15825600D01*
X474603Y15826392D01*
X417805Y15831144D01*
X390404Y15843423D01*
X381700Y15866797D01*
X381000Y15889100D01*
X384737Y15925777D01*
X404323Y15944688D01*
X452321Y15951673D01*
X517589Y15952600D01*
X616151Y15960024D01*
X675890Y15981071D01*
X683923Y15988439D01*
X700317Y16016878D01*
X687453Y16036678D01*
X637828Y16052670D01*
X562463Y16066657D01*
X481929Y16089021D01*
X416583Y16122361D01*
X403713Y16133087D01*
X362218Y16207094D01*
X361106Y16294015D01*
X399479Y16377156D01*
X417945Y16398255D01*
X458141Y16431903D01*
X504425Y16450810D01*
X572440Y16459018D01*
X659245Y16460600D01*
X838200Y16460600D01*
X838200Y16308200D01*
G37*
X838200Y16308200D02*
X683937Y16308200D01*
X598382Y16306306D01*
X553022Y16298484D01*
X537327Y16281523D01*
X538106Y16263750D01*
X559478Y16232826D01*
X615544Y16215866D01*
X660573Y16211182D01*
X766705Y16190906D01*
X831691Y16145147D01*
X860800Y16069069D01*
X863600Y16024864D01*
X853210Y15936743D01*
X817503Y15877544D01*
X749670Y15842623D01*
X642902Y15827334D01*
X571500Y15825600D01*
X474603Y15826392D01*
X417805Y15831144D01*
X390404Y15843423D01*
X381700Y15866797D01*
X381000Y15889100D01*
X384737Y15925777D01*
X404323Y15944688D01*
X452321Y15951673D01*
X517589Y15952600D01*
X616151Y15960024D01*
X675890Y15981071D01*
X683923Y15988439D01*
X700317Y16016878D01*
X687453Y16036678D01*
X637828Y16052670D01*
X562463Y16066657D01*
X481929Y16089021D01*
X416583Y16122361D01*
X403713Y16133087D01*
X362218Y16207094D01*
X361106Y16294015D01*
X399479Y16377156D01*
X417945Y16398255D01*
X458141Y16431903D01*
X504425Y16450810D01*
X572440Y16459018D01*
X659245Y16460600D01*
X838200Y16460600D01*
X838200Y16308200D01*
G36*
X1317983Y16456095D02*
G01*
X1341901Y16433748D01*
X1346200Y16385934D01*
X1340699Y16335834D01*
X1314161Y16312730D01*
X1253473Y16303384D01*
X1162645Y16276305D01*
X1100931Y16219451D01*
X1076509Y16143210D01*
X1084375Y16088583D01*
X1112760Y16036999D01*
X1166835Y16000456D01*
X1226936Y15978000D01*
X1301546Y15949155D01*
X1337427Y15919139D01*
X1346066Y15882750D01*
X1340089Y15846702D01*
X1312813Y15830491D01*
X1250558Y15827070D01*
X1238250Y15827211D01*
X1156492Y15833315D01*
X1088462Y15846452D01*
X1076658Y15850494D01*
X996434Y15908052D01*
X940888Y15997115D01*
X912935Y16103284D01*
X915492Y16212159D01*
X951476Y16309342D01*
X976926Y16342850D01*
X1080457Y16422256D01*
X1206138Y16457917D01*
X1258953Y16460600D01*
X1317983Y16456095D01*
G37*
X1317983Y16456095D02*
X1341901Y16433748D01*
X1346200Y16385934D01*
X1340699Y16335834D01*
X1314161Y16312730D01*
X1253473Y16303384D01*
X1162645Y16276305D01*
X1100931Y16219451D01*
X1076509Y16143210D01*
X1084375Y16088583D01*
X1112760Y16036999D01*
X1166835Y16000456D01*
X1226936Y15978000D01*
X1301546Y15949155D01*
X1337427Y15919139D01*
X1346066Y15882750D01*
X1340089Y15846702D01*
X1312813Y15830491D01*
X1250558Y15827070D01*
X1238250Y15827211D01*
X1156492Y15833315D01*
X1088462Y15846452D01*
X1076658Y15850494D01*
X996434Y15908052D01*
X940888Y15997115D01*
X912935Y16103284D01*
X915492Y16212159D01*
X951476Y16309342D01*
X976926Y16342850D01*
X1080457Y16422256D01*
X1206138Y16457917D01*
X1258953Y16460600D01*
X1317983Y16456095D01*
G36*
X1574800Y16333600D02*
G01*
X1577065Y16258029D01*
X1587807Y16220322D01*
X1612947Y16207608D01*
X1633220Y16206600D01*
X1702614Y16223663D01*
X1741399Y16277457D01*
X1752600Y16364081D01*
X1755653Y16426969D01*
X1774363Y16454096D01*
X1823055Y16460483D01*
X1844645Y16460600D01*
X1936690Y16460600D01*
X1924998Y16319611D01*
X1910303Y16226569D01*
X1886113Y16157393D01*
X1872478Y16137793D01*
X1846758Y16103513D01*
X1849801Y16065971D01*
X1868977Y16024783D01*
X1905672Y15974452D01*
X1942727Y15952627D01*
X1943752Y15952600D01*
X1973657Y15930396D01*
X1981200Y15887640D01*
X1976958Y15847159D01*
X1954911Y15829980D01*
X1901073Y15828676D01*
X1873583Y15830490D01*
X1804824Y15840143D01*
X1760641Y15865277D01*
X1721846Y15919193D01*
X1706580Y15946250D01*
X1655549Y16023722D01*
X1615457Y16053032D01*
X1588150Y16034268D01*
X1575475Y15967521D01*
X1574800Y15939900D01*
X1572902Y15869670D01*
X1560040Y15836413D01*
X1525460Y15826306D01*
X1485900Y15825600D01*
X1397000Y15825600D01*
X1397000Y16460600D01*
X1574800Y16460600D01*
X1574800Y16333600D01*
G37*
X1574800Y16333600D02*
X1577065Y16258029D01*
X1587807Y16220322D01*
X1612947Y16207608D01*
X1633220Y16206600D01*
X1702614Y16223663D01*
X1741399Y16277457D01*
X1752600Y16364081D01*
X1755653Y16426969D01*
X1774363Y16454096D01*
X1823055Y16460483D01*
X1844645Y16460600D01*
X1936690Y16460600D01*
X1924998Y16319611D01*
X1910303Y16226569D01*
X1886113Y16157393D01*
X1872478Y16137793D01*
X1846758Y16103513D01*
X1849801Y16065971D01*
X1868977Y16024783D01*
X1905672Y15974452D01*
X1942727Y15952627D01*
X1943752Y15952600D01*
X1973657Y15930396D01*
X1981200Y15887640D01*
X1976958Y15847159D01*
X1954911Y15829980D01*
X1901073Y15828676D01*
X1873583Y15830490D01*
X1804824Y15840143D01*
X1760641Y15865277D01*
X1721846Y15919193D01*
X1706580Y15946250D01*
X1655549Y16023722D01*
X1615457Y16053032D01*
X1588150Y16034268D01*
X1575475Y15967521D01*
X1574800Y15939900D01*
X1572902Y15869670D01*
X1560040Y15836413D01*
X1525460Y15826306D01*
X1485900Y15825600D01*
X1397000Y15825600D01*
X1397000Y16460600D01*
X1574800Y16460600D01*
X1574800Y16333600D01*
G36*
X3378200Y16308200D02*
G01*
X3223937Y16308200D01*
X3138383Y16306307D01*
X3093025Y16298485D01*
X3077333Y16281526D01*
X3078116Y16263750D01*
X3098076Y16233839D01*
X3150726Y16217241D01*
X3206499Y16211578D01*
X3309839Y16189553D01*
X3373667Y16137008D01*
X3401618Y16050232D01*
X3403600Y16010449D01*
X3391388Y15927774D01*
X3350689Y15872111D01*
X3275403Y15839601D01*
X3159432Y15826385D01*
X3111500Y15825600D01*
X3014603Y15826392D01*
X2957805Y15831144D01*
X2930404Y15843423D01*
X2921700Y15866797D01*
X2921000Y15889100D01*
X2924737Y15925777D01*
X2944323Y15944688D01*
X2992321Y15951673D01*
X3057589Y15952600D01*
X3156151Y15960024D01*
X3215890Y15981071D01*
X3223923Y15988439D01*
X3240306Y16016923D01*
X3227716Y16036795D01*
X3178823Y16052437D01*
X3091802Y16067408D01*
X2986642Y16098234D01*
X2923046Y16155538D01*
X2896818Y16243734D01*
X2895600Y16273909D01*
X2914038Y16358495D01*
X2971005Y16416802D01*
X3068982Y16450330D01*
X3203825Y16460600D01*
X3378200Y16460600D01*
X3378200Y16308200D01*
G37*
X3378200Y16308200D02*
X3223937Y16308200D01*
X3138383Y16306307D01*
X3093025Y16298485D01*
X3077333Y16281526D01*
X3078116Y16263750D01*
X3098076Y16233839D01*
X3150726Y16217241D01*
X3206499Y16211578D01*
X3309839Y16189553D01*
X3373667Y16137008D01*
X3401618Y16050232D01*
X3403600Y16010449D01*
X3391388Y15927774D01*
X3350689Y15872111D01*
X3275403Y15839601D01*
X3159432Y15826385D01*
X3111500Y15825600D01*
X3014603Y15826392D01*
X2957805Y15831144D01*
X2930404Y15843423D01*
X2921700Y15866797D01*
X2921000Y15889100D01*
X2924737Y15925777D01*
X2944323Y15944688D01*
X2992321Y15951673D01*
X3057589Y15952600D01*
X3156151Y15960024D01*
X3215890Y15981071D01*
X3223923Y15988439D01*
X3240306Y16016923D01*
X3227716Y16036795D01*
X3178823Y16052437D01*
X3091802Y16067408D01*
X2986642Y16098234D01*
X2923046Y16155538D01*
X2896818Y16243734D01*
X2895600Y16273909D01*
X2914038Y16358495D01*
X2971005Y16416802D01*
X3068982Y16450330D01*
X3203825Y16460600D01*
X3378200Y16460600D01*
X3378200Y16308200D01*
G36*
X3670305Y16456533D02*
G01*
X3771561Y16449510D01*
X3837996Y16437464D01*
X3885591Y16415140D01*
X3930324Y16377286D01*
X3939777Y16367946D01*
X4006013Y16271373D01*
X4034439Y16161207D01*
X4026372Y16050035D01*
X3983131Y15950444D01*
X3906031Y15875019D01*
X3887031Y15864130D01*
X3812252Y15840790D01*
X3706567Y15827505D01*
X3646161Y15825600D01*
X3479800Y15825600D01*
X3479800Y16130400D01*
X3632200Y16130400D01*
X3635304Y16042771D01*
X3643476Y15979270D01*
X3654998Y15952742D01*
X3655946Y15952600D01*
X3695086Y15960963D01*
X3750679Y15979590D01*
X3819121Y16016033D01*
X3852025Y16068295D01*
X3860411Y16148010D01*
X3838282Y16229364D01*
X3778463Y16286251D01*
X3692099Y16308190D01*
X3690048Y16308200D01*
X3659782Y16304806D01*
X3642456Y16287275D01*
X3634481Y16244586D01*
X3632274Y16165715D01*
X3632200Y16130400D01*
X3479800Y16130400D01*
X3479800Y16466153D01*
X3670305Y16456533D01*
G37*
X3670305Y16456533D02*
X3771561Y16449510D01*
X3837996Y16437464D01*
X3885591Y16415140D01*
X3930324Y16377286D01*
X3939777Y16367946D01*
X4006013Y16271373D01*
X4034439Y16161207D01*
X4026372Y16050035D01*
X3983131Y15950444D01*
X3906031Y15875019D01*
X3887031Y15864130D01*
X3812252Y15840790D01*
X3706567Y15827505D01*
X3646161Y15825600D01*
X3479800Y15825600D01*
X3479800Y16130400D01*
X3632200Y16130400D01*
X3635304Y16042771D01*
X3643476Y15979270D01*
X3654998Y15952742D01*
X3655946Y15952600D01*
X3695086Y15960963D01*
X3750679Y15979590D01*
X3819121Y16016033D01*
X3852025Y16068295D01*
X3860411Y16148010D01*
X3838282Y16229364D01*
X3778463Y16286251D01*
X3692099Y16308190D01*
X3690048Y16308200D01*
X3659782Y16304806D01*
X3642456Y16287275D01*
X3634481Y16244586D01*
X3632274Y16165715D01*
X3632200Y16130400D01*
X3479800Y16130400D01*
X3479800Y16466153D01*
X3670305Y16456533D01*
G36*
X4366445Y16455535D02*
G01*
X4406889Y16450742D01*
X4438490Y16439382D01*
X4465752Y16414301D01*
X4493184Y16368345D01*
X4525291Y16294360D01*
X4566580Y16185191D01*
X4607249Y16073250D01*
X4696806Y15825600D01*
X4599265Y15825600D01*
X4530412Y15832033D01*
X4496704Y15855771D01*
X4488440Y15876400D01*
X4471604Y15907523D01*
X4433236Y15922780D01*
X4359599Y15927167D01*
X4348740Y15927200D01*
X4270377Y15923706D01*
X4228798Y15909891D01*
X4210263Y15880761D01*
X4209040Y15876400D01*
X4186686Y15840799D01*
X4135440Y15826732D01*
X4101760Y15825600D01*
X4041155Y15829221D01*
X4020360Y15844261D01*
X4025706Y15870050D01*
X4041801Y15912104D01*
X4070555Y15989197D01*
X4107248Y16088632D01*
X4110354Y16097108D01*
X4296778Y16097108D01*
X4312801Y16081991D01*
X4352210Y16079601D01*
X4356100Y16079600D01*
X4403023Y16090381D01*
X4417667Y16111350D01*
X4408175Y16155401D01*
X4387547Y16220914D01*
X4384624Y16229110D01*
X4353514Y16315120D01*
X4323057Y16213463D01*
X4301183Y16136937D01*
X4296778Y16097108D01*
X4110354Y16097108D01*
X4131620Y16155122D01*
X4171692Y16260639D01*
X4208380Y16349984D01*
X4236565Y16411051D01*
X4247572Y16429456D01*
X4292906Y16451490D01*
X4365656Y16455600D01*
X4366445Y16455535D01*
G37*
X4366445Y16455535D02*
X4406889Y16450742D01*
X4438490Y16439382D01*
X4465752Y16414301D01*
X4493184Y16368345D01*
X4525291Y16294360D01*
X4566580Y16185191D01*
X4607249Y16073250D01*
X4696806Y15825600D01*
X4599265Y15825600D01*
X4530412Y15832033D01*
X4496704Y15855771D01*
X4488440Y15876400D01*
X4471604Y15907523D01*
X4433236Y15922780D01*
X4359599Y15927167D01*
X4348740Y15927200D01*
X4270377Y15923706D01*
X4228798Y15909891D01*
X4210263Y15880761D01*
X4209040Y15876400D01*
X4186686Y15840799D01*
X4135440Y15826732D01*
X4101760Y15825600D01*
X4041155Y15829221D01*
X4020360Y15844261D01*
X4025706Y15870050D01*
X4041801Y15912104D01*
X4070555Y15989197D01*
X4107248Y16088632D01*
X4110354Y16097108D01*
X4296778Y16097108D01*
X4312801Y16081991D01*
X4352210Y16079601D01*
X4356100Y16079600D01*
X4403023Y16090381D01*
X4417667Y16111350D01*
X4408175Y16155401D01*
X4387547Y16220914D01*
X4384624Y16229110D01*
X4353514Y16315120D01*
X4323057Y16213463D01*
X4301183Y16136937D01*
X4296778Y16097108D01*
X4110354Y16097108D01*
X4131620Y16155122D01*
X4171692Y16260639D01*
X4208380Y16349984D01*
X4236565Y16411051D01*
X4247572Y16429456D01*
X4292906Y16451490D01*
X4365656Y16455600D01*
X4366445Y16455535D01*
G36*
X-18084800Y19229200D02*
G01*
X-18313400Y19229200D01*
X-18313400Y18975200D01*
X-18770600Y18975200D01*
X-18770600Y19229200D01*
X-18542000Y19229200D01*
X-18542000Y19432400D01*
X-18084800Y19432400D01*
X-18084800Y19229200D01*
G37*
X-18084800Y19229200D02*
X-18313400Y19229200D01*
X-18313400Y18975200D01*
X-18770600Y18975200D01*
X-18770600Y19229200D01*
X-18542000Y19229200D01*
X-18542000Y19432400D01*
X-18084800Y19432400D01*
X-18084800Y19229200D01*
G36*
X-18542000Y19432400D02*
G01*
X-18770600Y19432400D01*
X-18770600Y19661000D01*
X-18542000Y19661000D01*
X-18542000Y19432400D01*
G37*
X-18542000Y19432400D02*
X-18770600Y19432400D01*
X-18770600Y19661000D01*
X-18542000Y19661000D01*
X-18542000Y19432400D01*
G36*
X5133482Y-24294304D02*
G01*
X5222142Y-24337926D01*
X5287213Y-24417423D01*
X5296045Y-24433680D01*
X5328911Y-24542420D01*
X5325849Y-24657462D01*
X5290560Y-24764079D01*
X5226743Y-24847542D01*
X5184862Y-24876212D01*
X5109775Y-24901424D01*
X5017655Y-24915155D01*
X4992361Y-24916000D01*
X4876800Y-24916000D01*
X4876800Y-24281000D01*
X5010848Y-24281000D01*
X5133482Y-24294304D01*
G37*
X5133482Y-24294304D02*
X5222142Y-24337926D01*
X5287213Y-24417423D01*
X5296045Y-24433680D01*
X5328911Y-24542420D01*
X5325849Y-24657462D01*
X5290560Y-24764079D01*
X5226743Y-24847542D01*
X5184862Y-24876212D01*
X5109775Y-24901424D01*
X5017655Y-24915155D01*
X4992361Y-24916000D01*
X4876800Y-24916000D01*
X4876800Y-24281000D01*
X5010848Y-24281000D01*
X5133482Y-24294304D01*
G36*
X-1357847Y-20527181D02*
G01*
X-1223427Y-20553802D01*
X-1126914Y-20610547D01*
X-1062679Y-20701362D01*
X-1045340Y-20746312D01*
X-1025294Y-20828121D01*
X-1028962Y-20898398D01*
X-1045340Y-20957687D01*
X-1098635Y-21062692D01*
X-1182037Y-21132105D01*
X-1301176Y-21169871D01*
X-1357847Y-21176818D01*
X-1498600Y-21188490D01*
X-1498600Y-20515509D01*
X-1357847Y-20527181D01*
G37*
X-1357847Y-20527181D02*
X-1223427Y-20553802D01*
X-1126914Y-20610547D01*
X-1062679Y-20701362D01*
X-1045340Y-20746312D01*
X-1025294Y-20828121D01*
X-1028962Y-20898398D01*
X-1045340Y-20957687D01*
X-1098635Y-21062692D01*
X-1182037Y-21132105D01*
X-1301176Y-21169871D01*
X-1357847Y-21176818D01*
X-1498600Y-21188490D01*
X-1498600Y-20515509D01*
X-1357847Y-20527181D01*
G36*
X11261792Y-20528790D02*
G01*
X11349426Y-20542672D01*
X11422528Y-20562568D01*
X11449333Y-20574706D01*
X11523198Y-20648650D01*
X11569745Y-20754047D01*
X11582400Y-20852000D01*
X11560756Y-20980538D01*
X11498795Y-21080908D01*
X11400973Y-21148944D01*
X11271748Y-21180478D01*
X11229311Y-21182200D01*
X11125200Y-21182200D01*
X11125200Y-20514692D01*
X11261792Y-20528790D01*
G37*
X11261792Y-20528790D02*
X11349426Y-20542672D01*
X11422528Y-20562568D01*
X11449333Y-20574706D01*
X11523198Y-20648650D01*
X11569745Y-20754047D01*
X11582400Y-20852000D01*
X11560756Y-20980538D01*
X11498795Y-21080908D01*
X11400973Y-21148944D01*
X11271748Y-21180478D01*
X11229311Y-21182200D01*
X11125200Y-21182200D01*
X11125200Y-20514692D01*
X11261792Y-20528790D01*
G36*
X-12444064Y-20721957D02*
G01*
X-12389453Y-20782249D01*
X-12369800Y-20868195D01*
X-12389773Y-20958329D01*
X-12442701Y-21017972D01*
X-12518102Y-21040292D01*
X-12602606Y-21019917D01*
X-12645221Y-20984324D01*
X-12665681Y-20922434D01*
X-12669558Y-20886278D01*
X-12660655Y-20787273D01*
X-12617106Y-20724963D01*
X-12539470Y-20700064D01*
X-12524323Y-20699600D01*
X-12444064Y-20721957D01*
G37*
X-12444064Y-20721957D02*
X-12389453Y-20782249D01*
X-12369800Y-20868195D01*
X-12389773Y-20958329D01*
X-12442701Y-21017972D01*
X-12518102Y-21040292D01*
X-12602606Y-21019917D01*
X-12645221Y-20984324D01*
X-12665681Y-20922434D01*
X-12669558Y-20886278D01*
X-12660655Y-20787273D01*
X-12617106Y-20724963D01*
X-12539470Y-20700064D01*
X-12524323Y-20699600D01*
X-12444064Y-20721957D01*
G36*
X-13087347Y-20716462D02*
G01*
X-13056494Y-20748730D01*
X-13036080Y-20792765D01*
X-13041169Y-20816008D01*
X-13080321Y-20825079D01*
X-13157200Y-20826600D01*
X-13242166Y-20821059D01*
X-13280893Y-20803849D01*
X-13284200Y-20793579D01*
X-13263056Y-20741452D01*
X-13211411Y-20708901D01*
X-13146947Y-20699410D01*
X-13087347Y-20716462D01*
G37*
X-13087347Y-20716462D02*
X-13056494Y-20748730D01*
X-13036080Y-20792765D01*
X-13041169Y-20816008D01*
X-13080321Y-20825079D01*
X-13157200Y-20826600D01*
X-13242166Y-20821059D01*
X-13280893Y-20803849D01*
X-13284200Y-20793579D01*
X-13263056Y-20741452D01*
X-13211411Y-20708901D01*
X-13146947Y-20699410D01*
X-13087347Y-20716462D01*
G36*
X-11844295Y-20503218D02*
G01*
X-11743872Y-20531386D01*
X-11680803Y-20581919D01*
X-11654618Y-20644186D01*
X-11664848Y-20707556D01*
X-11711023Y-20761400D01*
X-11792674Y-20795085D01*
X-11857451Y-20801200D01*
X-11963400Y-20801200D01*
X-11963400Y-20489793D01*
X-11844295Y-20503218D01*
G37*
X-11844295Y-20503218D02*
X-11743872Y-20531386D01*
X-11680803Y-20581919D01*
X-11654618Y-20644186D01*
X-11664848Y-20707556D01*
X-11711023Y-20761400D01*
X-11792674Y-20795085D01*
X-11857451Y-20801200D01*
X-11963400Y-20801200D01*
X-11963400Y-20489793D01*
X-11844295Y-20503218D01*
G36*
X-10170538Y-20704560D02*
G01*
X-10128548Y-20732026D01*
X-10124618Y-20739777D01*
X-10111820Y-20788581D01*
X-10126916Y-20814853D01*
X-10178440Y-20825231D01*
X-10236200Y-20826600D01*
X-10308667Y-20824013D01*
X-10354649Y-20817400D01*
X-10363200Y-20812230D01*
X-10352533Y-20780759D01*
X-10336907Y-20748730D01*
X-10295559Y-20713791D01*
X-10233156Y-20698775D01*
X-10170538Y-20704560D01*
G37*
X-10170538Y-20704560D02*
X-10128548Y-20732026D01*
X-10124618Y-20739777D01*
X-10111820Y-20788581D01*
X-10126916Y-20814853D01*
X-10178440Y-20825231D01*
X-10236200Y-20826600D01*
X-10308667Y-20824013D01*
X-10354649Y-20817400D01*
X-10363200Y-20812230D01*
X-10352533Y-20780759D01*
X-10336907Y-20748730D01*
X-10295559Y-20713791D01*
X-10233156Y-20698775D01*
X-10170538Y-20704560D01*
G36*
X-18008600Y-17270600D02*
G01*
X-18262600Y-17270600D01*
X-18262600Y-16991200D01*
X-18008600Y-16991200D01*
X-18008600Y-17270600D01*
G37*
X-18008600Y-17270600D02*
X-18262600Y-17270600D01*
X-18262600Y-16991200D01*
X-18008600Y-16991200D01*
X-18008600Y-17270600D01*
G36*
X13385800Y-17702400D02*
G01*
X13106400Y-17702400D01*
X13106400Y-17448400D01*
X13385800Y-17448400D01*
X13385800Y-17702400D01*
G37*
X13385800Y-17702400D02*
X13106400Y-17702400D01*
X13106400Y-17448400D01*
X13385800Y-17448400D01*
X13385800Y-17702400D01*
G36*
X13919200Y-17702400D02*
G01*
X13639800Y-17702400D01*
X13639800Y-17448400D01*
X13919200Y-17448400D01*
X13919200Y-17702400D01*
G37*
X13919200Y-17702400D02*
X13639800Y-17702400D01*
X13639800Y-17448400D01*
X13919200Y-17448400D01*
X13919200Y-17702400D01*
G36*
X14427200Y-17702400D02*
G01*
X14173200Y-17702400D01*
X14173200Y-17448400D01*
X14427200Y-17448400D01*
X14427200Y-17702400D01*
G37*
X14427200Y-17702400D02*
X14173200Y-17702400D01*
X14173200Y-17448400D01*
X14427200Y-17448400D01*
X14427200Y-17702400D01*
G36*
X14706600Y-17448400D02*
G01*
X14427200Y-17448400D01*
X14427200Y-17194400D01*
X14706600Y-17194400D01*
X14706600Y-17448400D01*
G37*
X14706600Y-17448400D02*
X14427200Y-17448400D01*
X14427200Y-17194400D01*
X14706600Y-17194400D01*
X14706600Y-17448400D01*
G36*
X13639800Y-17448400D02*
G01*
X13385800Y-17448400D01*
X13385800Y-17194400D01*
X13639800Y-17194400D01*
X13639800Y-17448400D01*
G37*
X13639800Y-17448400D02*
X13385800Y-17448400D01*
X13385800Y-17194400D01*
X13639800Y-17194400D01*
X13639800Y-17448400D01*
G36*
X14173200Y-17448400D02*
G01*
X13919200Y-17448400D01*
X13919200Y-17194400D01*
X14173200Y-17194400D01*
X14173200Y-17448400D01*
G37*
X14173200Y-17448400D02*
X13919200Y-17448400D01*
X13919200Y-17194400D01*
X14173200Y-17194400D01*
X14173200Y-17448400D01*
G36*
X17068800Y-17702400D02*
G01*
X16814800Y-17702400D01*
X16814800Y-17448400D01*
X17068800Y-17448400D01*
X17068800Y-17702400D01*
G37*
X17068800Y-17702400D02*
X16814800Y-17702400D01*
X16814800Y-17448400D01*
X17068800Y-17448400D01*
X17068800Y-17702400D01*
G36*
X16002000Y-17702400D02*
G01*
X15748000Y-17702400D01*
X15748000Y-17448400D01*
X16002000Y-17448400D01*
X16002000Y-17702400D01*
G37*
X16002000Y-17702400D02*
X15748000Y-17702400D01*
X15748000Y-17448400D01*
X16002000Y-17448400D01*
X16002000Y-17702400D01*
G36*
X16535400Y-17702400D02*
G01*
X16281400Y-17702400D01*
X16281400Y-17448400D01*
X16535400Y-17448400D01*
X16535400Y-17702400D01*
G37*
X16535400Y-17702400D02*
X16281400Y-17702400D01*
X16281400Y-17448400D01*
X16535400Y-17448400D01*
X16535400Y-17702400D01*
G36*
X16814800Y-17448400D02*
G01*
X16535400Y-17448400D01*
X16535400Y-17194400D01*
X16814800Y-17194400D01*
X16814800Y-17448400D01*
G37*
X16814800Y-17448400D02*
X16535400Y-17448400D01*
X16535400Y-17194400D01*
X16814800Y-17194400D01*
X16814800Y-17448400D01*
G36*
X15748000Y-17448400D02*
G01*
X15494000Y-17448400D01*
X15494000Y-17194400D01*
X15748000Y-17194400D01*
X15748000Y-17448400D01*
G37*
X15748000Y-17448400D02*
X15494000Y-17448400D01*
X15494000Y-17194400D01*
X15748000Y-17194400D01*
X15748000Y-17448400D01*
G36*
X16281400Y-17448400D02*
G01*
X16002000Y-17448400D01*
X16002000Y-17194400D01*
X16281400Y-17194400D01*
X16281400Y-17448400D01*
G37*
X16281400Y-17448400D02*
X16002000Y-17448400D01*
X16002000Y-17194400D01*
X16281400Y-17194400D01*
X16281400Y-17448400D01*
G36*
X15214600Y-17448400D02*
G01*
X14960600Y-17448400D01*
X14960600Y-17194400D01*
X15214600Y-17194400D01*
X15214600Y-17448400D01*
G37*
X15214600Y-17448400D02*
X14960600Y-17448400D01*
X14960600Y-17194400D01*
X15214600Y-17194400D01*
X15214600Y-17448400D01*
G36*
X16535400Y-16407000D02*
G01*
X13639800Y-16407000D01*
X13639800Y-15086200D01*
X16535400Y-15086200D01*
X16535400Y-16407000D01*
G37*
X16535400Y-16407000D02*
X13639800Y-16407000D01*
X13639800Y-15086200D01*
X16535400Y-15086200D01*
X16535400Y-16407000D01*
G36*
X5037370Y-16628649D02*
G01*
X5149406Y-16678082D01*
X5217053Y-16733437D01*
X5253628Y-16803612D01*
X5273698Y-16900359D01*
X5275095Y-17001514D01*
X5255650Y-17084912D01*
X5252153Y-17092037D01*
X5180535Y-17178162D01*
X5077462Y-17240668D01*
X4960385Y-17269684D01*
X4936543Y-17270600D01*
X4826000Y-17270600D01*
X4826000Y-16610200D01*
X4915715Y-16610200D01*
X5037370Y-16628649D01*
G37*
X5037370Y-16628649D02*
X5149406Y-16678082D01*
X5217053Y-16733437D01*
X5253628Y-16803612D01*
X5273698Y-16900359D01*
X5275095Y-17001514D01*
X5255650Y-17084912D01*
X5252153Y-17092037D01*
X5180535Y-17178162D01*
X5077462Y-17240668D01*
X4960385Y-17269684D01*
X4936543Y-17270600D01*
X4826000Y-17270600D01*
X4826000Y-16610200D01*
X4915715Y-16610200D01*
X5037370Y-16628649D01*
G36*
X6074140Y-16989726D02*
G01*
X6099272Y-17014333D01*
X6141240Y-17090467D01*
X6135240Y-17163911D01*
X6107259Y-17214148D01*
X6051120Y-17255254D01*
X5970345Y-17272630D01*
X5885574Y-17265584D01*
X5817445Y-17233429D01*
X5807836Y-17224149D01*
X5774399Y-17161910D01*
X5765800Y-17113786D01*
X5787583Y-17040535D01*
X5843484Y-16987276D01*
X5919327Y-16958237D01*
X6000937Y-16957644D01*
X6074140Y-16989726D01*
G37*
X6074140Y-16989726D02*
X6099272Y-17014333D01*
X6141240Y-17090467D01*
X6135240Y-17163911D01*
X6107259Y-17214148D01*
X6051120Y-17255254D01*
X5970345Y-17272630D01*
X5885574Y-17265584D01*
X5817445Y-17233429D01*
X5807836Y-17224149D01*
X5774399Y-17161910D01*
X5765800Y-17113786D01*
X5787583Y-17040535D01*
X5843484Y-16987276D01*
X5919327Y-16958237D01*
X6000937Y-16957644D01*
X6074140Y-16989726D01*
G36*
X18618200Y-3961000D02*
G01*
X18364200Y-3961000D01*
X18364200Y-3707000D01*
X18618200Y-3707000D01*
X18618200Y-3961000D01*
G37*
X18618200Y-3961000D02*
X18364200Y-3961000D01*
X18364200Y-3707000D01*
X18618200Y-3707000D01*
X18618200Y-3961000D01*
G36*
X6556721Y3961425D02*
G01*
X6573511Y3953368D01*
X6665594Y3887711D01*
X6748546Y3798704D01*
X6803726Y3706553D01*
X6805584Y3701797D01*
X6831358Y3581534D01*
X6829964Y3445124D01*
X6804463Y3308529D01*
X6757915Y3187709D01*
X6693380Y3098625D01*
X6689207Y3094819D01*
X6566832Y3018345D01*
X6424170Y2981165D01*
X6275404Y2985252D01*
X6158449Y3020944D01*
X6034873Y3102873D01*
X5944221Y3215809D01*
X5888673Y3350319D01*
X5870414Y3496966D01*
X5891624Y3646315D01*
X5954486Y3788933D01*
X5974021Y3818326D01*
X6058195Y3897371D01*
X6174179Y3954724D01*
X6306347Y3986864D01*
X6439070Y3990271D01*
X6556721Y3961425D01*
G37*
X6556721Y3961425D02*
X6573511Y3953368D01*
X6665594Y3887711D01*
X6748546Y3798704D01*
X6803726Y3706553D01*
X6805584Y3701797D01*
X6831358Y3581534D01*
X6829964Y3445124D01*
X6804463Y3308529D01*
X6757915Y3187709D01*
X6693380Y3098625D01*
X6689207Y3094819D01*
X6566832Y3018345D01*
X6424170Y2981165D01*
X6275404Y2985252D01*
X6158449Y3020944D01*
X6034873Y3102873D01*
X5944221Y3215809D01*
X5888673Y3350319D01*
X5870414Y3496966D01*
X5891624Y3646315D01*
X5954486Y3788933D01*
X5974021Y3818326D01*
X6058195Y3897371D01*
X6174179Y3954724D01*
X6306347Y3986864D01*
X6439070Y3990271D01*
X6556721Y3961425D01*
G36*
X-5103031Y3984256D02*
G01*
X-5008308Y3942011D01*
X-4976447Y3914954D01*
X-4902200Y3840708D01*
X-4902200Y3494185D01*
X-4904058Y3362792D01*
X-4909144Y3246674D01*
X-4916730Y3156847D01*
X-4926087Y3104326D01*
X-4928353Y3098794D01*
X-4990279Y3032133D01*
X-5081579Y2990441D01*
X-5184847Y2978885D01*
X-5270500Y2997213D01*
X-5330420Y3028155D01*
X-5372921Y3069789D01*
X-5401238Y3130915D01*
X-5418602Y3220335D01*
X-5428248Y3346849D01*
X-5431430Y3435275D01*
X-5433497Y3560607D01*
X-5432709Y3672467D01*
X-5429319Y3758131D01*
X-5424053Y3803153D01*
X-5377920Y3894586D01*
X-5300557Y3957366D01*
X-5204687Y3988315D01*
X-5103031Y3984256D01*
G37*
X-5103031Y3984256D02*
X-5008308Y3942011D01*
X-4976447Y3914954D01*
X-4902200Y3840708D01*
X-4902200Y3494185D01*
X-4904058Y3362792D01*
X-4909144Y3246674D01*
X-4916730Y3156847D01*
X-4926087Y3104326D01*
X-4928353Y3098794D01*
X-4990279Y3032133D01*
X-5081579Y2990441D01*
X-5184847Y2978885D01*
X-5270500Y2997213D01*
X-5330420Y3028155D01*
X-5372921Y3069789D01*
X-5401238Y3130915D01*
X-5418602Y3220335D01*
X-5428248Y3346849D01*
X-5431430Y3435275D01*
X-5433497Y3560607D01*
X-5432709Y3672467D01*
X-5429319Y3758131D01*
X-5424053Y3803153D01*
X-5377920Y3894586D01*
X-5300557Y3957366D01*
X-5204687Y3988315D01*
X-5103031Y3984256D01*
G36*
X-3726238Y3459631D02*
G01*
X-3643350Y3432336D01*
X-3579035Y3368949D01*
X-3539480Y3282645D01*
X-3530874Y3186598D01*
X-3556753Y3098794D01*
X-3618626Y3032613D01*
X-3711014Y2991019D01*
X-3818353Y2977217D01*
X-3925076Y2994410D01*
X-3969921Y3013742D01*
X-4046073Y3080471D01*
X-4083504Y3169043D01*
X-4080441Y3266435D01*
X-4035108Y3359625D01*
X-4019550Y3377985D01*
X-3961453Y3427297D01*
X-3892255Y3453850D01*
X-3797046Y3461794D01*
X-3726238Y3459631D01*
G37*
X-3726238Y3459631D02*
X-3643350Y3432336D01*
X-3579035Y3368949D01*
X-3539480Y3282645D01*
X-3530874Y3186598D01*
X-3556753Y3098794D01*
X-3618626Y3032613D01*
X-3711014Y2991019D01*
X-3818353Y2977217D01*
X-3925076Y2994410D01*
X-3969921Y3013742D01*
X-4046073Y3080471D01*
X-4083504Y3169043D01*
X-4080441Y3266435D01*
X-4035108Y3359625D01*
X-4019550Y3377985D01*
X-3961453Y3427297D01*
X-3892255Y3453850D01*
X-3797046Y3461794D01*
X-3726238Y3459631D01*
G36*
X306235Y3390498D02*
G01*
X426452Y3372623D01*
X516610Y3325894D01*
X568999Y3254706D01*
X574320Y3237706D01*
X574429Y3148879D01*
X533699Y3073648D01*
X461335Y3016854D01*
X366538Y2983342D01*
X258511Y2977955D01*
X146457Y3005534D01*
X139084Y3008657D01*
X59361Y3066715D01*
X19771Y3148045D01*
X25473Y3241569D01*
X27599Y3247993D01*
X80621Y3327335D01*
X172431Y3375150D01*
X301300Y3390553D01*
X306235Y3390498D01*
G37*
X306235Y3390498D02*
X426452Y3372623D01*
X516610Y3325894D01*
X568999Y3254706D01*
X574320Y3237706D01*
X574429Y3148879D01*
X533699Y3073648D01*
X461335Y3016854D01*
X366538Y2983342D01*
X258511Y2977955D01*
X146457Y3005534D01*
X139084Y3008657D01*
X59361Y3066715D01*
X19771Y3148045D01*
X25473Y3241569D01*
X27599Y3247993D01*
X80621Y3327335D01*
X172431Y3375150D01*
X301300Y3390553D01*
X306235Y3390498D01*
G36*
X411430Y3976824D02*
G01*
X489521Y3938523D01*
X528093Y3872543D01*
X533400Y3824504D01*
X511034Y3736022D01*
X448118Y3672212D01*
X350917Y3638031D01*
X292100Y3633600D01*
X177100Y3653103D01*
X117725Y3686244D01*
X63047Y3756847D01*
X52709Y3838522D01*
X87361Y3916905D01*
X106389Y3937411D01*
X165015Y3973285D01*
X249121Y3988108D01*
X291237Y3989200D01*
X411430Y3976824D01*
G37*
X411430Y3976824D02*
X489521Y3938523D01*
X528093Y3872543D01*
X533400Y3824504D01*
X511034Y3736022D01*
X448118Y3672212D01*
X350917Y3638031D01*
X292100Y3633600D01*
X177100Y3653103D01*
X117725Y3686244D01*
X63047Y3756847D01*
X52709Y3838522D01*
X87361Y3916905D01*
X106389Y3937411D01*
X165015Y3973285D01*
X249121Y3988108D01*
X291237Y3989200D01*
X411430Y3976824D01*
G36*
X3013241Y3458007D02*
G01*
X3109100Y3417518D01*
X3138054Y3393455D01*
X3185957Y3313292D01*
X3201629Y3213543D01*
X3182403Y3115937D01*
X3174247Y3098794D01*
X3112374Y3032613D01*
X3019986Y2991019D01*
X2912647Y2977217D01*
X2805924Y2994410D01*
X2761079Y3013742D01*
X2684927Y3080471D01*
X2647496Y3169043D01*
X2650559Y3266435D01*
X2695892Y3359625D01*
X2711450Y3377985D01*
X2797465Y3437626D01*
X2903712Y3464505D01*
X3013241Y3458007D01*
G37*
X3013241Y3458007D02*
X3109100Y3417518D01*
X3138054Y3393455D01*
X3185957Y3313292D01*
X3201629Y3213543D01*
X3182403Y3115937D01*
X3174247Y3098794D01*
X3112374Y3032613D01*
X3019986Y2991019D01*
X2912647Y2977217D01*
X2805924Y2994410D01*
X2761079Y3013742D01*
X2684927Y3080471D01*
X2647496Y3169043D01*
X2650559Y3266435D01*
X2695892Y3359625D01*
X2711450Y3377985D01*
X2797465Y3437626D01*
X2903712Y3464505D01*
X3013241Y3458007D01*
G36*
X10170372Y3953404D02*
G01*
X10286104Y3918682D01*
X10381889Y3854337D01*
X10431729Y3803556D01*
X10500815Y3688904D01*
X10534744Y3551678D01*
X10532926Y3406532D01*
X10494766Y3268121D01*
X10456231Y3197415D01*
X10375931Y3107466D01*
X10272284Y3047588D01*
X10135976Y3013426D01*
X10042859Y3003963D01*
X9855200Y2991920D01*
X9855200Y3963800D01*
X10021115Y3963800D01*
X10170372Y3953404D01*
G37*
X10170372Y3953404D02*
X10286104Y3918682D01*
X10381889Y3854337D01*
X10431729Y3803556D01*
X10500815Y3688904D01*
X10534744Y3551678D01*
X10532926Y3406532D01*
X10494766Y3268121D01*
X10456231Y3197415D01*
X10375931Y3107466D01*
X10272284Y3047588D01*
X10135976Y3013426D01*
X10042859Y3003963D01*
X9855200Y2991920D01*
X9855200Y3963800D01*
X10021115Y3963800D01*
X10170372Y3953404D01*
G36*
X-19797768Y7339556D02*
G01*
X-19768871Y7322448D01*
X-19761445Y7276009D01*
X-19761200Y7240400D01*
X-19763645Y7175368D01*
X-19780753Y7146471D01*
X-19827192Y7139045D01*
X-19862800Y7138800D01*
X-19927833Y7141245D01*
X-19956730Y7158353D01*
X-19964156Y7204792D01*
X-19964400Y7240400D01*
X-19961956Y7305433D01*
X-19944848Y7334330D01*
X-19898409Y7341756D01*
X-19862800Y7342000D01*
X-19797768Y7339556D01*
G37*
X-19797768Y7339556D02*
X-19768871Y7322448D01*
X-19761445Y7276009D01*
X-19761200Y7240400D01*
X-19763645Y7175368D01*
X-19780753Y7146471D01*
X-19827192Y7139045D01*
X-19862800Y7138800D01*
X-19927833Y7141245D01*
X-19956730Y7158353D01*
X-19964156Y7204792D01*
X-19964400Y7240400D01*
X-19961956Y7305433D01*
X-19944848Y7334330D01*
X-19898409Y7341756D01*
X-19862800Y7342000D01*
X-19797768Y7339556D01*
M02*
